<svg xmlns="http://www.w3.org/2000/svg" viewBox="0 0 1190.55 1190.55"><defs><style>.cls-1{fill:#005685;}.cls-2,.cls-3,.cls-4{fill:none;stroke-miterlimit:10;}.cls-2{stroke:#fae926;}.cls-3{stroke:#d4810e;}.cls-4{stroke:#932614;}</style></defs><title>886397_01</title><g id="Livello_1" data-name="Livello 1"><rect class="cls-1" width="1190.55" height="1190.55"/></g><g id="_4x4" data-name="4x4"><rect class="cls-2" x="61" y="64.77" width="239.53" height="239.53"/><rect class="cls-2" x="337.34" y="64.77" width="239.53" height="239.53"/><rect class="cls-2" x="613.68" y="64.77" width="239.53" height="239.53"/><rect class="cls-2" x="890.02" y="341.11" width="239.53" height="239.53"/><rect class="cls-2" x="61" y="341.11" width="239.53" height="239.53"/><rect class="cls-2" x="337.34" y="341.11" width="239.53" height="239.53"/><rect class="cls-2" x="613.68" y="341.11" width="239.53" height="239.53"/><rect class="cls-2" x="890.02" y="617.39" width="239.53" height="239.53"/><rect class="cls-2" x="61" y="617.39" width="239.53" height="239.53"/><rect class="cls-2" x="337.34" y="617.39" width="239.53" height="239.53"/><rect class="cls-2" x="613.68" y="617.39" width="239.53" height="239.53"/><rect class="cls-2" x="890.02" y="893.73" width="239.53" height="239.53"/><rect class="cls-2" x="61" y="893.73" width="239.53" height="239.53"/><rect class="cls-2" x="337.34" y="893.73" width="239.53" height="239.53"/><rect class="cls-2" x="613.68" y="893.73" width="239.53" height="239.53"/><rect class="cls-2" x="890.02" y="64.77" width="239.53" height="239.53"/></g><g id="_5x5" data-name="5x5"><rect class="cls-3" x="60.98" y="64.77" width="184.25" height="184.25"/><rect class="cls-3" x="282.04" y="64.77" width="184.25" height="184.25"/><rect class="cls-3" x="503.11" y="64.77" width="184.25" height="184.25"/><rect class="cls-3" x="724.17" y="64.77" width="184.25" height="184.25"/><rect class="cls-3" x="945.24" y="64.77" width="184.25" height="184.25"/><rect class="cls-3" x="61" y="285.83" width="184.25" height="184.25"/><rect class="cls-3" x="282.06" y="285.83" width="184.25" height="184.25"/><rect class="cls-3" x="503.13" y="285.83" width="184.25" height="184.25"/><rect class="cls-3" x="724.19" y="285.83" width="184.25" height="184.25"/><rect class="cls-3" x="945.25" y="285.83" width="184.25" height="184.25"/><rect class="cls-3" x="61.01" y="506.89" width="184.25" height="184.25"/><rect class="cls-3" x="282.07" y="506.89" width="184.25" height="184.25"/><rect class="cls-3" x="503.14" y="506.89" width="184.25" height="184.25"/><rect class="cls-3" x="724.2" y="506.89" width="184.25" height="184.25"/><rect class="cls-3" x="945.26" y="506.89" width="184.25" height="184.25"/><rect class="cls-3" x="61.02" y="727.96" width="184.25" height="184.25"/><rect class="cls-3" x="282.08" y="727.96" width="184.25" height="184.25"/><rect class="cls-3" x="503.14" y="727.96" width="184.25" height="184.25"/><rect class="cls-3" x="724.21" y="727.96" width="184.25" height="184.25"/><rect class="cls-3" x="945.27" y="727.96" width="184.25" height="184.25"/><rect class="cls-3" x="61.03" y="949.02" width="184.25" height="184.25"/><rect class="cls-3" x="282.09" y="949.02" width="184.25" height="184.25"/><rect class="cls-3" x="503.15" y="949.02" width="184.25" height="184.25"/><rect class="cls-3" x="724.22" y="949.02" width="184.25" height="184.25"/><rect class="cls-3" x="945.28" y="949.02" width="184.25" height="184.25"/></g><g id="_6x6" data-name="6x6"><rect class="cls-4" x="61" y="64.77" width="147.4" height="147.4"/><rect class="cls-4" x="245.21" y="64.77" width="147.4" height="147.4"/><rect class="cls-4" x="429.43" y="64.77" width="147.4" height="147.4"/><rect class="cls-4" x="613.64" y="64.77" width="147.4" height="147.4"/><rect class="cls-4" x="797.85" y="64.77" width="147.4" height="147.4"/><rect class="cls-4" x="982.07" y="64.77" width="147.4" height="147.4"/><rect class="cls-4" x="60.4" y="248.98" width="147.4" height="147.4"/><rect class="cls-4" x="244.62" y="248.98" width="147.4" height="147.4"/><rect class="cls-4" x="428.83" y="248.98" width="147.4" height="147.4"/><rect class="cls-4" x="613.05" y="248.98" width="147.4" height="147.4"/><rect class="cls-4" x="797.26" y="248.98" width="147.4" height="147.4"/><rect class="cls-4" x="981.47" y="248.98" width="147.4" height="147.4"/><rect class="cls-4" x="60.81" y="433.19" width="147.4" height="147.4"/><rect class="cls-4" x="245.02" y="433.19" width="147.4" height="147.4"/><rect class="cls-4" x="429.24" y="433.19" width="147.4" height="147.4"/><rect class="cls-4" x="613.45" y="433.19" width="147.4" height="147.4"/><rect class="cls-4" x="797.67" y="433.19" width="147.4" height="147.4"/><rect class="cls-4" x="981.88" y="433.19" width="147.4" height="147.4"/><rect class="cls-4" x="61.04" y="617.41" width="147.4" height="147.4"/><rect class="cls-4" x="245.25" y="617.41" width="147.4" height="147.4"/><rect class="cls-4" x="429.47" y="617.41" width="147.4" height="147.4"/><rect class="cls-4" x="613.68" y="617.41" width="147.4" height="147.4"/><rect class="cls-4" x="797.9" y="617.41" width="147.4" height="147.4"/><rect class="cls-4" x="982.11" y="617.41" width="147.4" height="147.4"/><rect class="cls-4" x="61.04" y="801.62" width="147.4" height="147.4"/><rect class="cls-4" x="245.25" y="801.62" width="147.4" height="147.4"/><rect class="cls-4" x="429.47" y="801.62" width="147.4" height="147.4"/><rect class="cls-4" x="613.68" y="801.62" width="147.4" height="147.4"/><rect class="cls-4" x="797.9" y="801.62" width="147.4" height="147.4"/><rect class="cls-4" x="982.11" y="801.62" width="147.4" height="147.4"/><rect class="cls-4" x="61.04" y="985.84" width="147.4" height="147.4"/><rect class="cls-4" x="245.25" y="985.84" width="147.4" height="147.4"/><rect class="cls-4" x="429.47" y="985.84" width="147.4" height="147.4"/><rect class="cls-4" x="613.68" y="985.84" width="147.4" height="147.4"/><rect class="cls-4" x="797.9" y="985.84" width="147.4" height="147.4"/><rect class="cls-4" x="982.11" y="985.84" width="147.4" height="147.4"/></g></svg>