<svg xmlns="http://www.w3.org/2000/svg" xmlns:xlink="http://www.w3.org/1999/xlink" viewBox="0 0 2793.45 1868.25"><defs><style>.cls-1,.cls-4,.cls-5,.cls-6{fill:none;}.cls-2{fill:#005685;}.cls-3{clip-path:url(#clip-path);}.cls-4{stroke:#932614;}.cls-4,.cls-5,.cls-6{stroke-miterlimit:10;}.cls-5{stroke:#d4810e;}.cls-6{stroke:#fae926;}</style><clipPath id="clip-path" transform="translate(757.45 677.7)"><rect class="cls-1" x="61.04" y="64.77" width="239.49" height="239.53"/></clipPath></defs><title>886397_04</title><g id="Livello_1" data-name="Livello 1"><rect class="cls-2" x="757.45" y="677.7" width="1190.55" height="1190.55"/></g><g id="imma"><g class="cls-3"><rect class="cls-1" width="2793.45" height="1868.25"/></g></g><g id="_6x6" data-name="6x6"><rect class="cls-4" x="818.45" y="742.47" width="147.4" height="147.4"/><rect class="cls-4" x="1002.66" y="742.47" width="147.4" height="147.4"/><rect class="cls-4" x="1186.87" y="742.47" width="147.4" height="147.4"/><rect class="cls-4" x="1371.09" y="742.47" width="147.4" height="147.4"/><rect class="cls-4" x="1555.3" y="742.47" width="147.4" height="147.4"/><rect class="cls-4" x="1739.52" y="742.47" width="147.4" height="147.4"/><rect class="cls-4" x="817.85" y="926.68" width="147.4" height="147.4"/><rect class="cls-4" x="1002.07" y="926.68" width="147.4" height="147.4"/><rect class="cls-4" x="1186.28" y="926.68" width="147.4" height="147.4"/><rect class="cls-4" x="1370.49" y="926.68" width="147.4" height="147.4"/><rect class="cls-4" x="1554.71" y="926.68" width="147.4" height="147.4"/><rect class="cls-4" x="1738.92" y="926.68" width="147.4" height="147.4"/><rect class="cls-4" x="818.26" y="1110.89" width="147.4" height="147.4"/><rect class="cls-4" x="1002.47" y="1110.89" width="147.4" height="147.4"/><rect class="cls-4" x="1186.69" y="1110.89" width="147.4" height="147.4"/><rect class="cls-4" x="1370.9" y="1110.89" width="147.4" height="147.4"/><rect class="cls-4" x="1555.11" y="1110.89" width="147.4" height="147.4"/><rect class="cls-4" x="1739.33" y="1110.89" width="147.4" height="147.4"/><rect class="cls-4" x="818.49" y="1295.11" width="147.4" height="147.4"/><rect class="cls-4" x="1002.7" y="1295.11" width="147.4" height="147.4"/><rect class="cls-4" x="1186.92" y="1295.11" width="147.4" height="147.4"/><rect class="cls-4" x="1371.13" y="1295.11" width="147.4" height="147.4"/><rect class="cls-4" x="1555.34" y="1295.11" width="147.4" height="147.4"/><rect class="cls-4" x="1739.56" y="1295.11" width="147.4" height="147.4"/><rect class="cls-4" x="818.49" y="1479.32" width="147.4" height="147.4"/><rect class="cls-4" x="1002.7" y="1479.32" width="147.4" height="147.4"/><rect class="cls-4" x="1186.92" y="1479.32" width="147.4" height="147.4"/><rect class="cls-4" x="1371.13" y="1479.32" width="147.4" height="147.4"/><rect class="cls-4" x="1555.34" y="1479.32" width="147.4" height="147.4"/><rect class="cls-4" x="1739.56" y="1479.32" width="147.4" height="147.4"/><rect class="cls-4" x="818.49" y="1663.54" width="147.4" height="147.4"/><rect class="cls-4" x="1002.7" y="1663.54" width="147.4" height="147.4"/><rect class="cls-4" x="1186.92" y="1663.54" width="147.4" height="147.4"/><rect class="cls-4" x="1371.13" y="1663.54" width="147.4" height="147.4"/><rect class="cls-4" x="1555.34" y="1663.54" width="147.4" height="147.4"/><rect class="cls-4" x="1739.56" y="1663.54" width="147.4" height="147.4"/></g><g id="_5x5" data-name="5x5"><rect class="cls-5" x="818.43" y="742.47" width="184.25" height="184.25"/><rect class="cls-5" x="1039.49" y="742.47" width="184.25" height="184.25"/><rect class="cls-5" x="1260.56" y="742.47" width="184.25" height="184.25"/><rect class="cls-5" x="1481.62" y="742.47" width="184.25" height="184.25"/><rect class="cls-5" x="1702.68" y="742.47" width="184.25" height="184.25"/><rect class="cls-5" x="818.45" y="963.53" width="184.25" height="184.25"/><rect class="cls-5" x="1039.51" y="963.53" width="184.25" height="184.25"/><rect class="cls-5" x="1260.57" y="963.53" width="184.25" height="184.25"/><rect class="cls-5" x="1481.64" y="963.53" width="184.25" height="184.25"/><rect class="cls-5" x="1702.7" y="963.53" width="184.25" height="184.25"/><rect class="cls-5" x="818.46" y="1184.59" width="184.25" height="184.25"/><rect class="cls-5" x="1039.52" y="1184.59" width="184.25" height="184.25"/><rect class="cls-5" x="1260.58" y="1184.59" width="184.25" height="184.25"/><rect class="cls-5" x="1481.65" y="1184.59" width="184.25" height="184.25"/><rect class="cls-5" x="1702.71" y="1184.59" width="184.25" height="184.25"/><rect class="cls-5" x="818.46" y="1405.66" width="184.25" height="184.25"/><rect class="cls-5" x="1039.53" y="1405.66" width="184.25" height="184.25"/><rect class="cls-5" x="1260.59" y="1405.66" width="184.25" height="184.25"/><rect class="cls-5" x="1481.66" y="1405.66" width="184.25" height="184.25"/><rect class="cls-5" x="1702.72" y="1405.66" width="184.25" height="184.25"/><rect class="cls-5" x="818.47" y="1626.72" width="184.25" height="184.25"/><rect class="cls-5" x="1039.54" y="1626.72" width="184.25" height="184.25"/><rect class="cls-5" x="1260.6" y="1626.72" width="184.25" height="184.25"/><rect class="cls-5" x="1481.67" y="1626.72" width="184.25" height="184.25"/><rect class="cls-5" x="1702.73" y="1626.72" width="184.25" height="184.25"/></g><g id="_4x4" data-name="4x4"><rect class="cls-6" x="818.45" y="742.47" width="239.53" height="239.53"/><rect class="cls-6" x="1094.79" y="742.47" width="239.53" height="239.53"/><rect class="cls-6" x="1371.13" y="742.47" width="239.53" height="239.53"/><rect class="cls-6" x="1647.47" y="1018.81" width="239.53" height="239.53"/><rect class="cls-6" x="818.45" y="1018.81" width="239.53" height="239.53"/><rect class="cls-6" x="1094.79" y="1018.81" width="239.53" height="239.53"/><rect class="cls-6" x="1371.13" y="1018.81" width="239.53" height="239.53"/><rect class="cls-6" x="1647.47" y="1295.09" width="239.53" height="239.53"/><rect class="cls-6" x="818.45" y="1295.09" width="239.53" height="239.53"/><rect class="cls-6" x="1094.79" y="1295.09" width="239.53" height="239.53"/><rect class="cls-6" x="1371.13" y="1295.09" width="239.53" height="239.53"/><rect class="cls-6" x="1647.47" y="1571.43" width="239.53" height="239.53"/><rect class="cls-6" x="818.45" y="1571.43" width="239.53" height="239.53"/><rect class="cls-6" x="1094.79" y="1571.43" width="239.53" height="239.53"/><rect class="cls-6" x="1371.13" y="1571.43" width="239.53" height="239.53"/><rect class="cls-6" x="1647.47" y="742.47" width="239.53" height="239.53"/></g></svg>