<svg xmlns="http://www.w3.org/2000/svg" xmlns:xlink="http://www.w3.org/1999/xlink" viewBox="0 0 1190.55 1190.55"><defs><style>.cls-1{fill:#cbbba0;}.cls-2,.cls-3,.cls-4{fill:none;stroke-miterlimit:10;}.cls-2{stroke:#6496c8;}.cls-3{stroke:#96c864;}.cls-4{stroke:#9664c8;}</style></defs><title>886457_03</title><g id="Livello_1" data-name="Livello 1"><g id="Livello_2" data-name="Livello 2"><rect class="cls-1" x="0.55" y="1.47" width="1190.38" height="1190.38"/></g></g><g id="Livello_2-2" data-name="Livello 2"><g id="Livello_2-3" data-name="Livello 2"><rect class="cls-2" x="54.94" y="63.94" width="239.53" height="239.53"/><rect class="cls-2" x="331.32" y="63.94" width="239.53" height="239.53"/><rect class="cls-2" x="331.32" y="340.32" width="239.53" height="239.53"/><rect class="cls-2" x="54.94" y="340.32" width="239.53" height="239.53"/><rect class="cls-2" x="54.94" y="616.7" width="239.53" height="239.53"/><rect class="cls-2" x="331.32" y="616.7" width="239.53" height="239.53"/><rect class="cls-2" x="331.32" y="893.08" width="239.53" height="239.53"/><rect class="cls-2" x="54.94" y="893.08" width="239.53" height="239.53"/><rect class="cls-2" x="607.7" y="63.94" width="239.53" height="239.53"/><rect class="cls-2" x="884.08" y="63.94" width="239.53" height="239.53"/><rect class="cls-2" x="884.08" y="340.32" width="239.53" height="239.53"/><rect class="cls-2" x="607.7" y="340.32" width="239.53" height="239.53"/><rect class="cls-2" x="607.7" y="616.7" width="239.53" height="239.53"/><rect class="cls-2" x="884.08" y="616.7" width="239.53" height="239.53"/><rect class="cls-2" x="884.08" y="893.08" width="239.53" height="239.53"/><rect class="cls-2" x="607.7" y="893.08" width="239.53" height="239.53"/></g><g id="Livello_3" data-name="Livello 3"><rect class="cls-3" x="54.94" y="63.94" width="184.25" height="184.25"/><rect class="cls-3" x="276.05" y="63.94" width="184.25" height="184.25"/><rect class="cls-3" x="54.94" y="285.05" width="184.25" height="184.25"/><rect class="cls-3" x="276.04" y="285.05" width="184.25" height="184.25"/><rect class="cls-3" x="497.15" y="63.94" width="184.25" height="184.25"/><rect class="cls-3" x="718.25" y="63.94" width="184.25" height="184.25"/><rect class="cls-3" x="497.15" y="285.05" width="184.25" height="184.25"/><rect class="cls-3" x="718.25" y="285.05" width="184.25" height="184.25"/><rect class="cls-3" x="54.94" y="506.15" width="184.25" height="184.25"/><rect class="cls-3" x="276.05" y="506.15" width="184.25" height="184.25"/><rect class="cls-3" x="54.94" y="727.25" width="184.25" height="184.25"/><rect class="cls-3" x="276.05" y="727.25" width="184.25" height="184.25"/><rect class="cls-3" x="497.15" y="506.15" width="184.25" height="184.25"/><rect class="cls-3" x="718.25" y="506.15" width="184.25" height="184.25"/><rect class="cls-3" x="497.15" y="727.25" width="184.25" height="184.25"/><rect class="cls-3" x="718.25" y="727.25" width="184.25" height="184.25"/><rect class="cls-3" x="939.35" y="63.94" width="184.25" height="184.25"/><rect class="cls-3" x="939.35" y="285.05" width="184.25" height="184.25"/><rect class="cls-3" x="939.36" y="506.15" width="184.25" height="184.25"/><rect class="cls-3" x="939.35" y="727.25" width="184.25" height="184.25"/><rect class="cls-3" x="54.94" y="948.35" width="184.25" height="184.25"/><rect class="cls-3" x="276.04" y="948.35" width="184.25" height="184.25"/><rect class="cls-3" x="497.15" y="948.35" width="184.25" height="184.25"/><rect class="cls-3" x="718.25" y="948.35" width="184.25" height="184.25"/><rect class="cls-3" x="939.35" y="948.35" width="184.25" height="184.25"/></g><g id="Livello_4" data-name="Livello 4"><rect class="cls-4" x="54.94" y="63.94" width="147.4" height="147.4"/><rect class="cls-4" x="239.2" y="63.94" width="147.4" height="147.4"/><rect class="cls-4" x="54.94" y="248.2" width="147.4" height="147.4"/><rect class="cls-4" x="239.2" y="248.2" width="147.4" height="147.4"/><rect class="cls-4" x="423.45" y="63.94" width="147.4" height="147.4"/><rect class="cls-4" x="607.7" y="63.94" width="147.4" height="147.4"/><rect class="cls-4" x="423.45" y="248.2" width="147.4" height="147.4"/><rect class="cls-4" x="607.7" y="248.2" width="147.4" height="147.4"/><rect class="cls-4" x="54.95" y="432.45" width="147.4" height="147.4"/><rect class="cls-4" x="239.2" y="432.45" width="147.4" height="147.4"/><rect class="cls-4" x="54.94" y="616.7" width="147.4" height="147.4"/><rect class="cls-4" x="239.2" y="616.7" width="147.4" height="147.4"/><rect class="cls-4" x="423.45" y="432.45" width="147.4" height="147.4"/><rect class="cls-4" x="607.7" y="432.45" width="147.4" height="147.4"/><rect class="cls-4" x="423.45" y="616.7" width="147.4" height="147.4"/><rect class="cls-4" x="607.7" y="616.7" width="147.4" height="147.4"/><rect class="cls-4" x="54.94" y="800.95" width="147.4" height="147.4"/><rect class="cls-4" x="239.2" y="800.95" width="147.4" height="147.4"/><rect class="cls-4" x="54.94" y="985.21" width="147.4" height="147.4"/><rect class="cls-4" x="239.2" y="985.21" width="147.4" height="147.4"/><rect class="cls-4" x="423.45" y="800.95" width="147.4" height="147.4"/><rect class="cls-4" x="607.7" y="800.95" width="147.4" height="147.4"/><rect class="cls-4" x="423.45" y="985.2" width="147.4" height="147.4"/><rect class="cls-4" x="607.7" y="985.2" width="147.4" height="147.4"/><rect class="cls-4" x="791.95" y="63.94" width="147.4" height="147.4"/><rect class="cls-4" x="976.2" y="63.94" width="147.4" height="147.4"/><rect class="cls-4" x="791.95" y="248.2" width="147.4" height="147.4"/><rect class="cls-4" x="976.2" y="248.2" width="147.4" height="147.4"/><rect class="cls-4" x="791.95" y="432.45" width="147.4" height="147.4"/><rect class="cls-4" x="976.2" y="432.45" width="147.4" height="147.4"/><rect class="cls-4" x="791.95" y="616.7" width="147.4" height="147.4"/><rect class="cls-4" x="976.2" y="616.7" width="147.4" height="147.4"/><rect class="cls-4" x="791.95" y="800.95" width="147.4" height="147.4"/><rect class="cls-4" x="976.2" y="800.95" width="147.4" height="147.4"/><rect class="cls-4" x="791.95" y="985.2" width="147.4" height="147.4"/><rect class="cls-4" x="976.2" y="985.2" width="147.4" height="147.4"/></g></g><g id="Livello_3-2" data-name="Livello 3"><image width="4032" height="3024" transform="matrix(0, 0.17, -0.17, 0, 571.44, 432.77)" xlink:href="886457_03.JPG"/></g></svg>