<?xml version="1.0" encoding="utf-8"?>
<!-- Generator: Adobe Illustrator 22.1.0, SVG Export Plug-In . SVG Version: 6.00 Build 0)  -->
<svg version="1.1" id="Livello_1" xmlns="http://www.w3.org/2000/svg" xmlns:xlink="http://www.w3.org/1999/xlink" x="0px" y="0px"
	 viewBox="0 0 1190.6 1190.6" style="enable-background:new 0 0 1190.6 1190.6;" xml:space="preserve">
<style type="text/css">
	.st0{fill:#CCCCCC;}
	.st1{fill:none;stroke:#000000;stroke-miterlimit:10;}
	.st2{fill:none;stroke:#FF0000;stroke-miterlimit:10;}
	.st3{fill:none;stroke:#1CA300;stroke-miterlimit:10;}
	.st4{fill:none;}
	.st5{clip-path:url(#SVGID_2_);}
	.st6{clip-path:url(#SVGID_4_);}
	.st7{clip-path:url(#SVGID_6_);}
	.st8{font-family:'OpenSansCondensed-Bold';}
	.st9{font-size:60px;}
	.st10{font-family:'OpenSans-Light';}
	.st11{font-size:16px;}
	.st12{letter-spacing:2;}
	.st13{letter-spacing:3;}
	.st14{letter-spacing:1;}
	.st15{letter-spacing:4;}
	.st16{font-family:'EBGaramond-Italic';}
	.st17{font-size:10px;}
</style>
<title>887812_04</title>
<g>
	<rect y="0" class="st0" width="1190.6" height="1190.6"/>
	<rect x="61.3" y="66.8" class="st1" width="239.5" height="239.5"/>
	<rect x="614" y="66.8" class="st1" width="239.5" height="239.5"/>
	<rect x="889.8" y="66.8" class="st1" width="239.5" height="239.5"/>
	<rect x="337.7" y="66.8" class="st1" width="239.5" height="239.5"/>
	<rect x="61.3" y="339.3" class="st1" width="239.5" height="239.5"/>
	<rect x="614" y="339.3" class="st1" width="239.5" height="239.5"/>
	<rect x="889.8" y="339.3" class="st1" width="239.5" height="239.5"/>
	<rect x="337.7" y="339.3" class="st1" width="239.5" height="239.5"/>
	<rect x="61.3" y="611.8" class="st1" width="239.5" height="239.5"/>
	<rect x="613.7" y="611.8" class="st1" width="239.5" height="239.5"/>
	<rect x="889.8" y="609.8" class="st1" width="239.5" height="239.5"/>
	<rect x="337.7" y="609.8" class="st1" width="239.5" height="239.5"/>
	<rect x="61.3" y="884.3" class="st1" width="239.5" height="239.5"/>
	<rect x="614" y="884.3" class="st1" width="239.5" height="239.5"/>
	<rect x="889.8" y="884.3" class="st1" width="239.5" height="239.5"/>
	<rect x="336.6" y="884.3" class="st1" width="239.5" height="239.5"/>
	<rect x="60" y="64.8" class="st2" width="184.2" height="184.2"/>
	<rect x="282" y="64.8" class="st2" width="184.2" height="184.2"/>
	<rect x="503.1" y="64.8" class="st2" width="184.3" height="184.2"/>
	<rect x="724.3" y="64.8" class="st2" width="184.2" height="184.2"/>
	<rect x="943.8" y="64.8" class="st2" width="184.2" height="184.2"/>
	<rect x="60" y="503.1" class="st2" width="184.2" height="184.3"/>
	<rect x="282" y="503.1" class="st2" width="184.2" height="184.3"/>
	<rect x="503.1" y="503.1" class="st2" width="184.3" height="184.3"/>
	<rect x="724.3" y="503.1" class="st2" width="184.2" height="184.3"/>
	<rect x="943.8" y="503.1" class="st2" width="184.2" height="184.3"/>
	<rect x="61.3" y="720.4" class="st2" width="184.2" height="184.2"/>
	<rect x="283.3" y="720.4" class="st2" width="184.2" height="184.2"/>
	<rect x="504.4" y="720.4" class="st2" width="184.2" height="184.2"/>
	<rect x="725.5" y="720.4" class="st2" width="184.2" height="184.2"/>
	<rect x="945" y="720.4" class="st2" width="184.2" height="184.2"/>
	<rect x="61.3" y="284" class="st2" width="184.2" height="184.2"/>
	<rect x="283.3" y="284" class="st2" width="184.2" height="184.2"/>
	<rect x="504.4" y="284" class="st2" width="184.2" height="184.2"/>
	<rect x="725.5" y="284" class="st2" width="184.2" height="184.2"/>
	<rect x="945" y="284" class="st2" width="184.2" height="184.2"/>
	<rect x="61.3" y="937.6" class="st2" width="184.2" height="184.2"/>
	<rect x="283.3" y="937.6" class="st2" width="184.2" height="184.2"/>
	<rect x="504.4" y="937.6" class="st2" width="184.2" height="184.2"/>
	<rect x="725.5" y="937.6" class="st2" width="184.2" height="184.2"/>
	<rect x="945" y="937.6" class="st2" width="184.2" height="184.2"/>
	<rect x="61.3" y="974.5" class="st3" width="147.4" height="147.4"/>
	<rect x="246.8" y="974.5" class="st3" width="147.4" height="147.4"/>
	<rect x="430.7" y="974.5" class="st3" width="147.4" height="147.4"/>
	<rect x="614.2" y="974.5" class="st3" width="147.4" height="147.4"/>
	<rect x="798" y="974.5" class="st3" width="147.4" height="147.4"/>
	<rect x="981.9" y="974.5" class="st3" width="147.4" height="147.4"/>
	<rect x="61.3" y="790.2" class="st3" width="147.4" height="147.4"/>
	<rect x="246.8" y="790.2" class="st3" width="147.4" height="147.4"/>
	<rect x="430.7" y="790.2" class="st3" width="147.4" height="147.4"/>
	<rect x="614.2" y="790.2" class="st3" width="147.4" height="147.4"/>
	<rect x="798" y="790.2" class="st3" width="147.4" height="147.4"/>
	<rect x="981.9" y="790.2" class="st3" width="147.4" height="147.4"/>
	<rect x="60" y="64.8" class="st3" width="147.4" height="147.4"/>
	<rect x="245.5" y="64.8" class="st3" width="147.4" height="147.4"/>
	<rect x="429.5" y="64.8" class="st3" width="147.4" height="147.4"/>
	<rect x="612.9" y="64.8" class="st3" width="147.4" height="147.4"/>
	<rect x="796.8" y="64.8" class="st3" width="147.4" height="147.4"/>
	<rect x="980.6" y="64.8" class="st3" width="147.4" height="147.4"/>
	<rect x="60" y="249.1" class="st3" width="147.4" height="147.4"/>
	<rect x="245.5" y="249.1" class="st3" width="147.4" height="147.4"/>
	<rect x="429.5" y="249.1" class="st3" width="147.4" height="147.4"/>
	<rect x="612.9" y="249.1" class="st3" width="147.4" height="147.4"/>
	<rect x="796.8" y="249.1" class="st3" width="147.4" height="147.4"/>
	<rect x="980.6" y="249.1" class="st3" width="147.4" height="147.4"/>
	<rect x="60" y="429.5" class="st3" width="147.4" height="147.4"/>
	<rect x="245.5" y="429.5" class="st3" width="147.4" height="147.4"/>
	<rect x="429.5" y="429.5" class="st3" width="147.4" height="147.4"/>
	<rect x="612.9" y="429.5" class="st3" width="147.4" height="147.4"/>
	<rect x="796.8" y="429.5" class="st3" width="147.4" height="147.4"/>
	<rect x="980.6" y="429.5" class="st3" width="147.4" height="147.4"/>
	<rect x="61.3" y="609.8" class="st3" width="147.4" height="147.4"/>
	<rect x="246.8" y="609.8" class="st3" width="147.4" height="147.4"/>
	<rect x="430.7" y="609.8" class="st3" width="147.4" height="147.4"/>
	<rect x="614.2" y="609.8" class="st3" width="147.4" height="147.4"/>
	<rect x="798" y="609.8" class="st3" width="147.4" height="147.4"/>
	<rect x="981.9" y="609.8" class="st3" width="147.4" height="147.4"/>
	<rect x="60.5" y="64.8" class="st4" width="660.7" height="242.9"/>
	<g>
		<g>
			<g>
				<defs>
					<rect id="SVGID_1_" x="337.7" y="64.8" width="240.5" height="243.2"/>
				</defs>
				<clipPath id="SVGID_2_">
					<use xlink:href="#SVGID_1_"  style="overflow:visible;"/>
				</clipPath>
				<g class="st5">
					<g>
						<g>
							<g>
								<defs>
									<rect id="SVGID_3_" x="60.5" y="65.1" width="660.7" height="242.9"/>
								</defs>
								<clipPath id="SVGID_4_">
									<use xlink:href="#SVGID_3_"  style="overflow:visible;"/>
								</clipPath>
								<g class="st6">
									
										<image style="overflow:visible;enable-background:new    ;" width="2541" height="1012" xlink:href="887812_03.estensione.jpg"  transform="matrix(0.2574 0 0 0.2558 63.8221 56.1469)">
									</image>
								</g>
							</g>
						</g>
					</g>
				</g>
			</g>
		</g>
		<g>
			<g>
				<defs>
					<circle id="SVGID_5_" cx="967.9" cy="226.2" r="161.4"/>
				</defs>
				<clipPath id="SVGID_6_">
					<use xlink:href="#SVGID_5_"  style="overflow:visible;"/>
				</clipPath>
				<g class="st7">
					
						<image style="overflow:visible;enable-background:new    ;" width="550" height="548" xlink:href="887812_05.estensione.jpg"  transform="matrix(0.75 0 0 0.75 721.2 64.8)">
					</image>
				</g>
			</g>
		</g>
	</g>
</g>
<rect x="60" y="513" class="st4" width="757.6" height="65.8"/>
<text transform="matrix(1 0 0 1 60 558.6216)" class="st8 st9">Esercitazione grafica vettoriale</text>
<rect x="61.3" y="611.8" class="st4" width="276.4" height="511.6"/>
<text transform="matrix(1 0 0 1 61.2998 623.9601)"><tspan x="0" y="0" class="st10 st11">Lorem</tspan><tspan x="46.7" y="0" class="st10 st11"> </tspan><tspan x="51" y="0" class="st10 st11">ipsum</tspan><tspan x="95.1" y="0" class="st10 st11"> </tspan><tspan x="99.4" y="0" class="st10 st11">dolor</tspan><tspan x="137.5" y="0" class="st10 st11"> </tspan><tspan x="141.7" y="0" class="st10 st11">sit</tspan><tspan x="158.2" y="0" class="st10 st11"> </tspan><tspan x="162.4" y="0" class="st10 st11">amet,</tspan><tspan x="202.6" y="0" class="st10 st11"> </tspan><tspan x="206.9" y="0" class="st10 st11">consecte</tspan><tspan x="271.3" y="0" class="st10 st11">-</tspan><tspan x="0" y="24" class="st10 st11">tuer</tspan><tspan x="29.8" y="24" class="st10 st11 st12"> </tspan><tspan x="36.2" y="24" class="st10 st11">adipiscing</tspan><tspan x="107.5" y="24" class="st10 st11 st12"> </tspan><tspan x="113.9" y="24" class="st10 st11">elit,</tspan><tspan x="138.7" y="24" class="st10 st11 st12"> </tspan><tspan x="145.1" y="24" class="st10 st11">sed</tspan><tspan x="170.9" y="24" class="st10 st11 st12"> </tspan><tspan x="177.3" y="24" class="st10 st11">diam</tspan><tspan x="213" y="24" class="st10 st11 st12"> </tspan><tspan x="219.4" y="24" class="st10 st11">nonum</tspan><tspan x="271.3" y="24" class="st10 st11">-</tspan><tspan x="0" y="48" class="st10 st11">my</tspan><tspan x="21.5" y="48" class="st10 st11 st12"> </tspan><tspan x="27.8" y="48" class="st10 st11">nibh</tspan><tspan x="59.8" y="48" class="st10 st11 st12"> </tspan><tspan x="66.2" y="48" class="st10 st11">euismod</tspan><tspan x="128.5" y="48" class="st10 st11 st12"> </tspan><tspan x="134.9" y="48" class="st10 st11">tincidunt</tspan><tspan x="198.3" y="48" class="st10 st11 st12"> </tspan><tspan x="204.6" y="48" class="st10 st11">ut</tspan><tspan x="219.4" y="48" class="st10 st11 st12"> </tspan><tspan x="225.8" y="48" class="st10 st11">laoreet </tspan><tspan x="0" y="72" class="st10 st11">dolore</tspan><tspan x="46.9" y="72" class="st10 st11 st13"> </tspan><tspan x="54.9" y="72" class="st10 st11">magna</tspan><tspan x="103.8" y="72" class="st10 st11 st13"> </tspan><tspan x="111.9" y="72" class="st10 st11">aliquam</tspan><tspan x="169.2" y="72" class="st10 st11 st13"> </tspan><tspan x="177.2" y="72" class="st10 st11">erat</tspan><tspan x="206.1" y="72" class="st10 st11 st13"> </tspan><tspan x="214.1" y="72" class="st10 st11">volutpat. </tspan><tspan x="0" y="96" class="st10 st11">Ut</tspan><tspan x="16.9" y="96" class="st10 st11"> </tspan><tspan x="20.5" y="96" class="st10 st11">wisi</tspan><tspan x="46.7" y="96" class="st10 st11"> </tspan><tspan x="50.3" y="96" class="st10 st11">enim</tspan><tspan x="86.3" y="96" class="st10 st11"> </tspan><tspan x="89.9" y="96" class="st10 st11">ad</tspan><tspan x="107.9" y="96" class="st10 st11"> </tspan><tspan x="111.5" y="96" class="st10 st11">minim</tspan><tspan x="156.4" y="96" class="st10 st11"> </tspan><tspan x="160" y="96" class="st10 st11">veniam,</tspan><tspan x="215.2" y="96" class="st10 st11"> </tspan><tspan x="218.8" y="96" class="st10 st11">quis</tspan><tspan x="248.8" y="96" class="st10 st11"> </tspan><tspan x="252.4" y="96" class="st10 st11">no</tspan><tspan x="271.3" y="96" class="st10 st11">-</tspan><tspan x="0" y="120" class="st10 st11">strud</tspan><tspan x="38" y="120" class="st10 st11 st12"> </tspan><tspan x="44.5" y="120" class="st10 st11">exerci</tspan><tspan x="87.5" y="120" class="st10 st11 st12"> </tspan><tspan x="94" y="120" class="st10 st11">tation</tspan><tspan x="135.6" y="120" class="st10 st11 st12"> </tspan><tspan x="142.2" y="120" class="st10 st11">ullamcorper</tspan><tspan x="229.2" y="120" class="st10 st11 st12"> </tspan><tspan x="235.7" y="120" class="st10 st11">susci</tspan><tspan x="271.3" y="120" class="st10 st11">-</tspan><tspan x="0" y="144" class="st10 st11">pit</tspan><tspan x="18.5" y="144" class="st10 st11 st12"> </tspan><tspan x="25.1" y="144" class="st10 st11">lobortis</tspan><tspan x="79.7" y="144" class="st10 st11 st12"> </tspan><tspan x="86.3" y="144" class="st10 st11">nisl</tspan><tspan x="110.4" y="144" class="st10 st11 st12"> </tspan><tspan x="117" y="144" class="st10 st11">ut</tspan><tspan x="131.8" y="144" class="st10 st11 st12"> </tspan><tspan x="138.5" y="144" class="st10 st11">aliquip</tspan><tspan x="186.3" y="144" class="st10 st11 st12"> </tspan><tspan x="192.9" y="144" class="st10 st11">ex</tspan><tspan x="209.6" y="144" class="st10 st11 st12"> </tspan><tspan x="216.3" y="144" class="st10 st11">ea</tspan><tspan x="233.5" y="144" class="st10 st11 st12"> </tspan><tspan x="240.2" y="144" class="st10 st11">com</tspan><tspan x="271.3" y="144" class="st10 st11">-</tspan><tspan x="0" y="168" class="st10 st11">modo</tspan><tspan x="42.4" y="168" class="st10 st11"> </tspan><tspan x="47.3" y="168" class="st10 st11">consequat.</tspan><tspan x="126.6" y="168" class="st10 st11"> </tspan><tspan x="131.5" y="168" class="st10 st11">Duis</tspan><tspan x="163.3" y="168" class="st10 st11"> </tspan><tspan x="168.3" y="168" class="st10 st11">autem</tspan><tspan x="214.4" y="168" class="st10 st11"> </tspan><tspan x="219.4" y="168" class="st10 st11">vel</tspan><tspan x="239.1" y="168" class="st10 st11"> </tspan><tspan x="244.1" y="168" class="st10 st11">eum </tspan><tspan x="0" y="192" class="st10 st11">iriure</tspan><tspan x="37.9" y="192" class="st10 st11 st13"> </tspan><tspan x="45.8" y="192" class="st10 st11">dolor</tspan><tspan x="83.9" y="192" class="st10 st11 st13"> </tspan><tspan x="91.8" y="192" class="st10 st11">in</tspan><tspan x="104.9" y="192" class="st10 st11 st13"> </tspan><tspan x="112.8" y="192" class="st10 st11">hendrerit</tspan><tspan x="180.2" y="192" class="st10 st11 st13"> </tspan><tspan x="188.1" y="192" class="st10 st11">in</tspan><tspan x="201.2" y="192" class="st10 st11 st13"> </tspan><tspan x="209.1" y="192" class="st10 st11">vulputate </tspan><tspan x="0" y="216" class="st10 st11">velit</tspan><tspan x="28.7" y="216" class="st10 st11"> </tspan><tspan x="32.9" y="216" class="st10 st11">esse</tspan><tspan x="65.4" y="216" class="st10 st11"> </tspan><tspan x="69.6" y="216" class="st10 st11">molestie</tspan><tspan x="130.7" y="216" class="st10 st11"> </tspan><tspan x="134.9" y="216" class="st10 st11">consequat,</tspan><tspan x="213.8" y="216" class="st10 st11"> </tspan><tspan x="218" y="216" class="st10 st11">vel</tspan><tspan x="237.8" y="216" class="st10 st11"> </tspan><tspan x="242" y="216" class="st10 st11">illum </tspan><tspan x="0" y="240" class="st10 st11">dolore</tspan><tspan x="46.9" y="240" class="st10 st11 st14"> </tspan><tspan x="52.2" y="240" class="st10 st11">eu</tspan><tspan x="70.5" y="240" class="st10 st11 st14"> </tspan><tspan x="75.8" y="240" class="st10 st11">feugiat</tspan><tspan x="124.6" y="240" class="st10 st11 st14"> </tspan><tspan x="130" y="240" class="st10 st11">nulla</tspan><tspan x="164.6" y="240" class="st10 st11 st14"> </tspan><tspan x="169.9" y="240" class="st10 st11">facilisis</tspan><tspan x="220.2" y="240" class="st10 st11 st14"> </tspan><tspan x="225.5" y="240" class="st10 st11">at</tspan><tspan x="239.3" y="240" class="st10 st11 st14"> </tspan><tspan x="244.7" y="240" class="st10 st11">vero </tspan><tspan x="0" y="264" class="st10 st11">eros</tspan><tspan x="31.8" y="264" class="st10 st11"> </tspan><tspan x="36.7" y="264" class="st10 st11">et</tspan><tspan x="50.9" y="264" class="st10 st11"> </tspan><tspan x="55.8" y="264" class="st10 st11">accumsan</tspan><tspan x="128.4" y="264" class="st10 st11"> </tspan><tspan x="133.3" y="264" class="st10 st11">et</tspan><tspan x="147.4" y="264" class="st10 st11"> </tspan><tspan x="152.3" y="264" class="st10 st11">iusto</tspan><tspan x="187.6" y="264" class="st10 st11"> </tspan><tspan x="192.4" y="264" class="st10 st11">odio</tspan><tspan x="224.3" y="264" class="st10 st11"> </tspan><tspan x="229.2" y="264" class="st10 st11">dignis</tspan><tspan x="271.3" y="264" class="st10 st11">-</tspan><tspan x="0" y="288" class="st10 st11">sim</tspan><tspan x="25.2" y="288" class="st10 st11"> </tspan><tspan x="29.5" y="288" class="st10 st11">qui</tspan><tspan x="52.1" y="288" class="st10 st11"> </tspan><tspan x="56.4" y="288" class="st10 st11">blandit</tspan><tspan x="105.9" y="288" class="st10 st11"> </tspan><tspan x="110.2" y="288" class="st10 st11">praesent</tspan><tspan x="174.3" y="288" class="st10 st11"> </tspan><tspan x="178.6" y="288" class="st10 st11">luptatum</tspan><tspan x="243.9" y="288" class="st10 st11"> </tspan><tspan x="248.2" y="288" class="st10 st11">zzril </tspan><tspan x="0" y="312" class="st10 st11">delenit</tspan><tspan x="49.1" y="312" class="st10 st11 st15"> </tspan><tspan x="57.7" y="312" class="st10 st11">augue</tspan><tspan x="102.2" y="312" class="st10 st11 st15"> </tspan><tspan x="110.8" y="312" class="st10 st11">duis</tspan><tspan x="140.8" y="312" class="st10 st11 st15"> </tspan><tspan x="149.4" y="312" class="st10 st11">dolore</tspan><tspan x="196.3" y="312" class="st10 st11 st15"> </tspan><tspan x="204.8" y="312" class="st10 st11">te</tspan><tspan x="219" y="312" class="st10 st11 st15"> </tspan><tspan x="227.6" y="312" class="st10 st11">feugait </tspan><tspan x="0" y="336" class="st10 st11">nulla facilisi.</tspan><tspan x="0" y="360" class="st10 st11">Lorem</tspan><tspan x="46.7" y="360" class="st10 st11"> </tspan><tspan x="50.3" y="360" class="st10 st11">ipsum</tspan><tspan x="94.4" y="360" class="st10 st11"> </tspan><tspan x="98" y="360" class="st10 st11">dolor</tspan><tspan x="136.1" y="360" class="st10 st11"> </tspan><tspan x="139.6" y="360" class="st10 st11">sit</tspan><tspan x="156.1" y="360" class="st10 st11"> </tspan><tspan x="159.6" y="360" class="st10 st11">amet,</tspan><tspan x="199.8" y="360" class="st10 st11"> </tspan><tspan x="203.3" y="360" class="st10 st11">cons</tspan><tspan x="237.2" y="360" class="st10 st11"> </tspan><tspan x="240.7" y="360" class="st10 st11">ecte</tspan><tspan x="271.3" y="360" class="st10 st11">-</tspan><tspan x="0" y="384" class="st10 st11">tuer</tspan><tspan x="29.8" y="384" class="st10 st11 st12"> </tspan><tspan x="36.2" y="384" class="st10 st11">adipiscing</tspan><tspan x="107.5" y="384" class="st10 st11 st12"> </tspan><tspan x="113.9" y="384" class="st10 st11">elit,</tspan><tspan x="138.7" y="384" class="st10 st11 st12"> </tspan><tspan x="145.1" y="384" class="st10 st11">sed</tspan><tspan x="170.9" y="384" class="st10 st11 st12"> </tspan><tspan x="177.3" y="384" class="st10 st11">diam</tspan><tspan x="213" y="384" class="st10 st11 st12"> </tspan><tspan x="219.4" y="384" class="st10 st11">nonum</tspan><tspan x="271.3" y="384" class="st10 st11">-</tspan><tspan x="0" y="408" class="st10 st11">my</tspan><tspan x="21.5" y="408" class="st10 st11 st12"> </tspan><tspan x="27.8" y="408" class="st10 st11">nibh</tspan><tspan x="59.8" y="408" class="st10 st11 st12"> </tspan><tspan x="66.2" y="408" class="st10 st11">euismod</tspan><tspan x="128.5" y="408" class="st10 st11 st12"> </tspan><tspan x="134.9" y="408" class="st10 st11">tincidunt</tspan><tspan x="198.3" y="408" class="st10 st11 st12"> </tspan><tspan x="204.6" y="408" class="st10 st11">ut</tspan><tspan x="219.4" y="408" class="st10 st11 st12"> </tspan><tspan x="225.8" y="408" class="st10 st11">laoreet </tspan><tspan x="0" y="432" class="st10 st11">dolore</tspan><tspan x="46.9" y="432" class="st10 st11 st13"> </tspan><tspan x="54.9" y="432" class="st10 st11">magna</tspan><tspan x="103.8" y="432" class="st10 st11 st13"> </tspan><tspan x="111.9" y="432" class="st10 st11">aliquam</tspan><tspan x="169.2" y="432" class="st10 st11 st13"> </tspan><tspan x="177.2" y="432" class="st10 st11">erat</tspan><tspan x="206.1" y="432" class="st10 st11 st13"> </tspan><tspan x="214.1" y="432" class="st10 st11">volutpat. </tspan><tspan x="0" y="456" class="st10 st11">Ut</tspan><tspan x="16.9" y="456" class="st10 st11"> </tspan><tspan x="20.5" y="456" class="st10 st11">wisi</tspan><tspan x="46.7" y="456" class="st10 st11"> </tspan><tspan x="50.3" y="456" class="st10 st11">enim</tspan><tspan x="86.3" y="456" class="st10 st11"> </tspan><tspan x="89.9" y="456" class="st10 st11">ad</tspan><tspan x="107.9" y="456" class="st10 st11"> </tspan><tspan x="111.5" y="456" class="st10 st11">minim</tspan><tspan x="156.4" y="456" class="st10 st11"> </tspan><tspan x="160" y="456" class="st10 st11">veniam,</tspan><tspan x="215.2" y="456" class="st10 st11"> </tspan><tspan x="218.8" y="456" class="st10 st11">quis</tspan><tspan x="248.8" y="456" class="st10 st11"> </tspan><tspan x="252.4" y="456" class="st10 st11">no</tspan><tspan x="271.3" y="456" class="st10 st11">-</tspan><tspan x="0" y="480" class="st10 st11">strud</tspan><tspan x="38" y="480" class="st10 st11 st12"> </tspan><tspan x="44.5" y="480" class="st10 st11">exerci</tspan><tspan x="87.5" y="480" class="st10 st11 st12"> </tspan><tspan x="94" y="480" class="st10 st11">tation</tspan><tspan x="135.6" y="480" class="st10 st11 st12"> </tspan><tspan x="142.2" y="480" class="st10 st11">ullamcorper</tspan><tspan x="229.2" y="480" class="st10 st11 st12"> </tspan><tspan x="235.7" y="480" class="st10 st11">susci</tspan><tspan x="271.3" y="480" class="st10 st11">-</tspan></text>
<rect x="199.5" y="237.9" class="st4" width="130.7" height="16.6"/>
<text transform="matrix(1 0 0 1 199.5 244.9356)" class="st16 st17">Particolare di rivestimento in legno</text>
</svg>
