<?xml version="1.0" encoding="utf-8"?>
<!-- Generator: Adobe Illustrator 22.1.0, SVG Export Plug-In . SVG Version: 6.00 Build 0)  -->
<svg version="1.1" id="Livello_1" xmlns="http://www.w3.org/2000/svg" xmlns:xlink="http://www.w3.org/1999/xlink" x="0px" y="0px"
	 viewBox="0 0 1190.6 1190.6" style="enable-background:new 0 0 1190.6 1190.6;" xml:space="preserve">
<style type="text/css">
	.st0{fill:#CCCCCC;}
	.st1{fill:none;stroke:#000000;stroke-miterlimit:10;}
	.st2{fill:none;stroke:#FF0000;stroke-miterlimit:10;}
	.st3{fill:none;stroke:#1CA300;stroke-miterlimit:10;}
	.st4{fill:none;}
	.st5{clip-path:url(#SVGID_2_);}
	.st6{clip-path:url(#SVGID_4_);}
</style>
<title>887812_04</title>
<rect y="0" class="st0" width="1190.6" height="1190.6"/>
<rect x="61.3" y="66.8" class="st1" width="239.5" height="239.5"/>
<rect x="614" y="66.8" class="st1" width="239.5" height="239.5"/>
<rect x="889.8" y="66.8" class="st1" width="239.5" height="239.5"/>
<rect x="337.7" y="66.8" class="st1" width="239.5" height="239.5"/>
<rect x="61.3" y="339.3" class="st1" width="239.5" height="239.5"/>
<rect x="614" y="339.3" class="st1" width="239.5" height="239.5"/>
<rect x="889.8" y="339.3" class="st1" width="239.5" height="239.5"/>
<rect x="337.7" y="339.3" class="st1" width="239.5" height="239.5"/>
<rect x="61.3" y="611.8" class="st1" width="239.5" height="239.5"/>
<rect x="613.7" y="611.8" class="st1" width="239.5" height="239.5"/>
<rect x="889.8" y="609.8" class="st1" width="239.5" height="239.5"/>
<rect x="337.7" y="609.8" class="st1" width="239.5" height="239.5"/>
<rect x="61.3" y="884.3" class="st1" width="239.5" height="239.5"/>
<rect x="614" y="884.3" class="st1" width="239.5" height="239.5"/>
<rect x="889.8" y="884.3" class="st1" width="239.5" height="239.5"/>
<rect x="336.6" y="884.3" class="st1" width="239.5" height="239.5"/>
<rect x="60" y="64.8" class="st2" width="184.2" height="184.2"/>
<rect x="282" y="64.8" class="st2" width="184.2" height="184.2"/>
<rect x="503.1" y="64.8" class="st2" width="184.3" height="184.2"/>
<rect x="724.3" y="64.8" class="st2" width="184.2" height="184.2"/>
<rect x="943.8" y="64.8" class="st2" width="184.2" height="184.2"/>
<rect x="60" y="503.1" class="st2" width="184.2" height="184.3"/>
<rect x="282" y="503.1" class="st2" width="184.2" height="184.3"/>
<rect x="503.1" y="503.1" class="st2" width="184.3" height="184.3"/>
<rect x="724.3" y="503.1" class="st2" width="184.2" height="184.3"/>
<rect x="943.8" y="503.1" class="st2" width="184.2" height="184.3"/>
<rect x="61.3" y="720.4" class="st2" width="184.2" height="184.2"/>
<rect x="283.3" y="720.4" class="st2" width="184.2" height="184.2"/>
<rect x="504.4" y="720.4" class="st2" width="184.2" height="184.2"/>
<rect x="725.5" y="720.4" class="st2" width="184.2" height="184.2"/>
<rect x="945" y="720.4" class="st2" width="184.2" height="184.2"/>
<rect x="61.3" y="284" class="st2" width="184.2" height="184.2"/>
<rect x="283.3" y="284" class="st2" width="184.2" height="184.2"/>
<rect x="504.4" y="284" class="st2" width="184.2" height="184.2"/>
<rect x="725.5" y="284" class="st2" width="184.2" height="184.2"/>
<rect x="945" y="284" class="st2" width="184.2" height="184.2"/>
<rect x="61.3" y="937.6" class="st2" width="184.2" height="184.2"/>
<rect x="283.3" y="937.6" class="st2" width="184.2" height="184.2"/>
<rect x="504.4" y="937.6" class="st2" width="184.2" height="184.2"/>
<rect x="725.5" y="937.6" class="st2" width="184.2" height="184.2"/>
<rect x="945" y="937.6" class="st2" width="184.2" height="184.2"/>
<rect x="61.3" y="974.5" class="st3" width="147.4" height="147.4"/>
<rect x="246.8" y="974.5" class="st3" width="147.4" height="147.4"/>
<rect x="430.7" y="974.5" class="st3" width="147.4" height="147.4"/>
<rect x="614.2" y="974.5" class="st3" width="147.4" height="147.4"/>
<rect x="798" y="974.5" class="st3" width="147.4" height="147.4"/>
<rect x="981.9" y="974.5" class="st3" width="147.4" height="147.4"/>
<rect x="61.3" y="790.2" class="st3" width="147.4" height="147.4"/>
<rect x="246.8" y="790.2" class="st3" width="147.4" height="147.4"/>
<rect x="430.7" y="790.2" class="st3" width="147.4" height="147.4"/>
<rect x="614.2" y="790.2" class="st3" width="147.4" height="147.4"/>
<rect x="798" y="790.2" class="st3" width="147.4" height="147.4"/>
<rect x="981.9" y="790.2" class="st3" width="147.4" height="147.4"/>
<rect x="60" y="64.8" class="st3" width="147.4" height="147.4"/>
<rect x="245.5" y="64.8" class="st3" width="147.4" height="147.4"/>
<rect x="429.5" y="64.8" class="st3" width="147.4" height="147.4"/>
<rect x="612.9" y="64.8" class="st3" width="147.4" height="147.4"/>
<rect x="796.8" y="64.8" class="st3" width="147.4" height="147.4"/>
<rect x="980.6" y="64.8" class="st3" width="147.4" height="147.4"/>
<rect x="60" y="249.1" class="st3" width="147.4" height="147.4"/>
<rect x="245.5" y="249.1" class="st3" width="147.4" height="147.4"/>
<rect x="429.5" y="249.1" class="st3" width="147.4" height="147.4"/>
<rect x="612.9" y="249.1" class="st3" width="147.4" height="147.4"/>
<rect x="796.8" y="249.1" class="st3" width="147.4" height="147.4"/>
<rect x="980.6" y="249.1" class="st3" width="147.4" height="147.4"/>
<rect x="60" y="429.5" class="st3" width="147.4" height="147.4"/>
<rect x="245.5" y="429.5" class="st3" width="147.4" height="147.4"/>
<rect x="429.5" y="429.5" class="st3" width="147.4" height="147.4"/>
<rect x="612.9" y="429.5" class="st3" width="147.4" height="147.4"/>
<rect x="796.8" y="429.5" class="st3" width="147.4" height="147.4"/>
<rect x="980.6" y="429.5" class="st3" width="147.4" height="147.4"/>
<rect x="61.3" y="609.8" class="st3" width="147.4" height="147.4"/>
<rect x="246.8" y="609.8" class="st3" width="147.4" height="147.4"/>
<rect x="430.7" y="609.8" class="st3" width="147.4" height="147.4"/>
<rect x="614.2" y="609.8" class="st3" width="147.4" height="147.4"/>
<rect x="798" y="609.8" class="st3" width="147.4" height="147.4"/>
<rect x="981.9" y="609.8" class="st3" width="147.4" height="147.4"/>
<rect x="60.5" y="64.8" class="st4" width="660.7" height="242.9"/>
<g>
	<defs>
		<rect id="SVGID_1_" x="337.7" y="64.8" width="240.5" height="243.2"/>
	</defs>
	<clipPath id="SVGID_2_">
		<use xlink:href="#SVGID_1_"  style="overflow:visible;"/>
	</clipPath>
	<g class="st5">
		<g>
			<defs>
				<rect id="SVGID_3_" x="60.5" y="65.1" width="660.7" height="242.9"/>
			</defs>
			<clipPath id="SVGID_4_">
				<use xlink:href="#SVGID_3_"  style="overflow:visible;"/>
			</clipPath>
			<g class="st6">
				
					<image style="overflow:visible;enable-background:new    ;" width="2542" height="935" xlink:href="398D1CAD803B5770.png"  transform="matrix(0.2599 0 0 0.2583 60.48 64.82)">
				</image>
			</g>
		</g>
	</g>
</g>
</svg>
