<svg id="Livello_1" data-name="Livello 1" xmlns="http://www.w3.org/2000/svg" viewBox="0 0 1190.55 1190.55"><defs><style>.cls-1{fill:#ccc;}.cls-2,.cls-3,.cls-4{fill:none;stroke-miterlimit:10;}.cls-2{stroke:#000;}.cls-3{stroke:red;}.cls-4{stroke:#1ca300;}</style></defs><title>887812_01</title><rect class="cls-1" width="1190.55" height="1190.55"/><rect class="cls-2" x="58.26" y="66.76" width="239.53" height="239.53"/><rect class="cls-2" x="611.01" y="66.76" width="239.53" height="239.53"/><rect class="cls-2" x="886.72" y="66.76" width="239.53" height="239.53"/><rect class="cls-2" x="334.63" y="66.76" width="239.53" height="239.53"/><rect class="cls-2" x="58.26" y="339.26" width="239.53" height="239.53"/><rect class="cls-2" x="611.01" y="339.26" width="239.53" height="239.53"/><rect class="cls-2" x="886.72" y="339.26" width="239.53" height="239.53"/><rect class="cls-2" x="334.63" y="339.26" width="239.53" height="239.53"/><rect class="cls-2" x="58.26" y="611.76" width="239.53" height="239.53"/><rect class="cls-2" x="610.68" y="611.76" width="239.53" height="239.53"/><rect class="cls-2" x="886.72" y="609.83" width="239.53" height="239.53"/><rect class="cls-2" x="334.63" y="609.83" width="239.53" height="239.53"/><rect class="cls-2" x="58.26" y="884.27" width="239.53" height="239.53"/><rect class="cls-2" x="611.01" y="884.27" width="239.53" height="239.53"/><rect class="cls-2" x="886.72" y="884.27" width="239.53" height="239.53"/><rect class="cls-2" x="333.6" y="884.27" width="239.53" height="239.53"/><rect class="cls-3" x="56.98" y="64.82" width="184.25" height="184.25"/><rect class="cls-3" x="279.02" y="64.82" width="184.25" height="184.25"/><rect class="cls-3" x="500.12" y="64.82" width="184.25" height="184.25"/><rect class="cls-3" x="721.23" y="64.82" width="184.25" height="184.25"/><rect class="cls-3" x="940.72" y="64.82" width="184.25" height="184.25"/><rect class="cls-3" x="56.98" y="503.15" width="184.25" height="184.25"/><rect class="cls-3" x="279.02" y="503.15" width="184.25" height="184.25"/><rect class="cls-3" x="500.12" y="503.15" width="184.25" height="184.25"/><rect class="cls-3" x="721.23" y="503.15" width="184.25" height="184.25"/><rect class="cls-3" x="940.72" y="503.15" width="184.25" height="184.25"/><rect class="cls-3" x="58.26" y="720.38" width="184.25" height="184.25"/><rect class="cls-3" x="280.3" y="720.38" width="184.25" height="184.25"/><rect class="cls-3" x="501.4" y="720.38" width="184.25" height="184.25"/><rect class="cls-3" x="722.51" y="720.38" width="184.25" height="184.25"/><rect class="cls-3" x="941.99" y="720.38" width="184.25" height="184.25"/><rect class="cls-3" x="58.26" y="283.98" width="184.25" height="184.25"/><rect class="cls-3" x="280.3" y="283.98" width="184.25" height="184.25"/><rect class="cls-3" x="501.4" y="283.98" width="184.25" height="184.25"/><rect class="cls-3" x="722.51" y="283.98" width="184.25" height="184.25"/><rect class="cls-3" x="941.99" y="283.98" width="184.25" height="184.25"/><rect class="cls-3" x="58.26" y="937.61" width="184.25" height="184.25"/><rect class="cls-3" x="280.3" y="937.61" width="184.25" height="184.25"/><rect class="cls-3" x="501.4" y="937.61" width="184.25" height="184.25"/><rect class="cls-3" x="722.51" y="937.61" width="184.25" height="184.25"/><rect class="cls-3" x="941.99" y="937.61" width="184.25" height="184.25"/><rect class="cls-4" x="58.26" y="974.46" width="147.4" height="147.4"/><rect class="cls-4" x="243.79" y="974.46" width="147.4" height="147.4"/><rect class="cls-4" x="427.7" y="974.46" width="147.4" height="147.4"/><rect class="cls-4" x="611.15" y="974.46" width="147.4" height="147.4"/><rect class="cls-4" x="795" y="974.46" width="147.4" height="147.4"/><rect class="cls-4" x="978.84" y="974.46" width="147.4" height="147.4"/><rect class="cls-4" x="58.26" y="790.21" width="147.4" height="147.4"/><rect class="cls-4" x="243.79" y="790.21" width="147.4" height="147.4"/><rect class="cls-4" x="427.7" y="790.21" width="147.4" height="147.4"/><rect class="cls-4" x="611.15" y="790.21" width="147.4" height="147.4"/><rect class="cls-4" x="795" y="790.21" width="147.4" height="147.4"/><rect class="cls-4" x="978.84" y="790.21" width="147.4" height="147.4"/><rect class="cls-4" x="56.98" y="64.82" width="147.4" height="147.4"/><rect class="cls-4" x="242.51" y="64.82" width="147.4" height="147.4"/><rect class="cls-4" x="426.42" y="64.82" width="147.4" height="147.4"/><rect class="cls-4" x="609.87" y="64.82" width="147.4" height="147.4"/><rect class="cls-4" x="793.72" y="64.82" width="147.4" height="147.4"/><rect class="cls-4" x="977.57" y="64.82" width="147.4" height="147.4"/><rect class="cls-4" x="56.98" y="249.07" width="147.4" height="147.4"/><rect class="cls-4" x="242.51" y="249.07" width="147.4" height="147.4"/><rect class="cls-4" x="426.42" y="249.07" width="147.4" height="147.4"/><rect class="cls-4" x="609.87" y="249.07" width="147.4" height="147.4"/><rect class="cls-4" x="793.72" y="249.07" width="147.4" height="147.4"/><rect class="cls-4" x="977.57" y="249.07" width="147.4" height="147.4"/><rect class="cls-4" x="56.98" y="429.45" width="147.4" height="147.4"/><rect class="cls-4" x="242.51" y="429.45" width="147.4" height="147.4"/><rect class="cls-4" x="426.42" y="429.45" width="147.4" height="147.4"/><rect class="cls-4" x="609.87" y="429.45" width="147.4" height="147.4"/><rect class="cls-4" x="793.72" y="429.45" width="147.4" height="147.4"/><rect class="cls-4" x="977.57" y="429.45" width="147.4" height="147.4"/><rect class="cls-4" x="58.26" y="609.83" width="147.4" height="147.4"/><rect class="cls-4" x="243.79" y="609.83" width="147.4" height="147.4"/><rect class="cls-4" x="427.7" y="609.83" width="147.4" height="147.4"/><rect class="cls-4" x="611.15" y="609.83" width="147.4" height="147.4"/><rect class="cls-4" x="795" y="609.83" width="147.4" height="147.4"/><rect class="cls-4" x="978.84" y="609.83" width="147.4" height="147.4"/></svg>