<?xml version="1.0" encoding="utf-8"?>
<!-- Generator: Adobe Illustrator 22.1.0, SVG Export Plug-In . SVG Version: 6.00 Build 0)  -->
<svg version="1.1" id="Livello_1" xmlns="http://www.w3.org/2000/svg" xmlns:xlink="http://www.w3.org/1999/xlink" x="0px" y="0px"
	 viewBox="0 0 1190.6 1190.6" style="enable-background:new 0 0 1190.6 1190.6;" xml:space="preserve">
<style type="text/css">
	.st0{fill:#9CCBEE;stroke:#1D1D1B;stroke-miterlimit:10;}
	.st1{clip-path:url(#SVGID_2_);enable-background:new    ;}
	.st2{fill:none;stroke:#DD1717;stroke-miterlimit:10;}
	.st3{fill:none;stroke:#15159B;stroke-miterlimit:10;}
	.st4{fill:none;}
	.st5{font-family:'OpenSans-Light';}
	.st6{font-size:16px;}
	.st7{fill:none;stroke:#218921;stroke-miterlimit:10;}
	.st8{font-family:'EBGaramond-Regular';}
	.st9{font-size:10px;}
	.st10{font-family:'OpenSansCondensed-Bold';}
	.st11{font-size:60px;}
	.st12{clip-path:url(#SVGID_4_);}
	.st13{clip-path:url(#SVGID_6_);}
</style>
<g id="Livello_1_2_">
	<g id="Livello_1_1_">
		<title>Tavola disegno 1</title>
		<rect x="0.1" y="0.1" class="st0" width="1190.6" height="1190.6"/>
	</g>
	<g>
		<g>
			<g>
				<defs>
					<rect id="SVGID_1_" x="429.4" y="595.4" width="147.4" height="147.4"/>
				</defs>
				<clipPath id="SVGID_2_">
					<use xlink:href="#SVGID_1_"  style="overflow:visible;"/>
				</clipPath>
				<g class="st1">
					
						<image style="overflow:visible;enable-background:new    ;" width="300" height="250" xlink:href="../Documents/890492-1.jpg"  transform="matrix(0.7372 0 0 0.7372 387.9 576.9001)">
					</image>
				</g>
			</g>
		</g>
	</g>
	<g id="Livello_2_1_">
		<rect x="60.9" y="42.6" class="st2" width="239.5" height="239.5"/>
		<rect x="60.9" y="319" class="st2" width="239.5" height="239.5"/>
		<rect x="60.9" y="595.4" class="st2" width="239.5" height="239.5"/>
		<rect x="60.9" y="871.8" class="st2" width="239.5" height="239.5"/>
		<rect x="337.3" y="871.8" class="st2" width="239.5" height="239.5"/>
		<rect x="337.3" y="595.4" class="st2" width="239.5" height="239.5"/>
		<rect x="337.3" y="319" class="st2" width="239.5" height="239.5"/>
		<rect x="337.3" y="42.6" class="st2" width="239.5" height="239.5"/>
		<rect x="613.7" y="42.6" class="st2" width="239.5" height="239.5"/>
		<rect x="613.7" y="319" class="st2" width="239.5" height="239.5"/>
		<rect x="613.7" y="595.4" class="st2" width="239.5" height="239.5"/>
		<rect x="613.7" y="871.8" class="st2" width="239.5" height="239.5"/>
		<rect x="890.1" y="871.8" class="st2" width="239.5" height="239.5"/>
		<rect x="890.1" y="595.4" class="st2" width="239.5" height="239.5"/>
		<rect x="890.1" y="319" class="st2" width="239.5" height="239.5"/>
		<rect x="890.1" y="42.6" class="st2" width="239.5" height="239.5"/>
	</g>
	<g id="Livello_4">
		<rect x="982.3" y="42.7" class="st3" width="147.4" height="147.4"/>
		<rect x="982.3" y="226.9" class="st3" width="147.4" height="147.4"/>
		<rect x="982.3" y="411.1" class="st3" width="147.4" height="147.4"/>
		<rect x="982.3" y="595.5" class="st3" width="147.4" height="147.4"/>
		<rect x="982.3" y="779.7" class="st3" width="147.4" height="147.4"/>
		<rect x="982.3" y="963.9" class="st3" width="147.4" height="147.4"/>
		<rect x="798" y="963.9" class="st3" width="147.4" height="147.4"/>
		<rect x="798" y="779.7" class="st3" width="147.4" height="147.4"/>
		<rect x="798" y="595.5" class="st3" width="147.4" height="147.4"/>
		<rect x="798" y="411.1" class="st3" width="147.4" height="147.4"/>
		<rect x="798" y="226.9" class="st3" width="147.4" height="147.4"/>
		<rect x="798" y="42.7" class="st3" width="147.4" height="147.4"/>
		<rect x="613.8" y="42.7" class="st3" width="147.4" height="147.4"/>
		<rect x="613.8" y="226.9" class="st3" width="147.4" height="147.4"/>
		<rect x="613.8" y="411.1" class="st3" width="147.4" height="147.4"/>
		<rect x="613.8" y="595.5" class="st3" width="147.4" height="147.4"/>
		<rect x="613.8" y="779.7" class="st3" width="147.4" height="147.4"/>
		<rect x="613.8" y="963.9" class="st3" width="147.4" height="147.4"/>
		<rect x="429.5" y="42.7" class="st3" width="147.4" height="147.4"/>
		<rect x="429.5" y="226.9" class="st3" width="147.4" height="147.4"/>
		<rect x="429.5" y="411.1" class="st3" width="147.4" height="147.4"/>
		<rect x="429.5" y="595.5" class="st3" width="147.4" height="147.4"/>
		<rect x="429.5" y="779.7" class="st3" width="147.4" height="147.4"/>
		<rect x="429.5" y="963.9" class="st3" width="147.4" height="147.4"/>
		<rect x="245.3" y="42.7" class="st3" width="147.4" height="147.4"/>
		<rect x="245.3" y="226.9" class="st3" width="147.4" height="147.4"/>
		<rect x="245.3" y="411.1" class="st3" width="147.4" height="147.4"/>
		<rect x="245.3" y="595.5" class="st3" width="147.4" height="147.4"/>
		<rect x="245.3" y="779.7" class="st3" width="147.4" height="147.4"/>
		<rect x="245.3" y="963.9" class="st3" width="147.4" height="147.4"/>
		<rect x="61" y="42.7" class="st3" width="147.4" height="147.4"/>
		<rect x="61" y="226.9" class="st4" width="147.4" height="331.6"/>
		<text transform="matrix(1 0 0 1 60.9999 239.0597)" class="st5 st6">Lorem ipsum dolor </text>
		<text transform="matrix(1 0 0 1 60.9999 263.0597)" class="st5 st6">sit amet, consecte</text>
		<text transform="matrix(1 0 0 1 190.2999 263.0597)" class="st5 st6">-</text>
		<text transform="matrix(1 0 0 1 60.9999 287.0597)" class="st5 st6">tuer adipiscing elit, </text>
		<text transform="matrix(1 0 0 1 60.9999 311.0597)" class="st5 st6">sed diam nonummy </text>
		<text transform="matrix(1 0 0 1 60.9999 335.0597)" class="st5 st6">nibh euismod tinci</text>
		<text transform="matrix(1 0 0 1 193.2999 335.0597)" class="st5 st6">-</text>
		<text transform="matrix(1 0 0 1 60.9999 359.0597)" class="st5 st6">dunt ut laoreet </text>
		<text transform="matrix(1 0 0 1 60.9999 383.0597)" class="st5 st6">dolore magna ali</text>
		<text transform="matrix(1 0 0 1 180.7999 383.0597)" class="st5 st6">-</text>
		<text transform="matrix(1 0 0 1 60.9999 407.0597)" class="st5 st6">quam erat volutpat. </text>
		<rect x="61" y="411.1" class="st3" width="147.4" height="147.4"/>
		<rect x="61" y="595.5" class="st3" width="147.4" height="147.4"/>
		<rect x="61" y="779.7" class="st3" width="147.4" height="147.4"/>
		<rect x="61" y="963.9" class="st3" width="147.4" height="147.4"/>
	</g>
	<g id="Livello_3">
		<rect x="60.9" y="263.7" class="st7" width="184.3" height="184.3"/>
		<rect x="60.9" y="484.9" class="st7" width="184.3" height="184.3"/>
		<rect x="60.9" y="706" class="st7" width="184.3" height="184.3"/>
		<rect x="60.9" y="927.1" class="st7" width="184.3" height="184.3"/>
		<rect x="282" y="927.1" class="st7" width="184.3" height="184.3"/>
		<rect x="282" y="484.9" class="st7" width="184.3" height="184.3"/>
		<rect x="282" y="263.7" class="st7" width="184.3" height="184.3"/>
		<rect x="282" y="42.6" class="st7" width="184.3" height="184.3"/>
		<rect x="503.2" y="42.6" class="st7" width="184.3" height="184.3"/>
		<rect x="503.2" y="263.7" class="st7" width="184.3" height="184.3"/>
		<rect x="503.2" y="484.9" class="st7" width="184.3" height="184.3"/>
		<rect x="503.2" y="706" class="st7" width="184.3" height="184.3"/>
		<rect x="503.2" y="927.1" class="st7" width="184.3" height="184.3"/>
		<rect x="724.3" y="927.1" class="st7" width="184.3" height="184.3"/>
		<rect x="724.3" y="706" class="st7" width="184.3" height="184.3"/>
		<rect x="724.3" y="484.9" class="st7" width="184.3" height="184.3"/>
		<rect x="724.3" y="263.8" class="st7" width="184.3" height="184.3"/>
		<rect x="724.3" y="42.6" class="st7" width="184.3" height="184.3"/>
		<rect x="945.4" y="42.6" class="st7" width="184.3" height="184.3"/>
		<rect x="945.4" y="263.7" class="st7" width="184.3" height="184.3"/>
		<rect x="945.4" y="484.9" class="st7" width="184.3" height="184.3"/>
		<rect x="945.4" y="706" class="st4" width="184.3" height="184.3"/>
		<text transform="matrix(1 0 0 1 945.4004 712.9903)" class="st8 st9">Una strada di Londra </text>
		<rect x="945.4" y="927.1" class="st7" width="184.3" height="184.3"/>
		<rect x="282" y="706" class="st7" width="184.3" height="184.3"/>
	</g>
	<rect x="60.9" y="43" class="st4" width="491" height="99.6"/>
	<text transform="matrix(1 0 0 1 60.9 88.5645)" class="st10 st11">Esercizi sui vettori</text>
	<circle class="st4" cx="647.5" cy="322.2" r="159.9"/>
	<text transform="matrix(1 0 0 1 561.2529 198.4601)" class="st5 st6">Lorem ipsum dolor sit </text>
	<text transform="matrix(1 0 0 1 532.0529 222.4601)" class="st5 st6">amet, consectetuer adipiscing </text>
	<text transform="matrix(1 0 0 1 513.0529 246.4601)" class="st5 st6">elit, sed diam nonummy nibh eui</text>
	<text transform="matrix(1 0 0 1 747.3529 246.4601)" class="st5 st6">-</text>
	<text transform="matrix(1 0 0 1 500.3529 270.4601)" class="st5 st6">smod tincidunt ut laoreet dolore magna </text>
	<text transform="matrix(1 0 0 1 492.2529 294.4601)" class="st5 st6">aliquam erat volutpat. Ut wisi enim ad </text>
	<text transform="matrix(1 0 0 1 488.2529 318.4601)" class="st5 st6">minim veniam, quis nostrud exerci tation </text>
	<text transform="matrix(1 0 0 1 488.8529 342.4601)" class="st5 st6">ullamcorper suscipit lobortis nisl ut aliquip </text>
	<text transform="matrix(1 0 0 1 493.7529 366.4601)" class="st5 st6">ex ea commodo consequat. Duis autem </text>
	<text transform="matrix(1 0 0 1 502.8529 390.4601)" class="st5 st6">vel eum iriure dolor in hendrerit in vul</text>
	<text transform="matrix(1 0 0 1 773.9529 390.4601)" class="st5 st6">-</text>
	<text transform="matrix(1 0 0 1 516.8529 414.4601)" class="st5 st6">putate velit esse molestie conse</text>
	<text transform="matrix(1 0 0 1 745.4529 414.4601)" class="st5 st6">-</text>
	<text transform="matrix(1 0 0 1 537.7529 438.4601)" class="st5 st6">quat, vel illum dolore eu feu</text>
	<text transform="matrix(1 0 0 1 737.0529 438.4601)" class="st5 st6">-</text>
	<text transform="matrix(1 0 0 1 570.7529 462.4601)" class="st5 st6">giat nulla facilisis at </text>
</g>
<g>
	<g>
		<g id="Livello_3_1_">
			<g id="Livello_2_2_">
				<defs>
					<ellipse id="SVGID_3_" cx="836.4" cy="658.6" rx="86.5" ry="144.2"/>
				</defs>
				<clipPath id="SVGID_4_">
					<use xlink:href="#SVGID_3_"  style="overflow:visible;"/>
				</clipPath>
				<g class="st12">
					<g>
						<defs>
							<rect id="SVGID_5_" x="711.8" y="482.4" width="224.3" height="334.1"/>
						</defs>
						<clipPath id="SVGID_6_">
							<use xlink:href="#SVGID_5_"  style="overflow:visible;"/>
						</clipPath>
						<g transform="matrix(1 0 0 1 0 0)" class="st13">
							
								<image style="overflow:visible;enable-background:new    ;" width="472" height="703" xlink:href="../Creative Cloud Files/SVG/890492_05.jpg"  transform="matrix(0.4752 0 0 0.4752 711.7959 482.3523)">
							</image>
						</g>
					</g>
				</g>
			</g>
		</g>
	</g>
</g>
</svg>
