<svg xmlns="http://www.w3.org/2000/svg" xmlns:xlink="http://www.w3.org/1999/xlink" viewBox="0 0 1190.6 1190.6"><defs><style>.cls-1,.cls-3,.cls-4,.cls-5{fill:none;}.cls-2{fill:#95c11f;}.cls-3{stroke:#6ec4c7;}.cls-3,.cls-4,.cls-5{stroke-miterlimit:10;}.cls-4{stroke:#000;}.cls-5{stroke:#e94859;}.cls-6{clip-path:url(#clip-path);}.cls-7{clip-path:url(#clip-path-2);}.cls-8{clip-path:url(#clip-path-3);}</style><clipPath id="clip-path"><rect class="cls-1" x="60.9" y="60.9" width="147.4" height="147.4"/></clipPath><clipPath id="clip-path-2"><rect class="cls-1" x="60.9" y="60.9" width="1068.7" height="702.14"/></clipPath><clipPath id="clip-path-3"><circle class="cls-1" cx="945.4" cy="945.75" r="184.2"/></clipPath></defs><title>890902_05</title><g id="Livello_1" data-name="Livello 1"><g id="Livello_1-2" data-name="Livello 1"><rect class="cls-2" width="1190.6" height="1190.6"/><rect class="cls-3" width="1190.6" height="1190.6"/></g><g id="_4x4" data-name="4x4"><rect class="cls-4" x="60.9" y="60.9" width="239.5" height="239.5"/><rect class="cls-4" x="60.9" y="337.3" width="239.5" height="239.5"/><rect class="cls-4" x="337.3" y="60.9" width="239.5" height="239.5"/><rect class="cls-4" x="337.3" y="337.3" width="239.5" height="239.5"/><rect class="cls-4" x="60.9" y="613.7" width="239.5" height="239.5"/><rect class="cls-4" x="337.3" y="613.7" width="239.5" height="239.5"/><rect class="cls-4" x="60.9" y="890.1" width="239.5" height="239.5"/><rect class="cls-4" x="337.3" y="890.1" width="239.5" height="239.5"/><rect class="cls-4" x="613.7" y="60.9" width="239.5" height="239.5"/><rect class="cls-4" x="613.7" y="337.3" width="239.5" height="239.5"/><rect class="cls-4" x="613.7" y="613.7" width="239.5" height="239.5"/><rect class="cls-4" x="613.7" y="890.1" width="239.5" height="239.5"/><rect class="cls-4" x="890.1" y="890.1" width="239.5" height="239.5"/><rect class="cls-4" x="890.1" y="613.7" width="239.5" height="239.5"/><rect class="cls-4" x="890.1" y="337.3" width="239.5" height="239.5"/><rect class="cls-4" x="890.1" y="60.9" width="239.5" height="239.5"/></g><g id="_5x5" data-name="5x5"><rect class="cls-5" x="60.9" y="60.9" width="184.3" height="184.3"/><rect class="cls-5" x="60.9" y="945.4" width="184.3" height="184.3"/><rect class="cls-5" x="945.4" y="60.9" width="184.3" height="184.3"/><rect class="cls-5" x="945.7" y="945.4" width="184.3" height="184.3"/><rect class="cls-5" x="282" y="60.9" width="184.3" height="184.3"/><rect class="cls-5" x="503.1" y="60.9" width="184.3" height="184.3"/><rect class="cls-5" x="724.3" y="60.9" width="184.3" height="184.3"/><rect class="cls-5" x="60.9" y="282" width="184.3" height="184.3"/><rect class="cls-5" x="282" y="282" width="184.3" height="184.3"/><rect class="cls-5" x="503.1" y="282" width="184.3" height="184.3"/><rect class="cls-5" x="724.3" y="282" width="184.3" height="184.3"/><rect class="cls-5" x="945.4" y="282" width="184.3" height="184.3"/><rect class="cls-5" x="60.9" y="503.1" width="184.3" height="184.3"/><rect class="cls-5" x="282" y="503.1" width="184.3" height="184.3"/><rect class="cls-5" x="503.1" y="503.1" width="184.3" height="184.3"/><rect class="cls-5" x="724.3" y="503.1" width="184.3" height="184.3"/><rect class="cls-5" x="945.4" y="503.1" width="184.3" height="184.3"/><rect class="cls-5" x="60.9" y="724.3" width="184.3" height="184.3"/><rect class="cls-5" x="282" y="724.3" width="184.3" height="184.3"/><rect class="cls-5" x="503.1" y="724.3" width="184.3" height="184.3"/><rect class="cls-5" x="724.3" y="724.3" width="184.3" height="184.3"/><rect class="cls-5" x="945.7" y="724.3" width="184.3" height="184.3"/><rect class="cls-5" x="282" y="945.4" width="184.3" height="184.3"/><rect class="cls-5" x="503.1" y="945.4" width="184.3" height="184.3"/><rect class="cls-5" x="724.3" y="945.4" width="184.3" height="184.3"/></g><g id="_6x6" data-name="6x6"><rect class="cls-3" x="60.9" y="982.2" width="147.4" height="147.4"/><rect class="cls-3" x="982.2" y="60.9" width="147.4" height="147.4"/><rect class="cls-3" x="982.2" y="982.2" width="147.4" height="147.4"/><rect class="cls-3" x="245.2" y="60.9" width="147.4" height="147.4"/><rect class="cls-3" x="60.9" y="245.2" width="147.4" height="147.4"/><rect class="cls-3" x="245.2" y="245.2" width="147.4" height="147.4"/><rect class="cls-3" x="60.9" y="429.4" width="147.4" height="147.4"/><rect class="cls-3" x="245.2" y="429.4" width="147.4" height="147.4"/><rect class="cls-3" x="60.9" y="613.7" width="147.4" height="147.4"/><rect class="cls-3" x="245.2" y="613.7" width="147.4" height="147.4"/><rect class="cls-3" x="60.9" y="798" width="147.4" height="147.4"/><rect class="cls-3" x="245.2" y="798" width="147.4" height="147.4"/><rect class="cls-3" x="245.2" y="982.2" width="147.4" height="147.4"/><rect class="cls-3" x="429.4" y="60.9" width="147.4" height="147.4"/><rect class="cls-3" x="429.4" y="245.2" width="147.4" height="147.4"/><rect class="cls-3" x="429.4" y="429.4" width="147.4" height="147.4"/><rect class="cls-3" x="429.4" y="613.7" width="147.4" height="147.4"/><rect class="cls-3" x="429.4" y="798" width="147.4" height="147.4"/><rect class="cls-3" x="429.4" y="982.2" width="147.4" height="147.4"/><rect class="cls-3" x="613.7" y="60.9" width="147.4" height="147.4"/><rect class="cls-3" x="798" y="60.9" width="147.4" height="147.4"/><rect class="cls-3" x="613.7" y="245.2" width="147.4" height="147.4"/><rect class="cls-3" x="613.7" y="429.4" width="147.4" height="147.4"/><rect class="cls-3" x="613.7" y="613.7" width="147.4" height="147.4"/><rect class="cls-3" x="798" y="245.2" width="147.4" height="147.4"/><rect class="cls-3" x="982.2" y="245.2" width="147.4" height="147.4"/><rect class="cls-3" x="798" y="429.4" width="147.4" height="147.4"/><rect class="cls-3" x="982.2" y="429.4" width="147.4" height="147.4"/><rect class="cls-3" x="798" y="613.7" width="147.4" height="147.4"/><rect class="cls-3" x="982.2" y="613.7" width="147.4" height="147.4"/><rect class="cls-3" x="982.2" y="798" width="147.4" height="147.4"/><rect class="cls-3" x="798" y="798" width="147.4" height="147.4"/><rect class="cls-3" x="798" y="982.2" width="147.4" height="147.4"/><rect class="cls-3" x="613.7" y="798" width="147.4" height="147.4"/><rect class="cls-3" x="613.7" y="982.2" width="147.4" height="147.4"/></g><g class="cls-6"><g class="cls-7"><image width="1070" height="703" transform="translate(60.9 60.9)" xlink:href="../1x/890902_03.png"/></g></g></g><g id="tondo"><g class="cls-8"><image width="369" height="370" transform="translate(761.2 760.85)" xlink:href="../1x/890902_05.png"/></g></g></svg>