<svg xmlns="http://www.w3.org/2000/svg" xmlns:xlink="http://www.w3.org/1999/xlink" viewBox="0 0 1190.6 1190.6"><defs><style>.cls-1,.cls-3,.cls-4,.cls-5{fill:none;}.cls-2{fill:#95c11f;}.cls-3{stroke:#6ec4c7;}.cls-3,.cls-4,.cls-5{stroke-miterlimit:10;}.cls-4{stroke:#000;}.cls-5{stroke:#e94859;}.cls-6{clip-path:url(#clip-path);}.cls-7{clip-path:url(#clip-path-2);}.cls-8{clip-path:url(#clip-path-3);}.cls-9{font-size:60px;font-family:OpenSansCondensed-Bold, Open Sans Condensed;font-weight:700;}.cls-10{font-size:10px;font-family:EBGaramond-Italic, EB Garamond;font-style:italic;}.cls-11{letter-spacing:-0.02em;}.cls-12{letter-spacing:0em;}.cls-13{letter-spacing:-0.02em;}.cls-14{letter-spacing:-0.03em;}.cls-15{font-size:16px;font-family:OpenSans-Light, Open Sans;}.cls-16{letter-spacing:0.25em;}.cls-17{letter-spacing:0.25em;}.cls-18{letter-spacing:0.13em;}.cls-19{letter-spacing:-0.03em;}.cls-20{letter-spacing:-0.03em;}.cls-21{letter-spacing:0.07em;}.cls-22{letter-spacing:0.07em;}.cls-23{letter-spacing:-0.01em;}.cls-24{letter-spacing:-0.01em;}.cls-25{letter-spacing:0.02em;}.cls-26{letter-spacing:0.02em;}.cls-27{letter-spacing:0.16em;}.cls-28{letter-spacing:0.16em;}.cls-29{letter-spacing:0.07em;}.cls-30{letter-spacing:0.07em;}.cls-31{letter-spacing:-0.03em;}.cls-32{letter-spacing:-0.03em;}.cls-33{letter-spacing:0.14em;}.cls-34{letter-spacing:0.14em;}.cls-35{letter-spacing:-0.01em;}.cls-36{letter-spacing:-0.01em;}.cls-37{letter-spacing:0.21em;}.cls-38{letter-spacing:0.2em;}.cls-39{letter-spacing:0.2em;}.cls-40{letter-spacing:-0.03em;}.cls-41{letter-spacing:-0.03em;}.cls-42{letter-spacing:0.08em;}.cls-43{letter-spacing:0.08em;}.cls-44{letter-spacing:0.01em;}.cls-45{letter-spacing:0.01em;}.cls-46{letter-spacing:-0.03em;}.cls-47{letter-spacing:-0.03em;}.cls-48{letter-spacing:0.01em;}.cls-49{letter-spacing:0.01em;}</style><clipPath id="clip-path"><rect class="cls-1" x="60.9" y="60.9" width="147.4" height="147.4"/></clipPath><clipPath id="clip-path-2"><rect class="cls-1" x="60.9" y="60.9" width="1068.7" height="702.14"/></clipPath><clipPath id="clip-path-3"><circle class="cls-1" cx="945.4" cy="945.75" r="184.2"/></clipPath></defs><title>890902_06</title><g id="Livello_1" data-name="Livello 1"><g id="Livello_1-2" data-name="Livello 1"><rect class="cls-2" width="1190.6" height="1190.6"/><rect class="cls-3" width="1190.6" height="1190.6"/></g><g id="_4x4" data-name="4x4"><rect class="cls-4" x="60.9" y="60.9" width="239.5" height="239.5"/><rect class="cls-4" x="60.9" y="337.3" width="239.5" height="239.5"/><rect class="cls-4" x="337.3" y="60.9" width="239.5" height="239.5"/><rect class="cls-4" x="337.3" y="337.3" width="239.5" height="239.5"/><rect class="cls-4" x="60.9" y="613.7" width="239.5" height="239.5"/><rect class="cls-4" x="337.3" y="613.7" width="239.5" height="239.5"/><rect class="cls-4" x="60.9" y="890.1" width="239.5" height="239.5"/><rect class="cls-4" x="337.3" y="890.1" width="239.5" height="239.5"/><rect class="cls-4" x="613.7" y="60.9" width="239.5" height="239.5"/><rect class="cls-4" x="613.7" y="337.3" width="239.5" height="239.5"/><rect class="cls-4" x="613.7" y="613.7" width="239.5" height="239.5"/><rect class="cls-4" x="613.7" y="890.1" width="239.5" height="239.5"/><rect class="cls-4" x="890.1" y="890.1" width="239.5" height="239.5"/><rect class="cls-4" x="890.1" y="613.7" width="239.5" height="239.5"/><rect class="cls-4" x="890.1" y="337.3" width="239.5" height="239.5"/><rect class="cls-4" x="890.1" y="60.9" width="239.5" height="239.5"/></g><g id="_5x5" data-name="5x5"><rect class="cls-5" x="60.9" y="60.9" width="184.3" height="184.3"/><rect class="cls-5" x="60.9" y="945.4" width="184.3" height="184.3"/><rect class="cls-5" x="945.4" y="60.9" width="184.3" height="184.3"/><rect class="cls-5" x="945.7" y="945.4" width="184.3" height="184.3"/><rect class="cls-5" x="282" y="60.9" width="184.3" height="184.3"/><rect class="cls-5" x="503.1" y="60.9" width="184.3" height="184.3"/><rect class="cls-5" x="724.3" y="60.9" width="184.3" height="184.3"/><rect class="cls-5" x="60.9" y="282" width="184.3" height="184.3"/><rect class="cls-5" x="282" y="282" width="184.3" height="184.3"/><rect class="cls-5" x="503.1" y="282" width="184.3" height="184.3"/><rect class="cls-5" x="724.3" y="282" width="184.3" height="184.3"/><rect class="cls-5" x="945.4" y="282" width="184.3" height="184.3"/><rect class="cls-5" x="60.9" y="503.1" width="184.3" height="184.3"/><rect class="cls-5" x="282" y="503.1" width="184.3" height="184.3"/><rect class="cls-5" x="503.1" y="503.1" width="184.3" height="184.3"/><rect class="cls-5" x="724.3" y="503.1" width="184.3" height="184.3"/><rect class="cls-5" x="945.4" y="503.1" width="184.3" height="184.3"/><rect class="cls-5" x="60.9" y="724.3" width="184.3" height="184.3"/><rect class="cls-5" x="282" y="724.3" width="184.3" height="184.3"/><rect class="cls-5" x="503.1" y="724.3" width="184.3" height="184.3"/><rect class="cls-5" x="724.3" y="724.3" width="184.3" height="184.3"/><rect class="cls-5" x="945.7" y="724.3" width="184.3" height="184.3"/><rect class="cls-5" x="282" y="945.4" width="184.3" height="184.3"/><rect class="cls-5" x="503.1" y="945.4" width="184.3" height="184.3"/><rect class="cls-5" x="724.3" y="945.4" width="184.3" height="184.3"/></g><g id="_6x6" data-name="6x6"><rect class="cls-3" x="60.9" y="982.2" width="147.4" height="147.4"/><rect class="cls-3" x="982.2" y="60.9" width="147.4" height="147.4"/><rect class="cls-3" x="982.2" y="982.2" width="147.4" height="147.4"/><rect class="cls-3" x="245.2" y="60.9" width="147.4" height="147.4"/><rect class="cls-3" x="60.9" y="245.2" width="147.4" height="147.4"/><rect class="cls-3" x="245.2" y="245.2" width="147.4" height="147.4"/><rect class="cls-3" x="60.9" y="429.4" width="147.4" height="147.4"/><rect class="cls-3" x="245.2" y="429.4" width="147.4" height="147.4"/><rect class="cls-3" x="60.9" y="613.7" width="147.4" height="147.4"/><rect class="cls-3" x="245.2" y="613.7" width="147.4" height="147.4"/><rect class="cls-3" x="60.9" y="798" width="147.4" height="147.4"/><rect class="cls-3" x="245.2" y="798" width="147.4" height="147.4"/><rect class="cls-3" x="245.2" y="982.2" width="147.4" height="147.4"/><rect class="cls-3" x="429.4" y="60.9" width="147.4" height="147.4"/><rect class="cls-3" x="429.4" y="245.2" width="147.4" height="147.4"/><rect class="cls-3" x="429.4" y="429.4" width="147.4" height="147.4"/><rect class="cls-3" x="429.4" y="613.7" width="147.4" height="147.4"/><rect class="cls-3" x="429.4" y="798" width="147.4" height="147.4"/><rect class="cls-3" x="429.4" y="982.2" width="147.4" height="147.4"/><rect class="cls-3" x="613.7" y="60.9" width="147.4" height="147.4"/><rect class="cls-3" x="798" y="60.9" width="147.4" height="147.4"/><rect class="cls-3" x="613.7" y="245.2" width="147.4" height="147.4"/><rect class="cls-3" x="613.7" y="429.4" width="147.4" height="147.4"/><rect class="cls-3" x="613.7" y="613.7" width="147.4" height="147.4"/><rect class="cls-3" x="798" y="245.2" width="147.4" height="147.4"/><rect class="cls-3" x="982.2" y="245.2" width="147.4" height="147.4"/><rect class="cls-3" x="798" y="429.4" width="147.4" height="147.4"/><rect class="cls-3" x="982.2" y="429.4" width="147.4" height="147.4"/><rect class="cls-3" x="798" y="613.7" width="147.4" height="147.4"/><rect class="cls-3" x="982.2" y="613.7" width="147.4" height="147.4"/><rect class="cls-3" x="982.2" y="798" width="147.4" height="147.4"/><rect class="cls-3" x="798" y="798" width="147.4" height="147.4"/><rect class="cls-3" x="798" y="982.2" width="147.4" height="147.4"/><rect class="cls-3" x="613.7" y="798" width="147.4" height="147.4"/><rect class="cls-3" x="613.7" y="982.2" width="147.4" height="147.4"/></g><g class="cls-6"><g class="cls-7"><image width="1070" height="703" transform="translate(60.9 60.9)" xlink:href="../1x/890902_03.png"/></g></g></g><g id="tondo"><g class="cls-8"><image width="369" height="370" transform="translate(761.2 760.85)" xlink:href="../1x/890902_05.png"/></g></g><g id="titolo"><text class="cls-9" transform="translate(245.15 147.5)">Galassia Andromeda</text></g><g id="testo"><text class="cls-10" transform="translate(64 223.55)">Porz<tspan class="cls-11" x="17.32" y="0">i</tspan><tspan class="cls-12" x="20.06" y="0">one di c</tspan><tspan class="cls-13" x="47.77" y="0">i</tspan><tspan class="cls-14" x="50.51" y="0">e</tspan><tspan class="cls-12" x="53.67" y="0">lo</tspan></text><text class="cls-15" transform="translate(761.2 219.46)">Lorem<tspan class="cls-16" x="46.72" y="0"> </tspan><tspan x="54.9" y="0">ipsum</tspan><tspan class="cls-16" x="99.06" y="0"> </tspan><tspan x="107.24" y="0">dolor</tspan><tspan class="cls-17" x="145.36" y="0"> </tspan><tspan x="153.54" y="0">sit</tspan><tspan class="cls-16" x="169.97" y="0"> </tspan><tspan x="178.15" y="0">amet,</tspan><tspan class="cls-16" x="218.33" y="0"> </tspan><tspan x="226.52" y="0">consectetuer</tspan><tspan class="cls-16" x="320.71" y="0"> </tspan><tspan x="328.89" y="0">adipi</tspan><tspan x="363.65" y="0">-</tspan><tspan x="0" y="24">scing</tspan><tspan class="cls-18" x="36.48" y="24"> </tspan><tspan x="42.71" y="24">elit,</tspan><tspan class="cls-18" x="67.52" y="24"> </tspan><tspan x="73.75" y="24">sed</tspan><tspan class="cls-18" x="99.51" y="24"> </tspan><tspan x="105.74" y="24">diam</tspan><tspan class="cls-18" x="141.48" y="24"> </tspan><tspan x="147.71" y="24">nonummy</tspan><tspan class="cls-18" x="221" y="24"> </tspan><tspan x="227.23" y="24">nibh</tspan><tspan class="cls-18" x="259.24" y="24"> </tspan><tspan x="265.47" y="24">euismod</tspan><tspan class="cls-18" x="327.79" y="24"> </tspan><tspan x="334.02" y="24">tinci</tspan><tspan x="363.65" y="24">-</tspan><tspan x="0" y="48">dunt</tspan><tspan class="cls-19" x="33.76" y="48"> </tspan><tspan x="37.39" y="48">ut</tspan><tspan class="cls-20" x="52.19" y="48"> </tspan><tspan x="55.82" y="48">laoreet</tspan><tspan class="cls-19" x="106.44" y="48"> </tspan><tspan x="110.07" y="48">dolore</tspan><tspan class="cls-20" x="156.97" y="48"> </tspan><tspan x="160.6" y="48">magna</tspan><tspan class="cls-19" x="209.49" y="48"> </tspan><tspan x="213.12" y="48">aliquam</tspan><tspan class="cls-20" x="270.39" y="48"> </tspan><tspan x="274.03" y="48">erat</tspan><tspan class="cls-19" x="302.87" y="48"> </tspan><tspan x="306.5" y="48">volutpat. </tspan><tspan x="0" y="72">Ut</tspan><tspan class="cls-21" x="16.87" y="72"> </tspan><tspan x="22.09" y="72">wisi</tspan><tspan class="cls-22" x="48.34" y="72"> </tspan><tspan x="53.56" y="72">enim</tspan><tspan class="cls-21" x="89.52" y="72"> </tspan><tspan x="94.74" y="72">ad</tspan><tspan class="cls-21" x="112.74" y="72"> </tspan><tspan x="117.96" y="72">minim</tspan><tspan class="cls-22" x="162.88" y="72"> </tspan><tspan x="168.1" y="72">veniam,</tspan><tspan class="cls-21" x="223.32" y="72"> </tspan><tspan x="228.54" y="72">quis</tspan><tspan class="cls-22" x="258.57" y="72"> </tspan><tspan x="263.79" y="72">nostrud</tspan><tspan class="cls-21" x="320.6" y="72"> </tspan><tspan x="325.82" y="72">exerci </tspan><tspan x="0" y="96">tation</tspan><tspan class="cls-23" x="41.63" y="96"> </tspan><tspan x="45.64" y="96">ullamcorper</tspan><tspan class="cls-24" x="132.64" y="96"> </tspan><tspan x="136.65" y="96">suscipit</tspan><tspan class="cls-23" x="190.72" y="96"> </tspan><tspan x="194.73" y="96">lobortis</tspan><tspan class="cls-23" x="249.27" y="96"> </tspan><tspan x="253.28" y="96">nisl</tspan><tspan class="cls-23" x="277.41" y="96"> </tspan><tspan x="281.42" y="96">ut</tspan><tspan class="cls-24" x="296.22" y="96"> </tspan><tspan x="300.23" y="96">aliquip</tspan><tspan class="cls-23" x="348.04" y="96"> </tspan><tspan x="352.05" y="96">ex </tspan><tspan x="0" y="120">ea</tspan><tspan class="cls-25" x="17.26" y="120"> </tspan><tspan x="21.66" y="120">commodo</tspan><tspan class="cls-25" x="95.16" y="120"> </tspan><tspan x="99.56" y="120">consequat.</tspan><tspan class="cls-25" x="178.81" y="120"> </tspan><tspan x="183.21" y="120">Duis</tspan><tspan class="cls-26" x="215.02" y="120"> </tspan><tspan x="219.42" y="120">autem</tspan><tspan class="cls-25" x="265.6" y="120"> </tspan><tspan x="270" y="120">vel</tspan><tspan class="cls-25" x="289.75" y="120"> </tspan><tspan x="294.15" y="120">eum</tspan><tspan class="cls-25" x="326.49" y="120"> </tspan><tspan x="330.89" y="120">iriure </tspan><tspan x="0" y="144">dolor</tspan><tspan class="cls-27" x="38.12" y="144"> </tspan><tspan x="44.91" y="144">in</tspan><tspan class="cls-27" x="57.96" y="144"> </tspan><tspan x="64.76" y="144">hendrerit</tspan><tspan class="cls-27" x="132.15" y="144"> </tspan><tspan x="138.94" y="144">in</tspan><tspan class="cls-28" x="152" y="144"> </tspan><tspan x="158.79" y="144">vulputate</tspan><tspan class="cls-27" x="226.12" y="144"> </tspan><tspan x="232.92" y="144">velit</tspan><tspan class="cls-27" x="261.64" y="144"> </tspan><tspan x="268.43" y="144">esse</tspan><tspan class="cls-27" x="300.9" y="144"> </tspan><tspan x="307.69" y="144">molestie </tspan><tspan x="0" y="168">consequat,</tspan><tspan class="cls-29" x="78.88" y="168"> </tspan><tspan x="84.16" y="168">vel</tspan><tspan class="cls-30" x="103.91" y="168"> </tspan><tspan x="109.19" y="168">illum</tspan><tspan class="cls-29" x="143.6" y="168"> </tspan><tspan x="148.88" y="168">dolore</tspan><tspan class="cls-30" x="195.78" y="168"> </tspan><tspan x="201.06" y="168">eu</tspan><tspan class="cls-29" x="219.28" y="168"> </tspan><tspan x="224.56" y="168">feugiat</tspan><tspan class="cls-30" x="273.4" y="168"> </tspan><tspan x="278.68" y="168">nulla</tspan><tspan class="cls-29" x="313.27" y="168"> </tspan><tspan x="318.55" y="168">facilisis </tspan><tspan x="0" y="192">at</tspan><tspan class="cls-31" x="13.84" y="192"> </tspan><tspan x="17.57" y="192">vero</tspan><tspan class="cls-32" x="49.29" y="192"> </tspan><tspan x="53.03" y="192">eros</tspan><tspan class="cls-31" x="84.86" y="192"> </tspan><tspan x="88.59" y="192">et</tspan><tspan class="cls-31" x="102.74" y="192"> </tspan><tspan x="106.47" y="192">accumsan</tspan><tspan class="cls-32" x="179.08" y="192"> </tspan><tspan x="182.81" y="192">et</tspan><tspan class="cls-31" x="196.95" y="192"> </tspan><tspan x="200.68" y="192">iusto</tspan><tspan class="cls-31" x="235.92" y="192"> </tspan><tspan x="239.66" y="192">odio</tspan><tspan class="cls-32" x="271.55" y="192"> </tspan><tspan x="275.28" y="192">dignissim</tspan><tspan class="cls-31" x="342.49" y="192"> </tspan><tspan x="346.22" y="192">qui </tspan><tspan x="0" y="216">blandit</tspan><tspan class="cls-33" x="49.55" y="216"> </tspan><tspan x="55.89" y="216">praesent</tspan><tspan class="cls-33" x="119.93" y="216"> </tspan><tspan x="126.26" y="216">luptatum</tspan><tspan class="cls-33" x="191.6" y="216"> </tspan><tspan x="197.93" y="216">zzril</tspan><tspan class="cls-34" x="226.15" y="216"> </tspan><tspan x="232.48" y="216">delenit</tspan><tspan class="cls-33" x="281.6" y="216"> </tspan><tspan x="287.93" y="216">augue</tspan><tspan class="cls-33" x="332.43" y="216"> </tspan><tspan x="338.77" y="216">duis </tspan><tspan x="0" y="240">dolore</tspan><tspan class="cls-35" x="46.9" y="240"> </tspan><tspan x="50.94" y="240">te</tspan><tspan class="cls-36" x="65.08" y="240"> </tspan><tspan x="69.12" y="240">feugait</tspan><tspan class="cls-35" x="117.95" y="240"> </tspan><tspan x="121.99" y="240">nulla</tspan><tspan class="cls-35" x="156.58" y="240"> </tspan><tspan x="160.62" y="240">facilisi.</tspan><tspan class="cls-36" x="207.22" y="240"> </tspan><tspan x="211.26" y="240">Lorem</tspan><tspan class="cls-35" x="257.98" y="240"> </tspan><tspan x="262.02" y="240">ipsum</tspan><tspan class="cls-36" x="306.17" y="240"> </tspan><tspan x="310.21" y="240">dolor</tspan><tspan class="cls-35" x="348.33" y="240"> </tspan><tspan x="352.37" y="240">sit </tspan><tspan x="0" y="264">amet,</tspan><tspan class="cls-37" x="40.18" y="264"> </tspan><tspan x="47.74" y="264">cons</tspan><tspan class="cls-37" x="81.61" y="264"> </tspan><tspan x="89.17" y="264">ectetuer</tspan><tspan class="cls-37" x="149.49" y="264"> </tspan><tspan x="157.05" y="264">adipiscing</tspan><tspan class="cls-37" x="228.29" y="264"> </tspan><tspan x="235.85" y="264">elit,</tspan><tspan class="cls-37" x="260.66" y="264"> </tspan><tspan x="268.22" y="264">sed</tspan><tspan class="cls-37" x="293.98" y="264"> </tspan><tspan x="301.54" y="264">diam</tspan><tspan class="cls-37" x="337.28" y="264"> </tspan><tspan x="344.84" y="264">no</tspan><tspan x="363.65" y="264">-</tspan><tspan x="0" y="288">nummy</tspan><tspan class="cls-38" x="54.47" y="288"> </tspan><tspan x="61.85" y="288">nibh</tspan><tspan class="cls-39" x="93.87" y="288"> </tspan><tspan x="101.25" y="288">euismod</tspan><tspan class="cls-39" x="163.56" y="288"> </tspan><tspan x="170.95" y="288">tincidunt</tspan><tspan class="cls-38" x="234.34" y="288"> </tspan><tspan x="241.72" y="288">ut</tspan><tspan class="cls-38" x="256.52" y="288"> </tspan><tspan x="263.9" y="288">laoreet</tspan><tspan class="cls-39" x="314.52" y="288"> </tspan><tspan x="321.9" y="288">dolore </tspan><tspan x="0" y="312">magna</tspan><tspan class="cls-40" x="48.88" y="312"> </tspan><tspan x="52.57" y="312">aliquam</tspan><tspan class="cls-41" x="109.84" y="312"> </tspan><tspan x="113.53" y="312">erat</tspan><tspan class="cls-40" x="142.37" y="312"> </tspan><tspan x="146.06" y="312">volutpat.</tspan><tspan class="cls-40" x="208.36" y="312"> </tspan><tspan x="212.04" y="312">Ut</tspan><tspan class="cls-41" x="228.91" y="312"> </tspan><tspan x="232.6" y="312">wisi</tspan><tspan class="cls-40" x="258.86" y="312"> </tspan><tspan x="262.54" y="312">enim</tspan><tspan class="cls-41" x="298.5" y="312"> </tspan><tspan x="302.19" y="312">ad</tspan><tspan class="cls-40" x="320.19" y="312"> </tspan><tspan x="323.88" y="312">minim </tspan><tspan x="0" y="336">veniam,</tspan><tspan class="cls-42" x="55.22" y="336"> </tspan><tspan x="60.73" y="336">quis</tspan><tspan class="cls-42" x="90.76" y="336"> </tspan><tspan x="96.28" y="336">nostrud</tspan><tspan class="cls-43" x="153.09" y="336"> </tspan><tspan x="158.61" y="336">exerci</tspan><tspan class="cls-42" x="201.58" y="336"> </tspan><tspan x="207.1" y="336">tation</tspan><tspan class="cls-42" x="248.72" y="336"> </tspan><tspan x="254.24" y="336">ullamcorper</tspan><tspan class="cls-42" x="341.25" y="336"> </tspan><tspan x="346.76" y="336">su</tspan><tspan x="363.65" y="336">-</tspan><tspan x="0" y="360">scipit</tspan><tspan class="cls-44" x="37.17" y="360"> </tspan><tspan x="41.55" y="360">lobortis</tspan><tspan class="cls-45" x="96.1" y="360"> </tspan><tspan x="100.48" y="360">nisl</tspan><tspan class="cls-44" x="124.6" y="360"> </tspan><tspan x="128.98" y="360">ut</tspan><tspan class="cls-44" x="143.78" y="360"> </tspan><tspan x="148.16" y="360">aliquip</tspan><tspan class="cls-45" x="195.97" y="360"> </tspan><tspan x="200.35" y="360">ex</tspan><tspan class="cls-44" x="217.1" y="360"> </tspan><tspan x="221.48" y="360">ea</tspan><tspan class="cls-45" x="238.74" y="360"> </tspan><tspan x="243.12" y="360">commodo</tspan><tspan class="cls-44" x="316.62" y="360"> </tspan><tspan x="321" y="360">conse</tspan><tspan x="363.65" y="360">-</tspan><tspan x="0" y="384">quat.</tspan><tspan class="cls-46" x="36.6" y="384"> </tspan><tspan x="40.26" y="384">Lorem</tspan><tspan class="cls-46" x="86.98" y="384"> </tspan><tspan x="90.64" y="384">ipsum</tspan><tspan class="cls-46" x="134.8" y="384"> </tspan><tspan x="138.46" y="384">dolor</tspan><tspan class="cls-47" x="176.58" y="384"> </tspan><tspan x="180.24" y="384">sit</tspan><tspan class="cls-46" x="196.67" y="384"> </tspan><tspan x="200.33" y="384">amet,</tspan><tspan class="cls-46" x="240.51" y="384"> </tspan><tspan x="244.18" y="384">consectetuer</tspan><tspan class="cls-46" x="338.37" y="384"> </tspan><tspan x="342.03" y="384">adi</tspan><tspan x="363.65" y="384">-</tspan><tspan x="0" y="408">piscing</tspan><tspan class="cls-48" x="49.62" y="408"> </tspan><tspan x="53.97" y="408">elit,</tspan><tspan class="cls-49" x="78.78" y="408"> </tspan><tspan x="83.14" y="408">sed</tspan><tspan class="cls-48" x="108.9" y="408"> </tspan><tspan x="113.25" y="408">diam</tspan><tspan class="cls-48" x="148.99" y="408"> </tspan><tspan x="153.35" y="408">nonummy</tspan><tspan class="cls-48" x="226.63" y="408"> </tspan><tspan x="230.98" y="408">nibh</tspan><tspan class="cls-49" x="263" y="408"> </tspan><tspan x="267.35" y="408">euismod</tspan><tspan class="cls-48" x="329.66" y="408"> </tspan><tspan x="334.02" y="408">tinci</tspan><tspan x="363.65" y="408">-</tspan><tspan x="0" y="432">dunt</tspan><tspan class="cls-19" x="33.76" y="432"> </tspan><tspan x="37.39" y="432">ut</tspan><tspan class="cls-20" x="52.19" y="432"> </tspan><tspan x="55.82" y="432">laoreet</tspan><tspan class="cls-19" x="106.44" y="432"> </tspan><tspan x="110.07" y="432">dolore</tspan><tspan class="cls-20" x="156.97" y="432"> </tspan><tspan x="160.6" y="432">magna</tspan><tspan class="cls-19" x="209.49" y="432"> </tspan><tspan x="213.12" y="432">aliquam</tspan><tspan class="cls-20" x="270.39" y="432"> </tspan><tspan x="274.03" y="432">erat</tspan><tspan class="cls-19" x="302.87" y="432"> </tspan><tspan x="306.5" y="432">volutpat. </tspan><tspan x="0" y="456">Ut</tspan><tspan class="cls-21" x="16.87" y="456"> </tspan><tspan x="22.09" y="456">wisi</tspan><tspan class="cls-22" x="48.34" y="456"> </tspan><tspan x="53.56" y="456">enim</tspan><tspan class="cls-21" x="89.52" y="456"> </tspan><tspan x="94.74" y="456">ad</tspan><tspan class="cls-21" x="112.74" y="456"> </tspan><tspan x="117.96" y="456">minim</tspan><tspan class="cls-22" x="162.88" y="456"> </tspan><tspan x="168.1" y="456">veniam,</tspan><tspan class="cls-21" x="223.32" y="456"> </tspan><tspan x="228.54" y="456">quis</tspan><tspan class="cls-22" x="258.57" y="456"> </tspan><tspan x="263.79" y="456">nostrud</tspan><tspan class="cls-21" x="320.6" y="456"> </tspan><tspan x="325.82" y="456">exerci </tspan><tspan x="0" y="480">tation</tspan><tspan class="cls-23" x="41.63" y="480"> </tspan><tspan x="45.64" y="480">ullamcorper</tspan><tspan class="cls-24" x="132.64" y="480"> </tspan><tspan x="136.65" y="480">suscipit</tspan><tspan class="cls-23" x="190.72" y="480"> </tspan><tspan x="194.73" y="480">lobortis</tspan><tspan class="cls-23" x="249.27" y="480"> </tspan><tspan x="253.28" y="480">nisl</tspan><tspan class="cls-23" x="277.41" y="480"> </tspan><tspan x="281.42" y="480">ut</tspan><tspan class="cls-24" x="296.22" y="480"> </tspan><tspan x="300.23" y="480">aliquip</tspan><tspan class="cls-23" x="348.04" y="480"> </tspan><tspan x="352.05" y="480">ex </tspan><tspan x="0" y="504">ea</tspan><tspan class="cls-25" x="17.26" y="504"> </tspan><tspan x="21.66" y="504">commodo</tspan><tspan class="cls-25" x="95.16" y="504"> </tspan><tspan x="99.56" y="504">consequat.</tspan><tspan class="cls-25" x="178.81" y="504"> </tspan><tspan x="183.21" y="504">Duis</tspan><tspan class="cls-26" x="215.02" y="504"> </tspan><tspan x="219.42" y="504">autem</tspan><tspan class="cls-25" x="265.6" y="504"> </tspan><tspan x="270" y="504">vel</tspan><tspan class="cls-25" x="289.75" y="504"> </tspan><tspan x="294.15" y="504">eum</tspan><tspan class="cls-25" x="326.49" y="504"> </tspan><tspan x="330.89" y="504">iriure </tspan></text></g></svg>