<svg id="Livello_1" data-name="Livello 1" xmlns="http://www.w3.org/2000/svg" xmlns:xlink="http://www.w3.org/1999/xlink" viewBox="0 0 1191.6 1191.6"><defs><style>.cls-1,.cls-3{fill:none;}.cls-2{fill:#fff200;stroke:#000;}.cls-2,.cls-3{stroke-miterlimit:10;}.cls-3{stroke:#9e005d;}.cls-10,.cls-11,.cls-4,.cls-5,.cls-8,.cls-9{isolation:isolate;}.cls-12,.cls-5{font-size:16px;font-family:OpenSans-Light, Open Sans;}.cls-6{clip-path:url(#clip-path);}.cls-7{clip-path:url(#clip-path-2);}.cls-8{font-size:60px;font-family:OpenSansCondensed-Bold, Open Sans Condensed;font-weight:700;}.cls-10,.cls-11,.cls-9{font-size:10px;font-family:EBGaramond-Italic, EB Garamond;font-style:italic;}.cls-10{letter-spacing:-0.02em;}.cls-11{letter-spacing:-0.03em;}</style><clipPath id="clip-path"><rect class="cls-1" x="282.3" y="282" width="184.3" height="184.3"/></clipPath><clipPath id="clip-path-2"><circle class="cls-1" cx="890.4" cy="399.3" r="191"/></clipPath></defs><title>891250_07</title><rect class="cls-2" x="0.5" y="0.5" width="1190.6" height="1190.6"/><rect class="cls-3" x="61.2" y="60.9" width="239.5" height="239.5"/><rect class="cls-3" x="614" y="60.9" width="239.5" height="239.5"/><rect class="cls-3" x="890.4" y="60.9" width="239.5" height="239.5"/><rect class="cls-3" x="61.2" y="337.2" width="239.5" height="239.5"/><rect class="cls-3" x="337.6" y="337.2" width="239.5" height="239.5"/><rect class="cls-3" x="614" y="337.2" width="239.5" height="239.5"/><rect class="cls-3" x="890.4" y="337.2" width="239.5" height="239.5"/><rect class="cls-3" x="61.2" y="613.6" width="239.5" height="239.5"/><rect class="cls-3" x="337.6" y="613.6" width="239.5" height="239.5"/><rect class="cls-3" x="614" y="613.6" width="239.5" height="239.5"/><rect class="cls-3" x="890.4" y="613.6" width="239.5" height="239.5"/><rect class="cls-3" x="61.2" y="890" width="239.5" height="239.5"/><rect class="cls-3" x="337.6" y="890" width="239.5" height="239.5"/><rect class="cls-3" x="614" y="890" width="239.5" height="239.5"/><rect class="cls-3" x="890.4" y="890" width="239.5" height="239.5"/><rect class="cls-3" x="337.6" y="60.9" width="239.5" height="239.5"/><rect class="cls-3" x="61.2" y="60.9" width="184.3" height="184.3"/><rect class="cls-3" x="282.3" y="60.9" width="184.3" height="184.3"/><rect class="cls-3" x="503.4" y="60.9" width="184.3" height="184.3"/><rect class="cls-3" x="724.6" y="60.9" width="184.3" height="184.3"/><rect class="cls-3" x="945.7" y="60.9" width="184.3" height="184.3"/><rect class="cls-3" x="61.2" y="282" width="184.3" height="184.3"/><rect class="cls-3" x="503.4" y="282" width="184.3" height="184.3"/><rect class="cls-3" x="724.6" y="282" width="184.3" height="184.3"/><rect class="cls-3" x="945.7" y="282" width="184.3" height="184.3"/><rect class="cls-3" x="61.2" y="503.1" width="184.3" height="184.3"/><rect class="cls-3" x="282.3" y="503.1" width="184.3" height="184.3"/><rect class="cls-3" x="503.4" y="503.1" width="184.3" height="184.3"/><rect class="cls-3" x="724.6" y="503.1" width="184.3" height="184.3"/><rect class="cls-3" x="945.7" y="503.1" width="184.3" height="184.3"/><rect class="cls-3" x="61.2" y="724.2" width="184.3" height="184.3"/><rect class="cls-3" x="282.3" y="724.2" width="184.3" height="184.3"/><rect class="cls-3" x="503.4" y="724.2" width="184.3" height="184.3"/><rect class="cls-3" x="724.6" y="724.2" width="184.3" height="184.3"/><rect class="cls-3" x="945.7" y="724.2" width="184.3" height="184.3"/><rect class="cls-3" x="61.2" y="945.3" width="184.3" height="184.3"/><rect class="cls-3" x="282.3" y="945.3" width="184.3" height="184.3"/><rect class="cls-3" x="503.4" y="945.3" width="184.3" height="184.3"/><rect class="cls-3" x="724.6" y="945.3" width="184.3" height="184.3"/><rect class="cls-3" x="945.7" y="945.3" width="184.3" height="184.3"/><rect class="cls-3" x="61.2" y="60.9" width="147.4" height="147.4"/><rect class="cls-3" x="245.5" y="60.9" width="147.4" height="147.4"/><rect class="cls-3" x="429.7" y="60.9" width="147.4" height="147.4"/><rect class="cls-3" x="614" y="60.9" width="147.4" height="147.4"/><rect class="cls-3" x="798.3" y="60.9" width="147.4" height="147.4"/><rect class="cls-3" x="982.5" y="60.9" width="147.4" height="147.4"/><rect class="cls-3" x="61.2" y="245.1" width="147.4" height="147.4"/><rect class="cls-3" x="429.7" y="245.1" width="147.4" height="147.4"/><rect class="cls-3" x="614" y="245.1" width="147.4" height="147.4"/><rect class="cls-3" x="798.3" y="245.1" width="147.4" height="147.4"/><rect class="cls-3" x="982.5" y="245.1" width="147.4" height="147.4"/><g class="cls-4"><text class="cls-5" transform="translate(61.2 73.1)">Lorem ipsum dolor sit amet, consecteLorem ipsum dolor sit amet, con</text><text class="cls-5" transform="translate(564.77 73.1)">-</text><text class="cls-5" transform="translate(61.2 97.1)">sectetuer adipiscing elit, sed diam nonummy nibh euismod tincidunt ut </text><text class="cls-5" transform="translate(61.2 121.1)">laoreet dolore magna aliquam erat volutpat. Ut wisi enim ad minim </text><text class="cls-5" transform="translate(61.2 145.1)">veniam, quis nostrud exerci tation ullamcorper suscipit lobortis nisl ut </text><text class="cls-5" transform="translate(61.2 169.1)">aliquip ex ea commodo consequat. Duis autem vel eum iriure dolor in </text><text class="cls-5" transform="translate(61.2 193.1)">hendrerit in vulputate velit esse molestie consequat, vel illum dolore eu </text><text class="cls-5" transform="translate(61.2 217.1)">feugiat nulla facilisis at vero eros et accumsan et iusto odio dignissim </text><text class="cls-5" transform="translate(61.2 241.1)">qui blandit praesent luptatum zzril delenit augue duis dolore te feugait</text></g><rect class="cls-3" x="245.5" y="429.4" width="147.4" height="147.4"/><rect class="cls-3" x="429.7" y="429.4" width="147.4" height="147.4"/><rect class="cls-3" x="614" y="429.4" width="147.4" height="147.4"/><rect class="cls-3" x="798.3" y="429.4" width="147.4" height="147.4"/><rect class="cls-3" x="982.5" y="429.4" width="147.4" height="147.4"/><rect class="cls-3" x="61.2" y="613.6" width="147.4" height="147.4"/><rect class="cls-3" x="245.5" y="613.6" width="147.4" height="147.4"/><rect class="cls-3" x="429.7" y="613.6" width="147.4" height="147.4"/><rect class="cls-3" x="614" y="613.6" width="147.4" height="147.4"/><rect class="cls-3" x="798.3" y="613.6" width="147.4" height="147.4"/><rect class="cls-3" x="982.5" y="613.6" width="147.4" height="147.4"/><rect class="cls-3" x="61.2" y="797.9" width="147.4" height="147.4"/><rect class="cls-3" x="245.5" y="797.9" width="147.4" height="147.4"/><rect class="cls-3" x="429.7" y="797.9" width="147.4" height="147.4"/><rect class="cls-3" x="614" y="797.9" width="147.4" height="147.4"/><rect class="cls-3" x="798.3" y="797.9" width="147.4" height="147.4"/><rect class="cls-3" x="982.5" y="797.9" width="147.4" height="147.4"/><rect class="cls-3" x="61.2" y="982.1" width="147.4" height="147.4"/><rect class="cls-3" x="245.5" y="982.1" width="147.4" height="147.4"/><rect class="cls-3" x="429.7" y="982.1" width="147.4" height="147.4"/><rect class="cls-3" x="614" y="982.1" width="147.4" height="147.4"/><rect class="cls-3" x="798.3" y="982.1" width="147.4" height="147.4"/><rect class="cls-3" x="982.5" y="982.1" width="147.4" height="147.4"/><g class="cls-6"><image class="cls-4" width="540" height="810" transform="translate(61.2 61.3)" xlink:href="891250_03.estensione.png"/></g><g class="cls-7"><image class="cls-4" width="500" height="750" transform="translate(630 60.9)" xlink:href="891250_05.estensione.jpg"/></g><text class="cls-8" transform="translate(614 106)">Strumenti e metodi</text><g class="cls-4"><text class="cls-9" transform="translate(782 180)">Il c</text><text class="cls-10" transform="translate(793.61 180)">u</text><text class="cls-9" transform="translate(798.5 180)">ore d</text><text class="cls-11" transform="translate(816.66 180)">e</text><text class="cls-10" transform="translate(819.82 180)">l</text><text class="cls-9" transform="translate(822.53 180)">la foresta</text></g><text class="cls-12" transform="translate(107.01 823.66)">Lorem ipsum dolor <tspan x="-23.47" y="24">sit amet, consectetuer </tspan><tspan x="-37.26" y="48">adipiscing elit, sed diam no</tspan><tspan x="155.73" y="48">-</tspan><tspan x="-44.72" y="72">nummy nibh euismod tincidunt </tspan><tspan x="-46.55" y="96">ut laoreet dolore magna aliquam </tspan><tspan x="-41.87" y="120">erat volutpat. Ut wisi enim ad </tspan><tspan x="-31.64" y="144">minim veniam, quis nostrud </tspan><tspan x="-13.96" y="168">exerci tation ullamcor</tspan><tspan x="141.43" y="168">-</tspan><tspan x="17.68" y="192">per suscipit </tspan></text></svg>