<?xml version="1.0" encoding="utf-8"?>
<!-- Generator: Adobe Illustrator 22.1.0, SVG Export Plug-In . SVG Version: 6.00 Build 0)  -->
<svg version="1.1" id="Livello_1" xmlns="http://www.w3.org/2000/svg" xmlns:xlink="http://www.w3.org/1999/xlink" x="0px" y="0px"
	 viewBox="0 0 1190.6 1190.6" style="enable-background:new 0 0 1190.6 1190.6;" xml:space="preserve">
<style type="text/css">
	.st0{fill:#FFF200;stroke:#000000;stroke-miterlimit:10;}
	.st1{fill:none;stroke:#9E005D;stroke-miterlimit:10;}
	.st2{clip-path:url(#SVGID_4_);}
</style>
<title>Tavola disegno 1</title>
<rect x="0.2" y="0.4" class="st0" width="1190.6" height="1190.6"/>
<rect x="60.9" y="60.8" class="st1" width="239.5" height="239.5"/>
<rect x="613.7" y="60.8" class="st1" width="239.5" height="239.5"/>
<rect x="890.1" y="60.8" class="st1" width="239.5" height="239.5"/>
<rect x="60.9" y="337.1" class="st1" width="239.5" height="239.5"/>
<g>
	<defs>
		<rect id="SVGID_1_" x="337.3" y="337.1" width="239.5" height="239.5"/>
	</defs>
	<clipPath id="SVGID_2_">
		<use xlink:href="#SVGID_1_"  style="overflow:visible;"/>
	</clipPath>
	<g style="clip-path:url(#SVGID_2_);enable-background:new    ;">
		
			<image style="overflow:visible;" width="545" height="817" xlink:href="62B2B34.jpg"  transform="matrix(1.3064 0 0 1.3064 60.9443 61.4376)">
		</image>
	</g>
</g>
<rect x="613.7" y="337.1" class="st1" width="239.5" height="239.5"/>
<rect x="890.1" y="337.1" class="st1" width="239.5" height="239.5"/>
<rect x="60.9" y="613.5" class="st1" width="239.5" height="239.5"/>
<rect x="337.3" y="613.5" class="st1" width="239.5" height="239.5"/>
<rect x="613.7" y="613.5" class="st1" width="239.5" height="239.5"/>
<rect x="890.1" y="613.5" class="st1" width="239.5" height="239.5"/>
<rect x="60.9" y="889.9" class="st1" width="239.5" height="239.5"/>
<rect x="337.3" y="889.9" class="st1" width="239.5" height="239.5"/>
<rect x="613.7" y="889.9" class="st1" width="239.5" height="239.5"/>
<rect x="890.1" y="889.9" class="st1" width="239.5" height="239.5"/>
<rect x="337.3" y="60.8" class="st1" width="239.5" height="239.5"/>
<rect x="60.9" y="60.8" class="st1" width="184.3" height="184.3"/>
<rect x="282" y="60.8" class="st1" width="184.3" height="184.3"/>
<rect x="503.1" y="60.8" class="st1" width="184.3" height="184.3"/>
<rect x="724.3" y="60.8" class="st1" width="184.3" height="184.3"/>
<rect x="945.4" y="60.8" class="st1" width="184.3" height="184.3"/>
<rect x="60.9" y="281.9" class="st1" width="184.3" height="184.3"/>
<rect x="282" y="281.9" class="st1" width="184.3" height="184.3"/>
<rect x="503.1" y="281.9" class="st1" width="184.3" height="184.3"/>
<rect x="724.3" y="281.9" class="st1" width="184.3" height="184.3"/>
<rect x="945.4" y="281.9" class="st1" width="184.3" height="184.3"/>
<rect x="60.9" y="503" class="st1" width="184.3" height="184.3"/>
<rect x="282" y="503" class="st1" width="184.3" height="184.3"/>
<rect x="503.1" y="503" class="st1" width="184.3" height="184.3"/>
<rect x="724.3" y="503" class="st1" width="184.3" height="184.3"/>
<rect x="945.4" y="503" class="st1" width="184.3" height="184.3"/>
<rect x="60.9" y="724.1" class="st1" width="184.3" height="184.3"/>
<rect x="282" y="724.1" class="st1" width="184.3" height="184.3"/>
<rect x="503.1" y="724.1" class="st1" width="184.3" height="184.3"/>
<rect x="724.3" y="724.1" class="st1" width="184.3" height="184.3"/>
<rect x="945.4" y="724.1" class="st1" width="184.3" height="184.3"/>
<rect x="60.9" y="945.2" class="st1" width="184.3" height="184.3"/>
<rect x="282" y="945.2" class="st1" width="184.3" height="184.3"/>
<rect x="503.1" y="945.2" class="st1" width="184.3" height="184.3"/>
<rect x="724.3" y="945.2" class="st1" width="184.3" height="184.3"/>
<rect x="945.4" y="945.2" class="st1" width="184.3" height="184.3"/>
<rect x="60.9" y="60.8" class="st1" width="147.4" height="147.4"/>
<rect x="245.2" y="60.8" class="st1" width="147.4" height="147.4"/>
<rect x="429.4" y="60.8" class="st1" width="147.4" height="147.4"/>
<rect x="613.7" y="60.8" class="st1" width="147.4" height="147.4"/>
<rect x="798" y="60.8" class="st1" width="147.4" height="147.4"/>
<rect x="982.2" y="60.8" class="st1" width="147.4" height="147.4"/>
<rect x="60.9" y="245" class="st1" width="147.4" height="147.4"/>
<rect x="429.4" y="245" class="st1" width="147.4" height="147.4"/>
<rect x="613.7" y="245" class="st1" width="147.4" height="147.4"/>
<rect x="798" y="245" class="st1" width="147.4" height="147.4"/>
<rect x="982.2" y="245" class="st1" width="147.4" height="147.4"/>
<rect x="60.9" y="429.3" class="st1" width="147.4" height="147.4"/>
<rect x="245.2" y="429.3" class="st1" width="147.4" height="147.4"/>
<rect x="429.4" y="429.3" class="st1" width="147.4" height="147.4"/>
<rect x="613.7" y="429.3" class="st1" width="147.4" height="147.4"/>
<rect x="798" y="429.3" class="st1" width="147.4" height="147.4"/>
<rect x="982.2" y="429.3" class="st1" width="147.4" height="147.4"/>
<rect x="60.9" y="613.5" class="st1" width="147.4" height="147.4"/>
<rect x="245.2" y="613.5" class="st1" width="147.4" height="147.4"/>
<rect x="429.4" y="613.5" class="st1" width="147.4" height="147.4"/>
<rect x="613.7" y="613.5" class="st1" width="147.4" height="147.4"/>
<rect x="798" y="613.5" class="st1" width="147.4" height="147.4"/>
<rect x="982.2" y="613.5" class="st1" width="147.4" height="147.4"/>
<rect x="60.9" y="797.8" class="st1" width="147.4" height="147.4"/>
<rect x="245.2" y="797.8" class="st1" width="147.4" height="147.4"/>
<rect x="429.4" y="797.8" class="st1" width="147.4" height="147.4"/>
<rect x="613.7" y="797.8" class="st1" width="147.4" height="147.4"/>
<rect x="798" y="797.8" class="st1" width="147.4" height="147.4"/>
<rect x="982.2" y="797.8" class="st1" width="147.4" height="147.4"/>
<rect x="60.9" y="982" class="st1" width="147.4" height="147.4"/>
<rect x="245.2" y="982" class="st1" width="147.4" height="147.4"/>
<rect x="429.4" y="982" class="st1" width="147.4" height="147.4"/>
<rect x="613.7" y="982" class="st1" width="147.4" height="147.4"/>
<rect x="798" y="982" class="st1" width="147.4" height="147.4"/>
<rect x="982.2" y="982" class="st1" width="147.4" height="147.4"/>
<g>
	<g>
		<g>
			<g>
				<g>
					<defs>
						<circle id="SVGID_3_" cx="871.7" cy="318.7" r="249.8"/>
					</defs>
					<clipPath id="SVGID_4_">
						<use xlink:href="#SVGID_3_"  style="overflow:visible;"/>
					</clipPath>
					<g class="st2">
						
							<image style="overflow:visible;enable-background:new    ;" width="500" height="750" xlink:href="891250_05.estensione.jpg"  transform="matrix(1 0 0 1 621.6618 -39.5482)">
						</image>
					</g>
				</g>
			</g>
		</g>
	</g>
</g>
</svg>
