<svg id="Livello_1" data-name="Livello 1" xmlns="http://www.w3.org/2000/svg" xmlns:xlink="http://www.w3.org/1999/xlink" viewBox="0 0 1191.6 1191.6"><defs><style>.cls-1{fill:#fff200;stroke:#000;}.cls-1,.cls-2{stroke-miterlimit:10;}.cls-2{fill:none;stroke:#9e005d;}</style></defs><title>891250_03</title><rect class="cls-1" x="0.5" y="0.5" width="1190.6" height="1190.6"/><rect class="cls-2" x="61.2" y="60.9" width="239.5" height="239.5"/><rect class="cls-2" x="614" y="60.9" width="239.5" height="239.5"/><rect class="cls-2" x="890.4" y="60.9" width="239.5" height="239.5"/><rect class="cls-2" x="61.2" y="337.2" width="239.5" height="239.5"/><rect class="cls-2" x="337.6" y="337.2" width="239.5" height="239.5"/><rect class="cls-2" x="614" y="337.2" width="239.5" height="239.5"/><rect class="cls-2" x="890.4" y="337.2" width="239.5" height="239.5"/><rect class="cls-2" x="61.2" y="613.6" width="239.5" height="239.5"/><rect class="cls-2" x="337.6" y="613.6" width="239.5" height="239.5"/><rect class="cls-2" x="614" y="613.6" width="239.5" height="239.5"/><rect class="cls-2" x="890.4" y="613.6" width="239.5" height="239.5"/><rect class="cls-2" x="61.2" y="890" width="239.5" height="239.5"/><rect class="cls-2" x="337.6" y="890" width="239.5" height="239.5"/><rect class="cls-2" x="614" y="890" width="239.5" height="239.5"/><rect class="cls-2" x="890.4" y="890" width="239.5" height="239.5"/><rect class="cls-2" x="337.6" y="60.9" width="239.5" height="239.5"/><rect class="cls-2" x="61.2" y="60.9" width="184.3" height="184.3"/><rect class="cls-2" x="282.3" y="60.9" width="184.3" height="184.3"/><rect class="cls-2" x="503.4" y="60.9" width="184.3" height="184.3"/><rect class="cls-2" x="724.6" y="60.9" width="184.3" height="184.3"/><rect class="cls-2" x="945.7" y="60.9" width="184.3" height="184.3"/><rect class="cls-2" x="61.2" y="282" width="184.3" height="184.3"/><rect class="cls-2" x="282.3" y="282" width="184.3" height="184.3"/><rect class="cls-2" x="503.4" y="282" width="184.3" height="184.3"/><rect class="cls-2" x="724.6" y="282" width="184.3" height="184.3"/><rect class="cls-2" x="945.7" y="282" width="184.3" height="184.3"/><rect class="cls-2" x="61.2" y="503.1" width="184.3" height="184.3"/><rect class="cls-2" x="282.3" y="503.1" width="184.3" height="184.3"/><rect class="cls-2" x="503.4" y="503.1" width="184.3" height="184.3"/><rect class="cls-2" x="724.6" y="503.1" width="184.3" height="184.3"/><rect class="cls-2" x="945.7" y="503.1" width="184.3" height="184.3"/><rect class="cls-2" x="61.2" y="724.2" width="184.3" height="184.3"/><rect class="cls-2" x="282.3" y="724.2" width="184.3" height="184.3"/><rect class="cls-2" x="503.4" y="724.2" width="184.3" height="184.3"/><rect class="cls-2" x="724.6" y="724.2" width="184.3" height="184.3"/><rect class="cls-2" x="945.7" y="724.2" width="184.3" height="184.3"/><rect class="cls-2" x="61.2" y="945.3" width="184.3" height="184.3"/><rect class="cls-2" x="282.3" y="945.3" width="184.3" height="184.3"/><rect class="cls-2" x="503.4" y="945.3" width="184.3" height="184.3"/><rect class="cls-2" x="724.6" y="945.3" width="184.3" height="184.3"/><rect class="cls-2" x="945.7" y="945.3" width="184.3" height="184.3"/><rect class="cls-2" x="61.2" y="60.9" width="147.4" height="147.4"/><rect class="cls-2" x="245.5" y="60.9" width="147.4" height="147.4"/><rect class="cls-2" x="429.7" y="60.9" width="147.4" height="147.4"/><rect class="cls-2" x="614" y="60.9" width="147.4" height="147.4"/><rect class="cls-2" x="798.3" y="60.9" width="147.4" height="147.4"/><rect class="cls-2" x="982.5" y="60.9" width="147.4" height="147.4"/><rect class="cls-2" x="61.2" y="245.1" width="147.4" height="147.4"/><rect class="cls-2" x="429.7" y="245.1" width="147.4" height="147.4"/><rect class="cls-2" x="614" y="245.1" width="147.4" height="147.4"/><rect class="cls-2" x="798.3" y="245.1" width="147.4" height="147.4"/><rect class="cls-2" x="982.5" y="245.1" width="147.4" height="147.4"/><rect class="cls-2" x="61.2" y="429.4" width="147.4" height="147.4"/><rect class="cls-2" x="245.5" y="429.4" width="147.4" height="147.4"/><rect class="cls-2" x="429.7" y="429.4" width="147.4" height="147.4"/><rect class="cls-2" x="614" y="429.4" width="147.4" height="147.4"/><rect class="cls-2" x="798.3" y="429.4" width="147.4" height="147.4"/><rect class="cls-2" x="982.5" y="429.4" width="147.4" height="147.4"/><rect class="cls-2" x="61.2" y="613.6" width="147.4" height="147.4"/><rect class="cls-2" x="245.5" y="613.6" width="147.4" height="147.4"/><rect class="cls-2" x="429.7" y="613.6" width="147.4" height="147.4"/><rect class="cls-2" x="614" y="613.6" width="147.4" height="147.4"/><rect class="cls-2" x="798.3" y="613.6" width="147.4" height="147.4"/><rect class="cls-2" x="982.5" y="613.6" width="147.4" height="147.4"/><rect class="cls-2" x="61.2" y="797.9" width="147.4" height="147.4"/><rect class="cls-2" x="245.5" y="797.9" width="147.4" height="147.4"/><rect class="cls-2" x="429.7" y="797.9" width="147.4" height="147.4"/><rect class="cls-2" x="614" y="797.9" width="147.4" height="147.4"/><rect class="cls-2" x="798.3" y="797.9" width="147.4" height="147.4"/><rect class="cls-2" x="982.5" y="797.9" width="147.4" height="147.4"/><rect class="cls-2" x="61.2" y="982.1" width="147.4" height="147.4"/><rect class="cls-2" x="245.5" y="982.1" width="147.4" height="147.4"/><rect class="cls-2" x="429.7" y="982.1" width="147.4" height="147.4"/><rect class="cls-2" x="614" y="982.1" width="147.4" height="147.4"/><rect class="cls-2" x="798.3" y="982.1" width="147.4" height="147.4"/><rect class="cls-2" x="982.5" y="982.1" width="147.4" height="147.4"/><image width="540" height="810" transform="translate(61.2 61.3)" xlink:href="891250_03.estensione.png"/></svg>