<?xml version="1.0" encoding="utf-8"?>
<!-- Generator: Adobe Illustrator 22.1.0, SVG Export Plug-In . SVG Version: 6.00 Build 0)  -->
<svg version="1.1" xmlns="http://www.w3.org/2000/svg" xmlns:xlink="http://www.w3.org/1999/xlink" x="0px" y="0px"
	 viewBox="0 0 1190.6 1190.6" style="enable-background:new 0 0 1190.6 1190.6;" xml:space="preserve">
<style type="text/css">
	.st0{fill:#0F35F2;stroke:#009640;stroke-width:0.1;}
	.st1{fill:none;stroke:#009640;stroke-width:0.1;}
	.st2{fill:none;stroke:#000000;stroke-miterlimit:10;}
	.st3{clip-path:url(#SVGID_2_);}
	.st4{clip-path:url(#SVGID_4_);}
	.st5{font-family:'OpenSansCondensed-Bold';}
	.st6{font-size:61.5086px;}
	.st7{fill:none;}
	.st8{font-family:'OpenSansCondensed-Light';}
	.st9{font-size:18px;}
</style>
<g id="Livello_1">
	<g id="Livello_3">
		<rect x="-3.9" y="0.5" class="st0" width="1190.6" height="1190.6"/>
	</g>
	<g id="Livello_4">
		<rect x="58.4" y="61.9" class="st1" width="184.3" height="184.3"/>
		<rect x="279.5" y="61.9" class="st1" width="184.3" height="184.3"/>
		<rect x="500.7" y="61.9" class="st1" width="184.3" height="184.3"/>
		<rect x="721.8" y="61.9" class="st1" width="184.3" height="184.3"/>
		<rect x="942.9" y="61.9" class="st1" width="184.3" height="184.3"/>
		<rect x="58.4" y="283" class="st1" width="184.3" height="184.3"/>
		<rect x="279.5" y="283" class="st1" width="184.3" height="184.3"/>
		<rect x="500.7" y="283" class="st1" width="184.3" height="184.3"/>
		<rect x="721.8" y="283" class="st1" width="184.3" height="184.3"/>
		<rect x="942.9" y="283" class="st1" width="184.3" height="184.3"/>
		<rect x="58.4" y="504.1" class="st1" width="184.3" height="184.3"/>
		<rect x="279.5" y="504.1" class="st1" width="184.3" height="184.3"/>
		<rect x="500.7" y="504.1" class="st1" width="184.3" height="184.3"/>
		<rect x="721.8" y="504.1" class="st1" width="184.3" height="184.3"/>
		<rect x="942.9" y="504.1" class="st1" width="184.3" height="184.3"/>
		<rect x="58.4" y="725.2" class="st1" width="184.3" height="184.3"/>
		<rect x="279.5" y="725.2" class="st1" width="184.3" height="184.3"/>
		<rect x="500.7" y="725.2" class="st1" width="184.3" height="184.3"/>
		<rect x="721.8" y="725.2" class="st1" width="184.3" height="184.3"/>
		<rect x="942.9" y="725.2" class="st1" width="184.3" height="184.3"/>
		<rect x="58.4" y="946.3" class="st1" width="184.3" height="184.3"/>
		<rect x="279.5" y="946.3" class="st1" width="184.3" height="184.3"/>
		<rect x="500.7" y="946.3" class="st1" width="184.3" height="184.3"/>
		<rect x="721.8" y="946.3" class="st1" width="184.3" height="184.3"/>
		<rect x="942.9" y="946.3" class="st1" width="184.3" height="184.3"/>
	</g>
	<g id="Livello_5">
		<rect x="57.9" y="58.9" class="st1" width="147.4" height="147.4"/>
		<rect x="242.2" y="58.9" class="st1" width="147.4" height="147.4"/>
		<rect x="426.5" y="58.9" class="st1" width="147.4" height="147.4"/>
		<rect x="610.7" y="58.9" class="st1" width="147.4" height="147.4"/>
		<rect x="795" y="58.9" class="st1" width="147.4" height="147.4"/>
		<rect x="979.2" y="58.9" class="st1" width="147.4" height="147.4"/>
		<rect x="57.9" y="243.1" class="st1" width="147.4" height="147.4"/>
		<rect x="242.2" y="243.1" class="st1" width="147.4" height="147.4"/>
		<rect x="426.5" y="243.1" class="st1" width="147.4" height="147.4"/>
		<rect x="610.7" y="243.1" class="st1" width="147.4" height="147.4"/>
		<rect x="795" y="243.1" class="st1" width="147.4" height="147.4"/>
		<rect x="979.2" y="243.1" class="st1" width="147.4" height="147.4"/>
		<rect x="57.9" y="427.4" class="st1" width="147.4" height="147.4"/>
		<rect x="242.2" y="427.4" class="st1" width="147.4" height="147.4"/>
		<rect x="426.5" y="427.4" class="st1" width="147.4" height="147.4"/>
		<rect x="610.7" y="427.4" class="st1" width="147.4" height="147.4"/>
		<rect x="795" y="427.4" class="st1" width="147.4" height="147.4"/>
		<rect x="979.2" y="427.4" class="st1" width="147.4" height="147.4"/>
		<rect x="57.9" y="611.7" class="st1" width="147.4" height="147.4"/>
		<rect x="242.2" y="611.7" class="st1" width="147.4" height="147.4"/>
		<rect x="426.5" y="611.7" class="st1" width="147.4" height="147.4"/>
		<rect x="610.7" y="611.7" class="st1" width="147.4" height="147.4"/>
		<rect x="795" y="611.7" class="st1" width="147.4" height="147.4"/>
		<rect x="979.2" y="611.7" class="st1" width="147.4" height="147.4"/>
		<rect x="57.9" y="795.9" class="st1" width="147.4" height="147.4"/>
		<rect x="242.2" y="795.9" class="st1" width="147.4" height="147.4"/>
		<rect x="426.5" y="795.9" class="st1" width="147.4" height="147.4"/>
		<rect x="610.7" y="795.9" class="st1" width="147.4" height="147.4"/>
		<rect x="795" y="795.9" class="st1" width="147.4" height="147.4"/>
		<rect x="979.2" y="795.9" class="st1" width="147.4" height="147.4"/>
		<rect x="57.9" y="980.2" class="st1" width="147.4" height="147.4"/>
		<rect x="242.2" y="980.2" class="st1" width="147.4" height="147.4"/>
		<rect x="426.5" y="980.2" class="st1" width="147.4" height="147.4"/>
		<rect x="610.7" y="980.2" class="st1" width="147.4" height="147.4"/>
		<rect x="795" y="980.2" class="st1" width="147.4" height="147.4"/>
		<rect x="979.2" y="980.2" class="st1" width="147.4" height="147.4"/>
	</g>
	<g id="Livello_7">
	</g>
	<g id="Livello_1_1_">
		<rect x="60.9" y="61.3" class="st2" width="239.5" height="239.5"/>
		<rect x="337.3" y="61.3" class="st2" width="239.5" height="239.5"/>
		<rect x="613.7" y="61.3" class="st2" width="239.5" height="239.5"/>
		<rect x="890" y="61.3" class="st2" width="239.5" height="239.5"/>
		<g>
			<g>
				<defs>
					<rect id="SVGID_1_" x="60.9" y="337.7" width="239.5" height="239.5"/>
				</defs>
				<clipPath id="SVGID_2_">
					<use xlink:href="#SVGID_1_"  style="overflow:visible;"/>
				</clipPath>
				<g class="st3">
					
						<image style="overflow:visible;enable-background:new    ;" width="564" height="847" xlink:href="892967_03.estensione.jpg"  transform="matrix(0.3968 0 0 0.3978 63.0551 291.8552)">
					</image>
				</g>
			</g>
		</g>
		<rect x="337.3" y="337.7" class="st2" width="239.5" height="239.5"/>
		<rect x="613.7" y="337.7" class="st2" width="239.5" height="239.5"/>
		<rect x="890" y="337.7" class="st2" width="239.5" height="239.5"/>
		<rect x="60.9" y="614" class="st2" width="239.5" height="239.5"/>
		<rect x="337.3" y="614" class="st2" width="239.5" height="239.5"/>
		<rect x="613.7" y="614" class="st2" width="239.5" height="239.5"/>
		<rect x="890" y="614" class="st2" width="239.5" height="239.5"/>
		<rect x="60.9" y="890.4" class="st2" width="239.5" height="239.5"/>
		<rect x="337.3" y="890.4" class="st2" width="239.5" height="239.5"/>
		<rect x="613.7" y="890.4" class="st2" width="239.5" height="239.5"/>
		<rect x="890" y="890.4" class="st2" width="239.5" height="239.5"/>
	</g>
</g>
<g id="Livello_2">
	<g>
		<defs>
			<ellipse id="SVGID_3_" cx="465.6" cy="182.2" rx="95.6" ry="94.7"/>
		</defs>
		<clipPath id="SVGID_4_">
			<use xlink:href="#SVGID_3_"  style="overflow:visible;"/>
		</clipPath>
		<g id="Livello_6_1_" class="st4">
			
				<image style="overflow:visible;enable-background:new    ;" width="530" height="942" xlink:href="../Downloads/5c86ad1383acca1d98ab2d39b95b13d9.jpg"  transform="matrix(0.3895 0 0 0.2753 361.0045 25.7599)">
			</image>
		</g>
	</g>
</g>
<g id="Livello_3_1_">
	<text transform="matrix(0.9801 0 0 1 59.5166 300.9711)" class="st5 st6">Lorem ipsum</text>
	<rect x="615.6" y="62" class="st7" width="403.5" height="928.7"/>
	<text transform="matrix(1 0 0 1 615.5615 75.6818)"><tspan x="0" y="0" class="st8 st9">Lorem ipsum dolor sit amet, consectetuer adipiscing elit, sed diam </tspan><tspan x="0" y="21.6" class="st8 st9">nonummy nibh euismod tincidunt ut laoreet dolore magna aliquam </tspan><tspan x="0" y="43.2" class="st8 st9">erat volutpat. Ut wisi enim ad minim veniam, quis nostrud exerci </tspan><tspan x="0" y="64.8" class="st8 st9">tation ullamcorper suscipit lobortis nisl ut aliquip ex ea commodo </tspan><tspan x="0" y="86.4" class="st8 st9">consequat. Duis autem vel eum iriure dolor in hendrerit in vulputate </tspan><tspan x="0" y="108" class="st8 st9">velit esse molestie consequat, vel illum dolore eu feugiat nulla facili</tspan><tspan x="388.9" y="108" class="st8 st9">-</tspan><tspan x="0" y="129.6" class="st8 st9">sis at vero eros et accumsan et iusto odio dignissim qui blandit prae</tspan><tspan x="391.6" y="129.6" class="st8 st9">-</tspan><tspan x="0" y="151.2" class="st8 st9">sent luptatum zzril delenit augue duis dolore te feugait nulla facilisi.</tspan><tspan x="0" y="172.8" class="st8 st9">Lorem ipsum dolor sit amet, cons ectetuer adipiscing elit, sed diam </tspan><tspan x="0" y="194.4" class="st8 st9">nonummy nibh euismod tincidunt ut laoreet dolore magna aliquam </tspan><tspan x="0" y="216" class="st8 st9">erat volutpat. Ut wisi enim ad minim veniam, quis nostrud exerci </tspan><tspan x="0" y="237.6" class="st8 st9">tation ullamcorper suscipit lobortis nisl ut aliquip ex ea commodo </tspan><tspan x="0" y="259.2" class="st8 st9">consequat.</tspan><tspan x="0" y="280.8" class="st8 st9">Lorem ipsum dolor sit amet, consectetuer adipiscing elit, sed diam </tspan><tspan x="0" y="302.4" class="st8 st9">nonummy nibh euismod tincidunt ut laoreet dolore magna aliquam </tspan><tspan x="0" y="324" class="st8 st9">erat volutpat. Ut wisi enim ad minim veniam, quis nostrud exerci </tspan><tspan x="0" y="345.6" class="st8 st9">tation ullamcorper suscipit lobortis nisl ut aliquip ex ea commodo </tspan><tspan x="0" y="367.2" class="st8 st9">consequat. Duis autem vel eum iriure dolor in hendrerit in vulputate </tspan><tspan x="0" y="388.8" class="st8 st9">velit esse molestie consequat, vel illum dolore eu feugiat nulla facili</tspan><tspan x="388.9" y="388.8" class="st8 st9">-</tspan><tspan x="0" y="410.4" class="st8 st9">sis at vero eros et accumsan et iusto odio dignissim qui blandit prae</tspan><tspan x="391.6" y="410.4" class="st8 st9">-</tspan><tspan x="0" y="432" class="st8 st9">sent luptatum zzril delenit augue duis dolore te feugait nulla facilisi.</tspan><tspan x="0" y="453.6" class="st8 st9">Lorem ipsum dolor sit amet, cons ectetuer adipiscing elit, sed diam </tspan><tspan x="0" y="475.2" class="st8 st9">nonummy nibh euismod tincidunt ut laoreet dolore magna aliquam </tspan><tspan x="0" y="496.8" class="st8 st9">erat volutpat. Ut wisi enim ad minim veniam, quis nostrud exerci </tspan><tspan x="0" y="518.4" class="st8 st9">tation ullamcorper suscipit lobortis nisl ut aliquip ex ea commodo </tspan><tspan x="0" y="540" class="st8 st9">consequat.</tspan><tspan x="0" y="561.6" class="st8 st9">Lorem ipsum dolor sit amet, consectetuer adipiscing elit, sed diam </tspan><tspan x="0" y="583.2" class="st8 st9">nonummy nibh euismod tincidunt ut laoreet dolore magna aliquam </tspan><tspan x="0" y="604.8" class="st8 st9">erat volutpat. Ut wisi enim ad minim veniam, quis nostrud exerci </tspan><tspan x="0" y="626.4" class="st8 st9">tation ullamcorper suscipit lobortis nisl ut aliquip ex ea commodo </tspan><tspan x="0" y="648" class="st8 st9">consequat. Duis autem vel eum iriure dolor in hendrerit in vulputate </tspan><tspan x="0" y="669.6" class="st8 st9">velit esse molestie consequat, vel illum dolore eu feugiat nulla facili</tspan><tspan x="388.9" y="669.6" class="st8 st9">-</tspan><tspan x="0" y="691.2" class="st8 st9">sis at vero eros et accumsan et iusto odio dignissim qui blandit prae</tspan><tspan x="391.6" y="691.2" class="st8 st9">-</tspan><tspan x="0" y="712.8" class="st8 st9">sent luptatum zzril delenit augue duis dolore te feugait nulla facilisi.</tspan><tspan x="0" y="734.4" class="st8 st9">Lorem ipsum dolor sit amet, cons ectetuer adipiscing elit, sed diam </tspan><tspan x="0" y="756" class="st8 st9">nonummy nibh euismod tincidunt ut laoreet dolore magna aliquam </tspan><tspan x="0" y="777.6" class="st8 st9">erat volutpat. Ut wisi enim ad minim veniam, quis nostrud exerci </tspan><tspan x="0" y="799.2" class="st8 st9">tation ullamcorper suscipit lobortis nisl ut aliquip ex ea commodo </tspan><tspan x="0" y="820.8" class="st8 st9">consequat.</tspan><tspan x="0" y="842.4" class="st8 st9">Lorem ipsum dolor sit amet, consectetuer adipiscing elit, sed diam </tspan><tspan x="0" y="864" class="st8 st9">nonummy nibh euismod tincidunt ut laoreet dolore magna aliquam </tspan><tspan x="0" y="885.6" class="st8 st9">erat volutpat. Ut wisi enim ad minim veniam, quis nostrud exerci </tspan><tspan x="0" y="907.2" class="st8 st9">tation ullamcorper suscipit lobortis nisl ut aliquip ex ea commodo </tspan></text>
	<text transform="matrix(1 0 0 1 188.6245 591.6381)" class="st8 st9">Lorem ipsum</text>
</g>
<g id="Livello_4_1_">
	<ellipse class="st7" cx="312.6" cy="888.7" rx="267.8" ry="263.4"/>
	<text transform="matrix(1 0 0 1 285.1867 639.0618)"><tspan x="0" y="0" class="st8 st9">Lorem </tspan><tspan x="-82.1" y="21.6" class="st8 st9">ipsum dolor sit amet, consectetuer </tspan><tspan x="-121.7" y="43.2" class="st8 st9">adipiscing elit, sed diam nonummy nibh euismod </tspan><tspan x="-150.1" y="64.8" class="st8 st9">tincidunt ut laoreet dolore magna aliquam erat volutpat. Ut </tspan><tspan x="-172.1" y="86.4" class="st8 st9">wisi enim ad minim veniam, quis nostrud exerci tation ullamcorper </tspan><tspan x="-189.8" y="108" class="st8 st9">suscipit lobortis nisl ut aliquip ex ea commodo consequat. Duis autem vel </tspan><tspan x="-204.1" y="129.6" class="st8 st9">eum iriure dolor in hendrerit in vulputate velit esse molestie consequat, vel </tspan><tspan x="-215.6" y="151.2" class="st8 st9">illum dolore eu feugiat nulla facilisis at vero eros et accumsan et iusto odio dignis</tspan><tspan x="252.8" y="151.2" class="st8 st9">-</tspan><tspan x="-224.6" y="172.8" class="st8 st9">sim qui blandit praesent luptatum zzril delenit augue duis dolore te feugait nulla facili</tspan><tspan x="269.5" y="172.8" class="st8 st9">-</tspan><tspan x="-231.4" y="194.4" class="st8 st9">si.</tspan><tspan x="-236.3" y="216" class="st8 st9">Lorem ipsum dolor sit amet, cons ectetuer adipiscing elit, sed diam nonummy nibh eui</tspan><tspan x="265" y="216" class="st8 st9">-</tspan><tspan x="-239.2" y="237.6" class="st8 st9">smod tincidunt ut laoreet dolore magna aliquam erat volutpat. Ut wisi enim ad minim </tspan><tspan x="-240.2" y="259.2" class="st8 st9">veniam, quis nostrud exerci tation ullamcorper suscipit lobortis nisl ut aliquip ex ea commo</tspan><tspan x="286.8" y="259.2" class="st8 st9">-</tspan><tspan x="-238.5" y="280.8" class="st8 st9">do consequat.</tspan><tspan x="-235" y="302.4" class="st8 st9">Lorem ipsum dolor sit amet, consectetuer adipiscing elit, sed diam nonummy nibh eui</tspan><tspan x="262.9" y="302.4" class="st8 st9">-</tspan><tspan x="-229.5" y="324" class="st8 st9">smod tincidunt ut laoreet dolore magna aliquam erat volutpat. Ut wisi enim ad minim </tspan><tspan x="-222" y="345.6" class="st8 st9">veniam, quis nostrud exerci tation ullamcorper suscipit lobortis nisl ut aliquip ex ea </tspan><tspan x="-212.3" y="367.2" class="st8 st9">commodo consequat. Duis autem vel eum iriure dolor in hendrerit in vulputate </tspan><tspan x="-200" y="388.8" class="st8 st9">velit esse molestie consequat, vel illum dolore eu feugiat nulla facilisis at vero </tspan><tspan x="-184.7" y="410.4" class="st8 st9">eros et accumsan et iusto odio dignissim qui blandit praesent luptatum </tspan><tspan x="-165.8" y="432" class="st8 st9">zzril delenit augue duis dolore te feugait nulla facilisi.</tspan><tspan x="-142" y="453.6" class="st8 st9">Lorem ipsum dolor sit amet, cons ectetuer adipiscing elit, </tspan><tspan x="-110.9" y="475.2" class="st8 st9">sed diam nonummy nibh euismod tincidunt ut </tspan><tspan x="-65.3" y="496.8" class="st8 st9">laoreet dolore magna aliquam </tspan></text>
</g>
</svg>
