<?xml version="1.0" encoding="utf-8"?>
<!-- Generator: Adobe Illustrator 22.1.0, SVG Export Plug-In . SVG Version: 6.00 Build 0)  -->
<svg version="1.1" xmlns="http://www.w3.org/2000/svg" xmlns:xlink="http://www.w3.org/1999/xlink" x="0px" y="0px"
	 viewBox="0 0 1190.6 1190.6" style="enable-background:new 0 0 1190.6 1190.6;" xml:space="preserve">
<style type="text/css">
	.st0{fill:#0F35F2;stroke:#009640;stroke-width:0.1;}
	.st1{fill:none;stroke:#009640;stroke-width:0.1;}
	.st2{fill:none;stroke:#000000;stroke-miterlimit:10;}
	.st3{clip-path:url(#SVGID_2_);}
	.st4{clip-path:url(#SVGID_4_);}
</style>
<g id="Livello_1">
	<g id="Livello_3">
		<rect x="-3.9" y="0.5" class="st0" width="1190.6" height="1190.6"/>
	</g>
	<g id="Livello_4">
		<rect x="58.4" y="61.9" class="st1" width="184.3" height="184.3"/>
		<rect x="279.5" y="61.9" class="st1" width="184.3" height="184.3"/>
		<rect x="500.7" y="61.9" class="st1" width="184.3" height="184.3"/>
		<rect x="721.8" y="61.9" class="st1" width="184.3" height="184.3"/>
		<rect x="942.9" y="61.9" class="st1" width="184.3" height="184.3"/>
		<rect x="58.4" y="283" class="st1" width="184.3" height="184.3"/>
		<rect x="279.5" y="283" class="st1" width="184.3" height="184.3"/>
		<rect x="500.7" y="283" class="st1" width="184.3" height="184.3"/>
		<rect x="721.8" y="283" class="st1" width="184.3" height="184.3"/>
		<rect x="942.9" y="283" class="st1" width="184.3" height="184.3"/>
		<rect x="58.4" y="504.1" class="st1" width="184.3" height="184.3"/>
		<rect x="279.5" y="504.1" class="st1" width="184.3" height="184.3"/>
		<rect x="500.7" y="504.1" class="st1" width="184.3" height="184.3"/>
		<rect x="721.8" y="504.1" class="st1" width="184.3" height="184.3"/>
		<rect x="942.9" y="504.1" class="st1" width="184.3" height="184.3"/>
		<rect x="58.4" y="725.2" class="st1" width="184.3" height="184.3"/>
		<rect x="279.5" y="725.2" class="st1" width="184.3" height="184.3"/>
		<rect x="500.7" y="725.2" class="st1" width="184.3" height="184.3"/>
		<rect x="721.8" y="725.2" class="st1" width="184.3" height="184.3"/>
		<rect x="942.9" y="725.2" class="st1" width="184.3" height="184.3"/>
		<rect x="58.4" y="946.3" class="st1" width="184.3" height="184.3"/>
		<rect x="279.5" y="946.3" class="st1" width="184.3" height="184.3"/>
		<rect x="500.7" y="946.3" class="st1" width="184.3" height="184.3"/>
		<rect x="721.8" y="946.3" class="st1" width="184.3" height="184.3"/>
		<rect x="942.9" y="946.3" class="st1" width="184.3" height="184.3"/>
	</g>
	<g id="Livello_5">
		<rect x="57.9" y="58.9" class="st1" width="147.4" height="147.4"/>
		<rect x="242.2" y="58.9" class="st1" width="147.4" height="147.4"/>
		<rect x="426.5" y="58.9" class="st1" width="147.4" height="147.4"/>
		<rect x="610.7" y="58.9" class="st1" width="147.4" height="147.4"/>
		<rect x="795" y="58.9" class="st1" width="147.4" height="147.4"/>
		<rect x="979.2" y="58.9" class="st1" width="147.4" height="147.4"/>
		<rect x="57.9" y="243.1" class="st1" width="147.4" height="147.4"/>
		<rect x="242.2" y="243.1" class="st1" width="147.4" height="147.4"/>
		<rect x="426.5" y="243.1" class="st1" width="147.4" height="147.4"/>
		<rect x="610.7" y="243.1" class="st1" width="147.4" height="147.4"/>
		<rect x="795" y="243.1" class="st1" width="147.4" height="147.4"/>
		<rect x="979.2" y="243.1" class="st1" width="147.4" height="147.4"/>
		<rect x="57.9" y="427.4" class="st1" width="147.4" height="147.4"/>
		<rect x="242.2" y="427.4" class="st1" width="147.4" height="147.4"/>
		<rect x="426.5" y="427.4" class="st1" width="147.4" height="147.4"/>
		<rect x="610.7" y="427.4" class="st1" width="147.4" height="147.4"/>
		<rect x="795" y="427.4" class="st1" width="147.4" height="147.4"/>
		<rect x="979.2" y="427.4" class="st1" width="147.4" height="147.4"/>
		<rect x="57.9" y="611.7" class="st1" width="147.4" height="147.4"/>
		<rect x="242.2" y="611.7" class="st1" width="147.4" height="147.4"/>
		<rect x="426.5" y="611.7" class="st1" width="147.4" height="147.4"/>
		<rect x="610.7" y="611.7" class="st1" width="147.4" height="147.4"/>
		<rect x="795" y="611.7" class="st1" width="147.4" height="147.4"/>
		<rect x="979.2" y="611.7" class="st1" width="147.4" height="147.4"/>
		<rect x="57.9" y="795.9" class="st1" width="147.4" height="147.4"/>
		<rect x="242.2" y="795.9" class="st1" width="147.4" height="147.4"/>
		<rect x="426.5" y="795.9" class="st1" width="147.4" height="147.4"/>
		<rect x="610.7" y="795.9" class="st1" width="147.4" height="147.4"/>
		<rect x="795" y="795.9" class="st1" width="147.4" height="147.4"/>
		<rect x="979.2" y="795.9" class="st1" width="147.4" height="147.4"/>
		<rect x="57.9" y="980.2" class="st1" width="147.4" height="147.4"/>
		<rect x="242.2" y="980.2" class="st1" width="147.4" height="147.4"/>
		<rect x="426.5" y="980.2" class="st1" width="147.4" height="147.4"/>
		<rect x="610.7" y="980.2" class="st1" width="147.4" height="147.4"/>
		<rect x="795" y="980.2" class="st1" width="147.4" height="147.4"/>
		<rect x="979.2" y="980.2" class="st1" width="147.4" height="147.4"/>
	</g>
	<g id="Livello_7">
	</g>
	<g id="Livello_1_1_">
		<rect x="60.9" y="61.3" class="st2" width="239.5" height="239.5"/>
		<rect x="337.3" y="61.3" class="st2" width="239.5" height="239.5"/>
		<rect x="613.7" y="61.3" class="st2" width="239.5" height="239.5"/>
		<rect x="890" y="61.3" class="st2" width="239.5" height="239.5"/>
		<g>
			<g>
				<defs>
					<rect id="SVGID_1_" x="60.9" y="337.7" width="239.5" height="239.5"/>
				</defs>
				<clipPath id="SVGID_2_">
					<use xlink:href="#SVGID_1_"  style="overflow:visible;"/>
				</clipPath>
				<g class="st3">
					
						<image style="overflow:visible;enable-background:new    ;" width="564" height="847" xlink:href="892967_03.estensione.jpg"  transform="matrix(0.3968 0 0 0.3978 63.0551 291.8552)">
					</image>
				</g>
			</g>
		</g>
		<rect x="337.3" y="337.7" class="st2" width="239.5" height="239.5"/>
		<rect x="613.7" y="337.7" class="st2" width="239.5" height="239.5"/>
		<rect x="890" y="337.7" class="st2" width="239.5" height="239.5"/>
		<rect x="60.9" y="614" class="st2" width="239.5" height="239.5"/>
		<rect x="337.3" y="614" class="st2" width="239.5" height="239.5"/>
		<rect x="613.7" y="614" class="st2" width="239.5" height="239.5"/>
		<rect x="890" y="614" class="st2" width="239.5" height="239.5"/>
		<rect x="60.9" y="890.4" class="st2" width="239.5" height="239.5"/>
		<rect x="337.3" y="890.4" class="st2" width="239.5" height="239.5"/>
		<rect x="613.7" y="890.4" class="st2" width="239.5" height="239.5"/>
		<rect x="890" y="890.4" class="st2" width="239.5" height="239.5"/>
	</g>
</g>
<g id="Livello_2">
	<g>
		<defs>
			<ellipse id="SVGID_3_" cx="465.6" cy="182.2" rx="95.6" ry="94.7"/>
		</defs>
		<clipPath id="SVGID_4_">
			<use xlink:href="#SVGID_3_"  style="overflow:visible;"/>
		</clipPath>
		<g id="Livello_6_1_" class="st4">
			
				<image style="overflow:visible;enable-background:new    ;" width="530" height="942" xlink:href="../Downloads/5c86ad1383acca1d98ab2d39b95b13d9.jpg"  transform="matrix(0.3895 0 0 0.2753 361.0045 25.7599)">
			</image>
		</g>
	</g>
</g>
</svg>
