<?xml version="1.0" encoding="utf-8"?>
<!-- Generator: Adobe Illustrator 22.1.0, SVG Export Plug-In . SVG Version: 6.00 Build 0)  -->
<svg version="1.1" xmlns="http://www.w3.org/2000/svg" xmlns:xlink="http://www.w3.org/1999/xlink" x="0px" y="0px"
	 viewBox="0 0 1190.6 1190.6" style="enable-background:new 0 0 1190.6 1190.6;" xml:space="preserve">
<style type="text/css">
	.st0{fill:#0F35F2;stroke:#009640;stroke-width:0.1;}
	.st1{fill:none;stroke:#000000;stroke-miterlimit:10;}
	.st2{fill:none;stroke:#009640;stroke-width:0.1;}
</style>
<g id="Livello_3">
	<rect x="0.1" y="1.3" class="st0" width="1190.6" height="1190.6"/>
</g>
<g id="Livello_1">
	<rect x="60.9" y="61.3" class="st1" width="239.5" height="239.5"/>
	<rect x="337.3" y="61.3" class="st1" width="239.5" height="239.5"/>
	<rect x="613.7" y="61.3" class="st1" width="239.5" height="239.5"/>
	<rect x="890" y="61.3" class="st1" width="239.5" height="239.5"/>
	<rect x="60.9" y="337.7" class="st1" width="239.5" height="239.5"/>
	<rect x="337.3" y="337.7" class="st1" width="239.5" height="239.5"/>
	<rect x="613.7" y="337.7" class="st1" width="239.5" height="239.5"/>
	<rect x="890" y="337.7" class="st1" width="239.5" height="239.5"/>
	<rect x="60.9" y="614" class="st1" width="239.5" height="239.5"/>
	<rect x="337.3" y="614" class="st1" width="239.5" height="239.5"/>
	<rect x="613.7" y="614" class="st1" width="239.5" height="239.5"/>
	<rect x="890" y="614" class="st1" width="239.5" height="239.5"/>
	<rect x="60.9" y="890.4" class="st1" width="239.5" height="239.5"/>
	<rect x="337.3" y="890.4" class="st1" width="239.5" height="239.5"/>
	<rect x="613.7" y="890.4" class="st1" width="239.5" height="239.5"/>
	<rect x="890" y="890.4" class="st1" width="239.5" height="239.5"/>
</g>
<g id="Livello_4">
	<rect x="58.4" y="61.9" class="st2" width="184.3" height="184.3"/>
	<rect x="279.5" y="61.9" class="st2" width="184.3" height="184.3"/>
	<rect x="500.7" y="61.9" class="st2" width="184.3" height="184.3"/>
	<rect x="721.8" y="61.9" class="st2" width="184.3" height="184.3"/>
	<rect x="942.9" y="61.9" class="st2" width="184.3" height="184.3"/>
	<rect x="58.4" y="283" class="st2" width="184.3" height="184.3"/>
	<rect x="279.5" y="283" class="st2" width="184.3" height="184.3"/>
	<rect x="500.7" y="283" class="st2" width="184.3" height="184.3"/>
	<rect x="721.8" y="283" class="st2" width="184.3" height="184.3"/>
	<rect x="942.9" y="283" class="st2" width="184.3" height="184.3"/>
	<rect x="58.4" y="504.1" class="st2" width="184.3" height="184.3"/>
	<rect x="279.5" y="504.1" class="st2" width="184.3" height="184.3"/>
	<rect x="500.7" y="504.1" class="st2" width="184.3" height="184.3"/>
	<rect x="721.8" y="504.1" class="st2" width="184.3" height="184.3"/>
	<rect x="942.9" y="504.1" class="st2" width="184.3" height="184.3"/>
	<rect x="58.4" y="725.2" class="st2" width="184.3" height="184.3"/>
	<rect x="279.5" y="725.2" class="st2" width="184.3" height="184.3"/>
	<rect x="500.7" y="725.2" class="st2" width="184.3" height="184.3"/>
	<rect x="721.8" y="725.2" class="st2" width="184.3" height="184.3"/>
	<rect x="942.9" y="725.2" class="st2" width="184.3" height="184.3"/>
	<rect x="58.4" y="946.3" class="st2" width="184.3" height="184.3"/>
	<rect x="279.5" y="946.3" class="st2" width="184.3" height="184.3"/>
	<rect x="500.7" y="946.3" class="st2" width="184.3" height="184.3"/>
	<rect x="721.8" y="946.3" class="st2" width="184.3" height="184.3"/>
	<rect x="942.9" y="946.3" class="st2" width="184.3" height="184.3"/>
</g>
</svg>
