<svg id="Livello_1" data-name="Livello 1" xmlns="http://www.w3.org/2000/svg" xmlns:xlink="http://www.w3.org/1999/xlink" viewBox="0 0 1190.6 1190.6"><defs><style>.cls-1,.cls-3,.cls-4,.cls-5{fill:none;}.cls-2{fill:#e4a57f;}.cls-3{stroke:lime;}.cls-3,.cls-4,.cls-5{stroke-miterlimit:10;}.cls-4{stroke:#f0f;}.cls-5{stroke:aqua;}.cls-6{clip-path:url(#clip-path);}</style><clipPath id="clip-path"><rect class="cls-1" x="245.2" y="429.5" width="147.4" height="147.4"/></clipPath></defs><title>893093_04</title><g id="Livello_1-2" data-name="Livello 1"><rect class="cls-2" y="0.1" width="1190.6" height="1190.6"/></g><g id="Livello_2" data-name="Livello 2"><rect class="cls-3" x="890" y="890.4" width="239.5" height="239.5"/><rect class="cls-3" x="610.9" y="890.4" width="239.5" height="239.5"/><rect class="cls-3" x="337.4" y="890.4" width="239.5" height="239.5"/><rect class="cls-3" x="60.9" y="890.4" width="239.5" height="239.5"/><rect class="cls-3" x="890" y="614.1" width="239.5" height="239.5"/><rect class="cls-3" x="610.9" y="614.1" width="239.5" height="239.5"/><rect class="cls-3" x="337.4" y="614.1" width="239.5" height="239.5"/><rect class="cls-3" x="60.9" y="614.1" width="239.5" height="239.5"/><rect class="cls-3" x="890" y="337.7" width="239.5" height="239.5"/><rect class="cls-3" x="610.9" y="337.7" width="239.5" height="239.5"/><rect class="cls-3" x="337.4" y="337.7" width="239.5" height="239.5"/><rect class="cls-3" x="60.9" y="337.7" width="239.5" height="239.5"/><rect class="cls-3" x="890" y="60.9" width="239.5" height="239.5"/><rect class="cls-3" x="610.9" y="60.9" width="239.5" height="239.5"/><rect class="cls-3" x="337.4" y="61" width="239.5" height="239.5"/><rect class="cls-3" x="60.9" y="61" width="239.5" height="239.5"/></g><g id="Livello_3" data-name="Livello 3"><rect class="cls-4" x="945.3" y="60.9" width="184.3" height="184.2"/><rect class="cls-4" x="724.2" y="60.9" width="184.2" height="184.2"/><rect class="cls-4" x="503.1" y="60.9" width="184.3" height="184.2"/><rect class="cls-4" x="282" y="61" width="184.2" height="184.2"/><rect class="cls-4" x="60.9" y="61" width="184.2" height="184.2"/><rect class="cls-4" x="60.9" y="282.1" width="184.2" height="184.2"/><rect class="cls-4" x="282" y="282.1" width="184.2" height="184.2"/><rect class="cls-4" x="503.1" y="282.1" width="184.2" height="184.2"/><rect class="cls-4" x="724.2" y="282.1" width="184.2" height="184.2"/><rect class="cls-4" x="945.3" y="282.1" width="184.3" height="184.2"/><rect class="cls-4" x="60.9" y="503.3" width="184.2" height="184.3"/><rect class="cls-4" x="282" y="503.2" width="184.2" height="184.3"/><rect class="cls-4" x="503.1" y="503.3" width="184.3" height="184.3"/><rect class="cls-4" x="724.2" y="503.3" width="184.2" height="184.3"/><rect class="cls-4" x="945.3" y="503.2" width="184.3" height="184.3"/><rect class="cls-4" x="60.9" y="724.5" width="184.2" height="184.2"/><rect class="cls-4" x="282" y="724.2" width="184.2" height="184.2"/><rect class="cls-4" x="503.1" y="724.5" width="184.2" height="184.2"/><rect class="cls-4" x="724.2" y="724.2" width="184.2" height="184.2"/><rect class="cls-4" x="945.3" y="724.2" width="184.3" height="184.2"/><rect class="cls-4" x="60.9" y="945.7" width="184.2" height="184.2"/><rect class="cls-4" x="282" y="945.7" width="184.2" height="184.2"/><rect class="cls-4" x="503.1" y="945.7" width="184.3" height="184.2"/><rect class="cls-4" x="724.2" y="945.7" width="184.2" height="184.2"/><rect class="cls-4" x="945.3" y="945.7" width="184.3" height="184.2"/></g><g id="Livello_4" data-name="Livello 4"><rect class="cls-5" x="60.9" y="61" width="147.4" height="147.4"/><rect class="cls-5" x="245.2" y="60.9" width="147.4" height="147.4"/><rect class="cls-5" x="982.2" y="60.9" width="147.4" height="147.4"/><rect class="cls-5" x="429.5" y="60.9" width="147.4" height="147.4"/><rect class="cls-5" x="610.9" y="60.9" width="147.4" height="147.4"/><rect class="cls-5" x="797.9" y="60.9" width="147.4" height="147.4"/><rect class="cls-5" x="60.9" y="245.2" width="147.4" height="147.4"/><rect class="cls-5" x="245.2" y="245.2" width="147.4" height="147.4"/><rect class="cls-5" x="429.5" y="245.2" width="147.4" height="147.4"/><rect class="cls-5" x="610.9" y="245.2" width="147.4" height="147.4"/><rect class="cls-5" x="797.9" y="245.2" width="147.4" height="147.4"/><rect class="cls-5" x="982.2" y="245.2" width="147.4" height="147.4"/><rect class="cls-5" x="60.9" y="429.8" width="147.4" height="147.4"/><rect class="cls-5" x="245.2" y="429.8" width="147.4" height="147.4"/><rect class="cls-5" x="429.5" y="429.8" width="147.4" height="147.4"/><rect class="cls-5" x="610.9" y="429.8" width="147.4" height="147.4"/><rect class="cls-5" x="797.9" y="429.8" width="147.4" height="147.4"/><rect class="cls-5" x="982.2" y="429.8" width="147.4" height="147.4"/><rect class="cls-5" x="60.9" y="614.1" width="147.4" height="147.4"/><rect class="cls-5" x="245.2" y="614.1" width="147.4" height="147.4"/><rect class="cls-5" x="429.5" y="614.1" width="147.4" height="147.4"/><rect class="cls-5" x="610.9" y="614.1" width="147.4" height="147.4"/><rect class="cls-5" x="797.9" y="614.1" width="147.4" height="147.4"/><rect class="cls-5" x="60.9" y="61" width="147.4" height="147.4"/><rect class="cls-5" x="982.2" y="614.1" width="147.4" height="147.4"/><rect class="cls-5" x="60.9" y="798.3" width="147.4" height="147.4"/><rect class="cls-5" x="245.2" y="798.3" width="147.4" height="147.4"/><rect class="cls-5" x="429.5" y="798.3" width="147.4" height="147.4"/><rect class="cls-5" x="610.9" y="798.3" width="147.4" height="147.4"/><rect class="cls-5" x="797.9" y="798.3" width="147.4" height="147.4"/><rect class="cls-5" x="982.2" y="798.3" width="147.4" height="147.4"/><rect class="cls-5" x="60.9" y="982.6" width="147.4" height="147.4"/><rect class="cls-5" x="982.2" y="982.6" width="147.4" height="147.4"/><rect class="cls-5" x="245.2" y="982.6" width="147.4" height="147.4"/><rect class="cls-5" x="429.5" y="982.6" width="147.4" height="147.4"/><rect class="cls-5" x="610.9" y="982.6" width="147.4" height="147.4"/><rect class="cls-5" x="797.9" y="982.6" width="147.4" height="147.4"/></g><g class="cls-6"><image width="696" height="500" transform="translate(169.44 417.47) scale(0.34)" xlink:href="../893093_03.jpg"/></g></svg>