<svg id="Livello_1" data-name="Livello 1" xmlns="http://www.w3.org/2000/svg" xmlns:xlink="http://www.w3.org/1999/xlink" viewBox="0 0 1190.6 1190.6"><defs><style>.cls-1{fill:#e4a57f;}.cls-2,.cls-3,.cls-4{fill:none;stroke-miterlimit:10;}.cls-2{stroke:lime;}.cls-3{stroke:#f0f;}.cls-4{stroke:aqua;}.cls-5{isolation:isolate;}</style></defs><title>893093_03</title><g id="Livello_1-2" data-name="Livello 1-2"><rect class="cls-1" y="0.1" width="1190.6" height="1190.6"/></g><g id="Livello_2" data-name="Livello 2"><rect class="cls-2" x="890" y="890.4" width="239.5" height="239.5"/><rect class="cls-2" x="610.9" y="890.4" width="239.5" height="239.5"/><rect class="cls-2" x="337.4" y="890.4" width="239.5" height="239.5"/><rect class="cls-2" x="60.9" y="890.4" width="239.5" height="239.5"/><rect class="cls-2" x="890" y="614.1" width="239.5" height="239.5"/><rect class="cls-2" x="610.9" y="614.1" width="239.5" height="239.5"/><rect class="cls-2" x="337.4" y="614.1" width="239.5" height="239.5"/><rect class="cls-2" x="60.9" y="614.1" width="239.5" height="239.5"/><rect class="cls-2" x="890" y="337.7" width="239.5" height="239.5"/><rect class="cls-2" x="610.9" y="337.7" width="239.5" height="239.5"/><rect class="cls-2" x="337.4" y="337.7" width="239.5" height="239.5"/><rect class="cls-2" x="60.9" y="337.7" width="239.5" height="239.5"/><rect class="cls-2" x="890" y="60.9" width="239.5" height="239.5"/><rect class="cls-2" x="610.9" y="60.9" width="239.5" height="239.5"/><rect class="cls-2" x="337.4" y="61" width="239.5" height="239.5"/><rect class="cls-2" x="60.9" y="61" width="239.5" height="239.5"/></g><g id="Livello_3" data-name="Livello 3"><rect class="cls-3" x="945.3" y="60.9" width="184.3" height="184.2"/><rect class="cls-3" x="724.2" y="60.9" width="184.2" height="184.2"/><rect class="cls-3" x="503.1" y="60.9" width="184.3" height="184.2"/><rect class="cls-3" x="282" y="61" width="184.2" height="184.2"/><rect class="cls-3" x="60.9" y="61" width="184.2" height="184.2"/><rect class="cls-3" x="60.9" y="282.1" width="184.2" height="184.2"/><rect class="cls-3" x="282" y="282.1" width="184.2" height="184.2"/><rect class="cls-3" x="503.1" y="282.1" width="184.2" height="184.2"/><rect class="cls-3" x="724.2" y="282.1" width="184.2" height="184.2"/><rect class="cls-3" x="945.3" y="282.1" width="184.3" height="184.2"/><rect class="cls-3" x="60.9" y="503.3" width="184.2" height="184.3"/><rect class="cls-3" x="282" y="503.2" width="184.2" height="184.3"/><rect class="cls-3" x="503.1" y="503.3" width="184.3" height="184.3"/><rect class="cls-3" x="724.2" y="503.3" width="184.2" height="184.3"/><rect class="cls-3" x="945.3" y="503.2" width="184.3" height="184.3"/><rect class="cls-3" x="60.9" y="724.5" width="184.2" height="184.2"/><rect class="cls-3" x="282" y="724.2" width="184.2" height="184.2"/><rect class="cls-3" x="503.1" y="724.5" width="184.2" height="184.2"/><rect class="cls-3" x="724.2" y="724.2" width="184.2" height="184.2"/><rect class="cls-3" x="945.3" y="724.2" width="184.3" height="184.2"/><rect class="cls-3" x="60.9" y="945.7" width="184.2" height="184.2"/><rect class="cls-3" x="282" y="945.7" width="184.2" height="184.2"/><rect class="cls-3" x="503.1" y="945.7" width="184.3" height="184.2"/><rect class="cls-3" x="724.2" y="945.7" width="184.2" height="184.2"/><rect class="cls-3" x="945.3" y="945.7" width="184.3" height="184.2"/></g><g id="Livello_4" data-name="Livello 4"><rect class="cls-4" x="60.9" y="61" width="147.4" height="147.4"/><rect class="cls-4" x="245.2" y="60.9" width="147.4" height="147.4"/><rect class="cls-4" x="982.2" y="60.9" width="147.4" height="147.4"/><rect class="cls-4" x="429.5" y="60.9" width="147.4" height="147.4"/><rect class="cls-4" x="610.9" y="60.9" width="147.4" height="147.4"/><rect class="cls-4" x="797.9" y="60.9" width="147.4" height="147.4"/><rect class="cls-4" x="60.9" y="245.2" width="147.4" height="147.4"/><rect class="cls-4" x="245.2" y="245.2" width="147.4" height="147.4"/><rect class="cls-4" x="429.5" y="245.2" width="147.4" height="147.4"/><rect class="cls-4" x="610.9" y="245.2" width="147.4" height="147.4"/><rect class="cls-4" x="797.9" y="245.2" width="147.4" height="147.4"/><rect class="cls-4" x="982.2" y="245.2" width="147.4" height="147.4"/><rect class="cls-4" x="60.9" y="429.8" width="147.4" height="147.4"/><rect class="cls-4" x="245.2" y="429.8" width="147.4" height="147.4"/><rect class="cls-4" x="429.5" y="429.8" width="147.4" height="147.4"/><rect class="cls-4" x="610.9" y="429.8" width="147.4" height="147.4"/><rect class="cls-4" x="797.9" y="429.8" width="147.4" height="147.4"/><rect class="cls-4" x="982.2" y="429.8" width="147.4" height="147.4"/><rect class="cls-4" x="60.9" y="614.1" width="147.4" height="147.4"/><rect class="cls-4" x="245.2" y="614.1" width="147.4" height="147.4"/><rect class="cls-4" x="429.5" y="614.1" width="147.4" height="147.4"/><rect class="cls-4" x="610.9" y="614.1" width="147.4" height="147.4"/><rect class="cls-4" x="797.9" y="614.1" width="147.4" height="147.4"/><rect class="cls-4" x="60.9" y="61" width="147.4" height="147.4"/><rect class="cls-4" x="982.2" y="614.1" width="147.4" height="147.4"/><rect class="cls-4" x="60.9" y="798.3" width="147.4" height="147.4"/><rect class="cls-4" x="245.2" y="798.3" width="147.4" height="147.4"/><rect class="cls-4" x="429.5" y="798.3" width="147.4" height="147.4"/><rect class="cls-4" x="610.9" y="798.3" width="147.4" height="147.4"/><rect class="cls-4" x="797.9" y="798.3" width="147.4" height="147.4"/><rect class="cls-4" x="982.2" y="798.3" width="147.4" height="147.4"/><rect class="cls-4" x="60.9" y="982.6" width="147.4" height="147.4"/><rect class="cls-4" x="982.2" y="982.6" width="147.4" height="147.4"/><rect class="cls-4" x="245.2" y="982.6" width="147.4" height="147.4"/><rect class="cls-4" x="429.5" y="982.6" width="147.4" height="147.4"/><rect class="cls-4" x="610.9" y="982.6" width="147.4" height="147.4"/><rect class="cls-4" x="797.9" y="982.6" width="147.4" height="147.4"/></g><image class="cls-5" width="696" height="500" transform="translate(318.72 343.25) scale(0.74)" xlink:href="../893093_03.jpg"/></svg>