<svg xmlns="http://www.w3.org/2000/svg" xmlns:xlink="http://www.w3.org/1999/xlink" viewBox="0 0 1190.6 1190.6"><defs><style>.cls-1,.cls-3,.cls-4,.cls-5{fill:none;}.cls-2{fill:#e4a57f;}.cls-3{stroke:lime;}.cls-3,.cls-4,.cls-5{stroke-miterlimit:10;}.cls-4{stroke:#f0f;}.cls-5{stroke:aqua;}.cls-6{clip-path:url(#clip-path);}.cls-10,.cls-11,.cls-12,.cls-13,.cls-7,.cls-9{isolation:isolate;}.cls-8{clip-path:url(#clip-path-2);}.cls-9{font-size:60px;font-family:OpenSansCondensed-Bold, Open Sans Condensed;font-weight:700;}.cls-10{font-size:16px;font-family:OpenSans-Light, Open Sans;}.cls-11,.cls-12,.cls-13{font-size:10px;font-family:EBGaramond-Italic, EB Garamond;font-style:italic;}.cls-12{letter-spacing:-0.02em;}.cls-13{letter-spacing:-0.01em;}</style><clipPath id="clip-path"><rect class="cls-1" x="245.2" y="429.5" width="147.4" height="147.4"/></clipPath><clipPath id="clip-path-2"><circle class="cls-1" cx="871.6" cy="687.8" r="87.5"/></clipPath></defs><title>893093_07</title><g id="Livello_1" data-name="Livello 1"><g id="Livello_1-2" data-name="Livello 1"><g id="Livello_1-2-2" data-name="Livello 1-2"><rect class="cls-2" width="1190.6" height="1190.6"/></g><g id="Livello_2" data-name="Livello 2"><rect class="cls-3" x="890" y="890.4" width="239.5" height="239.5"/><rect class="cls-3" x="610.9" y="890.4" width="239.5" height="239.5"/><rect class="cls-3" x="337.4" y="890.4" width="239.5" height="239.5"/><rect class="cls-3" x="60.9" y="890.4" width="239.5" height="239.5"/><rect class="cls-3" x="890" y="614.1" width="239.5" height="239.5"/><rect class="cls-3" x="610.9" y="614.1" width="239.5" height="239.5"/><rect class="cls-3" x="337.4" y="614.1" width="239.5" height="239.5"/><rect class="cls-3" x="60.9" y="614.1" width="239.5" height="239.5"/><rect class="cls-3" x="890" y="337.7" width="239.5" height="239.5"/><rect class="cls-3" x="610.9" y="337.7" width="239.5" height="239.5"/><rect class="cls-3" x="337.4" y="337.7" width="239.5" height="239.5"/><rect class="cls-3" x="60.9" y="337.7" width="239.5" height="239.5"/><rect class="cls-3" x="890" y="60.9" width="239.5" height="239.5"/><rect class="cls-3" x="610.9" y="60.9" width="239.5" height="239.5"/><rect class="cls-3" x="337.4" y="61" width="239.5" height="239.5"/><rect class="cls-3" x="60.9" y="61" width="239.5" height="239.5"/></g><g id="Livello_3" data-name="Livello 3"><rect class="cls-4" x="945.3" y="60.9" width="184.3" height="184.2"/><rect class="cls-4" x="724.2" y="60.9" width="184.2" height="184.2"/><rect class="cls-4" x="503.1" y="60.9" width="184.3" height="184.2"/><rect class="cls-4" x="282" y="61" width="184.2" height="184.2"/><rect class="cls-4" x="60.9" y="61" width="184.2" height="184.2"/><rect class="cls-4" x="60.9" y="282.1" width="184.2" height="184.2"/><rect class="cls-4" x="282" y="282.1" width="184.2" height="184.2"/><rect class="cls-4" x="503.1" y="282.1" width="184.2" height="184.2"/><rect class="cls-4" x="724.2" y="282.1" width="184.2" height="184.2"/><rect class="cls-4" x="945.3" y="282.1" width="184.3" height="184.2"/><rect class="cls-4" x="60.9" y="503.3" width="184.2" height="184.3"/><rect class="cls-4" x="282" y="503.2" width="184.2" height="184.3"/><rect class="cls-4" x="503.1" y="503.3" width="184.3" height="184.3"/><rect class="cls-4" x="724.2" y="503.3" width="184.2" height="184.3"/><rect class="cls-4" x="945.3" y="503.2" width="184.3" height="184.3"/><rect class="cls-4" x="60.9" y="724.5" width="184.2" height="184.2"/><rect class="cls-4" x="282" y="724.2" width="184.2" height="184.2"/><rect class="cls-4" x="503.1" y="724.5" width="184.2" height="184.2"/><rect class="cls-4" x="724.2" y="724.2" width="184.2" height="184.2"/><rect class="cls-4" x="945.3" y="724.2" width="184.3" height="184.2"/><rect class="cls-4" x="60.9" y="945.7" width="184.2" height="184.2"/><rect class="cls-4" x="282" y="945.7" width="184.2" height="184.2"/><rect class="cls-4" x="503.1" y="945.7" width="184.3" height="184.2"/><rect class="cls-4" x="724.2" y="945.7" width="184.2" height="184.2"/><rect class="cls-4" x="945.3" y="945.7" width="184.3" height="184.2"/></g><g id="Livello_4" data-name="Livello 4"><rect class="cls-5" x="60.9" y="61" width="147.4" height="147.4"/><rect class="cls-5" x="245.2" y="60.9" width="147.4" height="147.4"/><rect class="cls-5" x="982.2" y="60.9" width="147.4" height="147.4"/><rect class="cls-5" x="429.5" y="60.9" width="147.4" height="147.4"/><rect class="cls-5" x="610.9" y="60.9" width="147.4" height="147.4"/><rect class="cls-5" x="797.9" y="60.9" width="147.4" height="147.4"/><rect class="cls-5" x="60.9" y="245.2" width="147.4" height="147.4"/><rect class="cls-5" x="245.2" y="245.2" width="147.4" height="147.4"/><rect class="cls-5" x="429.5" y="245.2" width="147.4" height="147.4"/><rect class="cls-5" x="610.9" y="245.2" width="147.4" height="147.4"/><rect class="cls-5" x="797.9" y="245.2" width="147.4" height="147.4"/><rect class="cls-5" x="982.2" y="245.2" width="147.4" height="147.4"/><rect class="cls-5" x="60.9" y="429.8" width="147.4" height="147.4"/><rect class="cls-5" x="245.2" y="429.8" width="147.4" height="147.4"/><rect class="cls-5" x="429.5" y="429.8" width="147.4" height="147.4"/><rect class="cls-5" x="610.9" y="429.8" width="147.4" height="147.4"/><rect class="cls-5" x="797.9" y="429.8" width="147.4" height="147.4"/><rect class="cls-5" x="982.2" y="429.8" width="147.4" height="147.4"/><rect class="cls-5" x="60.9" y="614.1" width="147.4" height="147.4"/><rect class="cls-5" x="245.2" y="614.1" width="147.4" height="147.4"/><rect class="cls-5" x="429.5" y="614.1" width="147.4" height="147.4"/><rect class="cls-5" x="610.9" y="614.1" width="147.4" height="147.4"/><rect class="cls-5" x="797.9" y="614.1" width="147.4" height="147.4"/><rect class="cls-5" x="60.9" y="61" width="147.4" height="147.4"/><rect class="cls-5" x="982.2" y="614.1" width="147.4" height="147.4"/><rect class="cls-5" x="60.9" y="798.3" width="147.4" height="147.4"/><rect class="cls-5" x="245.2" y="798.3" width="147.4" height="147.4"/><rect class="cls-5" x="429.5" y="798.3" width="147.4" height="147.4"/><rect class="cls-5" x="610.9" y="798.3" width="147.4" height="147.4"/><rect class="cls-5" x="797.9" y="798.3" width="147.4" height="147.4"/><rect class="cls-5" x="982.2" y="798.3" width="147.4" height="147.4"/><rect class="cls-5" x="60.9" y="982.6" width="147.4" height="147.4"/><rect class="cls-5" x="982.2" y="982.6" width="147.4" height="147.4"/><rect class="cls-5" x="245.2" y="982.6" width="147.4" height="147.4"/><rect class="cls-5" x="429.5" y="982.6" width="147.4" height="147.4"/><rect class="cls-5" x="610.9" y="982.6" width="147.4" height="147.4"/><rect class="cls-5" x="797.9" y="982.6" width="147.4" height="147.4"/></g><g class="cls-6"><image class="cls-7" width="696" height="500" transform="translate(169.44 417.47) scale(0.34)" xlink:href="../893093_03.jpg"/></g><g class="cls-8"><image class="cls-7" width="1454" height="1352" transform="translate(733.49 561.55) scale(0.16)" xlink:href="../893093_02.jpg"/></g></g><g id="Modalità_Isolamento" data-name="Modalità Isolamento"><text class="cls-9" transform="translate(337.4 117.96)">Martina Dal Bianco</text><text class="cls-10" transform="translate(429.5 444.6)">Lorem ipsum dolor sit amet, con</text><text class="cls-10" transform="translate(662.3 444.6)">-</text><text class="cls-10" transform="translate(429.5 468.6)">sectetuer adipiscing elit, sed</text><text class="cls-10" transform="translate(429.5 492.6)">diam nonummy nibh euismod</text><text class="cls-10" transform="translate(429.5 516.6)">tincidunt ut laoreet dolore</text><text class="cls-10" transform="translate(429.5 540.6)">magna aliquam erat volutpat. Ut</text><text class="cls-10" transform="translate(429.5 564.6)">wisi enim ad minim veniam, quis</text><text class="cls-10" transform="translate(429.5 588.6)">nostrud exerci tation ullamcor</text><text class="cls-10" transform="translate(645.86 588.6)">-</text><text class="cls-10" transform="translate(429.5 612.6)">per suscipit lobortis nisl ut ali</text><text class="cls-10" transform="translate(638.05 612.6)">-</text><text class="cls-10" transform="translate(429.5 636.6)">quip ex ea commodo consequat.</text><text class="cls-10" transform="translate(429.5 660.6)">Duis autem vel eum iriure dolor</text><text class="cls-10" transform="translate(429.5 684.6)">in hendrerit in vulputate velit</text><text class="cls-10" transform="translate(429.5 708.6)">esse molestie consequat, vel</text><text class="cls-10" transform="translate(429.5 732.6)">illum dolore eu feugiat nulla faci</text><text class="cls-10" transform="translate(657.73 732.6)">-</text><text class="cls-10" transform="translate(429.5 756.6)">lisis at vero eros et accumsan et</text><text class="cls-10" transform="translate(429.5 780.6)">iusto odio dignissim qui blandit</text><text class="cls-10" transform="translate(429.5 804.6)">praesent luptatum zzril delenit</text><text class="cls-10" transform="translate(429.5 828.6)">augue duis dolore te feugait</text><text class="cls-10" transform="translate(429.5 852.6)">nulla facilisi.</text><text class="cls-10" transform="translate(429.5 876.6)">Lorem ipsum dolor sit amet,</text><text class="cls-10" transform="translate(429.5 900.6)">cons ectetuer adipiscing elit, sed</text><text class="cls-10" transform="translate(429.5 924.6)">diam nonummy nibh euismod</text><text class="cls-10" transform="translate(429.5 948.6)">tincidunt ut laoreet dolore</text><g class="cls-7"><text class="cls-11" transform="translate(856.04 788.7)">Ch</text><text class="cls-12" transform="translate(867.23 788.7)">a</text><text class="cls-13" transform="translate(871.94 788.7)">i</text><text class="cls-11" transform="translate(874.73 788.7)">rs</text></g></g></g><g id="Modalità_Isolamento-2" data-name="Modalità Isolamento"><g class="cls-7"><text class="cls-10" transform="translate(888.96 217.7)">Lorem ipsum dolor sit </text><text class="cls-10" transform="translate(861.76 241.7)">amet, consectetuer adipiscing </text><text class="cls-10" transform="translate(844.54 265.7)">elit, sed diam nonummy nibh eui</text><text class="cls-10" transform="translate(1078.77 265.7)">-</text><text class="cls-10" transform="translate(833.54 289.7)">smod tincidunt ut laoreet dolore </text><text class="cls-10" transform="translate(827.36 313.7)">magna aliquam erat volutpat. Ut wisi </text><text class="cls-10" transform="translate(825.72 337.7)">enim ad minim veniam, quis nostrud </text><text class="cls-10" transform="translate(829.49 361.7)">exerci tation ullamcorper suscipit </text><text class="cls-10" transform="translate(837.64 385.7)">lobortis nisl ut aliquip ex ea commo</text><text class="cls-10" transform="translate(1092.47 385.7)">-</text><text class="cls-10" transform="translate(851.07 409.7)">do consequat. Duis autem vel </text><text class="cls-10" transform="translate(871.85 433.7)">eum iriure dolor in hendre</text><text class="cls-10" transform="translate(1062.09 433.7)">-</text><text class="cls-10" transform="translate(906.71 457.7)">rit in vulputate</text></g></g></svg>