<?xml version="1.0" encoding="utf-8"?>
<!-- Generator: Adobe Illustrator 22.1.0, SVG Export Plug-In . SVG Version: 6.00 Build 0)  -->
<svg version="1.1" id="Livello_1" xmlns="http://www.w3.org/2000/svg" xmlns:xlink="http://www.w3.org/1999/xlink" x="0px" y="0px"
	 viewBox="0 0 1190.6 1190.6" style="enable-background:new 0 0 1190.6 1190.6;" xml:space="preserve">
<style type="text/css">
	.st0{fill:#00FFFF;}
	.st1{fill:none;stroke:#192AA5;stroke-miterlimit:10;}
	.st2{fill:none;stroke:#40C91F;stroke-miterlimit:10;}
	.st3{fill:none;stroke:#D1941C;stroke-miterlimit:10;}
	.st4{clip-path:url(#SVGID_2_);}
	.st5{fill:none;}
	.st6{font-family:'Arial-BoldMT';}
	.st7{font-size:60px;}
	.st8{font-size:1px;}
	.st9{font-family:'ArialMT';}
	.st10{font-size:16px;}
	.st11{font-family:'Arial-ItalicMT';}
	.st12{font-size:10px;}
	.st13{clip-path:url(#SVGID_4_);}
</style>
<title>893389_06</title>
<g id="Livello_1_1_">
	<g id="Livello_1-2">
		<g id="Livello_1-2-2">
			<rect y="0" class="st0" width="1190.6" height="1190.6"/>
		</g>
	</g>
	<g id="Livello_3">
		<g id="Livello_4">
			<rect x="429.5" y="429.5" class="st1" width="147.4" height="147.4"/>
			<rect x="613.7" y="429.5" class="st1" width="147.4" height="147.4"/>
			<rect x="429.5" y="613.7" class="st1" width="147.4" height="147.4"/>
			<rect x="613.7" y="613.7" class="st1" width="147.4" height="147.4"/>
			<rect x="429.5" y="798" class="st1" width="147.4" height="147.4"/>
			<rect x="613.7" y="798" class="st1" width="147.4" height="147.4"/>
			<rect x="429.5" y="982.2" class="st1" width="147.4" height="147.4"/>
			<rect x="613.7" y="982.2" class="st1" width="147.4" height="147.4"/>
			<rect x="429.5" y="60.9" class="st1" width="147.4" height="147.4"/>
			<rect x="613.7" y="60.9" class="st1" width="147.4" height="147.4"/>
			<rect x="429.5" y="245.2" class="st1" width="147.4" height="147.4"/>
			<rect x="613.7" y="245.2" class="st1" width="147.4" height="147.4"/>
			<rect x="60.9" y="429.5" class="st1" width="147.4" height="147.4"/>
			<rect x="245.2" y="429.5" class="st1" width="147.4" height="147.4"/>
			<rect x="60.9" y="613.7" class="st1" width="147.4" height="147.4"/>
			<rect x="245.2" y="613.7" class="st1" width="147.4" height="147.4"/>
			<rect x="60.9" y="798" class="st1" width="147.4" height="147.4"/>
			<rect x="245.2" y="798" class="st1" width="147.4" height="147.4"/>
			<rect x="60.9" y="982.2" class="st1" width="147.4" height="147.4"/>
			<rect x="245.2" y="982.2" class="st1" width="147.4" height="147.4"/>
			<rect x="60.9" y="60.9" class="st1" width="147.4" height="147.4"/>
			<rect x="245.2" y="60.9" class="st1" width="147.4" height="147.4"/>
			<rect x="60.9" y="245.2" class="st1" width="147.4" height="147.4"/>
			<rect x="245.2" y="245.2" class="st1" width="147.4" height="147.4"/>
			<rect x="798" y="429.5" class="st1" width="147.4" height="147.4"/>
			<rect x="982.2" y="429.5" class="st1" width="147.4" height="147.4"/>
			<rect x="798" y="613.7" class="st1" width="147.4" height="147.4"/>
			<rect x="982.2" y="613.7" class="st1" width="147.4" height="147.4"/>
			<rect x="798" y="798" class="st1" width="147.4" height="147.4"/>
			<rect x="982.2" y="798" class="st1" width="147.4" height="147.4"/>
			<rect x="798" y="982.2" class="st1" width="147.4" height="147.4"/>
			<rect x="982.2" y="982.2" class="st1" width="147.4" height="147.4"/>
			<rect x="798" y="60.9" class="st1" width="147.4" height="147.4"/>
			<rect x="982.2" y="60.9" class="st1" width="147.4" height="147.4"/>
			<rect x="798" y="245.2" class="st1" width="147.4" height="147.4"/>
			<rect x="982.2" y="245.2" class="st1" width="147.4" height="147.4"/>
		</g>
	</g>
	<g id="Livello_4-2">
		<g id="Livello_3-2">
			<rect x="503.1" y="503.2" class="st2" width="184.3" height="184.3"/>
			<rect x="724.2" y="503.2" class="st2" width="184.2" height="184.3"/>
			<rect x="60.9" y="503.2" class="st2" width="184.2" height="184.3"/>
			<rect x="282" y="503.2" class="st2" width="184.2" height="184.3"/>
			<rect x="945.3" y="503.2" class="st2" width="184.2" height="184.3"/>
			<rect x="503.1" y="282.1" class="st2" width="184.3" height="184.2"/>
			<rect x="724.2" y="282.1" class="st2" width="184.2" height="184.2"/>
			<rect x="60.9" y="282.1" class="st2" width="184.2" height="184.2"/>
			<rect x="282" y="282.1" class="st2" width="184.2" height="184.2"/>
			<rect x="945.3" y="282.1" class="st2" width="184.2" height="184.2"/>
			<rect x="503.1" y="945.4" class="st2" width="184.3" height="184.2"/>
			<rect x="724.2" y="945.4" class="st2" width="184.2" height="184.2"/>
			<rect x="60.9" y="945.4" class="st2" width="184.2" height="184.2"/>
			<rect x="282" y="945.4" class="st2" width="184.2" height="184.2"/>
			<rect x="945.3" y="945.4" class="st2" width="184.2" height="184.2"/>
			<rect x="503.1" y="724.3" class="st2" width="184.3" height="184.2"/>
			<rect x="724.2" y="724.3" class="st2" width="184.2" height="184.2"/>
			<rect x="60.9" y="724.3" class="st2" width="184.2" height="184.2"/>
			<rect x="282" y="724.3" class="st2" width="184.2" height="184.2"/>
			<rect x="945.3" y="724.3" class="st2" width="184.2" height="184.2"/>
			<rect x="503.1" y="60.9" class="st2" width="184.3" height="184.2"/>
			<rect x="724.2" y="60.9" class="st2" width="184.2" height="184.2"/>
			<rect x="60.9" y="60.9" class="st2" width="184.2" height="184.2"/>
			<rect x="282" y="60.9" class="st2" width="184.2" height="184.2"/>
			<rect x="945.3" y="60.9" class="st2" width="184.2" height="184.2"/>
		</g>
	</g>
	<g id="Livello_5">
		<rect x="337.3" y="337.3" class="st3" width="239.5" height="239.5"/>
		<g>
			<g>
				<defs>
					<rect id="SVGID_1_" x="613.7" y="337.3" width="239.5" height="239.5"/>
				</defs>
				<clipPath id="SVGID_2_">
					<use xlink:href="#SVGID_1_"  style="overflow:visible;"/>
				</clipPath>
				<g class="st4">
					
						<image style="overflow:visible;enable-background:new    ;" width="2593" height="3874" xlink:href="893389_03.jpg"  transform="matrix(0.3 0 0 0.3 212.73 14.2)">
					</image>
				</g>
			</g>
		</g>
		<rect x="337.3" y="60.9" class="st3" width="239.5" height="239.5"/>
		<rect x="613.7" y="60.9" class="st3" width="239.5" height="239.5"/>
		<rect x="337.3" y="613.7" class="st3" width="239.5" height="239.5"/>
		<rect x="613.7" y="613.7" class="st3" width="239.5" height="239.5"/>
		<rect x="337.3" y="890.1" class="st3" width="239.5" height="239.5"/>
		<rect x="60.9" y="337.3" class="st3" width="239.5" height="239.5"/>
		<rect x="60.9" y="60.9" class="st3" width="239.5" height="239.5"/>
		<rect x="60.9" y="613.7" class="st3" width="239.5" height="239.5"/>
		<rect x="60.9" y="890.1" class="st3" width="239.5" height="239.5"/>
		<rect x="613.7" y="890.1" class="st3" width="239.5" height="239.5"/>
		<rect x="890.1" y="337.3" class="st3" width="239.5" height="239.5"/>
		<rect x="890.1" y="60.9" class="st3" width="239.5" height="239.5"/>
		<rect x="890.1" y="613.7" class="st3" width="239.5" height="239.5"/>
		<rect x="890.1" y="890.1" class="st3" width="239.5" height="239.5"/>
	</g>
	<g id="Livello_7">
		<circle class="st5" cx="291.5" cy="784.9" r="165.5"/>
	</g>
</g>
<g id="Livello_4-2-2">
	<text transform="matrix(0.84 0 0 1 60.8999 112.45)" class="st6 st7">Incastro di linee</text>
	<text transform="matrix(1 0 0 1 154.85 300.3999)" class="st6 st8">Lorem ipsum</text>
	<text transform="matrix(1 0 0 1 337.3 355.7699)" class="st6 st8">Lorem ipsum</text>
	<text transform="matrix(1 0 0 1 60.9 220.46)" class="st9 st10">Lorem ipsum dolor sit amet, consectetuer adipiscing elit, sed </text>
	<text transform="matrix(1 0 0 1 60.9 244.46)" class="st9 st10">diam nonummy nibh euismod tincidunt ut laoreet dolore </text>
	<text transform="matrix(1 0 0 1 60.9 268.46)" class="st9 st10">magna aliquam erat volutpat. Ut wisi enim ad minim veniam, </text>
	<text transform="matrix(1 0 0 1 60.9 292.46)" class="st9 st10">quis nostrud exerci tation ullamcorper suscipit lobortis nisl ut </text>
	<text transform="matrix(1 0 0 1 60.9 316.46)" class="st9 st10">aliquip ex ea commodo consequat. Duis autem vel eum iriure </text>
	<text transform="matrix(1 0 0 1 60.9 340.46)" class="st9 st10">dolor in hendrerit in vulputate velit esse molestie consequat, </text>
	<text transform="matrix(1 0 0 1 60.9 364.46)" class="st9 st10">vel illum dolore eu feugiat nulla facilisis at vero eros et accu</text>
	<text transform="matrix(1 0 0 1 484.22 364.46)" class="st9 st10">-</text>
	<text transform="matrix(1 0 0 1 60.9 388.46)" class="st9 st10">msan et iusto odio dignissim qui blandit praesent luptatum </text>
	<text transform="matrix(1 0 0 1 60.9 412.46)" class="st9 st10">zzril delenit augue duis dolore te feugait nulla facilisi.</text>
	<text transform="matrix(1 0 0 1 60.9 436.46)" class="st9 st10">Lorem ipsum dolor sit amet, cons ectetuer adipiscing elit, sed </text>
	<text transform="matrix(1 0 0 1 60.9 460.46)" class="st9 st10">diam nonummy nibh euismod tincidunt ut laoreet dolore </text>
	<text transform="matrix(1 0 0 1 60.9 484.46)" class="st9 st10">magna aliquam erat volutpat. Ut wisi enim ad minim veniam, </text>
	<text transform="matrix(1 0 0 1 60.9 508.46)" class="st9 st10">quis nostrud exerci tation ullamcorper suscipit lobortis nisl ut </text>
	<text transform="matrix(1 0 0 1 60.9 532.46)" class="st9 st10">aliquip ex ea commodo consequat.</text>
	<text transform="matrix(1 0 0 1 60.9 556.46)" class="st9 st10">Lorem ipsum dolor sit amet, consectetuer adipiscing elit, sed </text>
	<text transform="matrix(1 0 0 1 60.9 580.46)" class="st9 st10">diam nonummy nibh euismod tincidunt ut laoreet dolore </text>
	<text transform="matrix(1 0 0 1 60.9 604.46)" class="st9 st10">magna aliquam erat volutpat. Ut wisi enim ad minim veniam, </text>
	<text transform="matrix(1 0 0 1 60.9 628.46)" class="st9 st10">quis nostrud exerci tation ullamcorper suscipit lobortis nisl ut </text>
	<text transform="matrix(1 0 0 1 60.9 652.46)" class="st9 st10">aliquip ex ea commodo consequat. Duis autem vel eum iriure </text>
	<text transform="matrix(1 0 0 1 60.9 676.46)" class="st9 st10">dolor in hendrerit in vulputate velit esse molestie consequat, </text>
	<text transform="matrix(1 0 0 1 60.9 700.46)" class="st9 st10">vel illum dolore eu feugiat nulla facilisis at vero eros et accu</text>
	<text transform="matrix(1 0 0 1 484.22 700.46)" class="st9 st10">-</text>
	<text transform="matrix(1 0 0 1 60.9 724.46)" class="st9 st10">msan et iusto odio dignissim qui blandit praesent luptatum </text>
	<text transform="matrix(1 0 0 1 60.9 748.46)" class="st9 st10">zzril delenit augue duis</text>
	<text transform="matrix(1 0 0 1 613.7 587.28)" class="st11 st12">La magia d</text>
	<text transform="matrix(1 0 0 1 658.4 587.28)" class="st11 st12">e</text>
	<text transform="matrix(1 0 0 1 661.56 587.28)" class="st11 st12">l F</text>
	<text transform="matrix(1 0 0 1 671.51 587.28)" class="st11 st12">u</text>
	<text transform="matrix(1 0 0 1 676.4 587.28)" class="st11 st12">oris</text>
	<text transform="matrix(1 0 0 1 689.69 587.28)" class="st11 st12">a</text>
	<text transform="matrix(1 0 0 1 694.4 587.28)" class="st11 st12">lone t</text>
	<text transform="matrix(1 0 0 1 714.66 587.28)" class="st11 st12">r</text>
	<text transform="matrix(1 0 0 1 718.05 587.28)" class="st11 st12">a l</text>
	<text transform="matrix(1 0 0 1 727.82 587.28)" class="st11 st12">i</text>
	<text transform="matrix(1 0 0 1 730.61 587.28)" class="st11 st12">nee e </text>
	<text transform="matrix(1 0 0 1 750.11 587.28)" class="st11 st12">c</text>
	<text transform="matrix(1 0 0 1 753.09 587.28)" class="st11 st12">o</text>
	<text transform="matrix(1 0 0 1 756.69 587.28)" class="st11 st12">lori.</text>
</g>
<g id="Livello_3-2-2">
	<g>
		<g>
			<defs>
				<circle id="SVGID_3_" cx="728.3" cy="798.4" r="143.4"/>
			</defs>
			<clipPath id="SVGID_4_">
				<use xlink:href="#SVGID_3_"  style="overflow:visible;"/>
			</clipPath>
			<g class="st13">
				
					<image style="overflow:visible;enable-background:new    ;" width="2705" height="3237" xlink:href="893389_05.jpg"  transform="matrix(-3.449830e-17 0.1878 -0.1878 -3.449830e-17 1095.0825 654.95)">
				</image>
			</g>
		</g>
	</g>
</g>
</svg>
