<?xml version="1.0" encoding="utf-8"?>
<!-- Generator: Adobe Illustrator 23.0.1, SVG Export Plug-In . SVG Version: 6.00 Build 0)  -->
<svg version="1.1" id="Livello_1" xmlns="http://www.w3.org/2000/svg" xmlns:xlink="http://www.w3.org/1999/xlink" x="0px" y="0px"
	 viewBox="0 0 1190.6 1190.6" style="enable-background:new 0 0 1190.6 1190.6;" xml:space="preserve">
<style type="text/css">
	.st0{fill:#FFFFFF;stroke:#000000;stroke-miterlimit:10;}
	.st1{fill:#FF0000;}
	.st2{fill:#FF0000;stroke:#FFFFFF;stroke-miterlimit:10;}
</style>
<g>
	<rect y="0" class="st0" width="1190.6" height="1190.6"/>
	<rect y="0" class="st1" width="1190.6" height="1190.6"/>
</g>
<g id="Livello_3">
	<rect x="59.4" y="58.9" class="st2" width="240.1" height="240.1"/>
	<rect x="335.6" y="58.9" class="st2" width="240.1" height="240.1"/>
	<rect x="611.4" y="58.9" class="st2" width="240.1" height="240.1"/>
	<rect x="890.8" y="58.9" class="st2" width="240.1" height="240.1"/>
	<rect x="59.4" y="611.4" class="st2" width="240.1" height="240.1"/>
	<rect x="335.6" y="611.4" class="st2" width="240.1" height="240.1"/>
	<rect x="611.4" y="611.4" class="st2" width="240.1" height="240.1"/>
	<rect x="890.8" y="611.4" class="st2" width="240.1" height="240.1"/>
	<rect x="890.8" y="889.7" class="st2" width="240.1" height="240.1"/>
	<rect x="613.2" y="889.7" class="st2" width="240.1" height="240.1"/>
	<rect x="335.6" y="889.7" class="st2" width="240.1" height="240.1"/>
	<rect x="59.4" y="889.7" class="st2" width="240.1" height="240.1"/>
	<rect x="613.2" y="335.2" class="st2" width="240.1" height="240.1"/>
	<rect x="335.6" y="335.2" class="st2" width="240.1" height="240.1"/>
	<rect x="59.4" y="335.2" class="st2" width="240.1" height="240.1"/>
	<rect x="890.8" y="335.2" class="st2" width="240.1" height="240.1"/>
</g>
<g id="Livello_5">
	<rect x="59.4" y="58.9" class="st2" width="185.9" height="185.9"/>
	<rect x="59.4" y="281.6" class="st2" width="185.9" height="185.9"/>
	<rect x="59.4" y="504" class="st2" width="185.9" height="182.5"/>
	<rect x="59.4" y="723.7" class="st2" width="185.9" height="185.9"/>
	<rect x="59.4" y="943.9" class="st2" width="185.9" height="185.9"/>
	<rect x="944.7" y="58.6" class="st2" width="186.2" height="186.2"/>
	<rect x="944.7" y="281.4" class="st2" width="186.2" height="184.7"/>
	<rect x="723.9" y="281.4" class="st2" width="184.7" height="184.7"/>
	<rect x="502.9" y="282.2" class="st2" width="184.7" height="184.7"/>
	<rect x="281.8" y="282.2" class="st2" width="184.7" height="184.7"/>
	<rect x="281.6" y="502" class="st2" width="184.7" height="184.7"/>
	<rect x="723.9" y="502" class="st2" width="184.7" height="184.7"/>
	<rect x="502.9" y="502" class="st2" width="184.7" height="184.7"/>
	<rect x="944.7" y="502.9" class="st2" width="186.2" height="184.7"/>
	<rect x="281.6" y="724.3" class="st2" width="184.7" height="184.7"/>
	<rect x="502.8" y="724.3" class="st2" width="184.7" height="184.7"/>
	<rect x="723.9" y="722.6" class="st2" width="184.7" height="184.7"/>
	<rect x="944.7" y="724.5" class="st2" width="186.2" height="184.7"/>
	<rect x="723.2" y="58.9" class="st2" width="184.7" height="185.9"/>
	<rect x="502.9" y="58.9" class="st2" width="184.7" height="185.9"/>
	<rect x="281.8" y="58.9" class="st2" width="184.7" height="185.9"/>
	<rect x="281.6" y="945.1" class="st2" width="184.7" height="184.7"/>
	<rect x="944.7" y="944.5" class="st2" width="186.2" height="184.7"/>
	<rect x="723.9" y="945.1" class="st2" width="184.7" height="184.7"/>
	<rect x="502.8" y="945.1" class="st2" width="184.7" height="184.7"/>
</g>
<g id="Livello_6">
	<rect x="245.3" y="59.3" class="st2" width="147.7" height="147.7"/>
	<rect x="59.4" y="59.3" class="st2" width="149.3" height="147.7"/>
	<rect x="245.1" y="244.8" class="st2" width="147.7" height="147.7"/>
	<rect x="59.4" y="244.8" class="st2" width="149.3" height="147.7"/>
	<rect x="428.3" y="244.8" class="st2" width="147.7" height="147.7"/>
	<rect x="613.8" y="244.8" class="st2" width="147.7" height="147.7"/>
	<rect x="613.8" y="59.3" class="st2" width="147.7" height="147.7"/>
	<rect x="428.3" y="59.3" class="st2" width="147.7" height="147.7"/>
	<rect x="429.1" y="430.2" class="st2" width="147.7" height="147.7"/>
	<rect x="429.1" y="611.4" class="st2" width="147.7" height="147.7"/>
	<rect x="429.1" y="796.8" class="st2" width="147.7" height="147.7"/>
	<rect x="613.7" y="429.1" class="st2" width="147.7" height="147.7"/>
	<rect x="613.7" y="611.4" class="st2" width="147.7" height="147.7"/>
	<rect x="613.7" y="796.8" class="st2" width="147.7" height="147.7"/>
	<rect x="797" y="429.1" class="st2" width="147.7" height="147.7"/>
	<rect x="797" y="612.7" class="st2" width="147.7" height="147.7"/>
	<rect x="797" y="796.4" class="st2" width="147.7" height="147.7"/>
	<rect x="983.3" y="611.4" class="st2" width="147.7" height="147.7"/>
	<rect x="983.3" y="428.2" class="st2" width="147.7" height="147.7"/>
	<rect x="983.3" y="796.4" class="st2" width="147.7" height="147.7"/>
	<rect x="797" y="244.8" class="st2" width="147.7" height="147.7"/>
	<rect x="983.3" y="244.8" class="st2" width="147.7" height="147.7"/>
	<rect x="797" y="59.3" class="st2" width="147.7" height="147.7"/>
	<rect x="983.3" y="59.3" class="st2" width="147.7" height="147.7"/>
	<rect x="59.4" y="428.2" class="st2" width="147.7" height="147.7"/>
	<rect x="59.4" y="612.7" class="st2" width="147.7" height="147.7"/>
	<rect x="245.1" y="612.7" class="st2" width="147.7" height="147.7"/>
	<rect x="245.3" y="428.1" class="st2" width="147.7" height="147.7"/>
	<rect x="245.1" y="796.4" class="st2" width="147.7" height="147.7"/>
	<rect x="245.1" y="982.1" class="st2" width="147.7" height="147.7"/>
	<rect x="59.4" y="796.4" class="st2" width="147.7" height="147.7"/>
	<rect x="59.4" y="980" class="st2" width="147.7" height="149.8"/>
	<rect x="429" y="980.7" class="st2" width="147.7" height="149.3"/>
	<rect x="613.7" y="979" class="st2" width="147.7" height="150.8"/>
	<rect x="797" y="979" class="st2" width="147.7" height="150.8"/>
	<rect x="983.3" y="980" class="st2" width="147.7" height="149.8"/>
</g>
<g>
	<defs>
		<circle id="SVGID_1_" cx="613.7" cy="568.4" r="199.7"/>
	</defs>
	<clipPath id="SVGID_2_">
		<use xlink:href="#SVGID_1_"  style="overflow:visible;"/>
	</clipPath>
	<g style="clip-path:url(#SVGID_2_);">
		
			<image style="overflow:visible;" width="5184" height="3456" xlink:href="../../IMG_1148.JPG"  transform="matrix(0.1213 0 0 0.1213 299.3125 365.6417)">
		</image>
	</g>
</g>
</svg>
