<?xml version="1.0" encoding="utf-8"?>
<!-- Generator: Adobe Illustrator 23.0.1, SVG Export Plug-In . SVG Version: 6.00 Build 0)  -->
<svg version="1.1" id="Livello_1" xmlns="http://www.w3.org/2000/svg" xmlns:xlink="http://www.w3.org/1999/xlink" x="0px" y="0px"
	 viewBox="0 0 1190.6 1190.6" style="enable-background:new 0 0 1190.6 1190.6;" xml:space="preserve">
<style type="text/css">
	.st0{fill:#FFFFFF;stroke:#000000;stroke-miterlimit:10;}
	.st1{fill:#FF0000;}
	.st2{fill:#FF0000;stroke:#FFFFFF;stroke-miterlimit:10;}
	.st3{font-family:'ArialMT';}
	.st4{font-size:60px;}
	.st5{fill:none;}
	.st6{font-size:16px;}
	.st7{font-size:10px;}
</style>
<g>
	<g id="Livello_1_1_">
		<rect y="0" class="st0" width="1190.6" height="1190.6"/>
		<rect y="0" class="st1" width="1190.6" height="1190.6"/>
	</g>
	<g id="Livello_3">
		<rect x="59.4" y="58.9" class="st2" width="240.1" height="240.1"/>
		<rect x="335.6" y="58.9" class="st2" width="240.1" height="240.1"/>
		<rect x="611.4" y="58.9" class="st2" width="240.1" height="240.1"/>
		<rect x="890.8" y="58.9" class="st2" width="240.1" height="240.1"/>
		<rect x="59.4" y="611.4" class="st2" width="240.1" height="240.1"/>
		<rect x="335.6" y="611.4" class="st2" width="240.1" height="240.1"/>
		<rect x="611.4" y="611.4" class="st2" width="240.1" height="240.1"/>
		<rect x="890.8" y="611.4" class="st2" width="240.1" height="240.1"/>
		<rect x="890.8" y="889.7" class="st2" width="240.1" height="240.1"/>
		<rect x="613.2" y="889.7" class="st2" width="240.1" height="240.1"/>
		<rect x="335.6" y="889.7" class="st2" width="240.1" height="240.1"/>
		<rect x="59.4" y="889.7" class="st2" width="240.1" height="240.1"/>
		<rect x="613.2" y="335.2" class="st2" width="240.1" height="240.1"/>
		<rect x="335.6" y="335.2" class="st2" width="240.1" height="240.1"/>
		<rect x="59.4" y="335.2" class="st2" width="240.1" height="240.1"/>
		<rect x="890.8" y="335.2" class="st2" width="240.1" height="240.1"/>
	</g>
	<g id="Livello_5">
		<rect x="59.4" y="58.9" class="st2" width="185.9" height="185.9"/>
		<rect x="59.4" y="281.6" class="st2" width="185.9" height="185.9"/>
		<rect x="59.4" y="504" class="st2" width="185.9" height="182.5"/>
		<rect x="59.4" y="723.7" class="st2" width="185.9" height="185.9"/>
		<rect x="59.4" y="943.9" class="st2" width="185.9" height="185.9"/>
		<rect x="944.7" y="58.6" class="st2" width="186.2" height="186.2"/>
		<rect x="944.7" y="281.4" class="st2" width="186.2" height="184.7"/>
		<rect x="723.9" y="281.4" class="st2" width="184.7" height="184.7"/>
		<rect x="502.9" y="282.2" class="st2" width="184.7" height="184.7"/>
		<rect x="281.8" y="282.2" class="st2" width="184.7" height="184.7"/>
		<rect x="281.6" y="502" class="st2" width="184.7" height="184.7"/>
		<rect x="723.9" y="502" class="st2" width="184.7" height="184.7"/>
		<rect x="502.9" y="502" class="st2" width="184.7" height="184.7"/>
		<rect x="944.7" y="502.9" class="st2" width="186.2" height="184.7"/>
		<rect x="281.6" y="724.3" class="st2" width="184.7" height="184.7"/>
		<rect x="502.8" y="724.3" class="st2" width="184.7" height="184.7"/>
		<rect x="723.9" y="722.6" class="st2" width="184.7" height="184.7"/>
		<rect x="944.7" y="724.5" class="st2" width="186.2" height="184.7"/>
		<rect x="723.2" y="58.9" class="st2" width="184.7" height="185.9"/>
		<rect x="502.9" y="58.9" class="st2" width="184.7" height="185.9"/>
		<rect x="281.8" y="58.9" class="st2" width="184.7" height="185.9"/>
		<rect x="281.6" y="945.1" class="st2" width="184.7" height="184.7"/>
		<rect x="944.7" y="944.5" class="st2" width="186.2" height="184.7"/>
		<rect x="723.9" y="945.1" class="st2" width="184.7" height="184.7"/>
		<rect x="502.8" y="945.1" class="st2" width="184.7" height="184.7"/>
	</g>
	<g id="Livello_6">
		<rect x="245.3" y="59.3" class="st2" width="147.7" height="147.7"/>
		<rect x="59.4" y="59.3" class="st2" width="149.3" height="147.7"/>
		<rect x="245.1" y="244.8" class="st2" width="147.7" height="147.7"/>
		<rect x="59.4" y="244.8" class="st2" width="149.3" height="147.7"/>
		<rect x="428.3" y="244.8" class="st2" width="147.7" height="147.7"/>
		<rect x="613.8" y="244.8" class="st2" width="147.7" height="147.7"/>
		<rect x="613.8" y="59.3" class="st2" width="147.7" height="147.7"/>
		<rect x="428.3" y="59.3" class="st2" width="147.7" height="147.7"/>
		<rect x="429.1" y="430.2" class="st2" width="147.7" height="147.7"/>
		<rect x="429.1" y="611.4" class="st2" width="147.7" height="147.7"/>
		<rect x="429.1" y="796.8" class="st2" width="147.7" height="147.7"/>
		<rect x="613.7" y="429.1" class="st2" width="147.7" height="147.7"/>
		<rect x="613.7" y="611.4" class="st2" width="147.7" height="147.7"/>
		<rect x="613.7" y="796.8" class="st2" width="147.7" height="147.7"/>
		<rect x="797" y="429.1" class="st2" width="147.7" height="147.7"/>
		<rect x="797" y="612.7" class="st2" width="147.7" height="147.7"/>
		<rect x="797" y="796.4" class="st2" width="147.7" height="147.7"/>
		<rect x="983.3" y="611.4" class="st2" width="147.7" height="147.7"/>
		<rect x="983.3" y="428.2" class="st2" width="147.7" height="147.7"/>
		<rect x="983.3" y="796.4" class="st2" width="147.7" height="147.7"/>
		<rect x="797" y="244.8" class="st2" width="147.7" height="147.7"/>
		<rect x="983.3" y="244.8" class="st2" width="147.7" height="147.7"/>
		<rect x="797" y="59.3" class="st2" width="147.7" height="147.7"/>
		<rect x="983.3" y="59.3" class="st2" width="147.7" height="147.7"/>
		<rect x="59.4" y="428.2" class="st2" width="147.7" height="147.7"/>
		<rect x="59.4" y="612.7" class="st2" width="147.7" height="147.7"/>
		<rect x="245.1" y="612.7" class="st2" width="147.7" height="147.7"/>
		<rect x="245.3" y="428.1" class="st2" width="147.7" height="147.7"/>
		<rect x="245.1" y="796.4" class="st2" width="147.7" height="147.7"/>
		<rect x="245.1" y="982.1" class="st2" width="147.7" height="147.7"/>
		<rect x="59.4" y="796.4" class="st2" width="147.7" height="147.7"/>
		<rect x="59.4" y="980" class="st2" width="147.7" height="149.8"/>
		<rect x="429" y="980.7" class="st2" width="147.7" height="149.3"/>
		<rect x="613.7" y="979" class="st2" width="147.7" height="150.8"/>
		<rect x="797" y="979" class="st2" width="147.7" height="150.8"/>
		<rect x="983.3" y="980" class="st2" width="147.7" height="149.8"/>
	</g>
</g>
<g>
	<text transform="matrix(1 0 0 1 404.9083 244.8)" class="st3 st4">Lorem ipsum</text>
	<rect x="429.1" y="299" class="st5" width="332.3" height="277.8"/>
	<text transform="matrix(1 0 0 1 429.1001 311.1596)" class="st3 st6">Lorem ipsum dolor sit amet, consectetuer adipiscing elit, sed </text>
	<text transform="matrix(1 0 0 1 429.1001 335.1596)" class="st3 st6">diam nonummy nibh euismod tincidunt ut laoreet dolore magna </text>
	<text transform="matrix(1 0 0 1 429.1001 359.1596)" class="st3 st6">aliquam erat volutpat. Ut wisi enim ad minim veniam, quis </text>
	<text transform="matrix(1 0 0 1 429.1001 383.1596)" class="st3 st6">nostrud exerci tation ullamcorper suscipit lobortis nisl ut aliquip </text>
	<text transform="matrix(1 0 0 1 429.1001 407.1596)" class="st3 st6">ex ea commodo consequat. Duis autem vel eum iriure dolor in </text>
	<text transform="matrix(1 0 0 1 429.1001 431.1596)" class="st3 st6">hendrerit in vulputate velit esse molestie consequat, vel illum </text>
	<text transform="matrix(1 0 0 1 429.1001 455.1596)" class="st3 st6">dolore eu feugiat nulla facilisis at vero eros et accumsan et iusto </text>
	<text transform="matrix(1 0 0 1 429.1001 479.1596)" class="st3 st6">odio dignissim qui blandit praesent luptatum zzril delenit augue </text>
	<text transform="matrix(1 0 0 1 429.1001 503.1596)" class="st3 st6">duis dolore te feugait nulla facilisi.</text>
	<text transform="matrix(1 0 0 1 429.1001 527.1596)" class="st3 st6">Lorem ipsum dolor sit amet, cons ectetuer adipiscing elit, sed </text>
	<text transform="matrix(1 0 0 1 429.1001 551.1596)" class="st3 st6">diam nonummy nibh euismod tincidunt ut laoreet dolore magna </text>
	<text transform="matrix(1 0 0 1 429.1001 575.1596)" class="st3 st6">aliquam erat volutpat. Ut wisi enim ad minim veniam, quis </text>
	<rect x="723.9" y="611.4" class="st5" width="220.8" height="64.9"/>
	<text transform="matrix(1 0 0 1 723.9004 618.2202)" class="st3 st7">Lorem ipsum dolor sit amet, consectetuer adipiscing elit, </text>
	<text transform="matrix(1 0 0 1 723.9004 642.2202)" class="st3 st7">sed diam nonummy nibh euismod tincidunt </text>
	<circle class="st5" cx="366.6" cy="837" r="145.1"/>
	<text transform="matrix(1 0 0 1 347.7505 704.0864)" class="st3 st6">Lorem </text>
	<text transform="matrix(1 0 0 1 284.8505 728.0864)" class="st3 st6">ipsum dolor sit amet, consecte</text>
	<text transform="matrix(1 0 0 1 441.8505 728.0864)" class="st3 st6">-</text>
	<text transform="matrix(1 0 0 1 257.6505 752.0864)" class="st3 st6">tuer adipiscing elit, sed diam nonummy </text>
	<text transform="matrix(1 0 0 1 240.5505 776.0864)" class="st3 st6">nibh euismod tincidunt ut laoreet dolore magna </text>
	<text transform="matrix(1 0 0 1 229.5505 800.0864)" class="st3 st6">aliquam erat volutpat. Ut wisi enim ad minim </text>
	<text transform="matrix(1 0 0 1 223.4505 824.0864)" class="st3 st6">veniam, quis nostrud exerci tation ullamcorper suscipit </text>
	<text transform="matrix(1 0 0 1 221.8505 848.0864)" class="st3 st6">lobortis nisl ut aliquip ex ea commodo consequat. Duis </text>
	<text transform="matrix(1 0 0 1 225.7505 872.0864)" class="st3 st6">autem vel eum iriure dolor in hendrerit in vulputate </text>
	<text transform="matrix(1 0 0 1 234.0505 896.0864)" class="st3 st6">velit esse molestie consequat, vel illum dolore eu </text>
	<text transform="matrix(1 0 0 1 247.5505 920.0864)" class="st3 st6">feugiat nulla facilisis at vero eros et accumsan </text>
	<text transform="matrix(1 0 0 1 268.6505 944.0864)" class="st3 st6">et iusto odio dignissim qui blandit </text>
	<text transform="matrix(1 0 0 1 304.2505 968.0864)" class="st3 st6">praesent luptatum </text>
</g>
</svg>
