<?xml version="1.0" encoding="utf-8"?>
<!-- Generator: Adobe Illustrator 22.1.0, SVG Export Plug-In . SVG Version: 6.00 Build 0)  -->
<svg version="1.1" id="Livello_1" xmlns="http://www.w3.org/2000/svg" xmlns:xlink="http://www.w3.org/1999/xlink" x="0px" y="0px"
	 viewBox="0 0 1190.6 1190.6" style="enable-background:new 0 0 1190.6 1190.6;" xml:space="preserve">
<style type="text/css">
	.st0{fill:#B4B5AF;}
	.st1{fill:none;stroke:#ED1C24;stroke-miterlimit:10;}
	.st2{fill:none;stroke:#FFF200;stroke-miterlimit:10;}
	.st3{fill:none;stroke:#3B53A4;stroke-miterlimit:10;}
	.st4{clip-path:url(#SVGID_2_);}
	.st5{clip-path:url(#SVGID_4_);}
</style>
<title>Tavola disegno 1</title>
<rect y="0" class="st0" width="1190.6" height="1190.6"/>
<rect x="60.9" y="60.9" class="st1" width="239.5" height="239.5"/>
<rect x="890.1" y="60.9" class="st1" width="239.5" height="239.5"/>
<rect x="613.7" y="60.9" class="st1" width="239.5" height="239.5"/>
<rect x="337.3" y="60.9" class="st1" width="239.5" height="239.5"/>
<rect x="60.9" y="337.3" class="st1" width="239.5" height="239.5"/>
<rect x="890.1" y="337.3" class="st1" width="239.5" height="239.5"/>
<rect x="613.7" y="337.3" class="st1" width="239.5" height="239.5"/>
<rect x="337.3" y="337.3" class="st1" width="239.5" height="239.5"/>
<rect x="60.9" y="613.7" class="st1" width="239.5" height="239.5"/>
<rect x="890.1" y="613.7" class="st1" width="239.5" height="239.5"/>
<rect x="613.7" y="613.7" class="st1" width="239.5" height="239.5"/>
<rect x="337.3" y="613.7" class="st1" width="239.5" height="239.5"/>
<rect x="60.9" y="890.1" class="st1" width="239.5" height="239.5"/>
<rect x="890.1" y="890.1" class="st1" width="239.5" height="239.5"/>
<rect x="613.7" y="890.1" class="st1" width="239.5" height="239.5"/>
<rect x="337.3" y="890.1" class="st1" width="239.5" height="239.5"/>
<rect x="60.9" y="60.9" class="st2" width="184.3" height="184.3"/>
<rect x="724.3" y="60.9" class="st2" width="184.3" height="184.3"/>
<rect x="503.1" y="60.9" class="st2" width="184.3" height="184.3"/>
<rect x="945.4" y="60.9" class="st2" width="184.3" height="184.3"/>
<rect x="282" y="60.9" class="st2" width="184.3" height="184.3"/>
<rect x="60.9" y="282" class="st2" width="184.3" height="184.3"/>
<rect x="724.3" y="282" class="st2" width="184.3" height="184.3"/>
<rect x="503.1" y="282" class="st2" width="184.3" height="184.3"/>
<rect x="945.4" y="282" class="st2" width="184.3" height="184.3"/>
<rect x="282" y="282" class="st2" width="184.3" height="184.3"/>
<rect x="60.9" y="503.1" class="st2" width="184.3" height="184.3"/>
<rect x="724.3" y="503.1" class="st2" width="184.3" height="184.3"/>
<rect x="503.1" y="503.1" class="st2" width="184.3" height="184.3"/>
<rect x="945.4" y="503.1" class="st2" width="184.3" height="184.3"/>
<rect x="282" y="503.1" class="st2" width="184.3" height="184.3"/>
<rect x="60.9" y="724.3" class="st2" width="184.3" height="184.3"/>
<rect x="724.3" y="724.3" class="st2" width="184.3" height="184.3"/>
<rect x="503.1" y="724.3" class="st2" width="184.3" height="184.3"/>
<rect x="945.4" y="724.3" class="st2" width="184.3" height="184.3"/>
<rect x="282" y="724.3" class="st2" width="184.3" height="184.3"/>
<rect x="60.9" y="945.3" class="st2" width="184.3" height="184.3"/>
<rect x="724.3" y="945.3" class="st2" width="184.3" height="184.3"/>
<rect x="503.1" y="945.3" class="st2" width="184.3" height="184.3"/>
<rect x="945.4" y="945.3" class="st2" width="184.3" height="184.3"/>
<rect x="282" y="945.3" class="st2" width="184.3" height="184.3"/>
<rect x="60.9" y="60.9" class="st3" width="147.4" height="147.4"/>
<rect x="982.2" y="60.9" class="st3" width="147.4" height="147.4"/>
<rect x="798" y="60.9" class="st3" width="147.4" height="147.4"/>
<rect x="613.7" y="60.9" class="st3" width="147.4" height="147.4"/>
<rect x="429.5" y="60.9" class="st3" width="147.4" height="147.4"/>
<rect x="245.2" y="60.9" class="st3" width="147.4" height="147.4"/>
<rect x="60.9" y="245.2" class="st3" width="147.4" height="147.4"/>
<rect x="982.2" y="245.2" class="st3" width="147.4" height="147.4"/>
<rect x="798" y="245.2" class="st3" width="147.4" height="147.4"/>
<rect x="613.7" y="245.2" class="st3" width="147.4" height="147.4"/>
<rect x="429.5" y="245.2" class="st3" width="147.4" height="147.4"/>
<rect x="245.2" y="245.2" class="st3" width="147.4" height="147.4"/>
<rect x="60.9" y="429.5" class="st3" width="147.4" height="147.4"/>
<rect x="982.2" y="429.5" class="st3" width="147.4" height="147.4"/>
<rect x="798" y="429.5" class="st3" width="147.4" height="147.4"/>
<rect x="613.7" y="429.5" class="st3" width="147.4" height="147.4"/>
<rect x="429.5" y="429.5" class="st3" width="147.4" height="147.4"/>
<rect x="245.2" y="429.5" class="st3" width="147.4" height="147.4"/>
<rect x="60.9" y="613.7" class="st3" width="147.4" height="147.4"/>
<rect x="982.2" y="613.7" class="st3" width="147.4" height="147.4"/>
<rect x="798" y="613.7" class="st3" width="147.4" height="147.4"/>
<rect x="613.7" y="613.7" class="st3" width="147.4" height="147.4"/>
<rect x="429.5" y="613.7" class="st3" width="147.4" height="147.4"/>
<rect x="245.2" y="613.7" class="st3" width="147.4" height="147.4"/>
<rect x="60.9" y="798" class="st3" width="147.4" height="147.4"/>
<rect x="982.2" y="798" class="st3" width="147.4" height="147.4"/>
<rect x="798" y="798" class="st3" width="147.4" height="147.4"/>
<rect x="613.7" y="798" class="st3" width="147.4" height="147.4"/>
<rect x="429.5" y="798" class="st3" width="147.4" height="147.4"/>
<rect x="245.2" y="798" class="st3" width="147.4" height="147.4"/>
<rect x="60.9" y="982.2" class="st3" width="147.4" height="147.4"/>
<rect x="982.2" y="982.2" class="st3" width="147.4" height="147.4"/>
<rect x="798" y="982.2" class="st3" width="147.4" height="147.4"/>
<rect x="613.7" y="982.2" class="st3" width="147.4" height="147.4"/>
<rect x="429.5" y="982.2" class="st3" width="147.4" height="147.4"/>
<rect x="245.2" y="982.2" class="st3" width="147.4" height="147.4"/>
<g>
	<defs>
		<rect id="SVGID_1_" x="337.3" y="337.3" width="239.5" height="239.5"/>
	</defs>
	<clipPath id="SVGID_2_">
		<use xlink:href="#SVGID_1_"  style="overflow:visible;"/>
	</clipPath>
	<g class="st4">
		
			<image style="overflow:visible;enable-background:new    ;" width="1217" height="694" xlink:href="897081-02.jpg.jpg"  transform="matrix(0.58 0 0 0.58 0 305.65)">
		</image>
	</g>
</g>
<g>
	<defs>
		<circle id="SVGID_3_" cx="778.7" cy="779.5" r="165.8"/>
	</defs>
	<clipPath id="SVGID_4_">
		<use xlink:href="#SVGID_3_"  style="overflow:visible;"/>
	</clipPath>
	<g class="st5">
		
			<image style="overflow:visible;enable-background:new    ;" width="650" height="450" xlink:href="897081-01.jpg.jpg"  transform="matrix(0.86 0 0 0.86 498.48 595.28)">
		</image>
	</g>
</g>
</svg>
