<svg xmlns="http://www.w3.org/2000/svg" xmlns:xlink="http://www.w3.org/1999/xlink" viewBox="0 0 1190.55 1222"><defs><style>.cls-1,.cls-3,.cls-4,.cls-5{fill:none;}.cls-2{fill:#005685;}.cls-3{stroke:#932614;}.cls-3,.cls-4,.cls-5{stroke-miterlimit:10;}.cls-4{stroke:#d4810e;}.cls-5{stroke:#fae926;}.cls-6{clip-path:url(#clip-path);}.cls-7{font-size:60px;font-family:OpenSansCondensed-Bold, Open Sans Condensed;font-weight:700;}.cls-7,.cls-8{fill:#fff;}.cls-8{font-size:16px;font-family:OpenSansCondensed-Light, Open Sans Condensed;}.cls-9{font-size:10px;fill:#222221;font-family:EBGaramond-Italic, EB Garamond;font-style:italic;}.cls-10{letter-spacing:-0.02em;}.cls-11{letter-spacing:-0.02em;}.cls-12{letter-spacing:-0.02em;}.cls-13{letter-spacing:0.22em;}.cls-14{letter-spacing:0.47em;}.cls-15{letter-spacing:0.47em;}.cls-16{letter-spacing:-0.01em;}.cls-17{letter-spacing:-0.01em;}.cls-18{letter-spacing:-0.01em;}.cls-19{letter-spacing:-0.01em;}.cls-20{letter-spacing:-0.03em;}.cls-21{letter-spacing:0.03em;}.cls-22{letter-spacing:0.03em;}.cls-23{letter-spacing:0.1em;}.cls-24{letter-spacing:0.1em;}.cls-25{letter-spacing:0.08em;}.cls-26{letter-spacing:0.08em;}.cls-27{letter-spacing:0.14em;}.cls-28{letter-spacing:0.14em;}.cls-29{letter-spacing:-0.03em;}.cls-30{letter-spacing:-0.03em;}.cls-31{letter-spacing:0.08em;}.cls-32{letter-spacing:0.08em;}.cls-33{letter-spacing:0.07em;}.cls-34{letter-spacing:0.07em;}.cls-35{letter-spacing:0.02em;}.cls-36{letter-spacing:0.02em;}.cls-37{letter-spacing:0.02em;}.cls-38{letter-spacing:0.01em;}.cls-39{letter-spacing:0.01em;}.cls-40{letter-spacing:0.06em;}.cls-41{letter-spacing:0.06em;}.cls-42{letter-spacing:0.32em;}.cls-43{letter-spacing:0.32em;}</style><clipPath id="clip-path"><circle class="cls-1" cx="595.28" cy="595.28" r="146"/></clipPath></defs><title>886397_07</title><g id="Livello_1" data-name="Livello 1"><rect class="cls-2" width="1190.55" height="1190.55"/></g><g id="_6x6" data-name="6x6"><rect class="cls-3" x="61" y="64.77" width="147.4" height="147.4"/><rect class="cls-3" x="245.21" y="64.77" width="147.4" height="147.4"/><rect class="cls-3" x="429.43" y="64.77" width="147.4" height="147.4"/><rect class="cls-3" x="613.64" y="64.77" width="147.4" height="147.4"/><rect class="cls-3" x="797.85" y="64.77" width="147.4" height="147.4"/><rect class="cls-3" x="982.07" y="64.77" width="147.4" height="147.4"/><rect class="cls-3" x="60.4" y="248.98" width="147.4" height="147.4"/><rect class="cls-3" x="244.62" y="248.98" width="147.4" height="147.4"/><rect class="cls-3" x="428.83" y="248.98" width="147.4" height="147.4"/><rect class="cls-3" x="613.05" y="248.98" width="147.4" height="147.4"/><rect class="cls-3" x="797.26" y="248.98" width="147.4" height="147.4"/><rect class="cls-3" x="981.47" y="248.98" width="147.4" height="147.4"/><rect class="cls-3" x="60.81" y="433.19" width="147.4" height="147.4"/><rect class="cls-3" x="245.02" y="433.19" width="147.4" height="147.4"/><rect class="cls-3" x="429.24" y="433.19" width="147.4" height="147.4"/><rect class="cls-3" x="613.45" y="433.19" width="147.4" height="147.4"/><rect class="cls-3" x="797.67" y="433.19" width="147.4" height="147.4"/><rect class="cls-3" x="981.88" y="433.19" width="147.4" height="147.4"/><rect class="cls-3" x="61.04" y="617.41" width="147.4" height="147.4"/><rect class="cls-3" x="245.25" y="617.41" width="147.4" height="147.4"/><rect class="cls-3" x="429.47" y="617.41" width="147.4" height="147.4"/><rect class="cls-3" x="613.68" y="617.41" width="147.4" height="147.4"/><rect class="cls-3" x="797.9" y="617.41" width="147.4" height="147.4"/><rect class="cls-3" x="982.11" y="617.41" width="147.4" height="147.4"/><rect class="cls-3" x="61.04" y="801.62" width="147.4" height="147.4"/><rect class="cls-3" x="245.25" y="801.62" width="147.4" height="147.4"/><rect class="cls-3" x="429.47" y="801.62" width="147.4" height="147.4"/><rect class="cls-3" x="613.68" y="801.62" width="147.4" height="147.4"/><rect class="cls-3" x="797.9" y="801.62" width="147.4" height="147.4"/><rect class="cls-3" x="982.11" y="801.62" width="147.4" height="147.4"/><rect class="cls-3" x="61.04" y="985.84" width="147.4" height="147.4"/><rect class="cls-3" x="245.25" y="985.84" width="147.4" height="147.4"/><rect class="cls-3" x="429.47" y="985.84" width="147.4" height="147.4"/><rect class="cls-3" x="613.68" y="985.84" width="147.4" height="147.4"/><rect class="cls-3" x="797.9" y="985.84" width="147.4" height="147.4"/><rect class="cls-3" x="982.11" y="985.84" width="147.4" height="147.4"/></g><g id="_5x5" data-name="5x5"><rect class="cls-4" x="60.98" y="64.77" width="184.25" height="184.25"/><rect class="cls-4" x="282.04" y="64.77" width="184.25" height="184.25"/><rect class="cls-4" x="503.11" y="64.77" width="184.25" height="184.25"/><rect class="cls-4" x="724.17" y="64.77" width="184.25" height="184.25"/><rect class="cls-4" x="945.24" y="64.77" width="184.25" height="184.25"/><rect class="cls-4" x="61" y="285.83" width="184.25" height="184.25"/><rect class="cls-4" x="282.06" y="285.83" width="184.25" height="184.25"/><rect class="cls-4" x="503.13" y="285.83" width="184.25" height="184.25"/><rect class="cls-4" x="724.19" y="285.83" width="184.25" height="184.25"/><rect class="cls-4" x="945.25" y="285.83" width="184.25" height="184.25"/><rect class="cls-4" x="61.01" y="506.89" width="184.25" height="184.25"/><rect class="cls-4" x="282.07" y="506.89" width="184.25" height="184.25"/><rect class="cls-4" x="503.14" y="506.89" width="184.25" height="184.25"/><rect class="cls-4" x="724.2" y="506.89" width="184.25" height="184.25"/><rect class="cls-4" x="945.26" y="506.89" width="184.25" height="184.25"/><rect class="cls-4" x="61.02" y="727.96" width="184.25" height="184.25"/><rect class="cls-4" x="282.08" y="727.96" width="184.25" height="184.25"/><rect class="cls-4" x="503.14" y="727.96" width="184.25" height="184.25"/><rect class="cls-4" x="724.21" y="727.96" width="184.25" height="184.25"/><rect class="cls-4" x="945.27" y="727.96" width="184.25" height="184.25"/><rect class="cls-4" x="61.03" y="949.02" width="184.25" height="184.25"/><rect class="cls-4" x="282.09" y="949.02" width="184.25" height="184.25"/><rect class="cls-4" x="503.15" y="949.02" width="184.25" height="184.25"/><rect class="cls-4" x="724.22" y="949.02" width="184.25" height="184.25"/><rect class="cls-4" x="945.28" y="949.02" width="184.25" height="184.25"/></g><g id="_4x4" data-name="4x4"><rect class="cls-5" x="61" y="64.77" width="239.53" height="239.53"/><rect class="cls-5" x="337.34" y="64.77" width="239.53" height="239.53"/><rect class="cls-5" x="613.68" y="64.77" width="239.53" height="239.53"/><rect class="cls-5" x="890.02" y="341.11" width="239.53" height="239.53"/><rect class="cls-5" x="61" y="341.11" width="239.53" height="239.53"/><rect class="cls-5" x="337.34" y="341.11" width="239.53" height="239.53"/><rect class="cls-5" x="613.68" y="341.11" width="239.53" height="239.53"/><rect class="cls-5" x="890.02" y="617.39" width="239.53" height="239.53"/><rect class="cls-5" x="61" y="617.39" width="239.53" height="239.53"/><rect class="cls-5" x="337.34" y="617.39" width="239.53" height="239.53"/><rect class="cls-5" x="613.68" y="617.39" width="239.53" height="239.53"/><rect class="cls-5" x="890.02" y="893.73" width="239.53" height="239.53"/><rect class="cls-5" x="61" y="893.73" width="239.53" height="239.53"/><rect class="cls-5" x="337.34" y="893.73" width="239.53" height="239.53"/><rect class="cls-5" x="613.68" y="893.73" width="239.53" height="239.53"/><rect class="cls-5" x="890.02" y="64.77" width="239.53" height="239.53"/></g><g id="MASCHERA_CIRCO" data-name="MASCHERA CIRCO"><g class="cls-6"><image width="3369" height="5053" transform="translate(265.28 9.28) scale(0.24)" xlink:href="886397_05.jpg"/></g></g><g id="testo"><text class="cls-7" transform="translate(429.47 59.99)">ARCHITECTURE</text><text class="cls-8" transform="translate(60.4 225.27)">Lorem ipsum dolor sit amet, consectetuer adipiscing elit, sed diam nonummy nibh euismod tinci<tspan x="495.71" y="0">-</tspan><tspan x="0" y="24">dunt ut laoreet dolore magna aliquam erat volutpat. Ut wisi enim ad minim veniam, quis nostrud </tspan><tspan x="0" y="48">exerci tation ullamcorper suscipit lobortis nisl ut aliquip ex ea commodo consequat. Duis autem vel </tspan><tspan x="0" y="72">eum iriure dolor in hendrerit in vulputate velit esse molestie consequat, vel illum dolore eu feugiat </tspan><tspan x="0" y="96">nulla facilisis at vero eros et accumsan et iusto odio dignissim qui blandit praesent luptatum zzril </tspan><tspan x="0" y="120">delenit augue duis dolore te feugait nulla facilisi.</tspan><tspan x="0" y="144">Lorem ipsum dolor sit amet, cons ectetuer adipiscing elit, sed diam nonummy nibh euismod tinci</tspan><tspan x="498.72" y="144">-</tspan><tspan x="0" y="168">dunt ut laoreet dolore magna aliquam erat volutpat. Ut wisi enim ad minim veniam, quis nostrud </tspan></text><text class="cls-8" transform="translate(687.41 741.62)">Lorem ipsum dolor sit amet, consectetuer adipiscing elit, sed diam nonummy nibh <tspan x="0" y="24">euismod tincidunt ut laoreet dolore magna aliquam erat volutpat. Ut wisi enim ad </tspan><tspan x="0" y="48">minim veniam, quis nostrud exerci tation ullamcorper suscipit lobortis nisl ut aliquip </tspan><tspan x="0" y="72">ex ea commodo consequat. Duis autem vel eum iriure dolor in hendrerit in vulputate </tspan><tspan x="0" y="96">velit esse molestie consequat, vel illum dolore eu feugiat nulla facilisis at vero eros et </tspan><tspan x="0" y="120">accumsan et iusto odio dignissim qui blandit praesent luptatum zzril delenit augue </tspan><tspan x="0" y="144">duis dolore te feugait nulla facilisi.</tspan><tspan x="0" y="168">Lorem ipsum dolor sit amet, cons ectetuer adipiscing elit, sed diam nonummy nibh </tspan></text><text class="cls-8" transform="translate(60.2 447.14)">Lorem ipsum dolor sit amet, consectetuer adipiscing elit, sed <tspan x="0" y="24">diam nonummy nibh euismod tincidunt ut laoreet dolore magna </tspan><tspan x="0" y="48">aliquam erat volutpat. Ut wisi enim ad minim veniam, quis </tspan><tspan x="0" y="72">nostrud exerci tation ullamcorper suscipit lobortis nisl ut aliquip </tspan><tspan x="0" y="96">ex ea commodo consequat. Duis autem vel eum iriure dolor in </tspan><tspan x="0" y="120">hendrerit in vulputate velit esse molestie consequat, vel illum </tspan></text><text class="cls-8" transform="translate(613.48 963.61)">Lorem ipsum dolor sit amet, consectetuer adipiscing elit, sed diam nonummy nibh euismod tinci<tspan x="495.71" y="0">-</tspan><tspan x="0" y="24">dunt ut laoreet dolore magna aliquam erat volutpat. Ut wisi enim ad minim veniam, quis nostrud </tspan><tspan x="0" y="48">exerci tation ullamcorper suscipit lobortis nisl ut aliquip ex ea commodo consequat. Duis autem vel </tspan><tspan x="0" y="72">eum iriure dolor in hendrerit in vulputate velit esse molestie consequat, vel illum dolore eu feugiat </tspan><tspan x="0" y="96">nulla facilisis at vero eros et accumsan et iusto odio dignissim qui blandit praesent luptatum zzril </tspan><tspan x="0" y="120">delenit augue duis dolore te feugait nulla facilisi.</tspan><tspan x="0" y="144">Lorem ipsum dolor sit amet, cons ectetuer adipiscing elit, sed diam nonummy nibh euismod tinci</tspan><tspan x="498.72" y="144">-</tspan><tspan x="0" y="168">dunt ut laoreet dolore magna aliquam erat volutpat. Ut wisi enim ad minim veniam, quis nostrud </tspan></text><text class="cls-9" transform="translate(761.08 577.32)">S<tspan class="cls-10" x="4.67" y="0">c</tspan><tspan x="7.65" y="0">orc</tspan><tspan class="cls-11" x="18.37" y="0">i</tspan><tspan x="21.11" y="0">o </tspan><tspan class="cls-12" x="26.91" y="0">a</tspan><tspan x="31.62" y="0">r</tspan><tspan class="cls-12" x="35.41" y="0">c</tspan><tspan x="38.34" y="0">hitetton</tspan><tspan class="cls-11" x="67.4" y="0">i</tspan><tspan class="cls-10" x="70.14" y="0">c</tspan><tspan x="73.12" y="0">o</tspan></text><text class="cls-8" transform="translate(268.54 684.88)"><tspan class="cls-13">Lore</tspan><tspan x="36.95" y="0">m </tspan><tspan x="-80.39" y="24">ipsum</tspan><tspan class="cls-14" x="-48.39" y="24"> </tspan><tspan x="-37.9" y="24">dolor</tspan><tspan class="cls-15" x="-10.27" y="24"> </tspan><tspan x="0.21" y="24">sit</tspan><tspan class="cls-15" x="11.77" y="24"> </tspan><tspan x="22.25" y="24">amet,</tspan><tspan class="cls-14" x="51.64" y="24"> </tspan><tspan x="62.12" y="24">consectetuer </tspan><tspan x="-117.41" y="48">adipiscing</tspan><tspan class="cls-16" x="-65.72" y="48"> </tspan><tspan x="-62.82" y="48">elit,</tspan><tspan class="cls-17" x="-43.73" y="48"> </tspan><tspan x="-40.83" y="48">sed</tspan><tspan class="cls-16" x="-22.54" y="48"> </tspan><tspan x="-19.64" y="48">diam</tspan><tspan class="cls-17" x="6.65" y="48"> </tspan><tspan x="9.55" y="48">nonummy</tspan><tspan class="cls-16" x="62.04" y="48"> </tspan><tspan x="64.94" y="48">nibh</tspan><tspan class="cls-17" x="88.52" y="48"> </tspan><tspan x="91.41" y="48">euismod</tspan><tspan class="cls-16" x="136.33" y="48"> </tspan><tspan x="139.23" y="48">tinci</tspan><tspan x="160.51" y="48">-</tspan><tspan x="-143.18" y="72">dunt</tspan><tspan class="cls-18" x="-119.1" y="72"> </tspan><tspan x="-116.2" y="72">ut</tspan><tspan class="cls-18" x="-105.89" y="72"> </tspan><tspan x="-102.99" y="72">laoreet</tspan><tspan class="cls-18" x="-66.79" y="72"> </tspan><tspan x="-63.89" y="72">dolore</tspan><tspan class="cls-18" x="-29.99" y="72"> </tspan><tspan x="-27.08" y="72">magna</tspan><tspan class="cls-19" x="7.93" y="72"> </tspan><tspan x="10.83" y="72">aliquam</tspan><tspan class="cls-18" x="53.05" y="72"> </tspan><tspan x="55.96" y="72">erat</tspan><tspan class="cls-18" x="76.23" y="72"> </tspan><tspan x="79.13" y="72">volutpat.</tspan><tspan class="cls-18" x="124.09" y="72"> </tspan><tspan x="127" y="72">Ut</tspan><tspan class="cls-18" x="138.41" y="72"> </tspan><tspan x="141.31" y="72">wisi</tspan><tspan class="cls-18" x="161.15" y="72"> </tspan><tspan x="164.05" y="72">enim </tspan><tspan x="-162.43" y="96">ad</tspan><tspan class="cls-20" x="-149.33" y="96"> </tspan><tspan x="-146.77" y="96">minim</tspan><tspan class="cls-20" x="-113.6" y="96"> </tspan><tspan x="-111.04" y="96">veniam,</tspan><tspan class="cls-20" x="-70.26" y="96"> </tspan><tspan x="-67.7" y="96">quis</tspan><tspan class="cls-20" x="-45.88" y="96"> </tspan><tspan x="-43.33" y="96">nostrud</tspan><tspan class="cls-20" x="-3.2" y="96"> </tspan><tspan x="-0.64" y="96">exerci</tspan><tspan class="cls-20" x="29.52" y="96"> </tspan><tspan x="32.08" y="96">tation</tspan><tspan class="cls-20" x="61.66" y="96"> </tspan><tspan x="64.22" y="96">ullamcorper</tspan><tspan class="cls-20" x="126.92" y="96"> </tspan><tspan x="129.48" y="96">suscipit</tspan><tspan class="cls-20" x="167.81" y="96"> </tspan><tspan x="170.37" y="96">lobortis </tspan><tspan x="-177.02" y="120">nisl</tspan><tspan class="cls-21" x="-159.17" y="120"> </tspan><tspan x="-155.62" y="120">ut</tspan><tspan class="cls-21" x="-145.31" y="120"> </tspan><tspan x="-141.77" y="120">aliquip</tspan><tspan class="cls-22" x="-105.87" y="120"> </tspan><tspan x="-102.32" y="120">ex</tspan><tspan class="cls-21" x="-90.76" y="120"> </tspan><tspan x="-87.21" y="120">ea</tspan><tspan class="cls-21" x="-74.82" y="120"> </tspan><tspan x="-71.27" y="120">commodo</tspan><tspan class="cls-21" x="-19.05" y="120"> </tspan><tspan x="-15.5" y="120">consequat.</tspan><tspan class="cls-22" x="40.92" y="120"> </tspan><tspan x="44.46" y="120">Duis</tspan><tspan class="cls-21" x="67.08" y="120"> </tspan><tspan x="70.63" y="120">autem</tspan><tspan class="cls-21" x="103.51" y="120"> </tspan><tspan x="107.06" y="120">vel</tspan><tspan class="cls-21" x="121.45" y="120"> </tspan><tspan x="125" y="120">eum</tspan><tspan class="cls-22" x="148.25" y="120"> </tspan><tspan x="151.79" y="120">iriure</tspan><tspan class="cls-21" x="179.61" y="120"> </tspan><tspan x="183.16" y="120">dolor</tspan><tspan class="cls-21" x="210.8" y="120"> </tspan><tspan x="214.35" y="120">in </tspan><tspan x="-187.9" y="144">hendrerit</tspan><tspan class="cls-23" x="-139.54" y="144"> </tspan><tspan x="-134.95" y="144">in</tspan><tspan class="cls-24" x="-125.15" y="144"> </tspan><tspan x="-120.57" y="144">vulputate</tspan><tspan class="cls-23" x="-72.47" y="144"> </tspan><tspan x="-67.89" y="144">velit</tspan><tspan class="cls-24" x="-46.99" y="144"> </tspan><tspan x="-42.41" y="144">esse</tspan><tspan class="cls-23" x="-19.78" y="144"> </tspan><tspan x="-15.2" y="144">molestie</tspan><tspan class="cls-24" x="28.73" y="144"> </tspan><tspan x="33.31" y="144">consequat,</tspan><tspan class="cls-23" x="89.72" y="144"> </tspan><tspan x="94.31" y="144">vel</tspan><tspan class="cls-24" x="108.69" y="144"> </tspan><tspan x="113.27" y="144">illum</tspan><tspan class="cls-23" x="139.27" y="144"> </tspan><tspan x="143.85" y="144">dolore</tspan><tspan class="cls-24" x="177.76" y="144"> </tspan><tspan x="182.34" y="144">eu</tspan><tspan class="cls-23" x="195.41" y="144"> </tspan><tspan x="199.99" y="144">feugiat </tspan><tspan x="-195.62" y="168">nulla</tspan><tspan class="cls-25" x="-169.88" y="168"> </tspan><tspan x="-165.62" y="168">facilisis</tspan><tspan class="cls-26" x="-128.89" y="168"> </tspan><tspan x="-124.63" y="168">at</tspan><tspan class="cls-25" x="-115" y="168"> </tspan><tspan x="-110.74" y="168">vero</tspan><tspan class="cls-25" x="-88.35" y="168"> </tspan><tspan x="-84.1" y="168">eros</tspan><tspan class="cls-26" x="-61.77" y="168"> </tspan><tspan x="-57.52" y="168">et</tspan><tspan class="cls-25" x="-47.73" y="168"> </tspan><tspan x="-43.47" y="168">accumsan</tspan><tspan class="cls-25" x="7.51" y="168"> </tspan><tspan x="11.77" y="168">et</tspan><tspan class="cls-25" x="21.55" y="168"> </tspan><tspan x="25.81" y="168">iusto</tspan><tspan class="cls-26" x="50.8" y="168"> </tspan><tspan x="55.06" y="168">odio</tspan><tspan class="cls-25" x="78.33" y="168"> </tspan><tspan x="82.59" y="168">dignissim</tspan><tspan class="cls-25" x="131.43" y="168"> </tspan><tspan x="135.69" y="168">qui</tspan><tspan class="cls-26" x="152.47" y="168"> </tspan><tspan x="156.73" y="168">blandit</tspan><tspan class="cls-25" x="193.13" y="168"> </tspan><tspan x="197.39" y="168">praesent </tspan><tspan x="-137.29" y="192">luptatum zzril delenit augue duis dolore te feugait nulla facilisi.</tspan><tspan x="-202.74" y="216">Lorem</tspan><tspan class="cls-27" x="-169.72" y="216"> </tspan><tspan x="-164.54" y="216">ipsum</tspan><tspan class="cls-27" x="-132.54" y="216"> </tspan><tspan x="-127.36" y="216">dolor</tspan><tspan class="cls-28" x="-99.72" y="216"> </tspan><tspan x="-94.54" y="216">sit</tspan><tspan class="cls-27" x="-82.99" y="216"> </tspan><tspan x="-77.8" y="216">amet,</tspan><tspan class="cls-27" x="-48.42" y="216"> </tspan><tspan x="-43.24" y="216">cons</tspan><tspan class="cls-27" x="-19.8" y="216"> </tspan><tspan x="-14.62" y="216">ectetuer</tspan><tspan class="cls-27" x="27.34" y="216"> </tspan><tspan x="32.53" y="216">adipiscing</tspan><tspan class="cls-27" x="84.21" y="216"> </tspan><tspan x="89.4" y="216">elit,</tspan><tspan class="cls-28" x="108.49" y="216"> </tspan><tspan x="113.67" y="216">sed</tspan><tspan class="cls-27" x="131.96" y="216"> </tspan><tspan x="137.14" y="216">diam</tspan><tspan class="cls-27" x="163.43" y="216"> </tspan><tspan x="168.61" y="216">nonummy</tspan><tspan class="cls-27" x="221.11" y="216"> </tspan><tspan x="226.29" y="216">nibh </tspan><tspan x="-201.48" y="240">euismod</tspan><tspan class="cls-29" x="-156.57" y="240"> </tspan><tspan x="-154.02" y="240">tincidunt</tspan><tspan class="cls-29" x="-108.66" y="240"> </tspan><tspan x="-106.11" y="240">ut</tspan><tspan class="cls-30" x="-95.8" y="240"> </tspan><tspan x="-93.25" y="240">laoreet</tspan><tspan class="cls-29" x="-57.06" y="240"> </tspan><tspan x="-54.5" y="240">dolore</tspan><tspan class="cls-29" x="-20.6" y="240"> </tspan><tspan x="-18.05" y="240">magna</tspan><tspan class="cls-29" x="16.97" y="240"> </tspan><tspan x="19.52" y="240">aliquam</tspan><tspan class="cls-30" x="61.74" y="240"> </tspan><tspan x="64.29" y="240">erat</tspan><tspan class="cls-29" x="84.56" y="240"> </tspan><tspan x="87.12" y="240">volutpat.</tspan><tspan class="cls-29" x="132.08" y="240"> </tspan><tspan x="134.63" y="240">Ut</tspan><tspan class="cls-29" x="146.04" y="240"> </tspan><tspan x="148.59" y="240">wisi</tspan><tspan class="cls-30" x="168.43" y="240"> </tspan><tspan x="170.98" y="240">enim</tspan><tspan class="cls-29" x="197.24" y="240"> </tspan><tspan x="199.79" y="240">ad</tspan><tspan class="cls-29" x="212.89" y="240"> </tspan><tspan x="215.44" y="240">minim </tspan><tspan x="-197.46" y="264">veniam,</tspan><tspan class="cls-31" x="-156.68" y="264"> </tspan><tspan x="-152.4" y="264">quis</tspan><tspan class="cls-31" x="-130.58" y="264"> </tspan><tspan x="-126.3" y="264">nostrud</tspan><tspan class="cls-32" x="-86.18" y="264"> </tspan><tspan x="-81.9" y="264">exerci</tspan><tspan class="cls-31" x="-51.73" y="264"> </tspan><tspan x="-47.46" y="264">tation</tspan><tspan class="cls-31" x="-17.87" y="264"> </tspan><tspan x="-13.59" y="264">ullamcorper</tspan><tspan class="cls-31" x="49.11" y="264"> </tspan><tspan x="53.39" y="264">suscipit</tspan><tspan class="cls-31" x="91.73" y="264"> </tspan><tspan x="96" y="264">lobortis</tspan><tspan class="cls-31" x="135.19" y="264"> </tspan><tspan x="139.47" y="264">nisl</tspan><tspan class="cls-32" x="157.32" y="264"> </tspan><tspan x="161.6" y="264">ut</tspan><tspan class="cls-31" x="171.9" y="264"> </tspan><tspan x="176.18" y="264">aliquip</tspan><tspan class="cls-31" x="212.08" y="264"> </tspan><tspan x="216.36" y="264">ex</tspan><tspan class="cls-31" x="227.91" y="264"> </tspan><tspan x="232.19" y="264">ea </tspan><tspan x="-32.25" y="288">commodo consequat.</tspan><tspan x="-180.84" y="312">Lorem</tspan><tspan class="cls-33" x="-147.83" y="312"> </tspan><tspan x="-143.63" y="312">ipsum</tspan><tspan class="cls-33" x="-111.63" y="312"> </tspan><tspan x="-107.43" y="312">dolor</tspan><tspan class="cls-34" x="-79.8" y="312"> </tspan><tspan x="-75.6" y="312">sit</tspan><tspan class="cls-33" x="-64.04" y="312"> </tspan><tspan x="-59.85" y="312">amet,</tspan><tspan class="cls-33" x="-30.46" y="312"> </tspan><tspan x="-26.27" y="312">consectetuer</tspan><tspan class="cls-33" x="39.13" y="312"> </tspan><tspan x="43.33" y="312">adipiscing</tspan><tspan class="cls-33" x="95.02" y="312"> </tspan><tspan x="99.21" y="312">elit,</tspan><tspan class="cls-34" x="118.31" y="312"> </tspan><tspan x="122.51" y="312">sed</tspan><tspan class="cls-33" x="140.8" y="312"> </tspan><tspan x="144.99" y="312">diam</tspan><tspan class="cls-33" x="171.28" y="312"> </tspan><tspan x="175.48" y="312">nonummy </tspan><tspan x="-167.5" y="336">nibh</tspan><tspan class="cls-35" x="-143.93" y="336"> </tspan><tspan x="-140.53" y="336">euismod</tspan><tspan class="cls-35" x="-95.61" y="336"> </tspan><tspan x="-92.21" y="336">tincidunt</tspan><tspan class="cls-35" x="-46.85" y="336"> </tspan><tspan x="-43.45" y="336">ut</tspan><tspan class="cls-35" x="-33.15" y="336"> </tspan><tspan x="-29.75" y="336">laoreet</tspan><tspan class="cls-35" x="6.45" y="336"> </tspan><tspan x="9.85" y="336">dolore</tspan><tspan class="cls-35" x="43.75" y="336"> </tspan><tspan x="47.15" y="336">magna</tspan><tspan class="cls-35" x="82.17" y="336"> </tspan><tspan x="85.57" y="336">aliquam</tspan><tspan class="cls-35" x="127.79" y="336"> </tspan><tspan x="131.19" y="336">erat</tspan><tspan class="cls-35" x="151.46" y="336"> </tspan><tspan x="154.86" y="336">volutpat.</tspan><tspan class="cls-35" x="199.82" y="336"> </tspan><tspan x="203.22" y="336">Ut </tspan><tspan x="-149.87" y="360">wisi</tspan><tspan class="cls-36" x="-130.04" y="360"> </tspan><tspan x="-126.78" y="360">enim</tspan><tspan class="cls-36" x="-100.52" y="360"> </tspan><tspan x="-97.26" y="360">ad</tspan><tspan class="cls-37" x="-84.16" y="360"> </tspan><tspan x="-80.9" y="360">minim</tspan><tspan class="cls-36" x="-47.73" y="360"> </tspan><tspan x="-44.47" y="360">veniam,</tspan><tspan class="cls-36" x="-3.69" y="360"> </tspan><tspan x="-0.43" y="360">quis</tspan><tspan class="cls-36" x="21.39" y="360"> </tspan><tspan x="24.65" y="360">nostrud</tspan><tspan class="cls-37" x="64.77" y="360"> </tspan><tspan x="68.03" y="360">exerci</tspan><tspan class="cls-36" x="98.2" y="360"> </tspan><tspan x="101.46" y="360">tation</tspan><tspan class="cls-36" x="131.04" y="360"> </tspan><tspan x="134.3" y="360">ullamcorper </tspan><tspan x="-126.47" y="384">suscipit</tspan><tspan class="cls-38" x="-88.14" y="384"> </tspan><tspan x="-84.9" y="384">lobortis</tspan><tspan class="cls-39" x="-45.71" y="384"> </tspan><tspan x="-42.47" y="384">nisl</tspan><tspan class="cls-38" x="-24.62" y="384"> </tspan><tspan x="-21.38" y="384">ut</tspan><tspan class="cls-39" x="-11.08" y="384"> </tspan><tspan x="-7.84" y="384">aliquip</tspan><tspan class="cls-38" x="28.06" y="384"> </tspan><tspan x="31.3" y="384">ex</tspan><tspan class="cls-38" x="42.86" y="384"> </tspan><tspan x="46.09" y="384">ea</tspan><tspan class="cls-39" x="58.49" y="384"> </tspan><tspan x="61.73" y="384">commodo</tspan><tspan class="cls-38" x="113.95" y="384"> </tspan><tspan x="117.19" y="384">consequat. </tspan><tspan x="-93.93" y="408">Duis</tspan><tspan class="cls-40" x="-71.31" y="408"> </tspan><tspan x="-67.28" y="408">autem</tspan><tspan class="cls-41" x="-34.4" y="408"> </tspan><tspan x="-30.36" y="408">vel</tspan><tspan class="cls-40" x="-15.98" y="408"> </tspan><tspan x="-11.95" y="408">eum</tspan><tspan class="cls-41" x="11.3" y="408"> </tspan><tspan x="15.34" y="408">iriure</tspan><tspan class="cls-40" x="43.16" y="408"> </tspan><tspan x="47.19" y="408">dolor</tspan><tspan class="cls-41" x="74.82" y="408"> </tspan><tspan x="78.86" y="408">in</tspan><tspan class="cls-40" x="88.66" y="408"> </tspan><tspan x="92.69" y="408">hendrerit </tspan><tspan x="-39.24" y="432">in</tspan><tspan class="cls-42" x="-29.43" y="432"> </tspan><tspan x="-21.37" y="432">vulputate</tspan><tspan class="cls-43" x="26.72" y="432"> </tspan><tspan x="34.78" y="432">velit</tspan><tspan class="cls-42" x="55.68" y="432"> </tspan><tspan x="63.75" y="432">esse </tspan></text></g></svg>