<svg xmlns="http://www.w3.org/2000/svg" xmlns:xlink="http://www.w3.org/1999/xlink" viewBox="0 0 1190.55 1190.55"><defs><style>.cls-1{fill:#396;}.cls-2,.cls-3,.cls-4,.cls-5{fill:none;stroke-miterlimit:10;}.cls-2{stroke:#000;}.cls-3{stroke:#00ffce;}.cls-4{stroke:#ff0;}.cls-5{stroke:#c12900;}</style></defs><title>889639_03</title><g id="Livello_1" data-name="Livello 1"><rect class="cls-1" width="1191" height="1191"/><rect class="cls-2" width="1191" height="1191"/></g><g id="Livello_2" data-name="Livello 2"><rect class="cls-3" x="890.63" y="890.63" width="239.53" height="239.53"/><rect class="cls-3" x="614.26" y="890.63" width="239.53" height="239.53"/><rect class="cls-3" x="337.88" y="890.63" width="239.53" height="239.53"/><rect class="cls-3" x="61.5" y="890.63" width="239.53" height="239.53"/><rect class="cls-3" x="890.63" y="614.26" width="239.53" height="239.53"/><rect class="cls-3" x="614.26" y="614.26" width="239.53" height="239.53"/><rect class="cls-3" x="337.88" y="614.26" width="239.53" height="239.53"/><rect class="cls-3" x="61.5" y="614.26" width="239.53" height="239.53"/><rect class="cls-3" x="890.63" y="337.88" width="239.53" height="239.53"/><rect class="cls-3" x="614.26" y="337.88" width="239.53" height="239.53"/><rect class="cls-3" x="337.88" y="337.88" width="239.53" height="239.53"/><rect class="cls-3" x="61.5" y="337.88" width="239.53" height="239.53"/><rect class="cls-3" x="890.63" y="61.5" width="239.53" height="239.53"/><rect class="cls-3" x="614.26" y="61.5" width="239.53" height="239.53"/><rect class="cls-3" x="337.88" y="61.5" width="239.53" height="239.53"/><rect class="cls-3" x="61.5" y="61.5" width="239.53" height="239.53"/></g><g id="Livello_3" data-name="Livello 3"><rect class="cls-4" x="945.91" y="945.91" width="184.25" height="184.25"/><rect class="cls-4" x="724.81" y="945.91" width="184.25" height="184.25"/><rect class="cls-4" x="503.7" y="945.91" width="184.25" height="184.25"/><rect class="cls-4" x="282.6" y="945.91" width="184.25" height="184.25"/><rect class="cls-4" x="61.5" y="945.91" width="184.25" height="184.25"/><rect class="cls-4" x="61.5" y="724.81" width="184.25" height="184.25"/><rect class="cls-4" x="282.6" y="724.81" width="184.25" height="184.25"/><rect class="cls-4" x="503.7" y="724.81" width="184.25" height="184.25"/><rect class="cls-4" x="724.81" y="724.81" width="184.25" height="184.25"/><rect class="cls-4" x="945.91" y="724.81" width="184.25" height="184.25"/><rect class="cls-4" x="945.91" y="503.7" width="184.25" height="184.25"/><rect class="cls-4" x="724.81" y="503.7" width="184.25" height="184.25"/><rect class="cls-4" x="503.7" y="503.7" width="184.25" height="184.25"/><rect class="cls-4" x="282.6" y="503.7" width="184.25" height="184.25"/><rect class="cls-4" x="61.5" y="503.7" width="184.25" height="184.25"/><rect class="cls-4" x="61.5" y="282.6" width="184.25" height="184.25"/><rect class="cls-4" x="282.6" y="282.6" width="184.25" height="184.25"/><rect class="cls-4" x="503.7" y="282.6" width="184.25" height="184.25"/><rect class="cls-4" x="724.81" y="282.6" width="184.25" height="184.25"/><rect class="cls-4" x="945.91" y="282.6" width="184.25" height="184.25"/><rect class="cls-4" x="945.91" y="61.5" width="184.25" height="184.25"/><rect class="cls-4" x="724.81" y="61.5" width="184.25" height="184.25"/><rect class="cls-4" x="503.7" y="61.5" width="184.25" height="184.25"/><rect class="cls-4" x="282.6" y="61.5" width="184.25" height="184.25"/><rect class="cls-4" x="61.5" y="61.5" width="184.25" height="184.25"/></g><g id="Livello_4" data-name="Livello 4"><rect class="cls-5" x="982.76" y="982.76" width="147.4" height="147.4"/><rect class="cls-5" x="798.51" y="982.76" width="147.4" height="147.4"/><rect class="cls-5" x="614.26" y="982.76" width="147.4" height="147.4"/><rect class="cls-5" x="430" y="982.76" width="147.4" height="147.4"/><rect class="cls-5" x="245.75" y="982.76" width="147.4" height="147.4"/><rect class="cls-5" x="61.5" y="982.76" width="147.4" height="147.4"/><rect class="cls-5" x="982.76" y="798.51" width="147.4" height="147.4"/><rect class="cls-5" x="798.51" y="798.51" width="147.4" height="147.4"/><rect class="cls-5" x="614.26" y="798.51" width="147.4" height="147.4"/><rect class="cls-5" x="430" y="798.51" width="147.4" height="147.4"/><rect class="cls-5" x="245.75" y="798.51" width="147.4" height="147.4"/><rect class="cls-5" x="61.5" y="798.51" width="147.4" height="147.4"/><rect class="cls-5" x="982.76" y="614.26" width="147.4" height="147.4"/><rect class="cls-5" x="798.51" y="614.26" width="147.4" height="147.4"/><rect class="cls-5" x="614.26" y="614.26" width="147.4" height="147.4"/><rect class="cls-5" x="430" y="614.26" width="147.4" height="147.4"/><rect class="cls-5" x="245.75" y="614.26" width="147.4" height="147.4"/><rect class="cls-5" x="61.5" y="614.26" width="147.4" height="147.4"/><rect class="cls-5" x="982.76" y="430" width="147.4" height="147.4"/><rect class="cls-5" x="798.51" y="430" width="147.4" height="147.4"/><rect class="cls-5" x="614.26" y="430" width="147.4" height="147.4"/><rect class="cls-5" x="430" y="430" width="147.4" height="147.4"/><rect class="cls-5" x="245.75" y="430" width="147.4" height="147.4"/><rect class="cls-5" x="61.5" y="430" width="147.4" height="147.4"/><rect class="cls-5" x="982.76" y="245.75" width="147.4" height="147.4"/><rect class="cls-5" x="798.51" y="245.75" width="147.4" height="147.4"/><rect class="cls-5" x="614.26" y="245.75" width="147.4" height="147.4"/><rect class="cls-5" x="430" y="245.75" width="147.4" height="147.4"/><rect class="cls-5" x="245.75" y="245.75" width="147.4" height="147.4"/><rect class="cls-5" x="61.5" y="245.75" width="147.4" height="147.4"/><rect class="cls-5" x="982.76" y="61.5" width="147.4" height="147.4"/><rect class="cls-5" x="798.51" y="61.5" width="147.4" height="147.4"/><rect class="cls-5" x="614.26" y="61.5" width="147.4" height="147.4"/><rect class="cls-5" x="430" y="61.5" width="147.4" height="147.4"/><rect class="cls-5" x="245.75" y="61.5" width="147.4" height="147.4"/><rect class="cls-5" x="61.5" y="61.5" width="147.4" height="147.4"/></g><g id="Livello_5" data-name="Livello 5"><image width="440" height="600" transform="translate(63 62)" xlink:href="889639_03.png"/></g></svg>