<?xml version="1.0" encoding="utf-8"?>
<!-- Generator: Adobe Illustrator 22.1.0, SVG Export Plug-In . SVG Version: 6.00 Build 0)  -->
<svg version="1.1" id="Livello_1" xmlns="http://www.w3.org/2000/svg" xmlns:xlink="http://www.w3.org/1999/xlink" x="0px" y="0px"
	 viewBox="0 0 1190.6 1190.6" style="enable-background:new 0 0 1190.6 1190.6;" xml:space="preserve">
<style type="text/css">
	.st0{fill:#FFFF00;}
	.st1{fill:none;stroke:#1BD715;stroke-miterlimit:10;}
	.st2{fill:none;stroke:#FF0000;stroke-miterlimit:10;}
	.st3{fill:none;stroke:#2C0FD6;stroke-miterlimit:10;}
	.st4{clip-path:url(#SVGID_2_);}
</style>
<title>Tavola disegno 1</title>
<g id="Livello_2_1_">
	<g id="Colore">
		<rect y="0" class="st0" width="1190.6" height="1190.6"/>
	</g>
	<rect x="889.9" y="889.7" class="st1" width="239.5" height="239.5"/>
	<rect x="613.5" y="889.7" class="st1" width="239.5" height="239.5"/>
	<rect x="337.1" y="889.7" class="st1" width="239.5" height="239.5"/>
	<rect x="60.8" y="889.7" class="st1" width="239.5" height="239.5"/>
	<rect x="889.9" y="613.3" class="st1" width="239.5" height="239.5"/>
	<rect x="613.5" y="613.3" class="st1" width="239.5" height="239.5"/>
	<rect x="337.1" y="613.3" class="st1" width="239.5" height="239.5"/>
	<rect x="60.8" y="613.3" class="st1" width="239.5" height="239.5"/>
	<rect x="889.9" y="336.9" class="st1" width="239.5" height="239.5"/>
	<rect x="613.5" y="336.9" class="st1" width="239.5" height="239.5"/>
	<rect x="337.1" y="336.9" class="st1" width="239.5" height="239.5"/>
	<rect x="60.8" y="336.9" class="st1" width="239.5" height="239.5"/>
	<rect x="889.9" y="60.5" class="st1" width="239.5" height="239.5"/>
	<rect x="613.5" y="60.5" class="st1" width="239.5" height="239.5"/>
	<rect x="337.1" y="60.5" class="st1" width="239.5" height="239.5"/>
	<rect x="60.8" y="60.5" class="st1" width="239.5" height="239.5"/>
</g>
<g id="Livello_3">
	<rect x="945.2" y="944.9" class="st2" width="184.2" height="184.2"/>
	<rect x="724.1" y="944.9" class="st2" width="184.2" height="184.2"/>
	<rect x="503" y="944.9" class="st2" width="184.2" height="184.2"/>
	<rect x="281.9" y="944.9" class="st2" width="184.2" height="184.2"/>
	<rect x="60.8" y="944.9" class="st2" width="184.2" height="184.2"/>
	<rect x="945.2" y="723.8" class="st2" width="184.2" height="184.2"/>
	<rect x="724.1" y="723.8" class="st2" width="184.2" height="184.2"/>
	<rect x="503" y="723.8" class="st2" width="184.2" height="184.2"/>
	<rect x="281.9" y="723.8" class="st2" width="184.2" height="184.2"/>
	<rect x="60.8" y="723.8" class="st2" width="184.2" height="184.2"/>
	<rect x="945.2" y="502.7" class="st2" width="184.2" height="184.2"/>
	<rect x="724.1" y="502.7" class="st2" width="184.2" height="184.2"/>
	<rect x="503" y="502.7" class="st2" width="184.2" height="184.2"/>
	<rect x="281.9" y="502.7" class="st2" width="184.2" height="184.2"/>
	<rect x="60.8" y="502.7" class="st2" width="184.2" height="184.2"/>
	<rect x="945.2" y="281.6" class="st2" width="184.2" height="184.2"/>
	<rect x="724.1" y="281.6" class="st2" width="184.2" height="184.2"/>
	<rect x="503" y="281.6" class="st2" width="184.2" height="184.2"/>
	<rect x="281.9" y="281.6" class="st2" width="184.2" height="184.2"/>
	<rect x="60.8" y="281.6" class="st2" width="184.2" height="184.2"/>
	<rect x="945.2" y="60.5" class="st2" width="184.2" height="184.2"/>
	<rect x="724.1" y="60.5" class="st2" width="184.2" height="184.2"/>
	<rect x="503" y="60.5" class="st2" width="184.2" height="184.2"/>
	<rect x="281.9" y="60.5" class="st2" width="184.2" height="184.2"/>
	<rect x="60.8" y="60.5" class="st2" width="184.2" height="184.2"/>
</g>
<g id="Livello_4">
	<rect x="982" y="981.8" class="st3" width="147.4" height="147.4"/>
	<rect x="797.8" y="981.8" class="st3" width="147.4" height="147.4"/>
	<rect x="613.5" y="981.8" class="st3" width="147.4" height="147.4"/>
	<rect x="429.3" y="981.8" class="st3" width="147.4" height="147.4"/>
	<rect x="245" y="981.8" class="st3" width="147.4" height="147.4"/>
	<rect x="60.8" y="981.8" class="st3" width="147.4" height="147.4"/>
	<rect x="982" y="797.5" class="st3" width="147.4" height="147.4"/>
	<rect x="797.8" y="797.5" class="st3" width="147.4" height="147.4"/>
	<rect x="613.5" y="797.5" class="st3" width="147.4" height="147.4"/>
	<rect x="429.3" y="797.5" class="st3" width="147.4" height="147.4"/>
	<rect x="245" y="797.5" class="st3" width="147.4" height="147.4"/>
	<rect x="60.8" y="797.5" class="st3" width="147.4" height="147.4"/>
	<rect x="982" y="613.3" class="st3" width="147.4" height="147.4"/>
	<rect x="797.8" y="613.3" class="st3" width="147.4" height="147.4"/>
	<rect x="613.5" y="613.3" class="st3" width="147.4" height="147.4"/>
	<rect x="429.3" y="613.3" class="st3" width="147.4" height="147.4"/>
	<rect x="245" y="613.3" class="st3" width="147.4" height="147.4"/>
	<rect x="60.8" y="613.3" class="st3" width="147.4" height="147.4"/>
	<rect x="982" y="429" class="st3" width="147.4" height="147.4"/>
	<rect x="797.8" y="429" class="st3" width="147.4" height="147.4"/>
	<rect x="613.5" y="429" class="st3" width="147.4" height="147.4"/>
	<rect x="429.3" y="429" class="st3" width="147.4" height="147.4"/>
	<rect x="245" y="429" class="st3" width="147.4" height="147.4"/>
	<rect x="60.8" y="429" class="st3" width="147.4" height="147.4"/>
	<rect x="982" y="244.8" class="st3" width="147.4" height="147.4"/>
	<rect x="797.8" y="244.8" class="st3" width="147.4" height="147.4"/>
	<rect x="613.5" y="244.8" class="st3" width="147.4" height="147.4"/>
	<rect x="429.3" y="244.8" class="st3" width="147.4" height="147.4"/>
	<rect x="245" y="244.8" class="st3" width="147.4" height="147.4"/>
	<rect x="60.8" y="244.8" class="st3" width="147.4" height="147.4"/>
	<rect x="982" y="60.5" class="st3" width="147.4" height="147.4"/>
	<rect x="797.8" y="60.5" class="st3" width="147.4" height="147.4"/>
	<rect x="613.5" y="60.5" class="st3" width="147.4" height="147.4"/>
	<rect x="429.3" y="60.5" class="st3" width="147.4" height="147.4"/>
	<rect x="245" y="60.5" class="st3" width="147.4" height="147.4"/>
	<rect x="60.8" y="60.5" class="st3" width="147.4" height="147.4"/>
</g>
<g>
	<defs>
		<rect id="SVGID_1_" x="889.5" y="59.9" width="240.5" height="240.8"/>
	</defs>
	<clipPath id="SVGID_2_">
		<use xlink:href="#SVGID_1_"  style="overflow:visible;"/>
	</clipPath>
	<g class="st4">
		
			<image style="overflow:visible;enable-background:new    ;" width="2448" height="3264" xlink:href="890840_03.jpg"  transform="matrix(0.15 0 0 0.15 794.48 27.44)">
		</image>
	</g>
</g>
</svg>
