<svg id="Livello_1" data-name="Livello 1" xmlns="http://www.w3.org/2000/svg" xmlns:xlink="http://www.w3.org/1999/xlink" viewBox="0 0 1190.6 1190.6"><defs><style>.cls-1,.cls-3,.cls-6,.cls-7{fill:none;}.cls-2{fill:#406566;}.cls-3{stroke:#702467;}.cls-3,.cls-6,.cls-7{stroke-miterlimit:10;}.cls-4{clip-path:url(#clip-path);}.cls-10,.cls-11,.cls-12,.cls-13,.cls-14,.cls-5,.cls-9{isolation:isolate;}.cls-6{stroke:#c1c11e;}.cls-7{stroke:#0ae2d7;}.cls-8{clip-path:url(#clip-path-2);}.cls-9{font-size:16px;font-family:OpenSans-Light, Open Sans;}.cls-10,.cls-11,.cls-12,.cls-13{font-size:10px;font-family:EBGaramond-Italic, EB Garamond;font-style:italic;}.cls-11{letter-spacing:-0.02em;}.cls-12{letter-spacing:-0.03em;}.cls-13{letter-spacing:-0.03em;}.cls-14{font-size:60px;font-family:OpenSansCondensed-Bold, Open Sans Condensed;font-weight:700;}</style><clipPath id="clip-path"><rect class="cls-1" x="982.2" y="429.5" width="147.4" height="147.4"/></clipPath><clipPath id="clip-path-2"><circle class="cls-1" cx="355.7" cy="364.15" r="221.1"/></clipPath></defs><title>892896_06</title><g id="Sfondo"><rect class="cls-2" width="1190.6" height="1190.6"/></g><rect class="cls-3" x="60.9" y="60.9" width="147.4" height="147.4"/><rect class="cls-3" x="982.2" y="60.9" width="147.4" height="147.4"/><rect class="cls-3" x="245.2" y="60.9" width="147.4" height="147.4"/><rect class="cls-3" x="798" y="60.9" width="147.4" height="147.4"/><rect class="cls-3" x="613.7" y="60.9" width="147.4" height="147.4"/><rect class="cls-3" x="429.5" y="60.9" width="147.4" height="147.4"/><rect class="cls-3" x="60.9" y="982.2" width="147.4" height="147.4"/><rect class="cls-3" x="982.2" y="982.2" width="147.4" height="147.4"/><rect class="cls-3" x="245.2" y="982.2" width="147.4" height="147.4"/><rect class="cls-3" x="798" y="982.2" width="147.4" height="147.4"/><rect class="cls-3" x="613.7" y="982.2" width="147.4" height="147.4"/><rect class="cls-3" x="429.5" y="982.2" width="147.4" height="147.4"/><rect class="cls-3" x="60.9" y="245.2" width="147.4" height="147.4"/><rect class="cls-3" x="982.2" y="245.2" width="147.4" height="147.4"/><rect class="cls-3" x="245.2" y="245.2" width="147.4" height="147.4"/><rect class="cls-3" x="798" y="245.2" width="147.4" height="147.4"/><rect class="cls-3" x="613.7" y="245.2" width="147.4" height="147.4"/><rect class="cls-3" x="429.5" y="245.2" width="147.4" height="147.4"/><rect class="cls-3" x="60.9" y="798" width="147.4" height="147.4"/><rect class="cls-3" x="982.2" y="798" width="147.4" height="147.4"/><rect class="cls-3" x="245.2" y="798" width="147.4" height="147.4"/><rect class="cls-3" x="798" y="798" width="147.4" height="147.4"/><rect class="cls-3" x="613.7" y="798" width="147.4" height="147.4"/><rect class="cls-3" x="429.5" y="798" width="147.4" height="147.4"/><rect class="cls-3" x="60.9" y="429.5" width="147.4" height="147.4"/><g class="cls-4"><image class="cls-5" width="1280" height="960" transform="translate(649.6 170.1) scale(0.75)" xlink:href="892896_03.jpg"/></g><rect class="cls-3" x="245.2" y="429.5" width="147.4" height="147.4"/><rect class="cls-3" x="798" y="429.5" width="147.4" height="147.4"/><rect class="cls-3" x="613.7" y="429.5" width="147.4" height="147.4"/><rect class="cls-3" x="429.5" y="429.5" width="147.4" height="147.4"/><rect class="cls-3" x="60.9" y="613.7" width="147.4" height="147.4"/><rect class="cls-3" x="982.2" y="613.7" width="147.4" height="147.4"/><rect class="cls-3" x="245.2" y="613.7" width="147.4" height="147.4"/><rect class="cls-3" x="798" y="613.7" width="147.4" height="147.4"/><rect class="cls-3" x="613.7" y="613.7" width="147.4" height="147.4"/><rect class="cls-3" x="429.5" y="613.7" width="147.4" height="147.4"/><g id="Griglia_gialla" data-name="Griglia gialla"><rect class="cls-6" x="60.9" y="337.3" width="239.5" height="239.5"/><rect class="cls-6" x="60.9" y="60.9" width="239.5" height="239.5"/><rect class="cls-6" x="337.3" y="60.9" width="239.5" height="239.5"/><rect class="cls-6" x="613.7" y="60.9" width="239.5" height="239.5"/><rect class="cls-6" x="890.1" y="60.9" width="239.5" height="239.5"/><rect class="cls-6" x="337.3" y="337.3" width="239.5" height="239.5"/><rect class="cls-6" x="613.7" y="337.3" width="239.5" height="239.5"/><rect class="cls-6" x="890.1" y="337.3" width="239.5" height="239.5"/><rect class="cls-6" x="60.9" y="613.7" width="239.5" height="239.5"/><rect class="cls-6" x="337.3" y="613.7" width="239.5" height="239.5"/><rect class="cls-6" x="613.7" y="613.7" width="239.5" height="239.5"/><rect class="cls-6" x="890.1" y="613.7" width="239.5" height="239.5"/><rect class="cls-6" x="60.9" y="890.1" width="239.5" height="239.5"/><rect class="cls-6" x="337.3" y="890.1" width="239.5" height="239.5"/><rect class="cls-6" x="613.7" y="890.1" width="239.5" height="239.5"/><rect class="cls-6" x="890.1" y="890.1" width="239.5" height="239.5"/></g><g id="Griglia_azzurra" data-name="Griglia azzurra"><rect class="cls-7" x="724.3" y="503.1" width="184.3" height="184.3"/><rect class="cls-7" x="60.9" y="60.9" width="184.3" height="184.3"/><rect class="cls-7" x="945.4" y="60.9" width="184.3" height="184.3"/><rect class="cls-7" x="503.1" y="60.9" width="184.3" height="184.3"/><rect class="cls-7" x="724.3" y="60.9" width="184.3" height="184.3"/><rect class="cls-7" x="282" y="60.9" width="184.3" height="184.3"/><rect class="cls-7" x="60.9" y="945.4" width="184.3" height="184.3"/><rect class="cls-7" x="945.4" y="945.4" width="184.3" height="184.3"/><rect class="cls-7" x="503.1" y="945.4" width="184.3" height="184.3"/><rect class="cls-7" x="724.3" y="945.4" width="184.3" height="184.3"/><rect class="cls-7" x="282" y="945.4" width="184.3" height="184.3"/><rect class="cls-7" x="60.9" y="503.1" width="184.3" height="184.3"/><rect class="cls-7" x="945.4" y="503.1" width="184.3" height="184.3"/><rect class="cls-7" x="503.1" y="503.1" width="184.3" height="184.3"/><rect class="cls-7" x="282" y="503.1" width="184.3" height="184.3"/><rect class="cls-7" x="60.9" y="724.3" width="184.3" height="184.3"/><rect class="cls-7" x="945.4" y="724.3" width="184.3" height="184.3"/><rect class="cls-7" x="503.1" y="724.3" width="184.3" height="184.3"/><rect class="cls-7" x="724.3" y="724.3" width="184.3" height="184.3"/><rect class="cls-7" x="282" y="724.3" width="184.3" height="184.3"/><rect class="cls-7" x="60.9" y="282" width="184.3" height="184.3"/><rect class="cls-7" x="503.1" y="282" width="184.3" height="184.3"/><rect class="cls-7" x="724.3" y="282" width="184.3" height="184.3"/><rect class="cls-7" x="282" y="282" width="184.3" height="184.3"/><rect class="cls-7" x="945.4" y="282" width="184.3" height="184.3"/></g><g class="cls-8"><image class="cls-5" width="1000" height="750" transform="translate(-202 68.45)" xlink:href="892896_05.jpg"/></g><text class="cls-9" transform="translate(65.33 736.45)">Lorem ipsum dolor sit</text><text class="cls-9" transform="translate(65.33 760.45)">amet, consectetuer adipi</text><text class="cls-9" transform="translate(242.78 760.45)">-</text><text class="cls-9" transform="translate(65.33 784.45)">scing elit, sed diam no</text><text class="cls-9" transform="translate(223.56 784.45)">-</text><text class="cls-9" transform="translate(65.33 808.45)">nummy nibh euismod</text><text class="cls-9" transform="translate(65.33 832.45)">tincidunt ut laoreet</text><text class="cls-9" transform="translate(65.33 856.45)">dolore magna aliquam</text><text class="cls-9" transform="translate(65.33 880.45)">erat volutpat. Ut wisi</text><text class="cls-9" transform="translate(65.33 904.45)">enim ad minim veniam,</text><text class="cls-9" transform="translate(65.33 928.45)">quis nostrud exerci tation</text><text class="cls-9" transform="translate(65.33 952.45)">ullamcorper suscipit</text><text class="cls-9" transform="translate(65.33 976.45)">lobortis nisl ut aliquip ex</text><text class="cls-9" transform="translate(65.33 1000.45)">ea commodo consequat.</text><text class="cls-9" transform="translate(65.33 1024.45)">Duis autem vel eum</text><text class="cls-9" transform="translate(65.33 1048.45)">iriure dolor in hendrerit</text><text class="cls-9" transform="translate(65.33 1072.45)">in vulputate velit esse</text><text class="cls-9" transform="translate(65.33 1096.45)">molestie consequat, vel</text><text class="cls-9" transform="translate(65.33 1120.45)">illum dolore eu feugiat</text><text class="cls-10" transform="translate(614.69 428.05)">Spiaggia di M</text><text class="cls-11" transform="translate(669.76 428.05)">a</text><text class="cls-10" transform="translate(674.47 428.05)">l</text><text class="cls-12" transform="translate(677.33 428.05)">i</text><text class="cls-10" transform="translate(680.02 428.05)">bù, Los</text><text class="cls-11" transform="translate(708.14 428.05)">A</text><text class="cls-10" transform="translate(714.52 428.05)">ng</text><text class="cls-13" transform="translate(723.94 428.05)">e</text><text class="cls-10" transform="translate(727.1 428.05)">les, C</text><text class="cls-11" transform="translate(746.59 428.05)">a</text><text class="cls-10" transform="translate(751.3 428.05)">lifornia</text><text class="cls-14" transform="translate(687.4 111.61) scale(0.96 1)">Strumenti e metodi</text></svg>