<?xml version="1.0" encoding="utf-8"?>
<!-- Generator: Adobe Illustrator 22.1.0, SVG Export Plug-In . SVG Version: 6.00 Build 0)  -->
<svg version="1.1" id="Livello_1" xmlns="http://www.w3.org/2000/svg" xmlns:xlink="http://www.w3.org/1999/xlink" x="0px" y="0px"
	 viewBox="0 0 1190.6 1190.6" style="enable-background:new 0 0 1190.6 1190.6;" xml:space="preserve">
<style type="text/css">
	.st0{fill:#007194;}
	.st1{fill:none;stroke:#D4001D;stroke-miterlimit:10;}
	.st2{fill:none;}
	.st3{font-family:'OpenSans-LightItalic';}
	.st4{font-size:16px;}
	.st5{letter-spacing:12;}
	.st6{letter-spacing:8;}
	.st7{letter-spacing:10;}
	.st8{letter-spacing:2;}
	.st9{letter-spacing:6;}
	.st10{letter-spacing:4;}
	.st11{fill:none;stroke:#009419;stroke-miterlimit:10;}
	.st12{clip-path:url(#SVGID_2_);enable-background:new    ;}
	.st13{fill:none;stroke:#DEFF2A;stroke-miterlimit:10;}
	.st14{clip-path:url(#SVGID_4_);}
	.st15{font-family:'OpenSansCondensed-Bold';}
	.st16{font-size:60px;}
	.st17{font-family:'EBGaramond-Italic';}
	.st18{font-size:10px;}
	.st19{letter-spacing:5;}
</style>
<rect class="st0" width="1190.6" height="1190.6"/>
<rect x="60.7" y="61.1" class="st1" width="239.5" height="239.5"/>
<rect x="337" y="61.1" class="st1" width="239.5" height="239.5"/>
<rect x="613.4" y="61.1" class="st1" width="239.5" height="239.5"/>
<rect x="889.8" y="61.1" class="st1" width="239.5" height="239.5"/>
<rect x="60.7" y="337.5" class="st1" width="239.5" height="239.5"/>
<rect x="337" y="337.5" class="st1" width="239.5" height="239.5"/>
<rect x="613.4" y="337.5" class="st1" width="239.5" height="239.5"/>
<rect x="613.4" y="337.5" class="st2" width="239.5" height="239.5"/>
<text transform="matrix(1 0 0 1 613.4004 349.6602)" class="st3 st4">Lorem</text>
<text transform="matrix(1 0 0 1 656.3004 349.6602)" class="st3 st4 st5"> </text>
<text transform="matrix(1 0 0 1 672.7004 349.6602)" class="st3 st4">ipsum</text>
<text transform="matrix(1 0 0 1 714.5004 349.6602)" class="st3 st4 st5"> </text>
<text transform="matrix(1 0 0 1 730.9004 349.6602)" class="st3 st4">dolor</text>
<text transform="matrix(1 0 0 1 766.9004 349.6602)" class="st3 st4 st5"> </text>
<text transform="matrix(1 0 0 1 783.4004 349.6602)" class="st3 st4">sit</text>
<text transform="matrix(1 0 0 1 798.4004 349.6602)" class="st3 st4 st5"> </text>
<text transform="matrix(1 0 0 1 814.8004 349.6602)" class="st3 st4">amet, </text>
<text transform="matrix(1 0 0 1 613.4004 373.6602)" class="st3 st4">consectetuer</text>
<text transform="matrix(1 0 0 1 697.6004 373.6602)" class="st3 st4 st6"> </text>
<text transform="matrix(1 0 0 1 711.4004 373.6602)" class="st3 st4">adipiscing</text>
<text transform="matrix(1 0 0 1 779.7004 373.6602)" class="st3 st4 st6"> </text>
<text transform="matrix(1 0 0 1 793.5004 373.6602)" class="st3 st4">elit,</text>
<text transform="matrix(1 0 0 1 816.5004 373.6602)" class="st3 st4 st6"> </text>
<text transform="matrix(1 0 0 1 830.3004 373.6602)" class="st3 st4">sed </text>
<text transform="matrix(1 0 0 1 613.4004 397.6602)" class="st3 st4">diam</text>
<text transform="matrix(1 0 0 1 648.5004 397.6602)" class="st3 st4 st7"> </text>
<text transform="matrix(1 0 0 1 663.8004 397.6602)" class="st3 st4">nonummy</text>
<text transform="matrix(1 0 0 1 734.0004 397.6602)" class="st3 st4 st7"> </text>
<text transform="matrix(1 0 0 1 749.3004 397.6602)" class="st3 st4">nibh</text>
<text transform="matrix(1 0 0 1 779.9004 397.6602)" class="st3 st4 st7"> </text>
<text transform="matrix(1 0 0 1 795.2004 397.6602)" class="st3 st4">euismod </text>
<text transform="matrix(1 0 0 1 613.4004 421.6602)" class="st3 st4">tincidunt</text>
<text transform="matrix(1 0 0 1 673.0004 421.6602)" class="st3 st4 st8"> </text>
<text transform="matrix(1 0 0 1 680.0004 421.6602)" class="st3 st4">ut</text>
<text transform="matrix(1 0 0 1 693.7004 421.6602)" class="st3 st4 st8"> </text>
<text transform="matrix(1 0 0 1 700.7004 421.6602)" class="st3 st4">laoreet</text>
<text transform="matrix(1 0 0 1 747.3004 421.6602)" class="st3 st4 st8"> </text>
<text transform="matrix(1 0 0 1 754.2004 421.6602)" class="st3 st4">dolore</text>
<text transform="matrix(1 0 0 1 797.5004 421.6602)" class="st3 st4 st8"> </text>
<text transform="matrix(1 0 0 1 804.5004 421.6602)" class="st3 st4">magna </text>
<text transform="matrix(1 0 0 1 613.4004 445.6602)" class="st3 st4">aliquam</text>
<text transform="matrix(1 0 0 1 670.2004 445.6602)" class="st3 st4"> </text>
<text transform="matrix(1 0 0 1 674.7004 445.6602)" class="st3 st4">erat</text>
<text transform="matrix(1 0 0 1 701.4004 445.6602)" class="st3 st4"> </text>
<text transform="matrix(1 0 0 1 705.9004 445.6602)" class="st3 st4">volutpat.</text>
<text transform="matrix(1 0 0 1 765.6004 445.6602)" class="st3 st4"> </text>
<text transform="matrix(1 0 0 1 770.1004 445.6602)" class="st3 st4">Ut</text>
<text transform="matrix(1 0 0 1 785.6004 445.6602)" class="st3 st4"> </text>
<text transform="matrix(1 0 0 1 790.1004 445.6602)" class="st3 st4">wisi</text>
<text transform="matrix(1 0 0 1 814.8004 445.6602)" class="st3 st4"> </text>
<text transform="matrix(1 0 0 1 819.3004 445.6602)" class="st3 st4">enim </text>
<text transform="matrix(1 0 0 1 613.4004 469.6602)" class="st3 st4">ad</text>
<text transform="matrix(1 0 0 1 631.1004 469.6602)" class="st3 st4 st9"> </text>
<text transform="matrix(1 0 0 1 642.2004 469.6602)" class="st3 st4">minim</text>
<text transform="matrix(1 0 0 1 685.9004 469.6602)" class="st3 st4 st9"> </text>
<text transform="matrix(1 0 0 1 697.0004 469.6602)" class="st3 st4">veniam,</text>
<text transform="matrix(1 0 0 1 749.9004 469.6602)" class="st3 st4 st9"> </text>
<text transform="matrix(1 0 0 1 761.0004 469.6602)" class="st3 st4">quis</text>
<text transform="matrix(1 0 0 1 789.2004 469.6602)" class="st3 st4 st9"> </text>
<text transform="matrix(1 0 0 1 800.3004 469.6602)" class="st3 st4">nostrud </text>
<text transform="matrix(1 0 0 1 613.4004 493.6602)" class="st3 st4">exerci</text>
<text transform="matrix(1 0 0 1 651.6004 493.6602)" class="st3 st4 st10"> </text>
<text transform="matrix(1 0 0 1 661.2004 493.6602)" class="st3 st4">tation</text>
<text transform="matrix(1 0 0 1 701.1004 493.6602)" class="st3 st4 st10"> </text>
<text transform="matrix(1 0 0 1 710.7004 493.6602)" class="st3 st4">ullamcorper</text>
<text transform="matrix(1 0 0 1 793.3004 493.6602)" class="st3 st4 st10"> </text>
<text transform="matrix(1 0 0 1 802.9004 493.6602)" class="st3 st4">suscipit </text>
<text transform="matrix(1 0 0 1 613.4004 517.6602)" class="st3 st4">lobortis</text>
<text transform="matrix(1 0 0 1 664.5004 517.6602)" class="st3 st4 st7"> </text>
<text transform="matrix(1 0 0 1 679.4004 517.6602)" class="st3 st4">nisl</text>
<text transform="matrix(1 0 0 1 702.2004 517.6602)" class="st3 st4 st7"> </text>
<text transform="matrix(1 0 0 1 717.1004 517.6602)" class="st3 st4">ut</text>
<text transform="matrix(1 0 0 1 730.8004 517.6602)" class="st3 st4 st7"> </text>
<text transform="matrix(1 0 0 1 745.7004 517.6602)" class="st3 st4">aliquip</text>
<text transform="matrix(1 0 0 1 792.6004 517.6602)" class="st3 st4 st7"> </text>
<text transform="matrix(1 0 0 1 807.5004 517.6602)" class="st3 st4">ex</text>
<text transform="matrix(1 0 0 1 821.9004 517.6602)" class="st3 st4 st7"> </text>
<text transform="matrix(1 0 0 1 836.8004 517.6602)" class="st3 st4">ea </text>
<text transform="matrix(1 0 0 1 613.4004 541.6602)" class="st3 st4">commodo</text>
<text transform="matrix(1 0 0 1 682.9004 541.6602)" class="st3 st4 st8"> </text>
<text transform="matrix(1 0 0 1 690.6004 541.6602)" class="st3 st4">consequat.</text>
<text transform="matrix(1 0 0 1 764.3004 541.6602)" class="st3 st4 st8"> </text>
<text transform="matrix(1 0 0 1 772.0004 541.6602)" class="st3 st4">Duis</text>
<text transform="matrix(1 0 0 1 801.7004 541.6602)" class="st3 st4 st8"> </text>
<text transform="matrix(1 0 0 1 809.4004 541.6602)" class="st3 st4">autem </text>
<text transform="matrix(1 0 0 1 613.4004 565.6602)" class="st3 st4">vel</text>
<text transform="matrix(1 0 0 1 631.4004 565.6602)" class="st3 st4"> </text>
<text transform="matrix(1 0 0 1 636.9004 565.6602)" class="st3 st4">eum</text>
<text transform="matrix(1 0 0 1 666.8004 565.6602)" class="st3 st4"> </text>
<text transform="matrix(1 0 0 1 672.4004 565.6602)" class="st3 st4">iriure</text>
<text transform="matrix(1 0 0 1 707.8004 565.6602)" class="st3 st4"> </text>
<text transform="matrix(1 0 0 1 713.3004 565.6602)" class="st3 st4">dolor</text>
<text transform="matrix(1 0 0 1 749.3004 565.6602)" class="st3 st4"> </text>
<text transform="matrix(1 0 0 1 754.9004 565.6602)" class="st3 st4">in</text>
<text transform="matrix(1 0 0 1 767.6004 565.6602)" class="st3 st4"> </text>
<text transform="matrix(1 0 0 1 773.2004 565.6602)" class="st3 st4">hendrerit</text>
<text transform="matrix(1 0 0 1 834.7004 565.6602)" class="st3 st4"> </text>
<text transform="matrix(1 0 0 1 840.3004 565.6602)" class="st3 st4">in </text>
<rect x="889.8" y="337.5" class="st1" width="239.5" height="239.5"/>
<rect x="60.7" y="613.9" class="st1" width="239.5" height="239.5"/>
<rect x="337" y="613.9" class="st1" width="239.5" height="239.5"/>
<rect x="613.4" y="613.9" class="st1" width="239.5" height="239.5"/>
<rect x="889.8" y="613.9" class="st1" width="239.5" height="239.5"/>
<rect x="60.7" y="890.2" class="st1" width="239.5" height="239.5"/>
<rect x="337" y="890.2" class="st1" width="239.5" height="239.5"/>
<rect x="613.4" y="890.2" class="st1" width="239.5" height="239.5"/>
<rect x="889.8" y="890.2" class="st1" width="239.5" height="239.5"/>
<rect x="60.7" y="61.1" class="st11" width="184.3" height="184.3"/>
<rect x="281.8" y="61.1" class="st11" width="184.3" height="184.3"/>
<rect x="502.9" y="61.1" class="st11" width="184.3" height="184.3"/>
<rect x="724" y="61.1" class="st11" width="184.3" height="184.3"/>
<rect x="945.1" y="61.1" class="st11" width="184.3" height="184.3"/>
<rect x="60.7" y="282.2" class="st11" width="184.3" height="184.3"/>
<g>
	<g>
		<g>
			<defs>
				<rect id="SVGID_1_" x="281.8" y="282.2" width="184.3" height="184.3"/>
			</defs>
			<clipPath id="SVGID_2_">
				<use xlink:href="#SVGID_1_"  style="overflow:visible;"/>
			</clipPath>
			<g class="st12">
				
					<image style="overflow:visible;enable-background:new    ;" width="3656" height="5493" id="AI_x5F_Immagine.psd" xlink:href="892822_03.jpg"  transform="matrix(0.1025 0 0 0.1028 159.1333 167.5333)">
				</image>
			</g>
		</g>
	</g>
</g>
<rect x="502.9" y="282.2" class="st11" width="184.3" height="184.3"/>
<rect x="724" y="282.2" class="st11" width="184.3" height="184.3"/>
<rect x="945.1" y="282.2" class="st11" width="184.3" height="184.3"/>
<rect x="60.7" y="503.3" class="st11" width="184.3" height="184.3"/>
<rect x="281.8" y="503.3" class="st11" width="184.3" height="184.3"/>
<rect x="502.9" y="503.3" class="st11" width="184.3" height="184.3"/>
<rect x="724" y="503.3" class="st11" width="184.3" height="184.3"/>
<rect x="945.1" y="503.3" class="st11" width="184.3" height="184.3"/>
<rect x="60.7" y="724.4" class="st11" width="184.3" height="184.3"/>
<rect x="281.8" y="724.4" class="st11" width="184.3" height="184.3"/>
<rect x="502.9" y="724.4" class="st11" width="184.3" height="184.3"/>
<rect x="724" y="724.4" class="st11" width="184.3" height="184.3"/>
<rect x="945.1" y="724.4" class="st11" width="184.3" height="184.3"/>
<rect x="60.7" y="945.5" class="st11" width="184.3" height="184.3"/>
<rect x="281.8" y="945.5" class="st11" width="184.3" height="184.3"/>
<rect x="502.9" y="945.5" class="st11" width="184.3" height="184.3"/>
<rect x="724" y="945.5" class="st11" width="184.3" height="184.3"/>
<rect x="945.1" y="945.5" class="st11" width="184.3" height="184.3"/>
<rect x="60.7" y="61.1" class="st13" width="147.4" height="147.4"/>
<rect x="244.9" y="61.1" class="st13" width="147.4" height="147.4"/>
<rect x="429.2" y="61.1" class="st13" width="147.4" height="147.4"/>
<rect x="613.5" y="61.1" class="st13" width="147.4" height="147.4"/>
<rect x="797.7" y="61.1" class="st13" width="147.4" height="147.4"/>
<rect x="982" y="61.1" class="st13" width="147.4" height="147.4"/>
<rect x="60.7" y="245.4" class="st13" width="147.4" height="147.4"/>
<rect x="244.9" y="245.4" class="st13" width="147.4" height="147.4"/>
<rect x="429.2" y="245.4" class="st13" width="147.4" height="147.4"/>
<rect x="613.5" y="245.4" class="st13" width="147.4" height="147.4"/>
<rect x="797.7" y="245.4" class="st13" width="147.4" height="147.4"/>
<rect x="982" y="245.4" class="st13" width="147.4" height="147.4"/>
<rect x="60.7" y="429.6" class="st13" width="147.4" height="147.4"/>
<rect x="244.9" y="429.6" class="st13" width="147.4" height="147.4"/>
<rect x="429.2" y="429.6" class="st13" width="147.4" height="147.4"/>
<rect x="613.5" y="429.6" class="st13" width="147.4" height="147.4"/>
<rect x="797.7" y="429.6" class="st13" width="147.4" height="147.4"/>
<rect x="982" y="429.6" class="st13" width="147.4" height="147.4"/>
<rect x="60.7" y="613.9" class="st13" width="147.4" height="147.4"/>
<rect x="244.9" y="613.9" class="st13" width="147.4" height="147.4"/>
<rect x="429.2" y="613.9" class="st13" width="147.4" height="147.4"/>
<rect x="613.5" y="613.9" class="st13" width="147.4" height="147.4"/>
<rect x="797.7" y="613.9" class="st13" width="147.4" height="147.4"/>
<rect x="982" y="613.9" class="st13" width="147.4" height="147.4"/>
<rect x="60.7" y="798.1" class="st13" width="147.4" height="147.4"/>
<rect x="244.9" y="798.1" class="st13" width="147.4" height="147.4"/>
<rect x="429.2" y="798.1" class="st13" width="147.4" height="147.4"/>
<rect x="613.5" y="798.1" class="st13" width="147.4" height="147.4"/>
<rect x="797.7" y="798.1" class="st13" width="147.4" height="147.4"/>
<rect x="982" y="798.1" class="st13" width="147.4" height="147.4"/>
<rect x="60.7" y="982.4" class="st13" width="147.4" height="147.4"/>
<rect x="244.9" y="982.4" class="st13" width="147.4" height="147.4"/>
<rect x="429.2" y="982.4" class="st13" width="147.4" height="147.4"/>
<rect x="613.5" y="982.4" class="st13" width="147.4" height="147.4"/>
<rect x="797.7" y="982.4" class="st13" width="147.4" height="147.4"/>
<rect x="982" y="982.4" class="st13" width="147.4" height="147.4"/>
<g>
	<g>
		<g>
			<defs>
				<circle id="SVGID_3_" cx="733.2" cy="776.7" r="100"/>
			</defs>
			<clipPath id="SVGID_4_">
				<use xlink:href="#SVGID_3_"  style="overflow:visible;"/>
			</clipPath>
			<g transform="matrix(1 0 0 1 0 0)" class="st14">
				
					<image style="overflow:visible;enable-background:new    ;" width="631" height="295" xlink:href="892822_05.jpg"  transform="matrix(0.8013 0 0 0.9026 550.9996 664.9635)">
				</image>
			</g>
		</g>
	</g>
</g>
<text transform="matrix(1 0 0 1 441 98)" class="st15 st16">La vetta innevata</text>
<text transform="matrix(1 0 0 1 811 866.7)" class="st17 st18">Trekking al sole</text>
<circle class="st2" cx="1009.6" cy="444.1" r="125"/>
<text transform="matrix(1 0 0 1 996.2405 326.1498)" class="st17 st18">Lore</text>
<text transform="matrix(1 0 0 1 1014.9405 326.1498)" class="st17 st18">m </text>
<text transform="matrix(1 0 0 1 934.9405 350.1498)" class="st17 st18">ipsum</text>
<text transform="matrix(1 0 0 1 958.0405 350.1498)" class="st17 st18 st9"> </text>
<text transform="matrix(1 0 0 1 966.4405 350.1498)" class="st17 st18">dolor</text>
<text transform="matrix(1 0 0 1 985.8405 350.1498)" class="st17 st18 st9"> </text>
<text transform="matrix(1 0 0 1 994.3405 350.1498)" class="st17 st18">sit</text>
<text transform="matrix(1 0 0 1 1002.9405 350.1498)" class="st17 st18 st9"> </text>
<text transform="matrix(1 0 0 1 1011.4405 350.1498)" class="st17 st18">amet,</text>
<text transform="matrix(1 0 0 1 1032.6405 350.1498)" class="st17 st18 st9"> </text>
<text transform="matrix(1 0 0 1 1041.1405 350.1498)" class="st17 st18">consectetuer </text>
<text transform="matrix(1 0 0 1 910.5405 374.1498)" class="st17 st18">adipiscing</text>
<text transform="matrix(1 0 0 1 949.1405 374.1498)" class="st17 st18 st8"> </text>
<text transform="matrix(1 0 0 1 953.3405 374.1498)" class="st17 st18">elit,</text>
<text transform="matrix(1 0 0 1 967.5405 374.1498)" class="st17 st18 st8"> </text>
<text transform="matrix(1 0 0 1 971.7405 374.1498)" class="st17 st18">sed</text>
<text transform="matrix(1 0 0 1 983.0405 374.1498)" class="st17 st18 st8"> </text>
<text transform="matrix(1 0 0 1 987.2405 374.1498)" class="st17 st18">diam</text>
<text transform="matrix(1 0 0 1 1008.1405 374.1498)" class="st17 st18 st8"> </text>
<text transform="matrix(1 0 0 1 1012.3405 374.1498)" class="st17 st18">nonummy</text>
<text transform="matrix(1 0 0 1 1051.5405 374.1498)" class="st17 st18 st8"> </text>
<text transform="matrix(1 0 0 1 1055.7405 374.1498)" class="st17 st18">nibh</text>
<text transform="matrix(1 0 0 1 1073.3405 374.1498)" class="st17 st18 st8"> </text>
<text transform="matrix(1 0 0 1 1077.5405 374.1498)" class="st17 st18">euismod </text>
<text transform="matrix(1 0 0 1 895.9405 398.1498)" class="st17 st18">tincidunt</text>
<text transform="matrix(1 0 0 1 931.6405 398.1498)" class="st17 st18"> </text>
<text transform="matrix(1 0 0 1 933.7405 398.1498)" class="st17 st18">ut</text>
<text transform="matrix(1 0 0 1 941.7405 398.1498)" class="st17 st18"> </text>
<text transform="matrix(1 0 0 1 943.8405 398.1498)" class="st17 st18">laoreet</text>
<text transform="matrix(1 0 0 1 968.9405 398.1498)" class="st17 st18"> </text>
<text transform="matrix(1 0 0 1 971.1405 398.1498)" class="st17 st18">dolore</text>
<text transform="matrix(1 0 0 1 993.9405 398.1498)" class="st17 st18"> </text>
<text transform="matrix(1 0 0 1 996.0405 398.1498)" class="st17 st18">magna</text>
<text transform="matrix(1 0 0 1 1023.1405 398.1498)" class="st17 st18"> </text>
<text transform="matrix(1 0 0 1 1025.3405 398.1498)" class="st17 st18">aliquam</text>
<text transform="matrix(1 0 0 1 1058.6405 398.1498)" class="st17 st18"> </text>
<text transform="matrix(1 0 0 1 1060.7405 398.1498)" class="st17 st18">erat</text>
<text transform="matrix(1 0 0 1 1075.8405 398.1498)" class="st17 st18"> </text>
<text transform="matrix(1 0 0 1 1077.9404 398.1498)" class="st17 st18">volutpat.</text>
<text transform="matrix(1 0 0 1 1111.0405 398.1498)" class="st17 st18"> </text>
<text transform="matrix(1 0 0 1 1113.2405 398.1498)" class="st17 st18">Ut </text>
<text transform="matrix(1 0 0 1 887.7405 422.1498)" class="st17 st18">wisi</text>
<text transform="matrix(1 0 0 1 902.6405 422.1498)" class="st17 st18 st10"> </text>
<text transform="matrix(1 0 0 1 909.3405 422.1498)" class="st17 st18">enim</text>
<text transform="matrix(1 0 0 1 928.8405 422.1498)" class="st17 st18 st10"> </text>
<text transform="matrix(1 0 0 1 935.5405 422.1498)" class="st17 st18">ad</text>
<text transform="matrix(1 0 0 1 945.5405 422.1498)" class="st17 st18 st10"> </text>
<text transform="matrix(1 0 0 1 952.2405 422.1498)" class="st17 st18">minim</text>
<text transform="matrix(1 0 0 1 979.1405 422.1498)" class="st17 st18 st10"> </text>
<text transform="matrix(1 0 0 1 985.8405 422.1498)" class="st17 st18">veniam,</text>
<text transform="matrix(1 0 0 1 1016.5405 422.1498)" class="st17 st18 st10"> </text>
<text transform="matrix(1 0 0 1 1023.1405 422.1498)" class="st17 st18">quis</text>
<text transform="matrix(1 0 0 1 1038.7405 422.1498)" class="st17 st18 st10"> </text>
<text transform="matrix(1 0 0 1 1045.3405 422.1498)" class="st17 st18">nostrud</text>
<text transform="matrix(1 0 0 1 1074.1405 422.1498)" class="st17 st18 st10"> </text>
<text transform="matrix(1 0 0 1 1080.8405 422.1498)" class="st17 st18">exerci</text>
<text transform="matrix(1 0 0 1 1101.9404 422.1498)" class="st17 st18 st10"> </text>
<text transform="matrix(1 0 0 1 1108.5405 422.1498)" class="st17 st18">tation </text>
<text transform="matrix(1 0 0 1 884.6405 446.1498)" class="st17 st18">ullamcorper</text>
<text transform="matrix(1 0 0 1 930.5405 446.1498)" class="st17 st18 st10"> </text>
<text transform="matrix(1 0 0 1 936.5405 446.1498)" class="st17 st18">suscipit</text>
<text transform="matrix(1 0 0 1 963.5405 446.1498)" class="st17 st18 st10"> </text>
<text transform="matrix(1 0 0 1 969.5405 446.1498)" class="st17 st18">lobortis</text>
<text transform="matrix(1 0 0 1 996.9405 446.1498)" class="st17 st18 st10"> </text>
<text transform="matrix(1 0 0 1 1002.9405 446.1498)" class="st17 st18">nisl</text>
<text transform="matrix(1 0 0 1 1016.8405 446.1498)" class="st17 st18 st10"> </text>
<text transform="matrix(1 0 0 1 1022.8405 446.1498)" class="st17 st18">ut</text>
<text transform="matrix(1 0 0 1 1030.8405 446.1498)" class="st17 st18 st10"> </text>
<text transform="matrix(1 0 0 1 1036.9404 446.1498)" class="st17 st18">aliquip</text>
<text transform="matrix(1 0 0 1 1064.7405 446.1498)" class="st17 st18 st10"> </text>
<text transform="matrix(1 0 0 1 1070.8405 446.1498)" class="st17 st18">ex</text>
<text transform="matrix(1 0 0 1 1078.6405 446.1498)" class="st17 st18 st10"> </text>
<text transform="matrix(1 0 0 1 1084.6405 446.1498)" class="st17 st18">ea</text>
<text transform="matrix(1 0 0 1 1092.9404 446.1498)" class="st17 st18 st10"> </text>
<text transform="matrix(1 0 0 1 1099.0405 446.1498)" class="st17 st18">commodo </text>
<text transform="matrix(1 0 0 1 887.2405 470.1498)" class="st17 st18">consequat.</text>
<text transform="matrix(1 0 0 1 925.4405 470.1498)" class="st17 st18 st8"> </text>
<text transform="matrix(1 0 0 1 930.3405 470.1498)" class="st17 st18">Duis</text>
<text transform="matrix(1 0 0 1 948.6405 470.1498)" class="st17 st18 st8"> </text>
<text transform="matrix(1 0 0 1 953.4405 470.1498)" class="st17 st18">autem</text>
<text transform="matrix(1 0 0 1 977.6405 470.1498)" class="st17 st18 st8"> </text>
<text transform="matrix(1 0 0 1 982.5405 470.1498)" class="st17 st18">vel</text>
<text transform="matrix(1 0 0 1 992.9405 470.1498)" class="st17 st18 st8"> </text>
<text transform="matrix(1 0 0 1 997.7405 470.1498)" class="st17 st18">eum</text>
<text transform="matrix(1 0 0 1 1014.1405 470.1498)" class="st17 st18 st8"> </text>
<text transform="matrix(1 0 0 1 1019.0405 470.1498)" class="st17 st18">iriure</text>
<text transform="matrix(1 0 0 1 1040.9404 470.1498)" class="st17 st18 st8"> </text>
<text transform="matrix(1 0 0 1 1045.8405 470.1498)" class="st17 st18">dolor</text>
<text transform="matrix(1 0 0 1 1065.2405 470.1498)" class="st17 st18 st8"> </text>
<text transform="matrix(1 0 0 1 1070.1405 470.1498)" class="st17 st18">in</text>
<text transform="matrix(1 0 0 1 1078.3405 470.1498)" class="st17 st18 st8"> </text>
<text transform="matrix(1 0 0 1 1083.2405 470.1498)" class="st17 st18">hendrerit</text>
<text transform="matrix(1 0 0 1 1118.7405 470.1498)" class="st17 st18 st8"> </text>
<text transform="matrix(1 0 0 1 1123.6405 470.1498)" class="st17 st18">in </text>
<text transform="matrix(1 0 0 1 894.9405 494.1498)" class="st17 st18">vulputate</text>
<text transform="matrix(1 0 0 1 930.6405 494.1498)" class="st17 st18 st8"> </text>
<text transform="matrix(1 0 0 1 934.8405 494.1498)" class="st17 st18">velit</text>
<text transform="matrix(1 0 0 1 951.0405 494.1498)" class="st17 st18 st8"> </text>
<text transform="matrix(1 0 0 1 955.2405 494.1498)" class="st17 st18">esse</text>
<text transform="matrix(1 0 0 1 967.5405 494.1498)" class="st17 st18 st8"> </text>
<text transform="matrix(1 0 0 1 971.7405 494.1498)" class="st17 st18">molestie</text>
<text transform="matrix(1 0 0 1 1001.7405 494.1498)" class="st17 st18 st8"> </text>
<text transform="matrix(1 0 0 1 1005.9405 494.1498)" class="st17 st18">consequat,</text>
<text transform="matrix(1 0 0 1 1044.1405 494.1498)" class="st17 st18 st8"> </text>
<text transform="matrix(1 0 0 1 1048.2405 494.1498)" class="st17 st18">vel</text>
<text transform="matrix(1 0 0 1 1058.6405 494.1498)" class="st17 st18 st8"> </text>
<text transform="matrix(1 0 0 1 1062.8405 494.1498)" class="st17 st18">illum</text>
<text transform="matrix(1 0 0 1 1084.4404 494.1498)" class="st17 st18 st8"> </text>
<text transform="matrix(1 0 0 1 1088.6405 494.1498)" class="st17 st18">dolore</text>
<text transform="matrix(1 0 0 1 1111.4404 494.1498)" class="st17 st18 st8"> </text>
<text transform="matrix(1 0 0 1 1115.6405 494.1498)" class="st17 st18">eu </text>
<text transform="matrix(1 0 0 1 908.8405 518.1498)" class="st17 st18">feugiat</text>
<text transform="matrix(1 0 0 1 935.4405 518.1498)" class="st17 st18"> </text>
<text transform="matrix(1 0 0 1 937.8405 518.1498)" class="st17 st18">nulla</text>
<text transform="matrix(1 0 0 1 958.8405 518.1498)" class="st17 st18"> </text>
<text transform="matrix(1 0 0 1 961.2405 518.1498)" class="st17 st18">facilisis</text>
<text transform="matrix(1 0 0 1 989.6405 518.1498)" class="st17 st18"> </text>
<text transform="matrix(1 0 0 1 992.0405 518.1498)" class="st17 st18">at</text>
<text transform="matrix(1 0 0 1 999.8405 518.1498)" class="st17 st18"> </text>
<text transform="matrix(1 0 0 1 1002.2405 518.1498)" class="st17 st18">vero</text>
<text transform="matrix(1 0 0 1 1017.3405 518.1498)" class="st17 st18"> </text>
<text transform="matrix(1 0 0 1 1019.7405 518.1498)" class="st17 st18">eros</text>
<text transform="matrix(1 0 0 1 1033.4404 518.1498)" class="st17 st18"> </text>
<text transform="matrix(1 0 0 1 1035.8405 518.1498)" class="st17 st18">et</text>
<text transform="matrix(1 0 0 1 1042.2405 518.1498)" class="st17 st18"> </text>
<text transform="matrix(1 0 0 1 1044.5405 518.1498)" class="st17 st18">accumsan</text>
<text transform="matrix(1 0 0 1 1081.6405 518.1498)" class="st17 st18"> </text>
<text transform="matrix(1 0 0 1 1084.0405 518.1498)" class="st17 st18">et</text>
<text transform="matrix(1 0 0 1 1090.3405 518.1498)" class="st17 st18"> </text>
<text transform="matrix(1 0 0 1 1092.7405 518.1498)" class="st17 st18">iusto </text>
<text transform="matrix(1 0 0 1 932.0405 542.1498)" class="st17 st18">odio</text>
<text transform="matrix(1 0 0 1 947.7405 542.1498)" class="st17 st18 st19"> </text>
<text transform="matrix(1 0 0 1 955.3405 542.1498)" class="st17 st18">dignissim</text>
<text transform="matrix(1 0 0 1 992.1405 542.1498)" class="st17 st18 st19"> </text>
<text transform="matrix(1 0 0 1 999.7405 542.1498)" class="st17 st18">qui</text>
<text transform="matrix(1 0 0 1 1012.4405 542.1498)" class="st17 st18 st19"> </text>
<text transform="matrix(1 0 0 1 1020.0405 542.1498)" class="st17 st18">blandit</text>
<text transform="matrix(1 0 0 1 1048.6405 542.1498)" class="st17 st18 st19"> </text>
<text transform="matrix(1 0 0 1 1056.2405 542.1498)" class="st17 st18">praesent </text>
<text transform="matrix(1 0 0 1 991.5405 566.1498)" class="st17 st18">luptatum </text>
</svg>
