<?xml version="1.0" encoding="utf-8"?>
<!-- Generator: Adobe Illustrator 22.0.0, SVG Export Plug-In . SVG Version: 6.00 Build 0)  -->
<svg version="1.1" id="Livello_1" xmlns="http://www.w3.org/2000/svg" xmlns:xlink="http://www.w3.org/1999/xlink" x="0px" y="0px"
	 viewBox="0 0 1190.6 1190.6" style="enable-background:new 0 0 1190.6 1190.6;" xml:space="preserve">
<style type="text/css">
	.st0{fill:#007194;}
	.st1{fill:none;stroke:#D4001D;stroke-miterlimit:10;}
	.st2{fill:none;stroke:#009419;stroke-miterlimit:10;}
	.st3{fill:none;stroke:#DEFF2A;stroke-miterlimit:10;}
</style>
<rect x="0.7" y="0.1" class="st0" width="1190.6" height="1190.6"/>
<rect x="60.7" y="61.1" class="st1" width="239.5" height="239.5"/>
<rect x="337" y="61.1" class="st1" width="239.5" height="239.5"/>
<rect x="613.4" y="61.1" class="st1" width="239.5" height="239.5"/>
<rect x="889.8" y="61.1" class="st1" width="239.5" height="239.5"/>
<rect x="60.7" y="337.5" class="st1" width="239.5" height="239.5"/>
<rect x="337" y="337.5" class="st1" width="239.5" height="239.5"/>
<rect x="613.4" y="337.5" class="st1" width="239.5" height="239.5"/>
<rect x="889.8" y="337.5" class="st1" width="239.5" height="239.5"/>
<rect x="60.7" y="613.9" class="st1" width="239.5" height="239.5"/>
<rect x="337" y="613.9" class="st1" width="239.5" height="239.5"/>
<rect x="613.4" y="613.9" class="st1" width="239.5" height="239.5"/>
<rect x="889.8" y="613.9" class="st1" width="239.5" height="239.5"/>
<rect x="60.7" y="890.2" class="st1" width="239.5" height="239.5"/>
<rect x="337" y="890.2" class="st1" width="239.5" height="239.5"/>
<rect x="613.4" y="890.2" class="st1" width="239.5" height="239.5"/>
<rect x="889.8" y="890.2" class="st1" width="239.5" height="239.5"/>
<rect x="60.7" y="61.1" class="st2" width="184.3" height="184.3"/>
<rect x="281.8" y="61.1" class="st2" width="184.3" height="184.3"/>
<rect x="502.9" y="61.1" class="st2" width="184.3" height="184.3"/>
<rect x="724" y="61.1" class="st2" width="184.3" height="184.3"/>
<rect x="945.1" y="61.1" class="st2" width="184.3" height="184.3"/>
<rect x="60.7" y="282.2" class="st2" width="184.3" height="184.3"/>
<rect x="281.8" y="282.2" class="st2" width="184.3" height="184.3"/>
<rect x="502.9" y="282.2" class="st2" width="184.3" height="184.3"/>
<rect x="724" y="282.2" class="st2" width="184.3" height="184.3"/>
<rect x="945.1" y="282.2" class="st2" width="184.3" height="184.3"/>
<rect x="60.7" y="503.3" class="st2" width="184.3" height="184.3"/>
<rect x="281.8" y="503.3" class="st2" width="184.3" height="184.3"/>
<rect x="502.9" y="503.3" class="st2" width="184.3" height="184.3"/>
<rect x="724" y="503.3" class="st2" width="184.3" height="184.3"/>
<rect x="945.1" y="503.3" class="st2" width="184.3" height="184.3"/>
<rect x="60.7" y="724.4" class="st2" width="184.3" height="184.3"/>
<rect x="281.8" y="724.4" class="st2" width="184.3" height="184.3"/>
<rect x="502.9" y="724.4" class="st2" width="184.3" height="184.3"/>
<rect x="724" y="724.4" class="st2" width="184.3" height="184.3"/>
<rect x="945.1" y="724.4" class="st2" width="184.3" height="184.3"/>
<rect x="60.7" y="945.5" class="st2" width="184.3" height="184.3"/>
<rect x="281.8" y="945.5" class="st2" width="184.3" height="184.3"/>
<rect x="502.9" y="945.5" class="st2" width="184.3" height="184.3"/>
<rect x="724" y="945.5" class="st2" width="184.3" height="184.3"/>
<rect x="945.1" y="945.5" class="st2" width="184.3" height="184.3"/>
<rect x="60.7" y="61.1" class="st3" width="147.4" height="147.4"/>
<rect x="244.9" y="61.1" class="st3" width="147.4" height="147.4"/>
<rect x="429.2" y="61.1" class="st3" width="147.4" height="147.4"/>
<rect x="613.5" y="61.1" class="st3" width="147.4" height="147.4"/>
<rect x="797.7" y="61.1" class="st3" width="147.4" height="147.4"/>
<rect x="982" y="61.1" class="st3" width="147.4" height="147.4"/>
<rect x="60.7" y="245.4" class="st3" width="147.4" height="147.4"/>
<rect x="244.9" y="245.4" class="st3" width="147.4" height="147.4"/>
<rect x="429.2" y="245.4" class="st3" width="147.4" height="147.4"/>
<rect x="613.5" y="245.4" class="st3" width="147.4" height="147.4"/>
<rect x="797.7" y="245.4" class="st3" width="147.4" height="147.4"/>
<rect x="982" y="245.4" class="st3" width="147.4" height="147.4"/>
<rect x="60.7" y="429.6" class="st3" width="147.4" height="147.4"/>
<rect x="244.9" y="429.6" class="st3" width="147.4" height="147.4"/>
<rect x="429.2" y="429.6" class="st3" width="147.4" height="147.4"/>
<rect x="613.5" y="429.6" class="st3" width="147.4" height="147.4"/>
<rect x="797.7" y="429.6" class="st3" width="147.4" height="147.4"/>
<rect x="982" y="429.6" class="st3" width="147.4" height="147.4"/>
<rect x="60.7" y="613.9" class="st3" width="147.4" height="147.4"/>
<rect x="244.9" y="613.9" class="st3" width="147.4" height="147.4"/>
<rect x="429.2" y="613.9" class="st3" width="147.4" height="147.4"/>
<rect x="613.5" y="613.9" class="st3" width="147.4" height="147.4"/>
<rect x="797.7" y="613.9" class="st3" width="147.4" height="147.4"/>
<rect x="982" y="613.9" class="st3" width="147.4" height="147.4"/>
<rect x="60.7" y="798.1" class="st3" width="147.4" height="147.4"/>
<rect x="244.9" y="798.1" class="st3" width="147.4" height="147.4"/>
<rect x="429.2" y="798.1" class="st3" width="147.4" height="147.4"/>
<rect x="613.5" y="798.1" class="st3" width="147.4" height="147.4"/>
<rect x="797.7" y="798.1" class="st3" width="147.4" height="147.4"/>
<rect x="982" y="798.1" class="st3" width="147.4" height="147.4"/>
<rect x="60.7" y="982.4" class="st3" width="147.4" height="147.4"/>
<rect x="244.9" y="982.4" class="st3" width="147.4" height="147.4"/>
<rect x="429.2" y="982.4" class="st3" width="147.4" height="147.4"/>
<rect x="613.5" y="982.4" class="st3" width="147.4" height="147.4"/>
<rect x="797.7" y="982.4" class="st3" width="147.4" height="147.4"/>
<rect x="982" y="982.4" class="st3" width="147.4" height="147.4"/>
</svg>
