<?xml version="1.0" encoding="utf-8"?>
<!-- Generator: Adobe Illustrator 22.1.0, SVG Export Plug-In . SVG Version: 6.00 Build 0)  -->
<svg version="1.1" id="Livello_1" xmlns="http://www.w3.org/2000/svg" xmlns:xlink="http://www.w3.org/1999/xlink" x="0px" y="0px"
	 viewBox="0 0 1190.6 1190.6" style="enable-background:new 0 0 1190.6 1190.6;" xml:space="preserve">
<style type="text/css">
	.st0{fill:#007194;}
	.st1{fill:none;stroke:#D4001D;stroke-miterlimit:10;}
	.st2{fill:none;}
	.st3{font-family:'OpenSans-LightItalic';}
	.st4{font-size:16px;}
	.st5{letter-spacing:12;}
	.st6{letter-spacing:9;}
	.st7{letter-spacing:11;}
	.st8{letter-spacing:2;}
	.st9{letter-spacing:6;}
	.st10{letter-spacing:5;}
	.st11{letter-spacing:10;}
	.st12{letter-spacing:3;}
	.st13{letter-spacing:1;}
	.st14{fill:none;stroke:#009419;stroke-miterlimit:10;}
	.st15{clip-path:url(#SVGID_2_);enable-background:new    ;}
	.st16{fill:none;stroke:#DEFF2A;stroke-miterlimit:10;}
	.st17{clip-path:url(#SVGID_4_);}
	.st18{font-family:'OpenSansCondensed-Bold';}
	.st19{font-size:60px;}
	.st20{font-family:'EBGaramond-Italic';}
	.st21{font-size:10px;}
</style>
<rect y="0" class="st0" width="1190.6" height="1190.6"/>
<rect x="60.7" y="61.1" class="st1" width="239.5" height="239.5"/>
<rect x="337" y="61.1" class="st1" width="239.5" height="239.5"/>
<rect x="613.4" y="61.1" class="st1" width="239.5" height="239.5"/>
<rect x="889.8" y="61.1" class="st1" width="239.5" height="239.5"/>
<rect x="60.7" y="337.5" class="st1" width="239.5" height="239.5"/>
<rect x="337" y="337.5" class="st1" width="239.5" height="239.5"/>
<rect x="613.4" y="337.5" class="st1" width="239.5" height="239.5"/>
<rect x="613.4" y="337.5" class="st2" width="239.5" height="239.5"/>
<text transform="matrix(1 0 0 1 613.4004 349.6602)"><tspan x="0" y="0" class="st3 st4">Lorem</tspan><tspan x="42.9" y="0" class="st3 st4 st5"> </tspan><tspan x="59.3" y="0" class="st3 st4">ipsum</tspan><tspan x="101.1" y="0" class="st3 st4 st5"> </tspan><tspan x="117.5" y="0" class="st3 st4">dolor</tspan><tspan x="153.5" y="0" class="st3 st4 st5"> </tspan><tspan x="170" y="0" class="st3 st4">sit</tspan><tspan x="185" y="0" class="st3 st4 st5"> </tspan><tspan x="201.4" y="0" class="st3 st4">amet, </tspan><tspan x="0" y="24" class="st3 st4">consectetuer</tspan><tspan x="84.2" y="24" class="st3 st4 st6"> </tspan><tspan x="98" y="24" class="st3 st4">adipiscing</tspan><tspan x="166.3" y="24" class="st3 st4 st6"> </tspan><tspan x="180.1" y="24" class="st3 st4">elit,</tspan><tspan x="203.1" y="24" class="st3 st4 st6"> </tspan><tspan x="216.9" y="24" class="st3 st4">sed </tspan><tspan x="0" y="48" class="st3 st4">diam</tspan><tspan x="35.1" y="48" class="st3 st4 st7"> </tspan><tspan x="50.4" y="48" class="st3 st4">nonummy</tspan><tspan x="120.6" y="48" class="st3 st4 st7"> </tspan><tspan x="135.9" y="48" class="st3 st4">nibh</tspan><tspan x="166.5" y="48" class="st3 st4 st7"> </tspan><tspan x="181.8" y="48" class="st3 st4">euismod </tspan><tspan x="0" y="72" class="st3 st4">tincidunt</tspan><tspan x="59.6" y="72" class="st3 st4 st8"> </tspan><tspan x="66.6" y="72" class="st3 st4">ut</tspan><tspan x="80.3" y="72" class="st3 st4 st8"> </tspan><tspan x="87.3" y="72" class="st3 st4">laoreet</tspan><tspan x="133.9" y="72" class="st3 st4 st8"> </tspan><tspan x="140.8" y="72" class="st3 st4">dolore</tspan><tspan x="184.1" y="72" class="st3 st4 st8"> </tspan><tspan x="191.1" y="72" class="st3 st4">magna </tspan><tspan x="0" y="96" class="st3 st4">aliquam</tspan><tspan x="56.8" y="96" class="st3 st4"> </tspan><tspan x="61.3" y="96" class="st3 st4">erat</tspan><tspan x="88" y="96" class="st3 st4"> </tspan><tspan x="92.5" y="96" class="st3 st4">volutpat.</tspan><tspan x="152.2" y="96" class="st3 st4"> </tspan><tspan x="156.7" y="96" class="st3 st4">Ut</tspan><tspan x="172.2" y="96" class="st3 st4"> </tspan><tspan x="176.7" y="96" class="st3 st4">wisi</tspan><tspan x="201.4" y="96" class="st3 st4"> </tspan><tspan x="205.9" y="96" class="st3 st4">enim </tspan><tspan x="0" y="120" class="st3 st4">ad</tspan><tspan x="17.7" y="120" class="st3 st4 st9"> </tspan><tspan x="28.8" y="120" class="st3 st4">minim</tspan><tspan x="72.5" y="120" class="st3 st4 st9"> </tspan><tspan x="83.6" y="120" class="st3 st4">veniam,</tspan><tspan x="136.5" y="120" class="st3 st4 st9"> </tspan><tspan x="147.6" y="120" class="st3 st4">quis</tspan><tspan x="175.8" y="120" class="st3 st4 st9"> </tspan><tspan x="186.9" y="120" class="st3 st4">nostrud </tspan><tspan x="0" y="144" class="st3 st4">exerci</tspan><tspan x="38.2" y="144" class="st3 st4 st10"> </tspan><tspan x="47.8" y="144" class="st3 st4">tation</tspan><tspan x="87.7" y="144" class="st3 st4 st10"> </tspan><tspan x="97.3" y="144" class="st3 st4">ullamcorper</tspan><tspan x="179.9" y="144" class="st3 st4 st10"> </tspan><tspan x="189.5" y="144" class="st3 st4">suscipit </tspan><tspan x="0" y="168" class="st3 st4">lobortis</tspan><tspan x="51.1" y="168" class="st3 st4 st11"> </tspan><tspan x="66" y="168" class="st3 st4">nisl</tspan><tspan x="88.8" y="168" class="st3 st4 st11"> </tspan><tspan x="103.7" y="168" class="st3 st4">ut</tspan><tspan x="117.4" y="168" class="st3 st4 st11"> </tspan><tspan x="132.3" y="168" class="st3 st4">aliquip</tspan><tspan x="179.2" y="168" class="st3 st4 st11"> </tspan><tspan x="194.1" y="168" class="st3 st4">ex</tspan><tspan x="208.5" y="168" class="st3 st4 st11"> </tspan><tspan x="223.4" y="168" class="st3 st4">ea </tspan><tspan x="0" y="192" class="st3 st4">commodo</tspan><tspan x="69.5" y="192" class="st3 st4 st12"> </tspan><tspan x="77.2" y="192" class="st3 st4">consequat.</tspan><tspan x="150.9" y="192" class="st3 st4 st12"> </tspan><tspan x="158.6" y="192" class="st3 st4">Duis</tspan><tspan x="188.3" y="192" class="st3 st4 st12"> </tspan><tspan x="196" y="192" class="st3 st4">autem </tspan><tspan x="0" y="216" class="st3 st4">vel</tspan><tspan x="18" y="216" class="st3 st4 st13"> </tspan><tspan x="23.5" y="216" class="st3 st4">eum</tspan><tspan x="53.4" y="216" class="st3 st4 st13"> </tspan><tspan x="59" y="216" class="st3 st4">iriure</tspan><tspan x="94.4" y="216" class="st3 st4 st13"> </tspan><tspan x="99.9" y="216" class="st3 st4">dolor</tspan><tspan x="135.9" y="216" class="st3 st4 st13"> </tspan><tspan x="141.5" y="216" class="st3 st4">in</tspan><tspan x="154.2" y="216" class="st3 st4 st13"> </tspan><tspan x="159.8" y="216" class="st3 st4">hendrerit</tspan><tspan x="221.3" y="216" class="st3 st4 st13"> </tspan><tspan x="226.9" y="216" class="st3 st4">in </tspan></text>
<rect x="889.8" y="337.5" class="st1" width="239.5" height="239.5"/>
<rect x="60.7" y="613.9" class="st1" width="239.5" height="239.5"/>
<rect x="337" y="613.9" class="st1" width="239.5" height="239.5"/>
<rect x="613.4" y="613.9" class="st1" width="239.5" height="239.5"/>
<rect x="889.8" y="613.9" class="st1" width="239.5" height="239.5"/>
<rect x="60.7" y="890.2" class="st1" width="239.5" height="239.5"/>
<rect x="337" y="890.2" class="st1" width="239.5" height="239.5"/>
<rect x="613.4" y="890.2" class="st1" width="239.5" height="239.5"/>
<rect x="889.8" y="890.2" class="st1" width="239.5" height="239.5"/>
<rect x="60.7" y="61.1" class="st14" width="184.3" height="184.3"/>
<rect x="281.8" y="61.1" class="st14" width="184.3" height="184.3"/>
<rect x="502.9" y="61.1" class="st14" width="184.3" height="184.3"/>
<rect x="724" y="61.1" class="st14" width="184.3" height="184.3"/>
<rect x="945.1" y="61.1" class="st14" width="184.3" height="184.3"/>
<rect x="60.7" y="282.2" class="st14" width="184.3" height="184.3"/>
<g>
	<g>
		<defs>
			<rect id="SVGID_1_" x="281.8" y="282.2" width="184.3" height="184.3"/>
		</defs>
		<clipPath id="SVGID_2_">
			<use xlink:href="#SVGID_1_"  style="overflow:visible;"/>
		</clipPath>
		<g class="st15">
			
				<image style="overflow:visible;enable-background:new    ;" width="3656" height="5493" id="AI_x5F_Immagine.psd" xlink:href="892822_04.png"  transform="matrix(0.1025 0 0 0.1028 159.1333 167.5333)">
			</image>
		</g>
	</g>
</g>
<rect x="502.9" y="282.2" class="st14" width="184.3" height="184.3"/>
<rect x="724" y="282.2" class="st14" width="184.3" height="184.3"/>
<rect x="945.1" y="282.2" class="st14" width="184.3" height="184.3"/>
<rect x="60.7" y="503.3" class="st14" width="184.3" height="184.3"/>
<rect x="281.8" y="503.3" class="st14" width="184.3" height="184.3"/>
<rect x="502.9" y="503.3" class="st14" width="184.3" height="184.3"/>
<rect x="724" y="503.3" class="st14" width="184.3" height="184.3"/>
<rect x="945.1" y="503.3" class="st14" width="184.3" height="184.3"/>
<rect x="60.7" y="724.4" class="st14" width="184.3" height="184.3"/>
<rect x="281.8" y="724.4" class="st14" width="184.3" height="184.3"/>
<rect x="502.9" y="724.4" class="st14" width="184.3" height="184.3"/>
<rect x="724" y="724.4" class="st14" width="184.3" height="184.3"/>
<rect x="945.1" y="724.4" class="st14" width="184.3" height="184.3"/>
<rect x="60.7" y="945.5" class="st14" width="184.3" height="184.3"/>
<rect x="281.8" y="945.5" class="st14" width="184.3" height="184.3"/>
<rect x="502.9" y="945.5" class="st14" width="184.3" height="184.3"/>
<rect x="724" y="945.5" class="st14" width="184.3" height="184.3"/>
<rect x="945.1" y="945.5" class="st14" width="184.3" height="184.3"/>
<rect x="60.7" y="61.1" class="st16" width="147.4" height="147.4"/>
<rect x="244.9" y="61.1" class="st16" width="147.4" height="147.4"/>
<rect x="429.2" y="61.1" class="st16" width="147.4" height="147.4"/>
<rect x="613.5" y="61.1" class="st16" width="147.4" height="147.4"/>
<rect x="797.7" y="61.1" class="st16" width="147.4" height="147.4"/>
<rect x="982" y="61.1" class="st16" width="147.4" height="147.4"/>
<rect x="60.7" y="245.4" class="st16" width="147.4" height="147.4"/>
<rect x="244.9" y="245.4" class="st16" width="147.4" height="147.4"/>
<rect x="429.2" y="245.4" class="st16" width="147.4" height="147.4"/>
<rect x="613.5" y="245.4" class="st16" width="147.4" height="147.4"/>
<rect x="797.7" y="245.4" class="st16" width="147.4" height="147.4"/>
<rect x="982" y="245.4" class="st16" width="147.4" height="147.4"/>
<rect x="60.7" y="429.6" class="st16" width="147.4" height="147.4"/>
<rect x="244.9" y="429.6" class="st16" width="147.4" height="147.4"/>
<rect x="429.2" y="429.6" class="st16" width="147.4" height="147.4"/>
<rect x="613.5" y="429.6" class="st16" width="147.4" height="147.4"/>
<rect x="797.7" y="429.6" class="st16" width="147.4" height="147.4"/>
<rect x="982" y="429.6" class="st16" width="147.4" height="147.4"/>
<rect x="60.7" y="613.9" class="st16" width="147.4" height="147.4"/>
<rect x="244.9" y="613.9" class="st16" width="147.4" height="147.4"/>
<rect x="429.2" y="613.9" class="st16" width="147.4" height="147.4"/>
<rect x="613.5" y="613.9" class="st16" width="147.4" height="147.4"/>
<rect x="797.7" y="613.9" class="st16" width="147.4" height="147.4"/>
<rect x="982" y="613.9" class="st16" width="147.4" height="147.4"/>
<rect x="60.7" y="798.1" class="st16" width="147.4" height="147.4"/>
<rect x="244.9" y="798.1" class="st16" width="147.4" height="147.4"/>
<rect x="429.2" y="798.1" class="st16" width="147.4" height="147.4"/>
<rect x="613.5" y="798.1" class="st16" width="147.4" height="147.4"/>
<rect x="797.7" y="798.1" class="st16" width="147.4" height="147.4"/>
<rect x="982" y="798.1" class="st16" width="147.4" height="147.4"/>
<rect x="60.7" y="982.4" class="st16" width="147.4" height="147.4"/>
<rect x="244.9" y="982.4" class="st16" width="147.4" height="147.4"/>
<rect x="429.2" y="982.4" class="st16" width="147.4" height="147.4"/>
<rect x="613.5" y="982.4" class="st16" width="147.4" height="147.4"/>
<rect x="797.7" y="982.4" class="st16" width="147.4" height="147.4"/>
<rect x="982" y="982.4" class="st16" width="147.4" height="147.4"/>
<g>
	<g>
		<defs>
			<circle id="SVGID_3_" cx="733.2" cy="776.7" r="100"/>
		</defs>
		<clipPath id="SVGID_4_">
			<use xlink:href="#SVGID_3_"  style="overflow:visible;"/>
		</clipPath>
		<g transform="matrix(1 0 0 1 0 0)" class="st17">
			
				<image style="overflow:visible;enable-background:new    ;" width="631" height="295" xlink:href="892822_05_0.jpg"  transform="matrix(0.8013 0 0 0.9026 550.9996 664.9635)">
			</image>
		</g>
	</g>
</g>
<text transform="matrix(1 0 0 1 441 98)" class="st18 st19">La vetta innevata</text>
<text transform="matrix(1 0 0 1 811 866.7)" class="st20 st21">Trekking al sole</text>
</svg>
