<svg xmlns="http://www.w3.org/2000/svg" xmlns:xlink="http://www.w3.org/1999/xlink" viewBox="0 0 1190.55 1190.55"><defs><style>.cls-1,.cls-3,.cls-4,.cls-5{fill:none;}.cls-2{fill:#ffca00;}.cls-3{stroke:#4aad33;}.cls-3,.cls-4,.cls-5{stroke-miterlimit:10;}.cls-4{stroke:#004d9d;}.cls-5{stroke:#e53112;}.cls-6{clip-path:url(#clip-path);}.cls-7{clip-path:url(#clip-path-2);}.cls-8{font-size:60px;font-family:OpenSansCondensed-Bold, Open Sans Condensed;font-weight:700;}.cls-9{font-size:16px;font-family:OpenSans-Light, Open Sans;}.cls-10{font-size:10px;font-family:EBGaramond-Italic, EB Garamond;font-style:italic;}.cls-11{letter-spacing:-0.05em;}.cls-12{letter-spacing:-0.14em;}.cls-13{letter-spacing:-0.03em;}.cls-14{letter-spacing:-0.03em;}</style><clipPath id="clip-path" transform="translate(0 0)"><rect class="cls-1" x="245.2" y="60.94" width="147.4" height="147.4"/></clipPath><clipPath id="clip-path-2" transform="translate(0 0)"><circle class="cls-1" cx="952.82" cy="199.44" r="111.74"/></clipPath></defs><title>893139_07</title><g id="Livello_1" data-name="Livello 1"><g id="sfondo"><rect class="cls-2" width="1190.55" height="1190.55"/></g><g id="_4x4" data-name=" 4x4"><rect class="cls-3" x="60.94" y="60.94" width="239.53" height="239.53"/><rect class="cls-3" x="337.32" y="60.94" width="239.53" height="239.53"/><rect class="cls-3" x="613.7" y="60.94" width="239.53" height="239.53"/><rect class="cls-3" x="890.08" y="60.94" width="239.53" height="239.53"/><rect class="cls-3" x="60.94" y="337.32" width="239.53" height="239.53"/><rect class="cls-3" x="60.94" y="890.08" width="239.53" height="239.53"/><rect class="cls-3" x="337.32" y="337.32" width="239.53" height="239.53"/><rect class="cls-3" x="613.7" y="337.32" width="239.53" height="239.53"/><rect class="cls-3" x="890.08" y="337.32" width="239.53" height="239.53"/><rect class="cls-3" x="60.94" y="613.7" width="239.53" height="239.53"/><rect class="cls-3" x="337.32" y="890.08" width="239.53" height="239.53"/><rect class="cls-3" x="337.32" y="613.7" width="239.53" height="239.53"/><rect class="cls-3" x="613.7" y="613.7" width="239.53" height="239.53"/><rect class="cls-3" x="890.08" y="613.7" width="239.53" height="239.53"/><rect class="cls-3" x="613.7" y="890.08" width="239.53" height="239.53"/><rect class="cls-3" x="890.08" y="890.08" width="239.53" height="239.53"/></g><g id="_5x5" data-name=" 5x5"><rect class="cls-4" x="61.06" y="60.94" width="184.25" height="184.25"/><rect class="cls-4" x="281.93" y="60.94" width="184.25" height="184.25"/><rect class="cls-4" x="503.03" y="60.94" width="184.25" height="184.25"/><rect class="cls-4" x="724.14" y="60.94" width="184.25" height="184.25"/><rect class="cls-4" x="945.24" y="60.94" width="184.25" height="184.25"/><rect class="cls-4" x="61.06" y="282.05" width="184.25" height="184.25"/><rect class="cls-4" x="61.06" y="503.15" width="184.25" height="184.25"/><rect class="cls-4" x="61.06" y="724.25" width="184.25" height="184.25"/><rect class="cls-4" x="61.06" y="945.35" width="184.25" height="184.25"/><rect class="cls-4" x="281.93" y="282.05" width="184.25" height="184.25"/><rect class="cls-4" x="281.93" y="503.15" width="184.25" height="184.25"/><rect class="cls-4" x="724.14" y="282.05" width="184.25" height="184.25"/><rect class="cls-4" x="281.93" y="724.25" width="184.25" height="184.25"/><rect class="cls-4" x="281.93" y="945.35" width="184.25" height="184.25"/><rect class="cls-4" x="945.24" y="282.05" width="184.25" height="184.25"/><rect class="cls-4" x="724.14" y="503.15" width="184.25" height="184.25"/><rect class="cls-4" x="503.03" y="282.05" width="184.25" height="184.25"/><rect class="cls-4" x="503.03" y="503.15" width="184.25" height="184.25"/><rect class="cls-4" x="503.03" y="724.25" width="184.25" height="184.25"/><rect class="cls-4" x="503.03" y="945.35" width="184.25" height="184.25"/><rect class="cls-4" x="945.24" y="503.15" width="184.25" height="184.25"/><rect class="cls-4" x="724.14" y="724.25" width="184.25" height="184.25"/><rect class="cls-4" x="945.24" y="724.25" width="184.25" height="184.25"/><rect class="cls-4" x="724.14" y="945.35" width="184.25" height="184.25"/><rect class="cls-4" x="945.24" y="945.35" width="184.25" height="184.25"/></g><g id="_6x6" data-name=" 6x6"><rect class="cls-5" x="60.94" y="60.94" width="147.4" height="147.4"/><rect class="cls-5" x="245.2" y="60.94" width="147.4" height="147.4"/><rect class="cls-5" x="429.45" y="60.94" width="147.4" height="147.4"/><rect class="cls-5" x="613.7" y="60.94" width="147.4" height="147.4"/><rect class="cls-5" x="797.95" y="60.94" width="147.4" height="147.4"/><rect class="cls-5" x="982.2" y="60.94" width="147.4" height="147.4"/><rect class="cls-5" x="60.94" y="245.2" width="147.4" height="147.4"/><rect class="cls-5" x="60.94" y="429.45" width="147.4" height="147.4"/><rect class="cls-5" x="60.94" y="613.7" width="147.4" height="147.4"/><rect class="cls-5" x="60.94" y="797.95" width="147.4" height="147.4"/><rect class="cls-5" x="60.94" y="982.2" width="147.4" height="147.4"/><rect class="cls-5" x="245.2" y="245.2" width="147.4" height="147.4"/><rect class="cls-5" x="245.2" y="429.45" width="147.4" height="147.4"/><rect class="cls-5" x="245.2" y="613.7" width="147.4" height="147.4"/><rect class="cls-5" x="245.2" y="797.95" width="147.4" height="147.4"/><rect class="cls-5" x="245.2" y="982.2" width="147.4" height="147.4"/><rect class="cls-5" x="429.45" y="245.2" width="147.4" height="147.4"/><rect class="cls-5" x="429.45" y="429.45" width="147.4" height="147.4"/><rect class="cls-5" x="429.45" y="613.7" width="147.4" height="147.4"/><rect class="cls-5" x="429.45" y="797.95" width="147.4" height="147.4"/><rect class="cls-5" x="429.45" y="982.2" width="147.4" height="147.4"/><rect class="cls-5" x="613.7" y="245.2" width="147.4" height="147.4"/><rect class="cls-5" x="613.7" y="429.45" width="147.4" height="147.4"/><rect class="cls-5" x="797.95" y="245.2" width="147.4" height="147.4"/><rect class="cls-5" x="613.7" y="613.7" width="147.4" height="147.4"/><rect class="cls-5" x="613.7" y="797.95" width="147.4" height="147.4"/><rect class="cls-5" x="613.7" y="982.2" width="147.4" height="147.4"/><rect class="cls-5" x="797.95" y="429.45" width="147.4" height="147.4"/><rect class="cls-5" x="797.95" y="613.7" width="147.4" height="147.4"/><rect class="cls-5" x="797.95" y="797.95" width="147.4" height="147.4"/><rect class="cls-5" x="797.95" y="982.2" width="147.4" height="147.4"/><rect class="cls-5" x="982.2" y="245.2" width="147.4" height="147.4"/><rect class="cls-5" x="982.2" y="429.45" width="147.4" height="147.4"/><rect class="cls-5" x="982.2" y="613.7" width="147.4" height="147.4"/><rect class="cls-5" x="982.2" y="797.95" width="147.4" height="147.4"/><rect class="cls-5" x="982.2" y="982.2" width="147.4" height="147.4"/></g><g class="cls-6"><image width="6772" height="2988" transform="translate(100.28 24.09) scale(0.09)" xlink:href="893139_03.jpg"/></g><g class="cls-7"><image width="3264" height="2448" transform="translate(797.95 87.7) scale(0.09)" xlink:href="893139_05.jpg"/></g></g><g id="Livello_2" data-name="Livello 2"><text class="cls-8" transform="translate(510.51 106.54)">esercizi</text><text class="cls-9" transform="translate(61.48 736.41)">Lorem ipsum dolor sit amet, consectetuer adipiscing elit, <tspan x="8.96" y="24">sed diam nonummy nibh euismod tincidunt ut laoreet </tspan><tspan x="15.2" y="48">dolore magna aliquam erat volutpat. Ut wisi enim ad </tspan><tspan x="10.7" y="72">minim veniam, quis nostrud exerci tation ullamcorper </tspan><tspan x="10.52" y="96">suscipit lobortis nisl ut aliquip ex ea commodo conse</tspan><tspan x="389.27" y="96">-</tspan><tspan x="15.67" y="120">quat. Duis autem vel eum iriure dolor in hendrerit in </tspan><tspan x="3.14" y="144">vulputate velit esse molestie consequat, vel illum dolore </tspan><tspan x="18.68" y="168">eu feugiat nulla facilisis at vero eros et accumsan et </tspan><tspan x="5.89" y="192">iusto odio dignissim qui blandit praesent luptatum zzril </tspan><tspan x="30.57" y="216">delenit augue duis dolore te feugait nulla facilisi.</tspan><tspan x="12.41" y="240">Lorem ipsum dolor sit amet, cons ectetuer adipiscing </tspan><tspan x="6.48" y="264">elit, sed diam nonummy nibh euismod tincidunt ut lao</tspan><tspan x="393.31" y="264">-</tspan><tspan x="9.63" y="288">reet dolore magna aliquam erat volutpat. Ut wisi enim </tspan><tspan x="-0.38" y="312">ad minim veniam, quis nostrud exerci tation ullamcorper </tspan><tspan x="10.52" y="336">suscipit lobortis nisl ut aliquip ex ea commodo conse</tspan><tspan x="389.27" y="336">-</tspan><tspan x="184.17" y="360">quat.</tspan></text><text></text><text class="cls-10" transform="translate(840.18 334.52)">J<tspan class="cls-11" x="2.93" y="0">O</tspan><tspan class="cls-12" x="9.42" y="0">V</tspan><tspan x="14.8" y="0">AN</tspan><tspan class="cls-13" x="29.09" y="0">O</tspan><tspan x="35.73" y="0">TTI, AL FORUM DI ASS</tspan><tspan class="cls-14" x="137.22" y="0">A</tspan><tspan x="143.55" y="0">GO - FEBBRAIO </tspan></text><text class="cls-9" transform="translate(185 363.63)">Lorem ipsum dolor sit <tspan x="-28.02" y="24">amet, consectetuer adipiscing </tspan><tspan x="-40.74" y="48">elit, sed diam nonummy nibh eui</tspan><tspan x="193.48" y="48">-</tspan><tspan x="-37.46" y="72">smod tincidunt ut laoreet dolore </tspan><tspan x="-51.66" y="96">magna aliquam erat volutpat. Ut wisi </tspan><tspan x="-51.92" y="120">enim ad minim veniam, quis nostrud </tspan><tspan x="-63.84" y="144">exerci tation ullamcorper suscipit lobor</tspan><tspan x="216.58" y="144">-</tspan><tspan x="-56.72" y="168">tis nisl ut aliquip ex ea commodo con</tspan><tspan x="209.46" y="168">-</tspan><tspan x="-41.85" y="192">sequat. Duis autem vel eum iriure </tspan><tspan x="-24.35" y="216">dolor in hendrerit in vulputa</tspan><tspan x="177.09" y="216">-</tspan><tspan x="14.52" y="240">te velit esse mole</tspan><tspan x="138.22" y="240">-</tspan></text></g></svg>