<?xml version="1.0" encoding="utf-8"?>
<!-- Generator: Adobe Illustrator 22.1.0, SVG Export Plug-In . SVG Version: 6.00 Build 0)  -->
<svg version="1.1" id="Livello_1" xmlns="http://www.w3.org/2000/svg" xmlns:xlink="http://www.w3.org/1999/xlink" x="0px" y="0px"
	 viewBox="0 0 1190.6 1190.6" style="enable-background:new 0 0 1190.6 1190.6;" xml:space="preserve">
<style type="text/css">
	.st0{fill:#00FFFF;}
	.st1{fill:none;stroke:#192AA5;stroke-miterlimit:10;}
	.st2{fill:none;stroke:#40C91F;stroke-miterlimit:10;}
	.st3{fill:none;stroke:#D1941C;stroke-miterlimit:10;}
	.st4{clip-path:url(#SVGID_2_);}
	.st5{fill:none;}
	.st6{clip-path:url(#SVGID_4_);}
	.st7{font-family:'OpenSansCondensed-Bold';}
	.st8{font-size:60px;}
	.st9{font-family:'EBGaramond-Italic';}
	.st10{font-size:10px;}
	.st11{font-family:'OpenSansCondensed-Light';}
	.st12{font-size:16px;}
	.st13{font-family:'OpenSans-Light';}
</style>
<title>893389_05</title>
<g id="Livello_1_1_">
	<g id="Livello_1-2">
		<g id="Livello_1-2-2">
			<rect y="0" class="st0" width="1190.6" height="1190.6"/>
		</g>
	</g>
	<g id="Livello_3">
		<g id="Livello_4">
			<rect x="429.5" y="429.5" class="st1" width="147.4" height="147.4"/>
			<rect x="613.7" y="429.5" class="st1" width="147.4" height="147.4"/>
			<rect x="429.5" y="613.7" class="st1" width="147.4" height="147.4"/>
			<rect x="613.7" y="613.7" class="st1" width="147.4" height="147.4"/>
			<rect x="429.5" y="798" class="st1" width="147.4" height="147.4"/>
			<rect x="613.7" y="798" class="st1" width="147.4" height="147.4"/>
			<rect x="429.5" y="982.2" class="st1" width="147.4" height="147.4"/>
			<rect x="613.7" y="982.2" class="st1" width="147.4" height="147.4"/>
			<rect x="429.5" y="60.9" class="st1" width="147.4" height="147.4"/>
			<rect x="613.7" y="60.9" class="st1" width="147.4" height="147.4"/>
			<rect x="429.5" y="245.2" class="st1" width="147.4" height="147.4"/>
			<rect x="613.7" y="245.2" class="st1" width="147.4" height="147.4"/>
			<rect x="60.9" y="429.5" class="st1" width="147.4" height="147.4"/>
			<rect x="245.2" y="429.5" class="st1" width="147.4" height="147.4"/>
			<rect x="60.9" y="613.7" class="st1" width="147.4" height="147.4"/>
			<rect x="245.2" y="613.7" class="st1" width="147.4" height="147.4"/>
			<rect x="60.9" y="798" class="st1" width="147.4" height="147.4"/>
			<rect x="245.2" y="798" class="st1" width="147.4" height="147.4"/>
			<rect x="60.9" y="982.2" class="st1" width="147.4" height="147.4"/>
			<rect x="245.2" y="982.2" class="st1" width="147.4" height="147.4"/>
			<rect x="60.9" y="60.9" class="st1" width="147.4" height="147.4"/>
			<rect x="245.2" y="60.9" class="st1" width="147.4" height="147.4"/>
			<rect x="60.9" y="245.2" class="st1" width="147.4" height="147.4"/>
			<rect x="245.2" y="245.2" class="st1" width="147.4" height="147.4"/>
			<rect x="798" y="429.5" class="st1" width="147.4" height="147.4"/>
			<rect x="982.2" y="429.5" class="st1" width="147.4" height="147.4"/>
			<rect x="798" y="613.7" class="st1" width="147.4" height="147.4"/>
			<rect x="982.2" y="613.7" class="st1" width="147.4" height="147.4"/>
			<rect x="798" y="798" class="st1" width="147.4" height="147.4"/>
			<rect x="982.2" y="798" class="st1" width="147.4" height="147.4"/>
			<rect x="798" y="982.2" class="st1" width="147.4" height="147.4"/>
			<rect x="982.2" y="982.2" class="st1" width="147.4" height="147.4"/>
			<rect x="798" y="60.9" class="st1" width="147.4" height="147.4"/>
			<rect x="982.2" y="60.9" class="st1" width="147.4" height="147.4"/>
			<rect x="798" y="245.2" class="st1" width="147.4" height="147.4"/>
			<rect x="982.2" y="245.2" class="st1" width="147.4" height="147.4"/>
		</g>
	</g>
	<g id="Livello_4-2">
		<g id="Livello_3-2">
			<rect x="503.1" y="503.2" class="st2" width="184.3" height="184.3"/>
			<rect x="724.2" y="503.2" class="st2" width="184.2" height="184.3"/>
			<rect x="60.9" y="503.2" class="st2" width="184.2" height="184.3"/>
			<rect x="282" y="503.2" class="st2" width="184.2" height="184.3"/>
			<rect x="945.3" y="503.2" class="st2" width="184.2" height="184.3"/>
			<rect x="503.1" y="282.1" class="st2" width="184.3" height="184.2"/>
			<rect x="724.2" y="282.1" class="st2" width="184.2" height="184.2"/>
			<rect x="60.9" y="282.1" class="st2" width="184.2" height="184.2"/>
			<rect x="282" y="282.1" class="st2" width="184.2" height="184.2"/>
			<rect x="945.3" y="282.1" class="st2" width="184.2" height="184.2"/>
			<rect x="503.1" y="945.4" class="st2" width="184.3" height="184.2"/>
			<rect x="724.2" y="945.4" class="st2" width="184.2" height="184.2"/>
			<rect x="60.9" y="945.4" class="st2" width="184.2" height="184.2"/>
			<rect x="282" y="945.4" class="st2" width="184.2" height="184.2"/>
			<rect x="945.3" y="945.4" class="st2" width="184.2" height="184.2"/>
			<rect x="503.1" y="724.3" class="st2" width="184.3" height="184.2"/>
			<rect x="724.2" y="724.3" class="st2" width="184.2" height="184.2"/>
			<rect x="60.9" y="724.3" class="st2" width="184.2" height="184.2"/>
			<rect x="282" y="724.3" class="st2" width="184.2" height="184.2"/>
			<rect x="945.3" y="724.3" class="st2" width="184.2" height="184.2"/>
			<rect x="503.1" y="60.9" class="st2" width="184.3" height="184.2"/>
			<rect x="724.2" y="60.9" class="st2" width="184.2" height="184.2"/>
			<rect x="60.9" y="60.9" class="st2" width="184.2" height="184.2"/>
			<rect x="282" y="60.9" class="st2" width="184.2" height="184.2"/>
			<rect x="945.3" y="60.9" class="st2" width="184.2" height="184.2"/>
		</g>
	</g>
	<g id="Livello_5">
		<rect x="337.3" y="337.3" class="st3" width="239.5" height="239.5"/>
		<g>
			<g>
				<g>
					<defs>
						<rect id="SVGID_1_" x="613.7" y="337.3" width="239.5" height="239.5"/>
					</defs>
					<clipPath id="SVGID_2_">
						<use xlink:href="#SVGID_1_"  style="overflow:visible;"/>
					</clipPath>
					<g class="st4">
						
							<image style="overflow:visible;enable-background:new    ;" width="2593" height="3874" xlink:href="893389_03.jpg"  transform="matrix(0.3 0 0 0.3 212.73 14.2)">
						</image>
					</g>
				</g>
			</g>
		</g>
		<rect x="337.3" y="60.9" class="st3" width="239.5" height="239.5"/>
		<rect x="613.7" y="60.9" class="st3" width="239.5" height="239.5"/>
		<rect x="337.3" y="613.7" class="st3" width="239.5" height="239.5"/>
		<rect x="613.7" y="613.7" class="st3" width="239.5" height="239.5"/>
		<rect x="337.3" y="890.1" class="st3" width="239.5" height="239.5"/>
		<rect x="60.9" y="337.3" class="st3" width="239.5" height="239.5"/>
		<rect x="60.9" y="60.9" class="st3" width="239.5" height="239.5"/>
		<rect x="60.9" y="613.7" class="st3" width="239.5" height="239.5"/>
		<rect x="60.9" y="890.1" class="st3" width="239.5" height="239.5"/>
		<rect x="613.7" y="890.1" class="st3" width="239.5" height="239.5"/>
		<rect x="890.1" y="337.3" class="st3" width="239.5" height="239.5"/>
		<rect x="890.1" y="60.9" class="st3" width="239.5" height="239.5"/>
		<rect x="890.1" y="613.7" class="st3" width="239.5" height="239.5"/>
		<rect x="890.1" y="890.1" class="st3" width="239.5" height="239.5"/>
	</g>
	<g id="Livello_7">
		<circle class="st5" cx="291.5" cy="784.9" r="165.5"/>
	</g>
</g>
<g id="Livello_3-2-2">
	<g>
		<g>
			<g>
				<defs>
					<circle id="SVGID_3_" cx="728.3" cy="798.4" r="143.4"/>
				</defs>
				<clipPath id="SVGID_4_">
					<use xlink:href="#SVGID_3_"  style="overflow:visible;"/>
				</clipPath>
				<g class="st6">
					
						<image style="overflow:visible;enable-background:new    ;" width="2705" height="3237" xlink:href="../../../../Downloads/0001.jpg"  transform="matrix(-3.449830e-17 0.1878 -0.1878 -3.449830e-17 1089.0825 649.8253)">
					</image>
				</g>
			</g>
		</g>
	</g>
</g>
<rect x="60.9" y="283.4" class="st5" width="331.7" height="182.9"/>
<rect x="60.9" y="199.3" class="st5" width="789.4" height="45.8"/>
<text transform="matrix(1 0 0 1 60.9 244.934)" class="st7 st8">Meet the time as it seeks us</text>
<rect x="613.5" y="589.3" class="st5" width="242" height="20.6"/>
<text transform="matrix(1 0 0 1 613.5264 596.3792)" class="st9 st10">Meet the time as it seeks us</text>
<circle class="st5" cx="997.4" cy="999.8" r="128.9"/>
<text transform="matrix(1 0 0 1 997.4096 883.0427)" class="st11 st12">     </text>
<text transform="matrix(1 0 0 1 928.7096 907.0427)" class="st13 st12">Lorem ipsum dolor </text>
<text transform="matrix(1 0 0 1 902.4096 931.0427)" class="st13 st12">sit amet, consectetuer adi</text>
<text transform="matrix(1 0 0 1 1087.3096 931.0427)" class="st13 st12">-</text>
<text transform="matrix(1 0 0 1 884.5096 955.0427)" class="st13 st12">piscing elit, sed diam nonummy </text>
<text transform="matrix(1 0 0 1 877.5096 979.0427)" class="st13 st12">nibh euismod tincidunt ut laoreet </text>
<text transform="matrix(1 0 0 1 887.2096 1003.0427)" class="st13 st12">dolore magna aliquam erat vo</text>
<text transform="matrix(1 0 0 1 1102.4097 1003.0427)" class="st13 st12">-</text>
<text transform="matrix(1 0 0 1 893.2096 1027.0427)" class="st13 st12">lutpat. Ut wisi enim ad minim </text>
<text transform="matrix(1 0 0 1 898.6096 1051.0427)" class="st13 st12">veniam, quis nostrud exerci </text>
<text transform="matrix(1 0 0 1 901.9096 1075.0427)" class="st13 st12">tation ullamcorper suscipit </text>
<text transform="matrix(1 0 0 1 920.5096 1099.0427)" class="st13 st12">lobortis nisl ut aliquip </text>
<text transform="matrix(1 0 0 1 978.3096 1123.0427)" class="st13 st12">ex ea </text>
<rect x="60.9" y="282.1" class="st5" width="331.7" height="184.2"/>
<text transform="matrix(1 0 0 1 60.8998 294.2596)"><tspan x="0" y="0" class="st13 st12">Lorem ipsum dolor sit amet, consectetuer </tspan><tspan x="0" y="24" class="st13 st12">adipiscing elit, sed diam nonummy nibh eui</tspan><tspan x="309.6" y="24" class="st13 st12">-</tspan><tspan x="0" y="48" class="st13 st12">smod tincidunt ut laoreet dolore magna ali</tspan><tspan x="305.7" y="48" class="st13 st12">-</tspan><tspan x="0" y="72" class="st13 st12">quam erat volutpat. Ut wisi enim ad minim </tspan><tspan x="0" y="96" class="st13 st12">veniam, quis nostrud exerci tation ullamcor</tspan><tspan x="309.9" y="96" class="st13 st12">-</tspan><tspan x="0" y="120" class="st13 st12">per suscipit lobortis nisl ut aliquip ex ea com</tspan><tspan x="318.2" y="120" class="st13 st12">-</tspan><tspan x="0" y="144" class="st13 st12">modo consequat. Duis autem vel eum iriure </tspan><tspan x="0" y="168" class="st13 st12">dolor in hendrerit in vulputate velit esse mole</tspan><tspan x="325.1" y="168" class="st13 st12">-</tspan></text>
</svg>
