<svg id="Livello_1" data-name="Livello 1" xmlns="http://www.w3.org/2000/svg" xmlns:xlink="http://www.w3.org/1999/xlink" viewBox="0 0 1190.55 1209.35"><defs><style>.cls-1,.cls-3,.cls-4,.cls-5{fill:none;}.cls-2{fill:#f39200;}.cls-3{stroke:#e71d73;}.cls-3,.cls-4,.cls-5{stroke-miterlimit:10;stroke-width:2px;}.cls-4{stroke:#36a9e1;}.cls-5{stroke:#2d2e83;}.cls-6{clip-path:url(#clip-path);}.cls-7{clip-path:url(#clip-path-2);}</style><clipPath id="clip-path" transform="translate(0 18.8)"><rect class="cls-1" x="890.08" y="60.94" width="239.53" height="239.53"/></clipPath><clipPath id="clip-path-2" transform="translate(0 18.8)"><circle class="cls-1" cx="595.28" cy="261.93" r="200.99"/></clipPath></defs><title>893407_05</title><rect class="cls-2" y="18.8" width="1190.55" height="1190.55"/><rect class="cls-3" x="60.94" y="79.75" width="239.53" height="239.53"/><rect class="cls-3" x="337.32" y="79.75" width="239.53" height="239.53"/><rect class="cls-3" x="613.7" y="79.75" width="239.53" height="239.53"/><rect class="cls-3" x="890.08" y="79.75" width="239.53" height="239.53"/><rect class="cls-3" x="60.94" y="356.12" width="239.53" height="239.53"/><rect class="cls-3" x="337.32" y="356.12" width="239.53" height="239.53"/><rect class="cls-3" x="613.7" y="356.12" width="239.53" height="239.53"/><rect class="cls-3" x="890.08" y="356.12" width="239.53" height="239.53"/><rect class="cls-3" x="60.94" y="632.5" width="239.53" height="239.53"/><rect class="cls-3" x="337.32" y="632.5" width="239.53" height="239.53"/><rect class="cls-3" x="613.7" y="632.5" width="239.53" height="239.53"/><rect class="cls-3" x="890.08" y="632.5" width="239.53" height="239.53"/><rect class="cls-3" x="60.94" y="908.88" width="239.53" height="239.53"/><rect class="cls-3" x="337.32" y="908.88" width="239.53" height="239.53"/><rect class="cls-3" x="613.7" y="908.88" width="239.53" height="239.53"/><rect class="cls-3" x="890.08" y="908.88" width="239.53" height="239.53"/><rect class="cls-4" x="60.94" y="79.75" width="184.25" height="184.25"/><rect class="cls-4" x="282.05" y="79.75" width="184.25" height="184.25"/><rect class="cls-4" x="503.15" y="79.75" width="184.25" height="184.25"/><rect class="cls-4" x="724.25" y="79.75" width="184.25" height="184.25"/><rect class="cls-4" x="945.35" y="79.75" width="184.25" height="184.25"/><rect class="cls-4" x="60.94" y="300.85" width="184.25" height="184.25"/><rect class="cls-4" x="282.05" y="300.85" width="184.25" height="184.25"/><rect class="cls-4" x="503.15" y="300.85" width="184.25" height="184.25"/><rect class="cls-4" x="724.25" y="300.85" width="184.25" height="184.25"/><rect class="cls-4" x="945.35" y="300.85" width="184.25" height="184.25"/><rect class="cls-4" x="60.94" y="521.95" width="184.25" height="184.25"/><rect class="cls-4" x="282.05" y="521.95" width="184.25" height="184.25"/><rect class="cls-4" x="503.15" y="521.95" width="184.25" height="184.25"/><rect class="cls-4" x="724.25" y="521.95" width="184.25" height="184.25"/><rect class="cls-4" x="945.35" y="521.95" width="184.25" height="184.25"/><rect class="cls-4" x="60.94" y="743.05" width="184.25" height="184.25"/><rect class="cls-4" x="282.05" y="743.05" width="184.25" height="184.25"/><rect class="cls-4" x="503.15" y="743.05" width="184.25" height="184.25"/><rect class="cls-4" x="724.25" y="743.05" width="184.25" height="184.25"/><rect class="cls-4" x="945.35" y="743.05" width="184.25" height="184.25"/><rect class="cls-4" x="60.94" y="964.16" width="184.25" height="184.25"/><rect class="cls-4" x="282.05" y="964.16" width="184.25" height="184.25"/><rect class="cls-4" x="503.15" y="964.16" width="184.25" height="184.25"/><rect class="cls-4" x="724.25" y="964.16" width="184.25" height="184.25"/><rect class="cls-4" x="945.35" y="964.16" width="184.25" height="184.25"/><rect class="cls-5" x="60.94" y="79.75" width="147.4" height="147.4"/><rect class="cls-5" x="245.2" y="79.75" width="147.4" height="147.4"/><rect class="cls-5" x="429.45" y="79.75" width="147.4" height="147.4"/><rect class="cls-5" x="613.7" y="79.75" width="147.4" height="147.4"/><rect class="cls-5" x="797.95" y="79.75" width="147.4" height="147.4"/><rect class="cls-5" x="982.2" y="79.75" width="147.4" height="147.4"/><rect class="cls-5" x="60.94" y="264" width="147.4" height="147.4"/><rect class="cls-5" x="245.2" y="264" width="147.4" height="147.4"/><rect class="cls-5" x="429.45" y="264" width="147.4" height="147.4"/><rect class="cls-5" x="613.7" y="264" width="147.4" height="147.4"/><rect class="cls-5" x="797.95" y="264" width="147.4" height="147.4"/><rect class="cls-5" x="982.2" y="264" width="147.4" height="147.4"/><rect class="cls-5" x="60.94" y="448.25" width="147.4" height="147.4"/><rect class="cls-5" x="245.2" y="448.25" width="147.4" height="147.4"/><rect class="cls-5" x="429.45" y="448.25" width="147.4" height="147.4"/><rect class="cls-5" x="613.7" y="448.25" width="147.4" height="147.4"/><rect class="cls-5" x="797.95" y="448.25" width="147.4" height="147.4"/><rect class="cls-5" x="982.2" y="448.25" width="147.4" height="147.4"/><rect class="cls-5" x="60.94" y="632.5" width="147.4" height="147.4"/><rect class="cls-5" x="245.2" y="632.5" width="147.4" height="147.4"/><rect class="cls-5" x="429.45" y="632.5" width="147.4" height="147.4"/><rect class="cls-5" x="613.7" y="632.5" width="147.4" height="147.4"/><rect class="cls-5" x="797.95" y="632.5" width="147.4" height="147.4"/><rect class="cls-5" x="982.2" y="632.5" width="147.4" height="147.4"/><rect class="cls-5" x="60.94" y="816.75" width="147.4" height="147.4"/><rect class="cls-5" x="245.2" y="816.75" width="147.4" height="147.4"/><rect class="cls-5" x="429.45" y="816.75" width="147.4" height="147.4"/><rect class="cls-5" x="613.7" y="816.75" width="147.4" height="147.4"/><rect class="cls-5" x="797.95" y="816.75" width="147.4" height="147.4"/><rect class="cls-5" x="982.2" y="816.75" width="147.4" height="147.4"/><rect class="cls-5" x="60.94" y="1001.01" width="147.4" height="147.4"/><rect class="cls-5" x="245.2" y="1001.01" width="147.4" height="147.4"/><rect class="cls-5" x="429.45" y="1001.01" width="147.4" height="147.4"/><rect class="cls-5" x="613.7" y="1001.01" width="147.4" height="147.4"/><rect class="cls-5" x="797.95" y="1001.01" width="147.4" height="147.4"/><rect class="cls-5" x="982.2" y="1001.01" width="147.4" height="147.4"/><g class="cls-6"><image width="540" height="960" transform="translate(756.5 79.75) scale(0.69)" xlink:href="893407_03.jpg"/></g><g class="cls-7"><image width="500" height="801" transform="translate(337.32)" xlink:href="893407_05.jpg"/></g></svg>