<svg id="Livello_1" data-name="Livello 1" xmlns="http://www.w3.org/2000/svg" xmlns:xlink="http://www.w3.org/1999/xlink" viewBox="0 0 1190.55 1244.52"><defs><style>.cls-1,.cls-3,.cls-4,.cls-5{fill:none;}.cls-2{fill:#f39200;}.cls-3{stroke:#e71d73;}.cls-3,.cls-4,.cls-5{stroke-miterlimit:10;stroke-width:2px;}.cls-4{stroke:#36a9e1;}.cls-5{stroke:#2d2e83;}.cls-6{clip-path:url(#clip-path);}.cls-7{clip-path:url(#clip-path-2);}.cls-8{font-size:60px;font-family:OpenSansCondensed-Bold, Open Sans Condensed;font-weight:700;}.cls-29,.cls-8,.cls-9{fill:#1d1d1b;}.cls-9{font-size:16px;font-family:OpenSans-Light, Open Sans;}.cls-10{letter-spacing:0.02em;}.cls-11{letter-spacing:0.02em;}.cls-12{letter-spacing:-0.04em;}.cls-13{letter-spacing:-0.04em;}.cls-14{letter-spacing:0.51em;}.cls-15{letter-spacing:0.51em;}.cls-16{letter-spacing:0.04em;}.cls-17{letter-spacing:0.04em;}.cls-18{letter-spacing:0.09em;}.cls-19{letter-spacing:0.09em;}.cls-20{letter-spacing:0.28em;}.cls-21{letter-spacing:0.28em;}.cls-22{letter-spacing:0.03em;}.cls-23{letter-spacing:0.03em;}.cls-24{letter-spacing:0.03em;}.cls-25{letter-spacing:0.06em;}.cls-26{letter-spacing:0.06em;}.cls-27{letter-spacing:0.21em;}.cls-28{letter-spacing:0.21em;}.cls-29{font-size:10px;font-family:EBGaramond-Italic, EB Garamond;font-style:italic;}.cls-30{letter-spacing:-0.01em;}.cls-31{letter-spacing:-0.01em;}.cls-32{letter-spacing:-0.01em;}.cls-33{letter-spacing:-0.02em;}.cls-34{letter-spacing:-0.02em;}.cls-35{letter-spacing:-0.03em;}.cls-36{letter-spacing:0.34em;}.cls-37{letter-spacing:-0.02em;}.cls-38{letter-spacing:0.34em;}.cls-39{letter-spacing:-0.04em;}.cls-40{letter-spacing:0.54em;}.cls-41{letter-spacing:0.1em;}.cls-42{letter-spacing:0.1em;}.cls-43{letter-spacing:0.07em;}.cls-44{letter-spacing:0.07em;}.cls-45{letter-spacing:0.15em;}.cls-46{letter-spacing:0.15em;}.cls-47{letter-spacing:-0.05em;}.cls-48{letter-spacing:-0.05em;}.cls-49{letter-spacing:0.18em;}.cls-50{letter-spacing:0.18em;}.cls-51{letter-spacing:0.23em;}.cls-52{letter-spacing:0.23em;}.cls-53{letter-spacing:0.23em;}.cls-54{letter-spacing:-0.02em;}.cls-55{letter-spacing:-0.02em;}.cls-56{letter-spacing:0.02em;}.cls-57{letter-spacing:0.02em;}.cls-58{letter-spacing:0.02em;}.cls-59{letter-spacing:0.01em;}.cls-60{letter-spacing:0.01em;}.cls-61{letter-spacing:0.01em;}.cls-62{letter-spacing:0.01em;}.cls-63{letter-spacing:0.4em;}.cls-64{letter-spacing:0.4em;}.cls-65{letter-spacing:0.41em;}.cls-66{letter-spacing:0.41em;}</style><clipPath id="clip-path" transform="translate(0 53.96)"><rect class="cls-1" x="282.05" y="633.45" width="239.53" height="239.53"/></clipPath><clipPath id="clip-path-2" transform="translate(0 53.96)"><circle class="cls-1" cx="300.47" cy="420.9" r="212.55"/></clipPath></defs><title>893407_07</title><rect class="cls-2" y="53.96" width="1190.55" height="1190.55"/><rect class="cls-3" x="60.94" y="114.91" width="239.53" height="239.53"/><rect class="cls-3" x="337.32" y="114.91" width="239.53" height="239.53"/><rect class="cls-3" x="613.7" y="114.91" width="239.53" height="239.53"/><rect class="cls-3" x="890.08" y="114.91" width="239.53" height="239.53"/><rect class="cls-3" x="60.94" y="391.29" width="239.53" height="239.53"/><rect class="cls-3" x="337.32" y="391.29" width="239.53" height="239.53"/><rect class="cls-3" x="613.7" y="391.29" width="239.53" height="239.53"/><rect class="cls-3" x="890.08" y="391.29" width="239.53" height="239.53"/><rect class="cls-3" x="60.94" y="667.67" width="239.53" height="239.53"/><rect class="cls-3" x="337.32" y="667.67" width="239.53" height="239.53"/><rect class="cls-3" x="613.7" y="667.67" width="239.53" height="239.53"/><rect class="cls-3" x="890.08" y="667.67" width="239.53" height="239.53"/><rect class="cls-3" x="60.94" y="944.04" width="239.53" height="239.53"/><rect class="cls-3" x="337.32" y="944.04" width="239.53" height="239.53"/><rect class="cls-3" x="613.7" y="944.04" width="239.53" height="239.53"/><rect class="cls-3" x="890.08" y="944.04" width="239.53" height="239.53"/><rect class="cls-4" x="60.94" y="114.91" width="184.25" height="184.25"/><rect class="cls-4" x="282.05" y="114.91" width="184.25" height="184.25"/><rect class="cls-4" x="503.15" y="114.91" width="184.25" height="184.25"/><rect class="cls-4" x="724.25" y="114.91" width="184.25" height="184.25"/><rect class="cls-4" x="945.35" y="114.91" width="184.25" height="184.25"/><rect class="cls-4" x="60.94" y="336.01" width="184.25" height="184.25"/><rect class="cls-4" x="282.05" y="336.01" width="184.25" height="184.25"/><rect class="cls-4" x="503.15" y="336.01" width="184.25" height="184.25"/><rect class="cls-4" x="724.25" y="336.01" width="184.25" height="184.25"/><rect class="cls-4" x="945.35" y="336.01" width="184.25" height="184.25"/><rect class="cls-4" x="60.94" y="557.11" width="184.25" height="184.25"/><rect class="cls-4" x="282.05" y="557.11" width="184.25" height="184.25"/><rect class="cls-4" x="503.15" y="557.11" width="184.25" height="184.25"/><rect class="cls-4" x="724.25" y="557.11" width="184.25" height="184.25"/><rect class="cls-4" x="945.35" y="557.11" width="184.25" height="184.25"/><rect class="cls-4" x="60.94" y="778.22" width="184.25" height="184.25"/><rect class="cls-4" x="282.05" y="778.22" width="184.25" height="184.25"/><rect class="cls-4" x="503.15" y="778.22" width="184.25" height="184.25"/><rect class="cls-4" x="724.25" y="778.22" width="184.25" height="184.25"/><rect class="cls-4" x="945.35" y="778.22" width="184.25" height="184.25"/><rect class="cls-4" x="60.94" y="999.32" width="184.25" height="184.25"/><rect class="cls-4" x="282.05" y="999.32" width="184.25" height="184.25"/><rect class="cls-4" x="503.15" y="999.32" width="184.25" height="184.25"/><rect class="cls-4" x="724.25" y="999.32" width="184.25" height="184.25"/><rect class="cls-4" x="945.35" y="999.32" width="184.25" height="184.25"/><rect class="cls-5" x="60.94" y="114.91" width="147.4" height="147.4"/><rect class="cls-5" x="245.2" y="114.91" width="147.4" height="147.4"/><rect class="cls-5" x="429.45" y="114.91" width="147.4" height="147.4"/><rect class="cls-5" x="613.7" y="114.91" width="147.4" height="147.4"/><rect class="cls-5" x="797.95" y="114.91" width="147.4" height="147.4"/><rect class="cls-5" x="982.2" y="114.91" width="147.4" height="147.4"/><rect class="cls-5" x="60.94" y="299.16" width="147.4" height="147.4"/><rect class="cls-5" x="245.2" y="299.16" width="147.4" height="147.4"/><rect class="cls-5" x="429.45" y="299.16" width="147.4" height="147.4"/><rect class="cls-5" x="613.7" y="299.16" width="147.4" height="147.4"/><rect class="cls-5" x="797.95" y="299.16" width="147.4" height="147.4"/><rect class="cls-5" x="982.2" y="299.16" width="147.4" height="147.4"/><rect class="cls-5" x="60.94" y="483.41" width="147.4" height="147.4"/><rect class="cls-5" x="245.2" y="483.41" width="147.4" height="147.4"/><rect class="cls-5" x="429.45" y="483.41" width="147.4" height="147.4"/><rect class="cls-5" x="613.7" y="483.41" width="147.4" height="147.4"/><rect class="cls-5" x="797.95" y="483.41" width="147.4" height="147.4"/><rect class="cls-5" x="982.2" y="483.41" width="147.4" height="147.4"/><rect class="cls-5" x="60.94" y="667.67" width="147.4" height="147.4"/><rect class="cls-5" x="245.2" y="667.67" width="147.4" height="147.4"/><rect class="cls-5" x="429.45" y="667.67" width="147.4" height="147.4"/><rect class="cls-5" x="613.7" y="667.67" width="147.4" height="147.4"/><rect class="cls-5" x="797.95" y="667.67" width="147.4" height="147.4"/><rect class="cls-5" x="982.2" y="667.67" width="147.4" height="147.4"/><rect class="cls-5" x="60.94" y="851.92" width="147.4" height="147.4"/><rect class="cls-5" x="245.2" y="851.92" width="147.4" height="147.4"/><rect class="cls-5" x="429.45" y="851.92" width="147.4" height="147.4"/><rect class="cls-5" x="613.7" y="851.92" width="147.4" height="147.4"/><rect class="cls-5" x="797.95" y="851.92" width="147.4" height="147.4"/><rect class="cls-5" x="982.2" y="851.92" width="147.4" height="147.4"/><rect class="cls-5" x="60.94" y="1036.17" width="147.4" height="147.4"/><rect class="cls-5" x="245.2" y="1036.17" width="147.4" height="147.4"/><rect class="cls-5" x="429.45" y="1036.17" width="147.4" height="147.4"/><rect class="cls-5" x="613.7" y="1036.17" width="147.4" height="147.4"/><rect class="cls-5" x="797.95" y="1036.17" width="147.4" height="147.4"/><rect class="cls-5" x="982.2" y="1036.17" width="147.4" height="147.4"/><g class="cls-6"><image width="540" height="960" transform="translate(279.74 134.66) scale(0.96)" xlink:href="../../../Desktop/Strumet/4c25946b72e9b64dd81bb3327f403621.jpg"/></g><g class="cls-7"><image width="500" height="801" transform="translate(26.87)" xlink:href="893407_05.jpg"/></g><text class="cls-8" transform="translate(60.94 165.96)">Alessandra Amati</text><text class="cls-9" transform="translate(60.94 956.2)">Lorem<tspan class="cls-10" x="46.72" y="0"> </tspan><tspan x="51.19" y="0">ipsum</tspan><tspan class="cls-10" x="95.35" y="0"> </tspan><tspan x="99.82" y="0">dolor</tspan><tspan class="cls-11" x="137.94" y="0"> </tspan><tspan x="142.41" y="0">sit</tspan><tspan class="cls-10" x="158.84" y="0"> </tspan><tspan x="163.31" y="0">amet,</tspan><tspan class="cls-10" x="203.49" y="0"> </tspan><tspan x="207.97" y="0">con</tspan><tspan x="234.38" y="0">-</tspan><tspan x="0" y="24">sectetuer</tspan><tspan class="cls-12" x="67.78" y="24"> </tspan><tspan x="71.33" y="24">adipiscing</tspan><tspan class="cls-12" x="142.57" y="24"> </tspan><tspan x="146.12" y="24">elit,</tspan><tspan class="cls-13" x="170.93" y="24"> </tspan><tspan x="174.48" y="24">sed</tspan><tspan class="cls-12" x="200.24" y="24"> </tspan><tspan x="203.79" y="24">diam </tspan><tspan x="0" y="48">nonummy</tspan><tspan class="cls-14" x="73.28" y="48"> </tspan><tspan x="85.66" y="48">nibh</tspan><tspan class="cls-15" x="117.68" y="48"> </tspan><tspan x="130.06" y="48">euismod</tspan><tspan class="cls-14" x="192.37" y="48"> </tspan><tspan x="204.75" y="48">tinci</tspan><tspan x="234.38" y="48">-</tspan><tspan x="0" y="72">dunt</tspan><tspan class="cls-16" x="33.76" y="72"> </tspan><tspan x="38.5" y="72">ut</tspan><tspan class="cls-16" x="53.3" y="72"> </tspan><tspan x="58.04" y="72">laoreet</tspan><tspan class="cls-17" x="108.66" y="72"> </tspan><tspan x="113.4" y="72">dolore</tspan><tspan class="cls-16" x="160.3" y="72"> </tspan><tspan x="165.04" y="72">magna</tspan><tspan class="cls-16" x="213.93" y="72"> </tspan><tspan x="218.67" y="72">ali</tspan><tspan x="234.38" y="72">-</tspan><tspan x="0" y="96">quam</tspan><tspan class="cls-18" x="41.56" y="96"> </tspan><tspan x="47.11" y="96">erat</tspan><tspan class="cls-18" x="75.95" y="96"> </tspan><tspan x="81.5" y="96">volutpat.</tspan><tspan class="cls-19" x="143.8" y="96"> </tspan><tspan x="149.35" y="96">Ut</tspan><tspan class="cls-18" x="166.21" y="96"> </tspan><tspan x="171.76" y="96">wisi</tspan><tspan class="cls-18" x="198.02" y="96"> </tspan><tspan x="203.57" y="96">enim </tspan><tspan x="0" y="120">ad</tspan><tspan class="cls-20" x="18" y="120"> </tspan><tspan x="26.64" y="120">minim</tspan><tspan class="cls-20" x="71.56" y="120"> </tspan><tspan x="80.19" y="120">veniam,</tspan><tspan class="cls-21" x="135.41" y="120"> </tspan><tspan x="144.05" y="120">quis</tspan><tspan class="cls-20" x="174.08" y="120"> </tspan><tspan x="182.72" y="120">nostrud </tspan><tspan x="0" y="144">exerci</tspan><tspan class="cls-22" x="42.98" y="144"> </tspan><tspan x="47.6" y="144">tation</tspan><tspan class="cls-22" x="89.22" y="144"> </tspan><tspan x="93.84" y="144">ullamcorper</tspan><tspan class="cls-22" x="180.85" y="144"> </tspan><tspan x="185.47" y="144">suscipit </tspan><tspan x="0" y="168">lobortis</tspan><tspan class="cls-23" x="54.55" y="168"> </tspan><tspan x="59.21" y="168">nisl</tspan><tspan class="cls-24" x="83.34" y="168"> </tspan><tspan x="88" y="168">ut</tspan><tspan class="cls-24" x="102.8" y="168"> </tspan><tspan x="107.46" y="168">aliquip</tspan><tspan class="cls-23" x="155.28" y="168"> </tspan><tspan x="159.94" y="168">ex</tspan><tspan class="cls-23" x="176.69" y="168"> </tspan><tspan x="181.36" y="168">ea</tspan><tspan class="cls-24" x="198.61" y="168"> </tspan><tspan x="203.28" y="168">com</tspan><tspan x="234.38" y="168">-</tspan><tspan x="0" y="192">modo</tspan><tspan class="cls-25" x="42.4" y="192"> </tspan><tspan x="47.44" y="192">consequat.</tspan><tspan class="cls-25" x="126.69" y="192"> </tspan><tspan x="131.72" y="192">Duis</tspan><tspan class="cls-26" x="163.53" y="192"> </tspan><tspan x="168.57" y="192">autem</tspan><tspan class="cls-25" x="214.75" y="192"> </tspan><tspan x="219.79" y="192">vel </tspan><tspan x="0" y="216">eum</tspan><tspan class="cls-27" x="32.34" y="216"> </tspan><tspan x="39.88" y="216">iriure</tspan><tspan class="cls-27" x="77.78" y="216"> </tspan><tspan x="85.31" y="216">dolor</tspan><tspan class="cls-28" x="123.43" y="216"> </tspan><tspan x="130.96" y="216">in</tspan><tspan class="cls-27" x="144.02" y="216"> </tspan><tspan x="151.55" y="216">hendrerit</tspan><tspan class="cls-27" x="218.94" y="216"> </tspan><tspan x="226.47" y="216">in </tspan></text><text class="cls-29" transform="translate(520.01 493.1)"><tspan class="cls-30"> </tspan><tspan x="1.85" y="0">Lorem</tspan><tspan class="cls-31" x="26.57" y="0" xml:space="preserve"> i</tspan><tspan x="31.21" y="0">ps</tspan><tspan class="cls-32" x="38.36" y="0">u</tspan><tspan x="43.3" y="0">m</tspan><tspan class="cls-30" x="51.19" y="0"> </tspan><tspan x="53.05" y="0">d</tspan><tspan class="cls-33" x="58.21" y="0">o</tspan><tspan x="61.81" y="0">lor</tspan><tspan class="cls-31" x="72.26" y="0"> </tspan><tspan x="74.11" y="0">sit</tspan><tspan class="cls-30" x="82.73" y="0"> </tspan><tspan class="cls-33" x="84.58" y="0">a</tspan><tspan x="89.29" y="0">met,</tspan><tspan class="cls-31" x="105.66" y="0" xml:space="preserve"> c</tspan><tspan x="110.5" y="0">onsectet</tspan><tspan class="cls-33" x="138.12" y="0">u</tspan><tspan x="143" y="0">er</tspan><tspan class="cls-30" x="150.21" y="0"> </tspan><tspan x="152.06" y="0">ad</tspan><tspan class="cls-32" x="162.13" y="0">i</tspan><tspan x="164.92" y="0">pisc</tspan><tspan class="cls-34" x="178.14" y="0">i</tspan><tspan x="180.93" y="0">ng</tspan><tspan class="cls-30" x="190.35" y="0"> </tspan><tspan class="cls-35" x="192.2" y="0">e</tspan><tspan x="195.36" y="0">lit,</tspan><tspan class="cls-31" x="206.23" y="0"> </tspan><tspan x="208.08" y="0">sed</tspan><tspan class="cls-30" x="219.41" y="0"> </tspan><tspan x="221.26" y="0">di</tspan><tspan class="cls-33" x="229.36" y="0">a</tspan><tspan x="234.07" y="0">m</tspan><tspan class="cls-31" x="241.96" y="0"> </tspan><tspan x="243.82" y="0">non</tspan><tspan class="cls-32" x="258.16" y="0">u</tspan><tspan x="263.1" y="0">m</tspan><tspan x="270.99" y="0">-</tspan><tspan class="cls-33" x="0" y="24">m</tspan><tspan x="7.69" y="24">y</tspan><tspan class="cls-36" x="11.74" y="24"> </tspan><tspan x="17.12" y="24">n</tspan><tspan class="cls-35" x="22.39" y="24">i</tspan><tspan class="cls-37" x="25.08" y="24">b</tspan><tspan x="29.37" y="24">h</tspan><tspan class="cls-36" x="34.25" y="24"> </tspan><tspan x="39.62" y="24">euismod</tspan><tspan class="cls-36" x="70.67" y="24"> </tspan><tspan x="76.05" y="24">t</tspan><tspan class="cls-34" x="78.97" y="24">i</tspan><tspan x="81.76" y="24">nc</tspan><tspan class="cls-33" x="90.16" y="24">i</tspan><tspan x="92.9" y="24">d</tspan><tspan class="cls-32" x="98.06" y="24">u</tspan><tspan x="103" y="24">nt</tspan><tspan class="cls-38" x="111.19" y="24"> </tspan><tspan x="116.56" y="24">ut</tspan><tspan class="cls-36" x="124.57" y="24"> </tspan><tspan x="129.95" y="24">laoreet</tspan><tspan class="cls-36" x="155.05" y="24"> </tspan><tspan x="160.43" y="24">d</tspan><tspan class="cls-33" x="165.59" y="24">o</tspan><tspan x="169.19" y="24">lore</tspan><tspan class="cls-36" x="183.05" y="24"> </tspan><tspan x="188.42" y="24">magna</tspan><tspan class="cls-36" x="215.55" y="24"> </tspan><tspan class="cls-33" x="220.93" y="24">a</tspan><tspan x="225.64" y="24">l</tspan><tspan class="cls-37" x="228.5" y="24">i</tspan><tspan x="231.24" y="24">qu</tspan><tspan class="cls-33" x="241.06" y="24">a</tspan><tspan x="245.77" y="24">m</tspan><tspan class="cls-36" x="253.66" y="24"> </tspan><tspan x="259.04" y="24">e</tspan><tspan class="cls-39" x="262.45" y="24">r</tspan><tspan x="265.84" y="24">at </tspan></text><text y="53.96"></text><text y="53.96"></text><text class="cls-9" transform="translate(779.65 155.03)">Lorem<tspan class="cls-40" x="46.72" y="0"> </tspan><tspan x="59.58" y="0">ipsum</tspan><tspan class="cls-40" x="103.74" y="0"> </tspan><tspan x="116.6" y="0">dolor</tspan><tspan class="cls-40" x="154.72" y="0"> </tspan><tspan x="167.58" y="0">sit </tspan><tspan x="-31.78" y="24">amet,</tspan><tspan class="cls-41" x="8.4" y="24"> </tspan><tspan x="14.12" y="24">consectetuer</tspan><tspan class="cls-42" x="108.31" y="24"> </tspan><tspan x="114.03" y="24">adipiscing</tspan><tspan class="cls-41" x="185.26" y="24"> </tspan><tspan x="190.98" y="24">elit, </tspan><tspan x="-53.05" y="48">sed</tspan><tspan class="cls-43" x="-27.3" y="48"> </tspan><tspan x="-22.05" y="48">diam</tspan><tspan class="cls-44" x="13.69" y="48"> </tspan><tspan x="18.94" y="48">nonummy</tspan><tspan class="cls-43" x="92.22" y="48"> </tspan><tspan x="97.46" y="48">nibh</tspan><tspan class="cls-44" x="129.48" y="48"> </tspan><tspan x="134.73" y="48">euismod</tspan><tspan class="cls-43" x="197.04" y="48"> </tspan><tspan x="202.28" y="48">tinci</tspan><tspan x="231.92" y="48">-</tspan><tspan x="-68.04" y="72">dunt</tspan><tspan class="cls-45" x="-34.28" y="72"> </tspan><tspan x="-27.78" y="72">ut</tspan><tspan class="cls-46" x="-12.98" y="72"> </tspan><tspan x="-6.48" y="72">laoreet</tspan><tspan class="cls-45" x="44.14" y="72"> </tspan><tspan x="50.64" y="72">dolore</tspan><tspan class="cls-45" x="97.54" y="72"> </tspan><tspan x="104.04" y="72">magna</tspan><tspan class="cls-46" x="152.93" y="72"> </tspan><tspan x="159.43" y="72">aliquam</tspan><tspan class="cls-45" x="216.71" y="72"> </tspan><tspan x="223.21" y="72">erat </tspan><tspan x="-78.38" y="96">volutpat.</tspan><tspan class="cls-47" x="-16.08" y="96"> </tspan><tspan x="-12.67" y="96">Ut</tspan><tspan class="cls-48" x="4.19" y="96"> </tspan><tspan x="7.6" y="96">wisi</tspan><tspan class="cls-48" x="33.86" y="96"> </tspan><tspan x="37.26" y="96">enim</tspan><tspan class="cls-47" x="73.22" y="96"> </tspan><tspan x="76.63" y="96">ad</tspan><tspan class="cls-47" x="94.63" y="96"> </tspan><tspan x="98.04" y="96">minim</tspan><tspan class="cls-48" x="142.96" y="96"> </tspan><tspan x="146.37" y="96">veniam,</tspan><tspan class="cls-48" x="201.58" y="96"> </tspan><tspan x="204.99" y="96">quis</tspan><tspan class="cls-47" x="235.02" y="96"> </tspan><tspan x="238.43" y="96">no</tspan><tspan x="257.24" y="96">-</tspan><tspan x="-84.87" y="120">strud</tspan><tspan class="cls-49" x="-46.87" y="120"> </tspan><tspan x="-39.76" y="120">exerci</tspan><tspan class="cls-50" x="3.21" y="120"> </tspan><tspan x="10.32" y="120">tation</tspan><tspan class="cls-49" x="51.94" y="120"> </tspan><tspan x="59.05" y="120">ullamcorper</tspan><tspan class="cls-50" x="146.06" y="120"> </tspan><tspan x="153.17" y="120">suscipit</tspan><tspan class="cls-49" x="207.23" y="120"> </tspan><tspan x="214.34" y="120">lobortis </tspan><tspan x="-87.95" y="144">nisl</tspan><tspan class="cls-51" x="-63.82" y="144"> </tspan><tspan x="-56.02" y="144">ut</tspan><tspan class="cls-52" x="-41.22" y="144"> </tspan><tspan x="-33.42" y="144">aliquip</tspan><tspan class="cls-53" x="14.39" y="144"> </tspan><tspan x="22.19" y="144">ex</tspan><tspan class="cls-52" x="38.94" y="144"> </tspan><tspan x="46.74" y="144">ea</tspan><tspan class="cls-53" x="64" y="144"> </tspan><tspan x="71.8" y="144">commodo</tspan><tspan class="cls-52" x="145.3" y="144"> </tspan><tspan x="153.1" y="144">consequat.</tspan><tspan class="cls-53" x="232.35" y="144"> </tspan><tspan x="240.15" y="144">Duis </tspan><tspan x="-86.72" y="168">autem</tspan><tspan class="cls-54" x="-40.54" y="168"> </tspan><tspan x="-36.62" y="168">vel</tspan><tspan class="cls-55" x="-16.88" y="168"> </tspan><tspan x="-12.97" y="168">eum</tspan><tspan class="cls-54" x="19.38" y="168"> </tspan><tspan x="23.29" y="168">iriure</tspan><tspan class="cls-55" x="61.2" y="168"> </tspan><tspan x="65.11" y="168">dolor</tspan><tspan class="cls-54" x="103.23" y="168"> </tspan><tspan x="107.14" y="168">in</tspan><tspan class="cls-55" x="120.2" y="168"> </tspan><tspan x="124.11" y="168">hendrerit</tspan><tspan class="cls-54" x="191.5" y="168"> </tspan><tspan x="195.41" y="168">in</tspan><tspan class="cls-55" x="208.47" y="168"> </tspan><tspan x="212.38" y="168">vulputa</tspan><tspan x="265.58" y="168">-</tspan><tspan x="-81.86" y="192">te</tspan><tspan class="cls-56" x="-67.72" y="192"> </tspan><tspan x="-63.24" y="192">velit</tspan><tspan class="cls-57" x="-34.52" y="192"> </tspan><tspan x="-30.04" y="192">esse</tspan><tspan class="cls-58" x="2.43" y="192"> </tspan><tspan x="6.91" y="192">molestie</tspan><tspan class="cls-58" x="68.02" y="192"> </tspan><tspan x="72.49" y="192">consequat,</tspan><tspan class="cls-57" x="151.38" y="192"> </tspan><tspan x="155.86" y="192">vel</tspan><tspan class="cls-58" x="175.6" y="192"> </tspan><tspan x="180.08" y="192">illum</tspan><tspan class="cls-58" x="214.49" y="192"> </tspan><tspan x="218.97" y="192">dolore </tspan><tspan x="-73.39" y="216">eu</tspan><tspan class="cls-59" x="-55.17" y="216"> </tspan><tspan x="-50.8" y="216">feugiat</tspan><tspan class="cls-59" x="-1.96" y="216"> </tspan><tspan x="2.41" y="216">nulla</tspan><tspan class="cls-60" x="37" y="216"> </tspan><tspan x="41.37" y="216">facilisis</tspan><tspan class="cls-59" x="91.62" y="216"> </tspan><tspan x="95.99" y="216">at</tspan><tspan class="cls-59" x="109.82" y="216"> </tspan><tspan x="114.19" y="216">vero</tspan><tspan class="cls-59" x="145.92" y="216"> </tspan><tspan x="150.29" y="216">eros</tspan><tspan class="cls-59" x="182.13" y="216"> </tspan><tspan x="186.5" y="216">et</tspan><tspan class="cls-60" x="200.64" y="216"> </tspan><tspan x="205.01" y="216">accum</tspan><tspan x="252.25" y="216">-</tspan><tspan x="-60.71" y="240">san</tspan><tspan class="cls-61" x="-35.34" y="240"> </tspan><tspan x="-31.04" y="240">et</tspan><tspan class="cls-62" x="-16.9" y="240"> </tspan><tspan x="-12.61" y="240">iusto</tspan><tspan class="cls-61" x="22.63" y="240"> </tspan><tspan x="26.93" y="240">odio</tspan><tspan class="cls-62" x="58.82" y="240"> </tspan><tspan x="63.11" y="240">dignissim</tspan><tspan class="cls-61" x="130.33" y="240"> </tspan><tspan x="134.62" y="240">qui</tspan><tspan class="cls-62" x="157.2" y="240"> </tspan><tspan x="161.49" y="240">blandit</tspan><tspan class="cls-61" x="211.05" y="240"> </tspan><tspan x="215.34" y="240">pra</tspan><tspan x="239.57" y="240">-</tspan><tspan x="-42.67" y="264">esent</tspan><tspan class="cls-63" x="-2.85" y="264"> </tspan><tspan x="7.74" y="264">luptatum</tspan><tspan class="cls-63" x="73.07" y="264"> </tspan><tspan x="83.67" y="264">zzril</tspan><tspan class="cls-64" x="111.88" y="264"> </tspan><tspan x="122.47" y="264">delenit</tspan><tspan class="cls-63" x="171.58" y="264"> </tspan><tspan x="182.18" y="264">augue </tspan><tspan x="-16.66" y="288">duis</tspan><tspan class="cls-65" x="13.37" y="288"> </tspan><tspan x="24.08" y="288">dolore</tspan><tspan class="cls-66" x="70.98" y="288"> </tspan><tspan x="81.69" y="288">te</tspan><tspan class="cls-65" x="95.83" y="288"> </tspan><tspan x="106.54" y="288">feugait</tspan><tspan class="cls-65" x="155.38" y="288"> </tspan><tspan x="166.09" y="288">nulla </tspan><tspan x="26.12" y="312">facilisi.</tspan></text></svg>