<svg id="Livello_1" data-name="Livello 1" xmlns="http://www.w3.org/2000/svg" xmlns:xlink="http://www.w3.org/1999/xlink" viewBox="0 0 1190.55 1190.55"><defs><style>.cls-1,.cls-3,.cls-4,.cls-5{fill:none;}.cls-2{fill:#c9ff62;}.cls-3{stroke:red;}.cls-3,.cls-4,.cls-5{stroke-miterlimit:10;}.cls-4{stroke:blue;}.cls-5{stroke:#39b54a;}.cls-6{clip-path:url(#clip-path);}.cls-10,.cls-11,.cls-12,.cls-13,.cls-14,.cls-7,.cls-9{isolation:isolate;}.cls-8{clip-path:url(#clip-path-2);}.cls-9{font-size:60px;font-family:OpenSansCondensed-Bold, Open Sans Condensed;font-weight:700;}.cls-10{font-size:16px;font-family:OpenSans-Light, Open Sans;}.cls-11,.cls-12,.cls-13,.cls-14{font-size:10px;font-family:EBGaramond-Italic, EB Garamond;font-style:italic;}.cls-12{letter-spacing:-0.04em;}.cls-13{letter-spacing:-0.02em;}.cls-14{letter-spacing:-0.01em;}</style><clipPath id="clip-path"><rect class="cls-1" x="337.32" y="337.32" width="239.53" height="239.53"/></clipPath><clipPath id="clip-path-2"><circle class="cls-1" cx="733.46" cy="733.46" r="119.76"/></clipPath></defs><title>Tavola disegno 1893537_07</title><g id="Livello_1-2" data-name="Livello 1-2"><g id="Livello_1-2-2" data-name="Livello 1-2-2"><rect class="cls-2" width="1190.55" height="1190.55"/></g><g id="Livello_2" data-name="Livello 2"><rect class="cls-3" x="60.94" y="60.94" width="239.53" height="239.53"/><rect class="cls-3" x="337.32" y="60.94" width="239.53" height="239.53"/><rect class="cls-3" x="613.7" y="60.94" width="239.53" height="239.53"/><rect class="cls-3" x="890.08" y="60.94" width="239.53" height="239.53"/><rect class="cls-3" x="60.94" y="890.08" width="239.53" height="239.53"/><rect class="cls-3" x="337.32" y="890.08" width="239.53" height="239.53"/><rect class="cls-3" x="613.7" y="890.08" width="239.53" height="239.53"/><rect class="cls-3" x="890.08" y="890.08" width="239.53" height="239.53"/><rect class="cls-3" x="60.94" y="613.7" width="239.53" height="239.53"/><rect class="cls-3" x="337.32" y="613.7" width="239.53" height="239.53"/><rect class="cls-3" x="613.7" y="613.7" width="239.53" height="239.53"/><rect class="cls-3" x="890.08" y="613.7" width="239.53" height="239.53"/><rect class="cls-3" x="60.94" y="337.32" width="239.53" height="239.53"/><rect class="cls-3" x="337.32" y="337.32" width="239.53" height="239.53"/><rect class="cls-3" x="613.7" y="337.32" width="239.53" height="239.53"/><rect class="cls-3" x="890.08" y="337.32" width="239.53" height="239.53"/></g><g id="Livello_3" data-name="Livello 3"><rect class="cls-4" x="60.94" y="60.94" width="184.25" height="184.25"/><rect class="cls-4" x="60.94" y="282.05" width="184.25" height="184.25"/><rect class="cls-4" x="60.94" y="503.15" width="184.25" height="184.25"/><rect class="cls-4" x="60.94" y="724.25" width="184.25" height="184.25"/><rect class="cls-4" x="60.94" y="945.36" width="184.25" height="184.25"/><rect class="cls-4" x="282.05" y="60.94" width="184.25" height="184.25"/><rect class="cls-4" x="282.05" y="282.05" width="184.25" height="184.25"/><rect class="cls-4" x="282.05" y="503.15" width="184.25" height="184.25"/><rect class="cls-4" x="282.05" y="724.25" width="184.25" height="184.25"/><rect class="cls-4" x="282.05" y="945.36" width="184.25" height="184.25"/><rect class="cls-4" x="503.15" y="60.94" width="184.25" height="184.25"/><rect class="cls-4" x="503.15" y="282.05" width="184.25" height="184.25"/><rect class="cls-4" x="503.15" y="503.15" width="184.25" height="184.25"/><rect class="cls-4" x="503.15" y="724.25" width="184.25" height="184.25"/><rect class="cls-4" x="503.15" y="945.36" width="184.25" height="184.25"/><rect class="cls-4" x="724.25" y="60.94" width="184.25" height="184.25"/><rect class="cls-4" x="724.25" y="282.05" width="184.25" height="184.25"/><rect class="cls-4" x="724.25" y="503.15" width="184.25" height="184.25"/><rect class="cls-4" x="724.25" y="724.25" width="184.25" height="184.25"/><rect class="cls-4" x="724.25" y="945.36" width="184.25" height="184.25"/><rect class="cls-4" x="945.35" y="60.94" width="184.25" height="184.25"/><rect class="cls-4" x="945.35" y="282.05" width="184.25" height="184.25"/><rect class="cls-4" x="945.35" y="503.15" width="184.25" height="184.25"/><rect class="cls-4" x="945.35" y="724.25" width="184.25" height="184.25"/><rect class="cls-4" x="945.35" y="945.36" width="184.25" height="184.25"/></g><g id="Livello_4" data-name="Livello 4"><rect class="cls-5" x="60.94" y="60.94" width="147.4" height="147.4"/><rect class="cls-5" x="245.2" y="60.94" width="147.4" height="147.4"/><rect class="cls-5" x="429.45" y="60.94" width="147.4" height="147.4"/><rect class="cls-5" x="613.7" y="60.94" width="147.4" height="147.4"/><rect class="cls-5" x="797.95" y="60.94" width="147.4" height="147.4"/><rect class="cls-5" x="982.2" y="60.94" width="147.4" height="147.4"/><rect class="cls-5" x="60.94" y="245.2" width="147.4" height="147.4"/><rect class="cls-5" x="245.2" y="245.2" width="147.4" height="147.4"/><rect class="cls-5" x="429.45" y="245.2" width="147.4" height="147.4"/><rect class="cls-5" x="613.7" y="245.2" width="147.4" height="147.4"/><rect class="cls-5" x="797.95" y="245.2" width="147.4" height="147.4"/><rect class="cls-5" x="982.2" y="245.2" width="147.4" height="147.4"/><rect class="cls-5" x="60.94" y="429.45" width="147.4" height="147.4"/><rect class="cls-5" x="245.2" y="429.45" width="147.4" height="147.4"/><rect class="cls-5" x="429.45" y="429.45" width="147.4" height="147.4"/><rect class="cls-5" x="613.7" y="429.45" width="147.4" height="147.4"/><rect class="cls-5" x="797.95" y="429.45" width="147.4" height="147.4"/><rect class="cls-5" x="982.2" y="429.45" width="147.4" height="147.4"/><rect class="cls-5" x="60.94" y="613.7" width="147.4" height="147.4"/><rect class="cls-5" x="245.2" y="613.7" width="147.4" height="147.4"/><rect class="cls-5" x="429.45" y="613.7" width="147.4" height="147.4"/><rect class="cls-5" x="613.7" y="613.7" width="147.4" height="147.4"/><rect class="cls-5" x="797.95" y="613.7" width="147.4" height="147.4"/><rect class="cls-5" x="982.2" y="613.7" width="147.4" height="147.4"/><rect class="cls-5" x="60.94" y="797.95" width="147.4" height="147.4"/><rect class="cls-5" x="245.2" y="797.95" width="147.4" height="147.4"/><rect class="cls-5" x="429.45" y="797.95" width="147.4" height="147.4"/><rect class="cls-5" x="613.7" y="797.95" width="147.4" height="147.4"/><rect class="cls-5" x="797.95" y="797.95" width="147.4" height="147.4"/><rect class="cls-5" x="982.2" y="797.95" width="147.4" height="147.4"/><rect class="cls-5" x="60.94" y="982.21" width="147.4" height="147.4"/><rect class="cls-5" x="245.2" y="982.21" width="147.4" height="147.4"/><rect class="cls-5" x="429.45" y="982.21" width="147.4" height="147.4"/><rect class="cls-5" x="613.7" y="982.21" width="147.4" height="147.4"/><rect class="cls-5" x="797.95" y="982.21" width="147.4" height="147.4"/><rect class="cls-5" x="982.2" y="982.21" width="147.4" height="147.4"/></g></g><g id="Livello_2-2" data-name="Livello 2-2"><g class="cls-6"><image class="cls-7" width="3072" height="2048" transform="translate(280.91 253.32) scale(0.18)" xlink:href="893537_03.JPG"/></g></g><g id="Livello_3-2" data-name="Livello 3-2"><g class="cls-8"><image class="cls-7" width="960" height="640" transform="translate(567.1 606.84) scale(0.5)" xlink:href="893537_05.jpg"/></g></g><text class="cls-9" transform="translate(327.75 115.24)">SAMANTHA SAN FELICE</text><text class="cls-10" transform="translate(613.7 349.48)">Lorem ipsum dolor sit amet, con</text><text class="cls-10" transform="translate(846.5 349.48)">-</text><text class="cls-10" transform="translate(613.7 373.48)">sectetuer adipiscing elit, sed</text><text class="cls-10" transform="translate(613.7 397.48)">diam nonummy nibh euismod</text><text class="cls-10" transform="translate(613.7 421.48)">tincidunt ut laoreet dolore</text><text class="cls-10" transform="translate(613.7 445.48)">magna aliquam erat volutpat. Ut</text><text class="cls-10" transform="translate(613.7 469.48)">wisi enim ad minim veniam, quis</text><text class="cls-10" transform="translate(613.7 493.48)">nostrud exerci tation ullamcor</text><text class="cls-10" transform="translate(830.06 493.48)">-</text><text class="cls-10" transform="translate(613.7 517.48)">per suscipit lobortis nisl ut ali</text><text class="cls-10" transform="translate(822.25 517.48)">-</text><text class="cls-10" transform="translate(613.7 541.48)">quip ex ea commodo consequat.</text><text class="cls-10" transform="translate(613.7 565.48)">Duis autem vel eum iriure dolor</text><text class="cls-11" transform="translate(619 626.75)">Ma</text><g class="cls-7"><text class="cls-12" transform="translate(633.82 626.75)">g</text><text class="cls-13" transform="translate(637.58 626.75)">a</text></g><text class="cls-11" transform="translate(642.48 626.75)">z</text><text class="cls-14" transform="translate(646.55 626.75)">i</text><text class="cls-11" transform="translate(649.34 626.75)">ne</text><g id="Livello_2-2-2" data-name="Livello 2-2-2"><g class="cls-7"><text class="cls-10" transform="translate(388.43 655.26)">Lorem ipsum dolor </text><text class="cls-10" transform="translate(377.52 679.26)">sit amet, consectetuer </text><text class="cls-10" transform="translate(358.02 703.26)">adipiscing elit, sed diam no</text><text class="cls-10" transform="translate(551 703.26)">-</text><text class="cls-10" transform="translate(344.75 727.26)">nummy nibh euismod tincidunt </text><text class="cls-10" transform="translate(357.74 751.26)">ut laoreet dolore magna ali</text><text class="cls-10" transform="translate(551.27 751.26)">-</text><text class="cls-10" transform="translate(360.86 775.26)">quam erat volutpat. Ut wisi </text><text class="cls-10" transform="translate(373.8 799.26)">enim ad minim veniam, </text><text class="cls-10" transform="translate(388.02 823.26)">quis nostrud exerci </text><text class="cls-10" transform="translate(445.68 847.26)">tati</text></g></g></svg>